<svg xmlns="http://www.w3.org/2000/svg" width="16" height="16" fill="currentColor" class="bi bi-chat-right-text"><path d="M2 1a1 1 0 0 0-1 1v8a1 1 0 0 0 1 1h9.586a2 2 0 0 1 1.414.586l2 2V2a1 1 0 0 0-1-1H2zm12-1a2 2 0 0 1 2 2v12.793a.5.5 0 0 1-.854.353l-2.853-2.853a1 1 0 0 0-.707-.293H2a2 2 0 0 1-2-2V2a2 2 0 0 1 2-2h12z"/><path d="M3 3.5a.5.5 0 0 1 .5-.5h9a.5.5 0 0 1 0 1h-9a.5.5 0 0 1-.5-.5zM3 6a.5.5 0 0 1 .5-.5h9a.5.5 0 0 1 0 1h-9A.5.5 0 0 1 3 6zm0 2.5a.5.5 0 0 1 .5-.5h5a.5.5 0 0 1 0 1h-5a.5.5 0 0 1-.5-.5z"/></svg>