<svg width="16" height="16" fill="none" xmlns="http://www.w3.org/2000/svg"><path fill-rule="evenodd" clip-rule="evenodd" d="M13 5.885v1.166a3.95 3.95 0 0 1-3.949 3.95H6.917a.748.748 0 0 0-.45.15l-1.345 1.007a.752.752 0 0 0-.032 1.181A2.933 2.933 0 0 0 6.95 14h2.716l2.534 1.901a.506.506 0 0 0 .524.047A.501.501 0 0 0 13 15.5V14h.051a2.949 2.949 0 0 0 2.95-2.949v-3.05a3.002 3.002 0 0 0-2.002-2.83.756.756 0 0 0-.999.714" fill="#050505"/><path fill-rule="evenodd" clip-rule="evenodd" d="M9.05 1H2.95A2.952 2.952 0 0 0 0 3.949v3.102A2.952 2.952 0 0 0 2.949 10H3v1.5a.502.502 0 0 0 .8.4L6.334 10H9.05A2.952 2.952 0 0 0 12 7.05V3.95A2.952 2.952 0 0 0 9.05 1" fill="#050505"/></svg>