<svg width="16" height="16" fill="none" xmlns="http://www.w3.org/2000/svg"><path d="M4.648 4.475 1.824 12.25H.67l3.252-8.531h.744l-.018.756Zm2.368 7.775-2.83-7.775-.018-.756h.744l3.264 8.531h-1.16Zm-.147-3.158v.926H2.076v-.926H6.87Zm6.024 2.074V7.902c0-.25-.051-.466-.153-.65a.997.997 0 0 0-.445-.434c-.2-.101-.445-.152-.738-.152-.274 0-.514.047-.721.14a1.255 1.255 0 0 0-.48.37.809.809 0 0 0-.17.492H9.101c0-.227.058-.451.175-.674.118-.223.286-.424.504-.603.223-.184.489-.329.797-.434.313-.11.66-.164 1.043-.164.461 0 .867.078 1.219.234.355.157.633.393.832.71.203.312.305.704.305 1.177v2.953c0 .211.017.436.052.674.04.238.096.443.17.615v.094h-1.13a2.022 2.022 0 0 1-.13-.498 4.011 4.011 0 0 1-.046-.586Zm.187-2.76.012.762h-1.096c-.309 0-.584.025-.826.076a1.89 1.89 0 0 0-.61.217.979.979 0 0 0-.504.879c0 .2.046.38.135.545a.98.98 0 0 0 .405.392c.183.094.408.141.674.141.332 0 .625-.07.878-.211a1.83 1.83 0 0 0 .604-.516c.152-.203.234-.4.246-.591l.463.521a1.572 1.572 0 0 1-.223.545 2.607 2.607 0 0 1-1.2 1.025 2.328 2.328 0 0 1-.927.176c-.43 0-.806-.084-1.13-.252a1.933 1.933 0 0 1-.75-.674 1.784 1.784 0 0 1-.264-.955c0-.34.066-.638.199-.896a1.73 1.73 0 0 1 .574-.65c.25-.176.551-.31.903-.399a4.76 4.76 0 0 1 1.177-.135h1.26Z" fill="#000"/></svg>