<svg xmlns="http://www.w3.org/2000/svg" width="16" height="16" fill="currentColor" class="bi bi-type-h1"><path d="M7.637 13V3.669H6.379V7.62H1.758V3.67H.5V13h1.258V8.728h4.62V13Zm2.755-5.791a3.763 3.763 0 0 1 2.113-.517 2.973 2.973 0 0 1 2.995 3.1 3.45 3.45 0 0 1-.9 2.442 3.111 3.111 0 0 1-2.393.968 3.327 3.327 0 0 1-2.094-.671 2.758 2.758 0 0 1-1.007-2h1.284a1.387 1.387 0 0 0 .511 1.1 2.384 2.384 0 0 0 1.4.421 1.819 1.819 0 0 0 1.479-.638 2.042 2.042 0 0 0 .437-1.514 2.17 2.17 0 0 0-.567-1.584 1.958 1.958 0 0 0-1.468-.58 2.358 2.358 0 0 0-1.79.789H9.108V3.478h5.931v1.134h-4.647Z"/></svg>