<svg xmlns="http://www.w3.org/2000/svg" width="16" height="16" fill="currentColor" class="bi bi-type-h1"><path d="M7.637 13V3.669H6.379V7.62H1.758V3.67H.5V13h1.258V8.728h4.62V13Zm5.039-6.13a2.823 2.823 0 0 1 1.419.364 2.69 2.69 0 0 1 1.022 1.05 3.327 3.327 0 0 1 .383 1.642 3.594 3.594 0 0 1-.39 1.7 2.878 2.878 0 0 1-1.1 1.158 3.165 3.165 0 0 1-1.635.416 2.812 2.812 0 0 1-1.734-.545A3.49 3.49 0 0 1 9.51 11.1a6.515 6.515 0 0 1-.4-2.411A7.726 7.726 0 0 1 9.542 6a4.289 4.289 0 0 1 1.233-1.851 2.831 2.831 0 0 1 1.889-.673A2.7 2.7 0 0 1 13.8 3.7a2.463 2.463 0 0 1 .812.586 2.886 2.886 0 0 1 .514.8 2.768 2.768 0 0 1 .223.861H14a1.488 1.488 0 0 0-.453-.923 1.346 1.346 0 0 0-.935-.329 1.509 1.509 0 0 0-1.072.425 2.839 2.839 0 0 0-.71 1.18 6.808 6.808 0 0 0-.323 1.771 2.639 2.639 0 0 1 .918-.889 2.48 2.48 0 0 1 1.251-.312Zm-.285 5.117a1.617 1.617 0 0 0 .91-.256 1.752 1.752 0 0 0 .614-.713 2.336 2.336 0 0 0 .223-1.037 2.211 2.211 0 0 0-.217-1.01 1.6 1.6 0 0 0-.6-.666 1.671 1.671 0 0 0-.892-.236 1.833 1.833 0 0 0-1.164.377 2.4 2.4 0 0 0-.743 1.009 3.749 3.749 0 0 0 .6 1.845 1.5 1.5 0 0 0 1.269.687Z"/></svg>