<svg width="16" height="16" fill="none" xmlns="http://www.w3.org/2000/svg"><path d="M11.354 6v-.665l1.553-1.438c.132-.128.243-.243.332-.345a1.31 1.31 0 0 0 .207-.3c.047-.1.07-.207.07-.322a.574.574 0 0 0-.326-.545.748.748 0 0 0-.343-.077.721.721 0 0 0-.35.08.557.557 0 0 0-.23.233.753.753 0 0 0-.08.36h-.876c0-.286.065-.534.194-.744.13-.21.31-.373.543-.488.233-.115.502-.172.806-.172.312 0 .584.055.816.166.233.11.414.261.543.456.13.194.194.417.194.669 0 .165-.033.327-.098.488-.064.16-.178.339-.343.535a7.92 7.92 0 0 1-.697.7l-.637.625v.03h1.832V6h-3.11ZM5.04 4.273 6.96 7.469h.068l1.93-3.196h1.803L8.073 8.636 10.805 13H8.972L7.03 9.825h-.068L5.018 13H3.194l2.757-4.364-2.723-4.363H5.04Z" fill="currentColor"/></svg>