<svg width="206" height="51" viewBox="0 0 206 51" fill="none" xmlns="http://www.w3.org/2000/svg">
<path d="M59.3813 40.2546H64.1598V28.3616H72.3267C78.1912 28.3616 82.4918 25.819 82.4918 19.6675C82.4918 13.5159 78.1912 10.9323 72.3267 10.9323H59.3813V40.2546ZM64.1598 24.4657V14.8283H72.1095C75.7151 14.8283 77.5396 16.3456 77.5396 19.6675C77.5396 22.9483 75.7151 24.4657 72.1095 24.4657H64.1598ZM90.7741 40.8287C94.3797 40.8287 96.8992 39.4754 98.3328 37.3018H98.4197C98.6803 39.6804 99.8098 40.4596 101.938 40.4596C102.633 40.4596 103.372 40.3776 104.11 40.2136V37.753C103.85 37.794 103.719 37.794 103.589 37.794C102.764 37.794 102.547 37.0148 102.547 35.4974V25.901C102.547 20.4877 98.8975 18.6832 94.3362 18.6832C87.5595 18.6832 84.7793 21.841 84.5621 25.86H88.9061C89.1233 23.0713 90.2962 21.923 94.1625 21.923C97.4205 21.923 98.3762 23.1943 98.3762 24.7117C98.3762 26.7622 96.2476 27.1723 92.7724 27.7875C87.2554 28.7717 83.5195 30.1661 83.5195 34.8412C83.5195 38.4091 86.3431 40.8287 90.7741 40.8287ZM87.9504 34.5542C87.9504 32.3806 89.6012 31.3554 93.5109 30.6172C95.7698 30.1661 97.6812 29.715 98.3762 29.0998V32.0935C98.3762 35.7435 95.5526 37.5889 91.7298 37.5889C89.0799 37.5889 87.9504 36.5227 87.9504 34.5542ZM109.915 47.5954C113.347 47.5954 115.476 45.914 117.604 40.7467L126.379 19.3394H121.905L115.823 35.3334H115.736L109.264 19.3394H104.615L113.564 40.0495C112.695 43.3303 110.697 44.1505 109.003 44.1505C108.308 44.1505 107.917 44.1095 107.178 44.0275V47.3083C108.308 47.5134 108.96 47.5954 109.915 47.5954ZM128.981 40.2546H133.238V10.9323H128.981V40.2546ZM147.921 40.8697C154.828 40.8697 158.998 36.3176 158.998 29.756C158.998 23.2353 154.828 18.6832 147.964 18.6832C141.014 18.6832 136.844 23.2764 136.844 29.797C136.844 36.3586 141.014 40.8697 147.921 40.8697ZM141.275 29.797C141.275 25.4089 143.36 22.046 147.964 22.046C152.482 22.046 154.567 25.4089 154.567 29.797C154.567 34.1441 152.482 37.5479 147.964 37.5479C143.36 37.5479 141.275 34.1441 141.275 29.797ZM168.747 40.8287C172.352 40.8287 174.872 39.4754 176.305 37.3018H176.392C176.653 39.6804 177.782 40.4596 179.911 40.4596C180.606 40.4596 181.345 40.3776 182.083 40.2136V37.753C181.822 37.794 181.692 37.794 181.562 37.794C180.736 37.794 180.519 37.0148 180.519 35.4974V25.901C180.519 20.4877 176.87 18.6832 172.309 18.6832C165.532 18.6832 162.752 21.841 162.535 25.86H166.879C167.096 23.0713 168.269 21.923 172.135 21.923C175.393 21.923 176.349 23.1943 176.349 24.7117C176.349 26.7622 174.22 27.1723 170.745 27.7875C165.228 28.7717 161.492 30.1661 161.492 34.8412C161.492 38.4091 164.316 40.8287 168.747 40.8287ZM165.923 34.5542C165.923 32.3806 167.574 31.3554 171.484 30.6172C173.742 30.1661 175.654 29.715 176.349 29.0998V32.0935C176.349 35.7435 173.525 37.5889 169.703 37.5889C167.053 37.5889 165.923 36.5227 165.923 34.5542ZM194.306 40.8287C197.781 40.8287 199.91 39.2703 201.126 37.794H201.213V40.2546H205.47V10.9323H201.213V21.882H201.126C199.91 20.2416 197.781 18.7242 194.306 18.7242C188.659 18.7242 184.358 22.9073 184.358 29.797C184.358 36.6867 188.659 40.8287 194.306 40.8287ZM188.789 29.797C188.789 25.696 190.831 22.0871 195.001 22.0871C198.824 22.0871 201.17 25.0398 201.17 29.797C201.17 34.5132 198.824 37.5069 195.001 37.5069C190.831 37.5069 188.789 33.898 188.789 29.797Z" fill="white"/>
<mask id="mask0_286_398" style="mask-type:luminance" maskUnits="userSpaceOnUse" x="0" y="0" width="50" height="51">
<path d="M49.1069 0.467075H0V50.3925H49.1069V0.467075Z" fill="white"/>
</mask>
<g mask="url(#mask0_286_398)">
<mask id="mask1_286_398" style="mask-type:luminance" maskUnits="userSpaceOnUse" x="7" y="0" width="35" height="46">
<path d="M41.7407 0.46706H7.36584V45.4H41.7407V0.46706Z" fill="white"/>
</mask>
<g mask="url(#mask1_286_398)">
<path d="M23.1296 3.41435L42.0938 15.0037V37.0013L27.8139 45.4V23.4025L8.82703 11.8283L23.1296 3.41435Z" fill="white"/>
<path d="M21.676 44.1804V27.015L7.36584 35.429L21.676 44.1804Z" fill="white"/>
</g>
</g>
</svg>
