<?xml version="1.0" standalone="no"?>
<!DOCTYPE svg PUBLIC "-//W3C//DTD SVG 1.1//EN" "http://www.w3.org/Graphics/SVG/1.1/DTD/svg11.dtd" >
<svg xmlns="http://www.w3.org/2000/svg">
<metadata></metadata>
<defs>
<font id="calibre_regularregular" horiz-adv-x="657" >
<font-face units-per-em="2048" ascent="1331" descent="-717" />
<missing-glyph horiz-adv-x="452" />
<glyph horiz-adv-x="2048" />
<glyph horiz-adv-x="2048" />
<glyph unicode="&#xd;" horiz-adv-x="2048" />
<glyph unicode=" "  horiz-adv-x="452" />
<glyph unicode="&#x09;" horiz-adv-x="452" />
<glyph unicode="&#xa0;" horiz-adv-x="452" />
<glyph unicode="!" horiz-adv-x="415" d="M98 100q0 47 32 80t77 33q46 0 78 -33t32 -80t-32 -78.5t-78 -31.5q-45 0 -77 31.5t-32 78.5zM117 1257h182l-37 -862h-110z" />
<glyph unicode="&#x22;" horiz-adv-x="542" d="M82 809v448h135v-448h-135zM326 809v448h135v-448h-135z" />
<glyph unicode="#" horiz-adv-x="1179" d="M47 360l27 121h198l70 295h-209l25 121h213l86 360h139l-88 -360h289l88 360h137l-86 -360h194l-24 -121h-199l-69 -295h209l-25 -121h-213l-86 -360h-139l86 360h-289l-86 -360h-137l86 360h-197zM410 481h288l70 295h-289z" />
<glyph unicode="$" horiz-adv-x="976" d="M55 340h156q66 -188 293 -188q118 0 189 53.5t71 148.5q0 71 -43.5 116t-142.5 71l-209 55q-285 72 -285 311q0 140 96 230.5t250 101.5v184h141v-190q132 -23 215 -102t113 -203h-151q-28 83 -97.5 131.5t-181.5 48.5q-106 0 -172 -52t-66 -141q0 -73 46 -114.5 t143 -67.5l198 -51q291 -77 291 -322q0 -144 -93 -233t-245 -107v-202h-141v202q-148 18 -247 100.5t-128 219.5z" />
<glyph unicode="%" horiz-adv-x="1314" d="M68 1004q0 114 79 193t193 79t193 -79t79 -193t-79 -193.5t-193 -79.5t-193 79.5t-79 193.5zM188 1004q0 -63 44.5 -107.5t107.5 -44.5t108.5 44.5t45.5 107.5t-45.5 108t-108.5 45t-107.5 -45t-44.5 -108zM203 0l784 1257h127l-784 -1257h-127zM702 254q0 114 79.5 193 t193.5 79t193 -79t79 -193t-79 -193t-193 -79t-193.5 79t-79.5 193zM821 254q0 -63 45.5 -108.5t108.5 -45.5t107 45.5t44 108.5t-44 107.5t-107 44.5t-108.5 -44.5t-45.5 -107.5z" />
<glyph unicode="&#x26;" horiz-adv-x="1198" d="M80 367q0 111 63.5 203t165.5 141q-50 62 -75 119.5t-25 127.5q0 145 97 231.5t247 86.5q154 0 242 -86t94 -219h-154q-5 80 -52.5 130t-129.5 50q-84 0 -139.5 -50.5t-55.5 -137.5q0 -27 8.5 -54t17.5 -45t32.5 -48t34.5 -42t43 -47l352 -375q53 121 59 279h144 q-6 -213 -109 -381l236 -250h-203l-125 131q-149 -149 -361 -149q-179 0 -293 108.5t-114 276.5zM227 367q0 -113 72.5 -184.5t187.5 -71.5q169 0 275 112l-367 391q-74 -28 -121 -95.5t-47 -151.5z" />
<glyph unicode="'" horiz-adv-x="303" d="M82 809v448h139v-448h-139z" />
<glyph unicode="(" d="M61 580q0 281 148 483t401 268v-164q-171 -43 -283 -200.5t-112 -386.5t112 -387t283 -201v-164q-252 66 -400.5 268.5t-148.5 483.5z" />
<glyph unicode=")" d="M47 -8q171 43 283 201t112 387t-112 386.5t-283 200.5v164q253 -66 401 -268t148 -483t-148.5 -483.5t-400.5 -268.5v164z" />
<glyph unicode="*" horiz-adv-x="679" d="M63 930l185 106l-185 109l46 78l186 -107v213h90v-213l186 107l45 -78l-186 -109l186 -106l-45 -78l-186 106v-215h-90v215l-186 -106z" />
<glyph unicode="+" horiz-adv-x="1105" d="M150 545v127h339v340h127v-340h340v-127h-340v-340h-127v340h-339z" />
<glyph unicode="," horiz-adv-x="350" d="M27 -219l129 217q-40 6 -65 32.5t-25 69.5q0 47 32 78t78 31q47 0 78 -32t31 -87q0 -59 -45 -129l-109 -180h-104z" />
<glyph unicode="-" d="M82 463v143h493v-143h-493z" />
<glyph unicode="." horiz-adv-x="350" d="M66 100q0 47 32 80t78 33q45 0 77 -33t32 -80t-32 -78.5t-77 -31.5q-46 0 -78 31.5t-32 78.5z" />
<glyph unicode="/" horiz-adv-x="681" d="M10 -172l508 1503h154l-508 -1503h-154z" />
<glyph unicode="0" horiz-adv-x="1101" d="M82 629q0 288 129.5 467.5t339.5 179.5t339.5 -179.5t129.5 -467.5t-129.5 -467.5t-339.5 -179.5t-339.5 179.5t-129.5 467.5zM240 629q0 -148 34.5 -260t105.5 -177t171 -65q148 0 229.5 138t81.5 364q0 148 -35 260t-106 176.5t-170 64.5q-100 0 -171 -64.5 t-105.5 -176.5t-34.5 -260z" />
<glyph unicode="1" horiz-adv-x="673" d="M51 905v164l373 191h96v-1260h-158v1065z" />
<glyph unicode="2" horiz-adv-x="935" d="M59 0v106l406 447q125 137 162 187q71 99 71 180q0 97 -61.5 155t-165.5 58q-110 0 -173.5 -69.5t-72.5 -182.5h-166q19 177 130 286t282 109q179 0 281 -96t102 -258q0 -29 -7 -59.5t-14 -53.5t-27.5 -56.5t-30 -49.5t-40.5 -54t-40.5 -49t-48.5 -54.5t-46 -51.5 l-319 -351h600v-143h-822z" />
<glyph unicode="3" horiz-adv-x="942" d="M35 358h158q18 -111 89 -174t187 -63q113 0 182.5 62.5t69.5 166.5q0 103 -73 164t-183 61h-88v138h84q103 0 169 56t66 155q0 93 -62.5 153t-166.5 60q-103 0 -169.5 -61.5t-80.5 -162.5h-158q24 162 133.5 262.5t274.5 100.5q177 0 280 -95.5t103 -248.5 q0 -103 -55 -181.5t-142 -105.5q101 -29 161 -108t60 -185q0 -160 -109.5 -265t-293.5 -105t-302.5 102.5t-133.5 273.5z" />
<glyph unicode="4" horiz-adv-x="1042" d="M45 285v114l483 858h164l-469 -837h402v303h149v-303h221v-135h-221v-285h-149v285h-580z" />
<glyph unicode="5" horiz-adv-x="960" d="M55 358h158q21 -113 89.5 -175t184.5 -62q113 0 184.5 78t71.5 198t-72 199.5t-186 79.5q-133 0 -223 -109h-127v690h688v-143h-553v-379q36 33 97.5 56.5t132.5 23.5q173 0 284 -118t111 -300q0 -179 -115 -297t-293 -118q-180 0 -295 100.5t-137 275.5z" />
<glyph unicode="6" horiz-adv-x="1024" d="M82 606q0 304 127.5 487t333.5 183q312 0 391 -311h-160q-59 178 -231 178q-137 0 -227.5 -138.5t-90.5 -342.5q0 -6 1 -28t1 -28q31 95 119.5 155t198.5 60q179 0 293 -122t114 -296q0 -178 -116.5 -299.5t-305.5 -121.5q-124 0 -220 60.5t-154 178.5q-74 158 -74 385z M260 401q0 -124 75.5 -203t196.5 -79q119 0 195 79t76 203q0 126 -76 206.5t-195 80.5q-120 0 -196 -80t-76 -207z" />
<glyph unicode="7" horiz-adv-x="901" d="M37 1114v143h813v-124l-449 -1133h-161l444 1114h-647z" />
<glyph unicode="8" horiz-adv-x="997" d="M70 342q0 120 68.5 205.5t176.5 114.5q-90 32 -145 107t-55 175q0 149 109.5 240.5t273.5 91.5q165 0 275 -91.5t110 -240.5q0 -100 -56 -175t-145 -107q107 -29 176.5 -115t69.5 -205q0 -161 -122 -260.5t-308 -99.5q-184 0 -306 100t-122 260zM225 354q0 -107 77 -174 t196 -67q120 0 197 67t77 174q0 106 -77 173t-197 67q-119 0 -196 -67.5t-77 -172.5zM268 936q0 -91 66 -149t164 -58q99 0 165 58t66 149q0 93 -65.5 151t-165.5 58q-98 0 -164 -58.5t-66 -150.5z" />
<glyph unicode="9" horiz-adv-x="1024" d="M72 854q0 178 116.5 300t305.5 122q124 0 220 -61t154 -179q74 -158 74 -385q0 -304 -127.5 -486.5t-333.5 -182.5q-312 0 -391 311h160q59 -178 231 -178q137 0 227.5 138.5t90.5 342.5q0 6 -1 27.5t-1 27.5q-31 -95 -119.5 -155t-198.5 -60q-179 0 -293 122t-114 296z M221 856q0 -126 76 -206.5t195 -80.5q120 0 196 80t76 207q0 124 -75.5 203.5t-196.5 79.5q-119 0 -195 -79.5t-76 -203.5z" />
<glyph unicode=":" horiz-adv-x="350" d="M66 100q0 47 32 80t78 33q45 0 77 -33t32 -80t-32 -78.5t-77 -31.5q-46 0 -78 31.5t-32 78.5zM66 743q0 47 32 80t78 33q45 0 77 -33t32 -80t-32 -78.5t-77 -31.5q-46 0 -78 31.5t-32 78.5z" />
<glyph unicode=";" horiz-adv-x="350" d="M27 -219l129 217q-40 6 -65 32.5t-25 69.5q0 47 32 78t78 31q47 0 78 -32t31 -87q0 -59 -45 -129l-109 -180h-104zM66 743q0 47 32 80t78 33q45 0 77 -33t32 -80t-32 -78.5t-77 -31.5q-46 0 -78 31.5t-32 78.5z" />
<glyph unicode="&#x3c;" horiz-adv-x="866" d="M127 524v160l606 309v-145l-487 -244l487 -244v-145z" />
<glyph unicode="=" horiz-adv-x="1128" d="M162 408v118h807v-118h-807zM162 690v123h807v-123h-807z" />
<glyph unicode="&#x3e;" horiz-adv-x="866" d="M133 215v145l488 244l-488 244v145l608 -309v-160z" />
<glyph unicode="?" horiz-adv-x="884" d="M41 881q19 177 130.5 286t281.5 109q179 0 281 -95t102 -257q0 -22 -4 -44.5t-8 -41t-15.5 -41t-18 -36.5t-23.5 -37t-24 -33t-29 -34.5t-28 -31t-30.5 -32.5t-28.5 -30q-49 -52 -67.5 -90t-20.5 -78h-152q4 74 29.5 125t89.5 121q14 16 45 48t48.5 53t39 51.5t31.5 62 t10 66.5q0 97 -61.5 154t-165.5 57q-109 0 -173 -69t-73 -183h-166zM348 100q0 47 32 80t77 33q46 0 78 -33t32 -80t-32 -78.5t-78 -31.5q-45 0 -77 31.5t-32 78.5z" />
<glyph unicode="@" horiz-adv-x="1585" d="M66 385q0 159 56.5 301t156.5 246.5t246 165.5t317 61q148 0 275.5 -46t215.5 -126.5t137.5 -192t49.5 -239.5q0 -121 -33.5 -217.5t-90.5 -155.5t-127.5 -90t-148.5 -31q-73 0 -128.5 31.5t-76.5 87.5q-31 -51 -89 -84t-119 -33q-125 0 -198 86t-73 218 q0 112 46.5 210.5t133 160t193.5 61.5q64 0 113 -27.5t73 -66.5l15 75h137l-88 -497q-10 -60 10.5 -85.5t71.5 -25.5q112 0 184 102.5t72 280.5q0 220 -155.5 354.5t-399.5 134.5q-189 0 -337.5 -85.5t-230 -235.5t-81.5 -338q0 -126 38.5 -228t102 -167.5t149 -109.5 t175.5 -62.5t186 -18.5q234 0 444 95v-117q-83 -40 -200 -66t-244 -26q-122 0 -233.5 25t-211.5 80t-173.5 135.5t-116.5 198.5t-43 261zM578 373q0 -83 42 -133t115 -50q109 0 187 119l47 254q-18 48 -58.5 78.5t-93.5 30.5q-105 0 -172 -91t-67 -208z" />
<glyph unicode="A" horiz-adv-x="1220" d="M43 0l492 1257h151l492 -1257h-164l-146 379h-518l-143 -379h-164zM403 520h410l-205 537z" />
<glyph unicode="B" horiz-adv-x="1101" d="M150 0v1257h413q197 0 306.5 -86t109.5 -247q0 -106 -52.5 -177t-131.5 -96q101 -26 164 -108.5t63 -188.5q0 -170 -111 -262t-307 -92h-454zM307 141h297q125 0 192.5 58.5t67.5 158.5q0 101 -67 159t-193 58h-297v-434zM307 711h256q260 0 260 204q0 201 -260 201h-256 v-405z" />
<glyph unicode="C" horiz-adv-x="1200" d="M76 629q0 144 43.5 265.5t119 205t179 130t221.5 46.5q194 0 322 -104.5t167 -282.5h-159q-85 241 -330 241q-180 0 -290.5 -138.5t-110.5 -362.5t110 -363t291 -139q245 0 330 244h159q-39 -180 -167 -284.5t-322 -104.5q-118 0 -221.5 46.5t-179 130t-119 205 t-43.5 265.5z" />
<glyph unicode="D" horiz-adv-x="1239" d="M150 0v1257h403q277 0 443.5 -170.5t166.5 -457.5t-166.5 -458t-443.5 -171h-403zM311 145h240q212 0 332.5 130.5t120.5 353.5t-120.5 354t-332.5 131h-240v-969z" />
<glyph unicode="E" horiz-adv-x="1054" d="M150 0v1257h800v-143h-641v-397h582v-144h-582v-428h641v-145h-800z" />
<glyph unicode="F" horiz-adv-x="993" d="M150 0v1257h768v-143h-607v-424h570v-143h-570v-547h-161z" />
<glyph unicode="G" horiz-adv-x="1249" d="M76 629q0 144 44.5 266t121.5 205t182 129.5t225 46.5q197 0 327 -104.5t169 -282.5h-162q-87 241 -334 241q-184 0 -297.5 -138t-113.5 -363q0 -226 114 -365t301 -139q162 0 257.5 95t109.5 261h-301v140h455v-86q0 -250 -144.5 -401.5t-376.5 -151.5 q-250 0 -413.5 178.5t-163.5 468.5z" />
<glyph unicode="H" horiz-adv-x="1333" d="M150 0v1257h161v-538h711v538h162v-1257h-162v573h-711v-573h-161z" />
<glyph unicode="I" horiz-adv-x="460" d="M150 0v1257h161v-1257h-161z" />
<glyph unicode="J" horiz-adv-x="980" d="M35 356h166q12 -107 75 -167t168 -60q120 0 185 70.5t65 218.5v839h162v-839q0 -213 -111.5 -324.5t-298.5 -111.5q-182 0 -290.5 102t-120.5 272z" />
<glyph unicode="K" horiz-adv-x="1155" d="M150 0v1257h161v-628l586 628h205l-539 -573l557 -684h-200l-474 573l-135 -145v-428h-161z" />
<glyph unicode="L" horiz-adv-x="1032" d="M150 0v1257h161v-1112h641v-145h-802z" />
<glyph unicode="M" horiz-adv-x="1507" d="M150 0v1257h182l426 -1032l424 1032h176v-1257h-154v958l-393 -958h-111l-397 958v-958h-153z" />
<glyph unicode="N" horiz-adv-x="1275" d="M150 0v1257h153l670 -956v956h153v-1257h-118l-703 999v-999h-155z" />
<glyph unicode="O" horiz-adv-x="1288" d="M76 629q0 285 159.5 466t407.5 181q123 0 228.5 -48t180.5 -132.5t117.5 -205t42.5 -261.5q0 -284 -160 -465.5t-409 -181.5q-163 0 -292.5 82t-202 230t-72.5 335zM238 629q0 -222 112 -362t293 -140q182 0 295 140t113 362t-113 361.5t-295 139.5q-181 0 -293 -139.5 t-112 -361.5z" />
<glyph unicode="P" horiz-adv-x="1099" d="M150 0v1257h471q194 0 303.5 -96.5t109.5 -279.5q0 -182 -110 -279.5t-303 -97.5h-310v-504h-161zM311 647h305q125 0 191.5 63t66.5 171q0 109 -66.5 172t-191.5 63h-305v-469z" />
<glyph unicode="Q" horiz-adv-x="1286" d="M76 629q0 285 159.5 466t407.5 181q123 0 228.5 -48t180.5 -132.5t117.5 -205t42.5 -261.5q0 -150 -48 -275t-134 -213l105 -131l-111 -84l-102 129q-127 -73 -279 -73q-163 0 -292.5 82t-202 230t-72.5 335zM238 629q0 -222 112 -362t293 -140q109 0 188 43l-106 135 l111 82l102 -131q113 135 113 373q0 222 -113 361.5t-295 139.5q-181 0 -293 -139.5t-112 -361.5z" />
<glyph unicode="R" horiz-adv-x="1130" d="M150 0v1257h466q192 0 302 -94t110 -270q0 -154 -84 -243.5t-235 -110.5l370 -539h-184l-360 532h-224v-532h-161zM311 670h301q123 0 189.5 59t66.5 164t-66.5 164t-189.5 59h-301v-446z" />
<glyph unicode="S" horiz-adv-x="1042" d="M47 328h164q35 -103 118 -156t201 -53q125 0 202 58.5t77 160.5q0 75 -47 123.5t-154 75.5l-225 59q-142 37 -221.5 113.5t-79.5 210.5q0 158 117 257t297 99q189 0 306.5 -89t153.5 -243h-161q-31 90 -105.5 142.5t-193.5 52.5q-115 0 -187.5 -56t-72.5 -151 q0 -77 49 -121.5t151 -71.5l215 -55q314 -80 314 -338q0 -167 -122 -265.5t-313 -98.5q-190 0 -319 91t-164 255z" />
<glyph unicode="T" horiz-adv-x="1161" d="M61 1114v143h1039v-143h-438v-1114h-162v1114h-439z" />
<glyph unicode="U" horiz-adv-x="1243" d="M129 500v757h160v-739q0 -196 87.5 -294.5t244.5 -98.5t244 98.5t87 294.5v739h162v-759q0 -250 -135 -383t-358 -133q-222 0 -357 133.5t-135 384.5z" />
<glyph unicode="V" horiz-adv-x="1208" d="M43 1257h170l393 -1044l395 1044h164l-485 -1257h-152z" />
<glyph unicode="W" horiz-adv-x="1570" d="M39 1257h160l258 -999l266 999h129l266 -999l258 999h156l-334 -1257h-147l-265 981l-268 -981h-145z" />
<glyph unicode="X" horiz-adv-x="1140" d="M35 0l444 639l-428 618h185l335 -489l340 489h179l-428 -614l446 -643h-184l-357 512l-354 -512h-178z" />
<glyph unicode="Y" horiz-adv-x="1140" d="M35 1257h176l362 -593l363 593h172l-459 -739v-518h-160v518z" />
<glyph unicode="Z" horiz-adv-x="1093" d="M84 0v117l715 997h-705v143h905v-114l-712 -998h721v-145h-924z" />
<glyph unicode="[" horiz-adv-x="641" d="M150 -172v1503h444v-139h-297v-1225h297v-139h-444z" />
<glyph unicode="\" horiz-adv-x="681" d="M10 1331h154l508 -1503h-154z" />
<glyph unicode="]" horiz-adv-x="641" d="M47 -33h297v1225h-297v139h445v-1503h-445v139z" />
<glyph unicode="^" horiz-adv-x="731" d="M35 860l256 397h151l254 -397h-159l-170 262l-170 -262h-162z" />
<glyph unicode="_" horiz-adv-x="751" d="M41 -86h670v-139h-670v139z" />
<glyph unicode="`" horiz-adv-x="1024" d="M350 1331h160l164 -274h-142z" />
<glyph unicode="a" horiz-adv-x="921" d="M72 274q0 126 100 205.5t248 79.5q66 0 131.5 -22.5t97.5 -51.5v115q0 87 -52 141t-148 54q-144 0 -187 -125h-151q23 116 116.5 187t223.5 71q162 0 254 -86t92 -236v-606h-148v68q-30 -32 -96.5 -58t-142.5 -26q-143 0 -240.5 79.5t-97.5 210.5zM219 274 q0 -78 63 -119.5t154 -41.5q72 0 132.5 31t80.5 81v94q-20 50 -80.5 81.5t-132.5 31.5q-91 0 -154 -40.5t-63 -117.5z" />
<glyph unicode="b" horiz-adv-x="1028" d="M135 0v1331h156v-528q36 53 105.5 89t150.5 36q97 0 175.5 -38t129 -103t77.5 -150t27 -182q0 -131 -46 -237t-140 -171t-223 -65q-81 0 -150.5 36t-105.5 88v-106h-156zM291 270q35 -70 97.5 -109.5t135.5 -39.5q128 0 202.5 93t74.5 241t-74.5 240.5t-202.5 92.5 q-73 0 -135.5 -39.5t-97.5 -109.5v-369z" />
<glyph unicode="c" horiz-adv-x="913" d="M72 455q0 212 114.5 342.5t298.5 130.5q150 0 245.5 -79.5t119.5 -213.5h-158q-15 74 -70 116t-137 42q-116 0 -187 -94t-71 -244t71 -244t187 -94q82 0 137 42t70 115h158q-24 -134 -119.5 -213t-245.5 -79q-184 0 -298.5 130.5t-114.5 342.5z" />
<glyph unicode="d" horiz-adv-x="1028" d="M72 455q0 97 27 182t77.5 150t129 103t175.5 38q81 0 150.5 -36t105.5 -89v528h156v-1331h-156v106q-36 -52 -105.5 -88t-150.5 -36q-129 0 -223 65t-140 171t-46 237zM227 455q0 -148 74.5 -241t202.5 -93q73 0 135.5 39.5t97.5 109.5v369q-35 70 -97.5 109.5 t-135.5 39.5q-128 0 -202.5 -92.5t-74.5 -240.5z" />
<glyph unicode="e" horiz-adv-x="935" d="M72 453q0 206 114.5 340.5t298.5 134.5q183 0 283 -122t100 -325v-55h-643q1 -144 74 -228.5t190 -84.5q86 0 144.5 41.5t77.5 117.5h145q-25 -133 -121 -211.5t-246 -78.5q-186 0 -301.5 130t-115.5 341zM229 543h484q-2 109 -60 181.5t-166 72.5q-103 0 -172 -67.5 t-86 -186.5z" />
<glyph unicode="f" horiz-adv-x="591" d="M41 778v131h154v152q0 134 77.5 211.5t200.5 77.5q67 0 119 -21v-139q-39 24 -96 24q-69 0 -109.5 -42.5t-40.5 -122.5v-140h205v-131h-205v-778h-151v778h-154z" />
<glyph unicode="g" horiz-adv-x="1026" d="M72 467q0 92 26.5 174.5t76.5 146.5t128.5 102t175.5 38q80 0 149 -35t105 -86v102h156v-837q0 -216 -111.5 -328.5t-294.5 -112.5q-164 0 -265.5 80t-123.5 221h152q40 -170 237 -170q123 0 186.5 75.5t63.5 223.5v68q-37 -51 -105.5 -87t-148.5 -36q-97 0 -175.5 38 t-128.5 102.5t-76.5 147t-26.5 173.5zM229 467q0 -143 73.5 -232.5t199.5 -89.5q73 0 134 38.5t97 103.5v362q-36 65 -97 103.5t-134 38.5q-127 0 -200 -90t-73 -234z" />
<glyph unicode="h" horiz-adv-x="1001" d="M137 0v1331h154v-536q42 58 113.5 95.5t154.5 37.5q153 0 236.5 -90t83.5 -242v-596h-156v571q0 99 -50.5 157t-150.5 58q-78 0 -142 -47.5t-89 -122.5v-616h-154z" />
<glyph unicode="i" horiz-adv-x="428" d="M115 1184q0 41 29 69.5t69 28.5q41 0 70.5 -28.5t29.5 -69.5q0 -40 -29.5 -69.5t-70.5 -29.5q-40 0 -69 29.5t-29 69.5zM137 0v909h154v-909h-154z" />
<glyph unicode="j" horiz-adv-x="423" d="M-39 -227q36 -6 53 -6q62 0 92.5 32.5t30.5 106.5v1003h154v-1013q0 -127 -68 -195t-196 -68q-42 0 -66 9v131zM115 1184q0 41 29 69.5t69 28.5q41 0 70.5 -28.5t29.5 -69.5q0 -40 -29.5 -69.5t-70.5 -29.5q-40 0 -69 29.5t-29 69.5z" />
<glyph unicode="k" horiz-adv-x="950" d="M137 0v1331h154v-825l416 403h202l-409 -393l424 -516h-189l-346 420l-98 -94v-326h-154z" />
<glyph unicode="l" horiz-adv-x="428" d="M137 0v1331h154v-1331h-154z" />
<glyph unicode="m" horiz-adv-x="1468" d="M137 0v909h154v-106q35 56 99.5 90.5t146.5 34.5q84 0 148 -39.5t97 -106.5q46 66 116.5 106t160.5 40q136 0 211.5 -88t75.5 -238v-602h-156v578q0 98 -43.5 154t-128.5 56q-69 0 -124 -44t-77 -117v-627h-153v578q0 98 -43.5 154t-128.5 56q-69 0 -124 -44t-77 -117 v-627h-154z" />
<glyph unicode="n" horiz-adv-x="1001" d="M137 0v909h154v-114q42 58 113.5 95.5t154.5 37.5q153 0 236.5 -90t83.5 -242v-596h-156v571q0 99 -50.5 157t-150.5 58q-78 0 -142 -47.5t-89 -122.5v-616h-154z" />
<glyph unicode="o" horiz-adv-x="978" d="M72 455q0 210 115 341.5t302 131.5q186 0 302 -131.5t116 -341.5t-116 -341.5t-302 -131.5q-187 0 -302 131.5t-115 341.5zM227 455q0 -152 70.5 -245t191.5 -93t192 93.5t71 244.5t-71 244.5t-192 93.5t-191.5 -93t-70.5 -245z" />
<glyph unicode="p" horiz-adv-x="1028" d="M137 -348v1257h154v-106q38 53 106.5 89t149.5 36q98 0 176.5 -38.5t129 -104t77 -150t26.5 -180.5t-26.5 -180.5t-77 -150t-129 -104t-176.5 -38.5q-81 0 -149.5 35.5t-106.5 88.5v-454h-154zM291 270q35 -70 97.5 -109.5t135.5 -39.5q128 0 202.5 93t74.5 241 t-74.5 240.5t-202.5 92.5q-73 0 -135.5 -39.5t-97.5 -109.5v-369z" />
<glyph unicode="q" horiz-adv-x="1028" d="M72 455q0 96 26.5 180.5t77 150t129 104t176.5 38.5q81 0 149.5 -36t106.5 -89v106h154v-1257h-154v454q-38 -53 -106.5 -88.5t-149.5 -35.5q-98 0 -176.5 38.5t-129 104t-77 150t-26.5 180.5zM227 455q0 -148 74.5 -241t202.5 -93q73 0 135.5 39.5t97.5 109.5v369 q-35 70 -97.5 109.5t-135.5 39.5q-128 0 -202.5 -92.5t-74.5 -240.5z" />
<glyph unicode="r" d="M137 0v909h154v-118q30 60 91 98.5t134 38.5q58 0 88 -15v-157q-38 24 -102 24q-73 0 -130.5 -45.5t-80.5 -124.5v-610h-154z" />
<glyph unicode="s" horiz-adv-x="847" d="M61 250h160q21 -69 77.5 -104t137.5 -35q85 0 136 34t51 101q0 47 -32.5 77.5t-103.5 49.5l-180 47q-105 27 -162 83t-57 156q0 120 93 194.5t233 74.5q148 0 237.5 -67.5t114.5 -190.5h-154q-42 129 -200 129q-73 0 -123.5 -34t-50.5 -97q0 -44 30 -69.5t97 -45.5 l176 -43q231 -61 231 -254q0 -127 -94.5 -200.5t-243.5 -73.5q-150 0 -250.5 71.5t-122.5 196.5z" />
<glyph unicode="t" horiz-adv-x="649" d="M33 778v131h147v240h154v-240h219v-131h-219v-532q0 -127 121 -127q61 0 118 37v-144q-58 -30 -143 -30q-115 0 -182.5 62.5t-67.5 184.5v549h-147z" />
<glyph unicode="u" horiz-adv-x="997" d="M125 313v596h156v-571q0 -99 49.5 -157t148.5 -58q78 0 140.5 47.5t87.5 122.5v616h155v-909h-155v115q-41 -58 -111 -95.5t-154 -37.5q-152 0 -234.5 89.5t-82.5 241.5z" />
<glyph unicode="v" horiz-adv-x="931" d="M37 909h166l266 -714l264 714h162l-354 -909h-152z" />
<glyph unicode="w" horiz-adv-x="1288" d="M37 909h153l201 -694l187 694h137l186 -694l201 694h149l-268 -909h-149l-189 690l-190 -690h-150z" />
<glyph unicode="x" horiz-adv-x="919" d="M37 0l336 465l-318 444h176l230 -325l235 325h168l-319 -438l338 -471h-174l-252 354l-254 -354h-166z" />
<glyph unicode="y" horiz-adv-x="931" d="M37 909h166l268 -716l264 716h160l-489 -1257h-152l137 342z" />
<glyph unicode="z" horiz-adv-x="888" d="M84 0v100l510 678h-494v131h691v-100l-506 -678h514v-131h-715z" />
<glyph unicode="{" horiz-adv-x="694" d="M41 508v143h94q72 0 72 76v375q0 101 63.5 165t163.5 64h213v-139h-215q-35 0 -54.5 -19.5t-19.5 -56.5v-379q0 -104 -88 -157q88 -53 88 -158v-379q0 -37 19.5 -56.5t54.5 -19.5h215v-139h-213q-100 0 -163.5 64t-63.5 165v375q0 76 -72 76h-94z" />
<glyph unicode="|" horiz-adv-x="448" d="M150 -172v1503h149v-1503h-149z" />
<glyph unicode="}" horiz-adv-x="694" d="M47 -33h215q35 0 54.5 19.5t19.5 56.5v379q0 105 88 158q-88 53 -88 157v379q0 37 -19.5 56.5t-54.5 19.5h-215v139h213q100 0 163.5 -64t63.5 -165v-375q0 -76 72 -76h94v-143h-94q-72 0 -72 -76v-375q0 -101 -63.5 -165t-163.5 -64h-213v139z" />
<glyph unicode="~" horiz-adv-x="856" d="M82 430q0 123 52.5 192.5t146.5 69.5q42 0 83.5 -21t68.5 -46.5t61 -46.5t63 -21q41 0 64.5 34t23.5 95h129q0 -124 -52.5 -194t-146.5 -70q-43 0 -84.5 21t-69 46.5t-61 46.5t-61.5 21q-43 0 -65.5 -32.5t-22.5 -94.5h-129z" />
<glyph unicode="&#xa1;" horiz-adv-x="428" d="M98 961q0 47 32 78.5t77 31.5q46 0 78 -31.5t32 -78.5t-32 -80t-78 -33q-45 0 -77 33t-32 80zM117 -197l35 863h110l37 -863h-182z" />
<glyph unicode="&#xa2;" horiz-adv-x="913" d="M72 475q0 192 96.5 319t255.5 150v178h141v-180q119 -21 191.5 -99t91.5 -198h-154q-13 78 -69.5 123t-139.5 45q-117 0 -187.5 -93.5t-70.5 -244.5t70.5 -244.5t187.5 -93.5q83 0 139.5 45t69.5 123h154q-18 -119 -90.5 -197.5t-192.5 -99.5v-186h-141v184 q-159 22 -255.5 149.5t-96.5 319.5z" />
<glyph unicode="&#xa3;" horiz-adv-x="999" d="M63 0v133h125q45 78 45 186v238h-170v127h170v186q0 179 101.5 292.5t265.5 113.5q146 0 235.5 -80.5t110.5 -216.5h-149q-14 78 -64 120t-133 42q-102 0 -159.5 -73t-57.5 -198v-186h315v-127h-315v-238q0 -124 -47 -186h606v-133h-879z" />
<glyph unicode="&#xa5;" horiz-adv-x="1095" d="M51 1257h172l328 -563l326 563h165l-354 -595h260v-121h-321v-144h321v-123h-321v-274h-160v274h-322v123h322v144h-322v121h261z" />
<glyph unicode="&#xa7;" horiz-adv-x="931" d="M47 655q0 73 37 135t102 97q-32 53 -32 127q0 121 89 191.5t230 70.5q150 0 241.5 -73.5t112.5 -201.5h-151q-38 148 -203 148q-73 0 -121.5 -33.5t-48.5 -95.5q0 -49 25 -78t90 -72l258 -172q101 -66 154 -129.5t53 -154.5q0 -74 -38 -137t-102 -97q33 -58 33 -125 q0 -121 -88 -191.5t-229 -70.5q-152 0 -243 73.5t-112 201.5h150q38 -148 205 -148q73 0 120.5 33.5t47.5 95.5q0 50 -25.5 80t-87.5 70l-260 174q-49 32 -81 57.5t-63.5 60.5t-47 75.5t-15.5 88.5zM193 659q0 -35 21.5 -66.5t44.5 -49.5t67 -47l319 -215q45 13 69.5 48.5 t24.5 80.5q0 35 -22.5 67t-44.5 49t-68 47l-319 218q-44 -15 -68 -50.5t-24 -81.5z" />
<glyph unicode="&#xa8;" horiz-adv-x="1024" d="M272 1169q0 41 28.5 69t68.5 28q39 0 66.5 -28t27.5 -69q0 -38 -28 -66t-66 -28q-40 0 -68.5 28t-28.5 66zM561 1169q0 41 27 69t65 28q40 0 68.5 -28t28.5 -69q0 -38 -28.5 -66t-68.5 -28q-38 0 -65 28t-27 66z" />
<glyph unicode="&#xa9;" horiz-adv-x="1445" d="M76 629q0 184 87.5 333.5t235 231.5t324.5 82t324.5 -82t235 -231.5t87.5 -333.5t-87.5 -333.5t-235 -231.5t-324.5 -82t-324.5 82t-235 231.5t-87.5 333.5zM156 629q0 -161 76.5 -292t206.5 -203.5t284 -72.5t284 72.5t206.5 203.5t76.5 292q0 121 -45 227.5 t-121.5 180.5t-181 116.5t-219.5 42.5t-219.5 -42.5t-181 -116.5t-121.5 -180.5t-45 -227.5zM360 633q0 182 104 294.5t267 112.5q133 0 216.5 -70.5t107.5 -189.5h-152q-42 121 -172 121q-98 0 -158.5 -74t-60.5 -194t60.5 -194t158.5 -74q130 0 172 120h152 q-24 -119 -108 -189.5t-216 -70.5q-162 0 -266.5 113t-104.5 295z" />
<glyph unicode="&#xaa;" horiz-adv-x="598" d="M27 840q0 85 66.5 138.5t164.5 53.5q42 0 84 -14.5t66 -32.5v68q0 49 -30 79.5t-85 30.5q-88 0 -109 -71h-131q15 83 81 134.5t163 51.5q115 0 179.5 -60.5t64.5 -166.5v-394h-133v43q-19 -21 -63 -37t-93 -16q-96 0 -160.5 52t-64.5 141zM160 842q0 -44 36.5 -68 t86.5 -24q42 0 77.5 18t47.5 45v55q-12 28 -48 46t-77 18q-50 0 -86.5 -23.5t-36.5 -66.5z" />
<glyph unicode="&#xab;" horiz-adv-x="731" d="M51 455l189 303h143l-188 -303l188 -303h-143zM348 455l189 303h143l-188 -303l188 -303h-143z" />
<glyph unicode="&#xad;" d="M82 463v143h493v-143h-493z" />
<glyph unicode="&#xae;" horiz-adv-x="843" d="M51 901q0 161 108.5 268t262.5 107t262.5 -107t108.5 -268t-108.5 -268t-262.5 -107t-262.5 107t-108.5 268zM113 901q0 -135 90 -224t219 -89t218 89t89 224q0 136 -89 226t-218 90t-219 -90t-90 -226zM276 709v393h173q65 0 102 -34t37 -95q0 -45 -23 -75.5t-63 -41.5 l100 -147h-96l-92 139h-52v-139h-86zM362 920h82q28 0 45 15t17 38q0 24 -16.5 39.5t-45.5 15.5h-82v-108z" />
<glyph unicode="&#xaf;" horiz-adv-x="1024" d="M293 1085v125h436v-125h-436z" />
<glyph unicode="&#xb0;" horiz-adv-x="688" d="M92 1022q0 106 74 180t178 74t178 -74t74 -180t-74 -180t-178 -74t-178 74t-74 180zM205 1022q0 -58 41 -98.5t98 -40.5t98 40.5t41 98.5t-41 99.5t-98 41.5t-98 -41.5t-41 -99.5z" />
<glyph unicode="&#xb1;" horiz-adv-x="1114" d="M160 180v127h796v-127h-796zM160 670v127h334v264h127v-264h335v-127h-335v-264h-127v264h-334z" />
<glyph unicode="&#xb2;" horiz-adv-x="565" d="M45 1047q11 98 75 159.5t163 61.5q102 0 161.5 -55t59.5 -146q0 -31 -9 -59.5t-33 -60.5t-38 -48t-51 -55l-152 -156h289v-110h-463v88l229 239q38 40 55.5 60.5t31.5 47t14 50.5q0 41 -26 65.5t-68 24.5q-44 0 -72 -30.5t-31 -75.5h-135z" />
<glyph unicode="&#xb3;" horiz-adv-x="575" d="M41 782h133q6 -48 36 -76t79 -28q50 0 79 26.5t29 73.5q0 45 -30.5 70.5t-79.5 25.5h-54v99h50q46 0 75 25t29 69q0 40 -27.5 66t-72.5 26q-42 0 -72 -28.5t-35 -71.5h-129q12 92 74 150.5t158 58.5q104 0 164.5 -54t60.5 -143q0 -50 -26 -91t-66 -56q47 -17 74.5 -57.5 t27.5 -92.5q0 -91 -62 -149t-169 -58t-172 58t-74 157z" />
<glyph unicode="&#xb4;" horiz-adv-x="1024" d="M350 1057l164 274h160l-182 -274h-142z" />
<glyph unicode="&#xb6;" horiz-adv-x="1001" d="M31 938q0 81 37 144t98.5 100t134 56t150.5 19h129v-1441h-129v800q-78 0 -151 19t-134 57t-98 101.5t-37 144.5zM723 -184v1441h129v-1441h-129z" />
<glyph unicode="&#xb7;" horiz-adv-x="360" d="M70 537q0 47 32 79.5t78 32.5q45 0 77 -32.5t32 -79.5t-32 -79t-77 -32q-46 0 -78 32t-32 79z" />
<glyph unicode="&#xb8;" horiz-adv-x="1024" d="M367 -375l135 271h151l-141 -271h-145z" />
<glyph unicode="&#xb9;" horiz-adv-x="452" d="M39 1018v131l223 111h86v-682h-129v530z" />
<glyph unicode="&#xba;" horiz-adv-x="634" d="M27 961q0 140 80.5 228.5t209.5 88.5t209 -88.5t80 -228.5t-80.5 -229t-208.5 -89q-129 0 -209.5 89t-80.5 229zM168 961q0 -89 40.5 -143t108.5 -54t109 54.5t41 142.5q0 89 -41 143.5t-109 54.5t-108.5 -54.5t-40.5 -143.5z" />
<glyph unicode="&#xbb;" horiz-adv-x="731" d="M51 152l189 303l-189 303h144l188 -303l-188 -303h-144zM348 152l189 303l-189 303h144l188 -303l-188 -303h-144z" />
<glyph unicode="&#xbc;" horiz-adv-x="1366" d="M84 1018v131l221 111h86v-682h-127v530zM150 0l878 1257h137l-878 -1257h-137zM737 141v97l234 444h127l-219 -432h165v137h115v-137h107v-109h-107v-141h-115v141h-307z" />
<glyph unicode="&#xbd;" horiz-adv-x="1396" d="M84 1018v131l221 111h86v-682h-127v530zM150 0l878 1257h137l-878 -1257h-137zM817 469q9 98 73 160.5t163 62.5q102 0 162.5 -56t60.5 -147q0 -31 -9 -59.5t-33 -60.5t-38 -48t-51 -55l-152 -155h289v-111h-463v88l228 240q55 57 77.5 90t22.5 67q0 41 -25.5 65.5 t-66.5 24.5q-45 0 -73.5 -30t-31.5 -76h-133z" />
<glyph unicode="&#xbe;" horiz-adv-x="1445" d="M94 782h133q6 -48 36.5 -77t78.5 -29q50 0 79.5 27t29.5 73q0 45 -31 70.5t-80 25.5h-53v101h49q46 0 75 24.5t29 67.5q0 40 -27.5 66t-72.5 26q-42 0 -72 -28.5t-35 -71.5h-129q12 92 74.5 151.5t157.5 59.5q104 0 164.5 -54.5t60.5 -142.5q0 -51 -25.5 -91t-66.5 -58 q47 -15 74.5 -55.5t27.5 -92.5q0 -93 -62 -151t-169 -58t-172 58.5t-74 158.5zM229 0l879 1257h137l-878 -1257h-138zM817 141v97l234 444h127l-220 -432h166v137h115v-137h107v-109h-107v-141h-115v141h-307z" />
<glyph unicode="&#xbf;" horiz-adv-x="884" d="M49 137q0 22 4 44.5t8 41t15.5 41t18 36.5t23.5 37t24 33t29 34.5t28 31t30.5 32.5t28.5 30q49 52 67.5 90t20.5 78h152q-4 -74 -29.5 -125t-89.5 -121q-14 -16 -45 -48t-48.5 -53t-39 -51.5t-31.5 -62t-10 -66.5q0 -97 61.5 -154t165.5 -57q109 0 173 69t73 183h166 q-19 -177 -130.5 -286t-281.5 -109q-179 0 -281 95t-102 257zM317 961q0 47 32.5 78.5t78.5 31.5q45 0 77 -31.5t32 -78.5t-32 -80t-77 -33q-46 0 -78.5 33t-32.5 80z" />
<glyph unicode="&#xc0;" horiz-adv-x="1220" d="M43 0l492 1257h151l492 -1257h-164l-146 379h-518l-143 -379h-164zM348 1608h178l164 -240h-153zM403 520h410l-205 537z" />
<glyph unicode="&#xc1;" horiz-adv-x="1220" d="M43 0l492 1257h151l492 -1257h-164l-146 379h-518l-143 -379h-164zM403 520h410l-205 537zM526 1368l164 240h178l-186 -240h-156z" />
<glyph unicode="&#xc2;" horiz-adv-x="1220" d="M43 0l492 1257h151l492 -1257h-164l-146 379h-518l-143 -379h-164zM350 1370l189 250h143l188 -250h-139l-121 146l-121 -146h-139zM403 520h410l-205 537z" />
<glyph unicode="&#xc3;" horiz-adv-x="1220" d="M43 0l492 1257h151l492 -1257h-164l-146 379h-518l-143 -379h-164zM334 1368q0 112 40 178t115 66q34 0 67.5 -18t56 -39.5t51 -39.5t53.5 -18q66 0 69 109h99q0 -111 -40.5 -177.5t-115.5 -66.5q-34 0 -67 18t-55.5 39.5t-50.5 39.5t-52 18q-70 0 -70 -109h-100z M403 520h410l-205 537z" />
<glyph unicode="&#xc4;" horiz-adv-x="1220" d="M43 0l492 1257h151l492 -1257h-164l-146 379h-518l-143 -379h-164zM373 1479q0 40 28 67t68 27q39 0 66.5 -27.5t27.5 -66.5t-27.5 -67t-66.5 -28q-40 0 -68 27.5t-28 67.5zM403 520h410l-205 537zM662 1479q0 40 27 67t65 27q40 0 68 -27t28 -67t-28 -67.5t-68 -27.5 q-38 0 -65 27.5t-27 67.5z" />
<glyph unicode="&#xc5;" horiz-adv-x="1220" d="M43 0l492 1257h151l492 -1257h-164l-146 379h-518l-143 -379h-164zM403 520h410l-205 537zM432 1503q0 75 51.5 126.5t126.5 51.5t126.5 -51.5t51.5 -126.5q0 -74 -51.5 -125t-126.5 -51t-126.5 51t-51.5 125zM518 1503q0 -38 27 -65t65 -27t65 27t27 65q0 40 -27 67 t-65 27t-65 -27t-27 -67z" />
<glyph unicode="&#xc6;" horiz-adv-x="1765" d="M43 0l756 1257h862v-143h-608v-397h549v-144h-549v-428h608v-145h-766v379h-455l-229 -379h-168zM526 520h369v606z" />
<glyph unicode="&#xc7;" horiz-adv-x="1200" d="M76 629q0 144 43.5 265.5t119 205t179 130t221.5 46.5q194 0 322 -104.5t167 -282.5h-159q-85 241 -330 241q-180 0 -290.5 -138.5t-110.5 -362.5t110 -363t291 -139q245 0 330 244h159q-39 -180 -167 -284.5t-322 -104.5q-118 0 -221.5 46.5t-179 130t-119 205 t-43.5 265.5zM442 -375l136 271h151l-141 -271h-146z" />
<glyph unicode="&#xc8;" horiz-adv-x="1054" d="M150 0v1257h800v-143h-641v-397h582v-144h-582v-428h641v-145h-800zM299 1608h178l164 -240h-154z" />
<glyph unicode="&#xc9;" horiz-adv-x="1054" d="M150 0v1257h800v-143h-641v-397h582v-144h-582v-428h641v-145h-800zM469 1368l164 240h178l-186 -240h-156z" />
<glyph unicode="&#xca;" horiz-adv-x="1054" d="M150 0v1257h800v-143h-641v-397h582v-144h-582v-428h641v-145h-800zM299 1370l188 250h144l188 -250h-139l-121 146l-121 -146h-139z" />
<glyph unicode="&#xcb;" horiz-adv-x="1054" d="M150 0v1257h800v-143h-641v-397h582v-144h-582v-428h641v-145h-800zM322 1479q0 40 28 67t68 27q39 0 66.5 -27.5t27.5 -66.5t-28 -67t-66 -28q-40 0 -68 27.5t-28 67.5zM610 1479q0 40 27 67t65 27q40 0 68.5 -27.5t28.5 -66.5q0 -40 -28.5 -67.5t-68.5 -27.5 q-38 0 -65 27.5t-27 67.5z" />
<glyph unicode="&#xcc;" horiz-adv-x="460" d="M-29 1608h179l163 -240h-153zM150 0v1257h161v-1257h-161z" />
<glyph unicode="&#xcd;" horiz-adv-x="460" d="M139 1368l164 240h178l-186 -240h-156zM150 0v1257h161v-1257h-161z" />
<glyph unicode="&#xce;" horiz-adv-x="460" d="M-31 1370l189 250h143l188 -250h-139l-121 146l-120 -146h-140zM150 0v1257h161v-1257h-161z" />
<glyph unicode="&#xcf;" horiz-adv-x="460" d="M-8 1479q0 40 28 67t68 27q39 0 66.5 -27.5t27.5 -66.5t-28 -67t-66 -28q-40 0 -68 27.5t-28 67.5zM150 0v1257h161v-1257h-161zM281 1479q0 40 27 67t65 27q40 0 68 -27t28 -67t-28 -67.5t-68 -27.5q-38 0 -65 27.5t-27 67.5z" />
<glyph unicode="&#xd0;" horiz-adv-x="1269" d="M66 582v137h114v538h404q277 0 443.5 -170.5t166.5 -457.5t-166.5 -458t-443.5 -171h-404v582h-114zM342 145h240q212 0 332 130.5t120 353.5t-120 354t-332 131h-240v-395h252v-137h-252v-437z" />
<glyph unicode="&#xd1;" horiz-adv-x="1275" d="M150 0v1257h153l670 -956v956h153v-1257h-118l-703 999v-999h-155zM362 1368q0 111 40.5 177.5t115.5 66.5q34 0 67.5 -18t56 -39.5t50.5 -39.5t53 -18q67 0 70 109h98q0 -112 -40 -178t-115 -66q-34 0 -67 18t-55.5 39.5t-51 39.5t-52.5 18q-69 0 -69 -109h-101z" />
<glyph unicode="&#xd2;" horiz-adv-x="1288" d="M76 629q0 285 159.5 466t407.5 181q123 0 228.5 -48t180.5 -132.5t117.5 -205t42.5 -261.5q0 -284 -160 -465.5t-409 -181.5q-163 0 -292.5 82t-202 230t-72.5 335zM238 629q0 -222 112 -362t293 -140q182 0 295 140t113 362t-113 361.5t-295 139.5q-181 0 -293 -139.5 t-112 -361.5zM385 1608h178l164 -240h-154z" />
<glyph unicode="&#xd3;" horiz-adv-x="1288" d="M76 629q0 285 159.5 466t407.5 181q123 0 228.5 -48t180.5 -132.5t117.5 -205t42.5 -261.5q0 -284 -160 -465.5t-409 -181.5q-163 0 -292.5 82t-202 230t-72.5 335zM238 629q0 -222 112 -362t293 -140q182 0 295 140t113 362t-113 361.5t-295 139.5q-181 0 -293 -139.5 t-112 -361.5zM553 1368l164 240h178l-186 -240h-156z" />
<glyph unicode="&#xd4;" horiz-adv-x="1288" d="M76 629q0 285 159.5 466t407.5 181q123 0 228.5 -48t180.5 -132.5t117.5 -205t42.5 -261.5q0 -284 -160 -465.5t-409 -181.5q-163 0 -292.5 82t-202 230t-72.5 335zM238 629q0 -222 112 -362t293 -140q182 0 295 140t113 362t-113 361.5t-295 139.5q-181 0 -293 -139.5 t-112 -361.5zM383 1370l188 250h144l188 -250h-139l-121 146l-121 -146h-139z" />
<glyph unicode="&#xd5;" horiz-adv-x="1288" d="M76 629q0 285 159.5 466t407.5 181q123 0 228.5 -48t180.5 -132.5t117.5 -205t42.5 -261.5q0 -284 -160 -465.5t-409 -181.5q-163 0 -292.5 82t-202 230t-72.5 335zM238 629q0 -222 112 -362t293 -140q182 0 295 140t113 362t-113 361.5t-295 139.5q-181 0 -293 -139.5 t-112 -361.5zM369 1368q0 112 40 178t115 66q34 0 67.5 -18t56 -39.5t51 -39.5t53.5 -18q66 0 69 109h99q0 -111 -40.5 -177.5t-115.5 -66.5q-34 0 -67 18t-55.5 39.5t-50.5 39.5t-52 18q-70 0 -70 -109h-100z" />
<glyph unicode="&#xd6;" horiz-adv-x="1288" d="M76 629q0 285 159.5 466t407.5 181q123 0 228.5 -48t180.5 -132.5t117.5 -205t42.5 -261.5q0 -284 -160 -465.5t-409 -181.5q-163 0 -292.5 82t-202 230t-72.5 335zM238 629q0 -222 112 -362t293 -140q182 0 295 140t113 362t-113 361.5t-295 139.5q-181 0 -293 -139.5 t-112 -361.5zM406 1479q0 40 28 67t68 27q39 0 66.5 -27.5t27.5 -66.5t-28 -67t-66 -28q-40 0 -68 27.5t-28 67.5zM694 1479q0 40 27 67t65 27q40 0 68.5 -27.5t28.5 -66.5q0 -40 -28.5 -67.5t-68.5 -27.5q-38 0 -65 27.5t-27 67.5z" />
<glyph unicode="&#xd7;" horiz-adv-x="962" d="M145 354l250 250l-250 248l88 86l246 -250l250 250l88 -86l-250 -248l250 -250l-88 -88l-250 250l-246 -250z" />
<glyph unicode="&#xd8;" horiz-adv-x="1308" d="M86 629q0 285 159.5 466t407.5 181q200 0 348 -123l97 123l94 -68l-111 -137q142 -178 142 -442q0 -284 -160.5 -465.5t-409.5 -181.5q-200 0 -340 116l-102 -129l-96 68l114 145q-143 180 -143 447zM248 629q0 -197 80 -324l581 731q-105 94 -256 94q-181 0 -293 -139.5 t-112 -361.5zM406 215q97 -88 247 -88q182 0 295 140t113 362q0 189 -78 317z" />
<glyph unicode="&#xd9;" horiz-adv-x="1243" d="M129 500v757h160v-739q0 -196 87.5 -294.5t244.5 -98.5t244 98.5t87 294.5v739h162v-759q0 -250 -135 -383t-358 -133q-222 0 -357 133.5t-135 384.5zM362 1608h179l164 -240h-154z" />
<glyph unicode="&#xda;" horiz-adv-x="1243" d="M129 500v757h160v-739q0 -196 87.5 -294.5t244.5 -98.5t244 98.5t87 294.5v739h162v-759q0 -250 -135 -383t-358 -133q-222 0 -357 133.5t-135 384.5zM530 1368l164 240h178l-186 -240h-156z" />
<glyph unicode="&#xdb;" horiz-adv-x="1243" d="M129 500v757h160v-739q0 -196 87.5 -294.5t244.5 -98.5t244 98.5t87 294.5v739h162v-759q0 -250 -135 -383t-358 -133q-222 0 -357 133.5t-135 384.5zM360 1370l189 250h143l189 -250h-140l-120 146l-121 -146h-140z" />
<glyph unicode="&#xdc;" horiz-adv-x="1243" d="M129 500v757h160v-739q0 -196 87.5 -294.5t244.5 -98.5t244 98.5t87 294.5v739h162v-759q0 -250 -135 -383t-358 -133q-222 0 -357 133.5t-135 384.5zM383 1479q0 40 28 67t68 27q39 0 66.5 -27.5t27.5 -66.5t-27.5 -67t-66.5 -28q-40 0 -68 27.5t-28 67.5zM672 1479 q0 40 27 67t65 27q40 0 68 -27t28 -67t-28 -67.5t-68 -27.5q-38 0 -65 27.5t-27 67.5z" />
<glyph unicode="&#xdd;" horiz-adv-x="1140" d="M35 1257h176l362 -593l363 593h172l-459 -739v-518h-160v518zM481 1368l164 240h178l-186 -240h-156z" />
<glyph unicode="&#xde;" horiz-adv-x="1099" d="M150 0v1257h161v-235h310q194 0 303.5 -97t109.5 -280q0 -182 -110 -279.5t-303 -97.5h-310v-268h-161zM311 410h305q125 0 191.5 63.5t66.5 171.5q0 110 -66.5 173t-191.5 63h-305v-471z" />
<glyph unicode="&#xdf;" horiz-adv-x="1044" d="M137 0v948q0 180 101.5 291t277.5 111q166 0 261 -92t95 -232q0 -102 -48.5 -173t-123.5 -101q114 -26 192.5 -124.5t78.5 -242.5q0 -185 -109 -291t-284 -106q-103 0 -177 35v141q59 -37 164 -37q121 0 189.5 72t68.5 200q0 130 -84.5 203.5t-230.5 73.5h-86v135h86 q99 0 158 56t59 151q0 88 -56.5 143.5t-150.5 55.5q-114 0 -171.5 -73.5t-57.5 -195.5v-948h-152z" />
<glyph unicode="&#xe0;" horiz-adv-x="921" d="M72 274q0 126 100 205.5t248 79.5q66 0 131.5 -22.5t97.5 -51.5v115q0 87 -52 141t-148 54q-144 0 -187 -125h-151q23 116 116.5 187t223.5 71q162 0 254 -86t92 -236v-606h-148v68q-30 -32 -96.5 -58t-142.5 -26q-143 0 -240.5 79.5t-97.5 210.5zM219 274 q0 -78 63 -119.5t154 -41.5q72 0 132.5 31t80.5 81v94q-20 50 -80.5 81.5t-132.5 31.5q-91 0 -154 -40.5t-63 -117.5zM231 1331h160l164 -274h-141z" />
<glyph unicode="&#xe1;" horiz-adv-x="921" d="M72 274q0 126 100 205.5t248 79.5q66 0 131.5 -22.5t97.5 -51.5v115q0 87 -52 141t-148 54q-144 0 -187 -125h-151q23 116 116.5 187t223.5 71q162 0 254 -86t92 -236v-606h-148v68q-30 -32 -96.5 -58t-142.5 -26q-143 0 -240.5 79.5t-97.5 210.5zM219 274 q0 -78 63 -119.5t154 -41.5q72 0 132.5 31t80.5 81v94q-20 50 -80.5 81.5t-132.5 31.5q-91 0 -154 -40.5t-63 -117.5zM391 1057l164 274h160l-183 -274h-141z" />
<glyph unicode="&#xe2;" horiz-adv-x="921" d="M72 274q0 126 100 205.5t248 79.5q66 0 131.5 -22.5t97.5 -51.5v115q0 87 -52 141t-148 54q-144 0 -187 -125h-151q23 116 116.5 187t223.5 71q162 0 254 -86t92 -236v-606h-148v68q-30 -32 -96.5 -58t-142.5 -26q-143 0 -240.5 79.5t-97.5 210.5zM209 1042l188 279h144 l188 -279h-133l-127 181l-127 -181h-133zM219 274q0 -78 63 -119.5t154 -41.5q72 0 132.5 31t80.5 81v94q-20 50 -80.5 81.5t-132.5 31.5q-91 0 -154 -40.5t-63 -117.5z" />
<glyph unicode="&#xe3;" horiz-adv-x="921" d="M72 274q0 126 100 205.5t248 79.5q66 0 131.5 -22.5t97.5 -51.5v115q0 87 -52 141t-148 54q-144 0 -187 -125h-151q23 116 116.5 187t223.5 71q162 0 254 -86t92 -236v-606h-148v68q-30 -32 -96.5 -58t-142.5 -26q-143 0 -240.5 79.5t-97.5 210.5zM201 1061 q0 111 40 176.5t115 65.5q32 0 64 -18.5t53.5 -41t47.5 -41t48 -18.5q67 0 70 112h98q0 -111 -40 -176t-115 -65q-32 0 -63.5 18.5t-53.5 41t-48 41t-48 18.5q-70 0 -70 -113h-98zM219 274q0 -78 63 -119.5t154 -41.5q72 0 132.5 31t80.5 81v94q-20 50 -80.5 81.5 t-132.5 31.5q-91 0 -154 -40.5t-63 -117.5z" />
<glyph unicode="&#xe4;" horiz-adv-x="921" d="M72 274q0 126 100 205.5t248 79.5q66 0 131.5 -22.5t97.5 -51.5v115q0 87 -52 141t-148 54q-144 0 -187 -125h-151q23 116 116.5 187t223.5 71q162 0 254 -86t92 -236v-606h-148v68q-30 -32 -96.5 -58t-142.5 -26q-143 0 -240.5 79.5t-97.5 210.5zM219 274 q0 -78 63 -119.5t154 -41.5q72 0 132.5 31t80.5 81v94q-20 50 -80.5 81.5t-132.5 31.5q-91 0 -154 -40.5t-63 -117.5zM231 1169q0 41 28.5 69t68.5 28q39 0 66.5 -28t27.5 -69q0 -38 -28 -66t-66 -28q-40 0 -68.5 28t-28.5 66zM520 1169q0 41 27 69t65 28q40 0 68.5 -28 t28.5 -69q0 -38 -28.5 -66t-68.5 -28q-38 0 -65 28t-27 66z" />
<glyph unicode="&#xe5;" horiz-adv-x="921" d="M72 274q0 126 100 205.5t248 79.5q66 0 131.5 -22.5t97.5 -51.5v115q0 87 -52 141t-148 54q-144 0 -187 -125h-151q23 116 116.5 187t223.5 71q162 0 254 -86t92 -236v-606h-148v68q-30 -32 -96.5 -58t-142.5 -26q-143 0 -240.5 79.5t-97.5 210.5zM219 274 q0 -78 63 -119.5t154 -41.5q72 0 132.5 31t80.5 81v94q-20 50 -80.5 81.5t-132.5 31.5q-91 0 -154 -40.5t-63 -117.5zM287 1188q0 75 51.5 125.5t126.5 50.5t126.5 -50.5t51.5 -125.5t-51.5 -125.5t-126.5 -50.5t-126.5 50.5t-51.5 125.5zM373 1188q0 -39 26.5 -65.5 t65.5 -26.5t65.5 26.5t26.5 65.5t-26.5 65.5t-65.5 26.5t-65.5 -26.5t-26.5 -65.5z" />
<glyph unicode="&#xe6;" horiz-adv-x="1497" d="M70 262q0 129 99.5 206t250.5 77h225v55q0 88 -52 141.5t-147 53.5q-147 0 -190 -125h-147q23 116 116.5 187t223.5 71q108 0 184 -44t110 -122q53 77 130.5 121.5t170.5 44.5q184 0 285 -122t101 -325v-55h-646q3 -145 76 -229t189 -84q86 0 145 41.5t78 117.5h145 q-25 -132 -121.5 -211t-246.5 -79q-105 0 -190.5 45t-139.5 127q-126 -170 -324 -170q-140 0 -232.5 76.5t-92.5 201.5zM215 270q0 -76 55.5 -116.5t137.5 -40.5q86 0 148 45.5t89 120.5v145h-215q-90 0 -152.5 -39.5t-62.5 -114.5zM788 543h486q-3 109 -61 181.5t-166 72.5 q-103 0 -172.5 -67.5t-86.5 -186.5z" />
<glyph unicode="&#xe7;" horiz-adv-x="913" d="M72 455q0 212 114.5 342.5t298.5 130.5q150 0 245.5 -79.5t119.5 -213.5h-158q-15 74 -70 116t-137 42q-116 0 -187 -94t-71 -244t71 -244t187 -94q82 0 137 42t70 115h158q-24 -134 -119.5 -213t-245.5 -79q-184 0 -298.5 130.5t-114.5 342.5zM289 -375l135 271h151 l-141 -271h-145z" />
<glyph unicode="&#xe8;" horiz-adv-x="935" d="M72 453q0 206 114.5 340.5t298.5 134.5q183 0 283 -122t100 -325v-55h-643q1 -144 74 -228.5t190 -84.5q86 0 144.5 41.5t77.5 117.5h145q-25 -133 -121 -211.5t-246 -78.5q-186 0 -301.5 130t-115.5 341zM229 543h484q-2 109 -60 181.5t-166 72.5q-103 0 -172 -67.5 t-86 -186.5zM248 1331h160l163 -274h-141z" />
<glyph unicode="&#xe9;" horiz-adv-x="935" d="M72 453q0 206 114.5 340.5t298.5 134.5q183 0 283 -122t100 -325v-55h-643q1 -144 74 -228.5t190 -84.5q86 0 144.5 41.5t77.5 117.5h145q-25 -133 -121 -211.5t-246 -78.5q-186 0 -301.5 130t-115.5 341zM229 543h484q-2 109 -60 181.5t-166 72.5q-103 0 -172 -67.5 t-86 -186.5zM412 1057l163 274h160l-182 -274h-141z" />
<glyph unicode="&#xea;" horiz-adv-x="935" d="M72 453q0 206 114.5 340.5t298.5 134.5q183 0 283 -122t100 -325v-55h-643q1 -144 74 -228.5t190 -84.5q86 0 144.5 41.5t77.5 117.5h145q-25 -133 -121 -211.5t-246 -78.5q-186 0 -301.5 130t-115.5 341zM229 543h484q-2 109 -60 181.5t-166 72.5q-103 0 -172 -67.5 t-86 -186.5zM231 1042l189 279h143l189 -279h-134l-126 181l-127 -181h-134z" />
<glyph unicode="&#xeb;" horiz-adv-x="935" d="M72 453q0 206 114.5 340.5t298.5 134.5q183 0 283 -122t100 -325v-55h-643q1 -144 74 -228.5t190 -84.5q86 0 144.5 41.5t77.5 117.5h145q-25 -133 -121 -211.5t-246 -78.5q-186 0 -301.5 130t-115.5 341zM229 543h484q-2 109 -60 181.5t-166 72.5q-103 0 -172 -67.5 t-86 -186.5zM256 1169q0 41 28 69t68 28q39 0 66.5 -28t27.5 -69q0 -38 -28 -66t-66 -28q-40 0 -68 28t-28 66zM545 1169q0 41 27 69t65 28q40 0 68 -28t28 -69q0 -38 -28 -66t-68 -28q-38 0 -65 28t-27 66z" />
<glyph unicode="&#xec;" horiz-adv-x="428" d="M-31 1331h160l164 -274h-141zM137 0v909h154v-909h-154z" />
<glyph unicode="&#xed;" horiz-adv-x="428" d="M133 1057l164 274h160l-183 -274h-141zM137 0v909h154v-909h-154z" />
<glyph unicode="&#xee;" horiz-adv-x="428" d="M-8 1042l151 279h142l151 -279h-131l-92 175l-92 -175h-129zM137 0v909h154v-909h-154z" />
<glyph unicode="&#xef;" horiz-adv-x="428" d="M-6 1169q0 41 27 69t67 28q39 0 66.5 -28t27.5 -69q0 -38 -28 -66t-66 -28q-39 0 -66.5 27.5t-27.5 66.5zM137 0v909h154v-909h-154zM248 1169q0 41 27 69t65 28q40 0 68 -28t28 -69q0 -38 -28 -66t-68 -28q-38 0 -65 28t-27 66z" />
<glyph unicode="&#xf0;" horiz-adv-x="978" d="M72 451q0 208 112.5 339.5t288.5 131.5q127 0 211 -91h6q-46 104 -192 250l-213 -69l-37 96l164 53q-102 89 -205 162v8h201q91 -63 151 -121l174 60l35 -96l-129 -44q127 -142 197.5 -312.5t70.5 -354.5q0 -216 -115.5 -348.5t-302.5 -132.5t-302 130.5t-115 338.5z M227 451q0 -151 70 -242.5t192 -91.5t192.5 91.5t70.5 242.5t-70.5 243t-192.5 92t-192 -92t-70 -243z" />
<glyph unicode="&#xf1;" horiz-adv-x="1001" d="M137 0v909h154v-114q42 58 113.5 95.5t154.5 37.5q153 0 236.5 -90t83.5 -242v-596h-156v571q0 99 -50.5 157t-150.5 58q-78 0 -142 -47.5t-89 -122.5v-616h-154zM240 1061q0 111 40 176.5t115 65.5q32 0 64 -18.5t53.5 -41t47.5 -41t48 -18.5q67 0 70 112h98 q0 -111 -40 -176t-115 -65q-32 0 -63.5 18.5t-53.5 41t-48 41t-48 18.5q-70 0 -70 -113h-98z" />
<glyph unicode="&#xf2;" horiz-adv-x="978" d="M72 455q0 210 115 341.5t302 131.5q186 0 302 -131.5t116 -341.5t-116 -341.5t-302 -131.5q-187 0 -302 131.5t-115 341.5zM227 455q0 -152 70.5 -245t191.5 -93t192 93.5t71 244.5t-71 244.5t-192 93.5t-191.5 -93t-70.5 -245zM244 1331h159l164 -274h-141z" />
<glyph unicode="&#xf3;" horiz-adv-x="978" d="M72 455q0 210 115 341.5t302 131.5q186 0 302 -131.5t116 -341.5t-116 -341.5t-302 -131.5q-187 0 -302 131.5t-115 341.5zM227 455q0 -152 70.5 -245t191.5 -93t192 93.5t71 244.5t-71 244.5t-192 93.5t-191.5 -93t-70.5 -245zM408 1057l163 274h160l-182 -274h-141z " />
<glyph unicode="&#xf4;" horiz-adv-x="978" d="M72 455q0 210 115 341.5t302 131.5q186 0 302 -131.5t116 -341.5t-116 -341.5t-302 -131.5q-187 0 -302 131.5t-115 341.5zM227 455q0 -152 70.5 -245t191.5 -93t192 93.5t71 244.5t-71 244.5t-192 93.5t-191.5 -93t-70.5 -245zM229 1042l189 279h143l189 -279h-134 l-127 181l-127 -181h-133z" />
<glyph unicode="&#xf5;" horiz-adv-x="978" d="M72 455q0 210 115 341.5t302 131.5q186 0 302 -131.5t116 -341.5t-116 -341.5t-302 -131.5q-187 0 -302 131.5t-115 341.5zM221 1061q0 111 40.5 176.5t115.5 65.5q32 0 64 -18.5t53.5 -41t47.5 -41t48 -18.5q66 0 69 112h99q0 -111 -40.5 -176t-115.5 -65 q-32 0 -63.5 18.5t-53.5 41t-48 41t-48 18.5q-70 0 -70 -113h-98zM227 455q0 -152 70.5 -245t191.5 -93t192 93.5t71 244.5t-71 244.5t-192 93.5t-191.5 -93t-70.5 -245z" />
<glyph unicode="&#xf6;" horiz-adv-x="978" d="M72 455q0 210 115 341.5t302 131.5q186 0 302 -131.5t116 -341.5t-116 -341.5t-302 -131.5q-187 0 -302 131.5t-115 341.5zM227 455q0 -152 70.5 -245t191.5 -93t192 93.5t71 244.5t-71 244.5t-192 93.5t-191.5 -93t-70.5 -245zM252 1169q0 41 28 69t68 28q39 0 66.5 -28 t27.5 -69q0 -38 -28 -66t-66 -28q-40 0 -68 28t-28 66zM541 1169q0 41 27 69t65 28q40 0 68 -28t28 -69q0 -38 -28 -66t-68 -28q-38 0 -65 28t-27 66z" />
<glyph unicode="&#xf7;" horiz-adv-x="1105" d="M150 545v127h806v-127h-806zM451 279q0 43 29.5 73.5t72.5 30.5t73.5 -30.5t30.5 -73.5t-30.5 -74t-73.5 -31q-42 0 -72 31t-30 74zM451 938q0 43 29.5 73.5t72.5 30.5t73.5 -30.5t30.5 -73.5t-30.5 -73.5t-73.5 -30.5t-72.5 30.5t-29.5 73.5z" />
<glyph unicode="&#xf8;" horiz-adv-x="999" d="M82 2l100 129q-100 124 -100 324q0 210 115.5 341.5t302.5 131.5q137 0 239 -76l86 109l84 -60l-94 -123q103 -134 103 -323q0 -210 -116 -341.5t-302 -131.5q-144 0 -244 77l-90 -116zM236 455q0 -122 40 -201l377 485q-63 54 -153 54q-121 0 -192.5 -93.5t-71.5 -244.5 zM342 170q62 -53 158 -53q121 0 192.5 93.5t71.5 244.5q0 117 -45 202z" />
<glyph unicode="&#xf9;" horiz-adv-x="997" d="M125 313v596h156v-571q0 -99 49.5 -157t148.5 -58q78 0 140.5 47.5t87.5 122.5v616h155v-909h-155v115q-41 -58 -111 -95.5t-154 -37.5q-152 0 -234.5 89.5t-82.5 241.5zM252 1331h160l163 -274h-141z" />
<glyph unicode="&#xfa;" horiz-adv-x="997" d="M125 313v596h156v-571q0 -99 49.5 -157t148.5 -58q78 0 140.5 47.5t87.5 122.5v616h155v-909h-155v115q-41 -58 -111 -95.5t-154 -37.5q-152 0 -234.5 89.5t-82.5 241.5zM416 1057l164 274h159l-182 -274h-141z" />
<glyph unicode="&#xfb;" horiz-adv-x="997" d="M125 313v596h156v-571q0 -99 49.5 -157t148.5 -58q78 0 140.5 47.5t87.5 122.5v616h155v-909h-155v115q-41 -58 -111 -95.5t-154 -37.5q-152 0 -234.5 89.5t-82.5 241.5zM238 1042l188 279h143l189 -279h-133l-127 181l-127 -181h-133z" />
<glyph unicode="&#xfc;" horiz-adv-x="997" d="M125 313v596h156v-571q0 -99 49.5 -157t148.5 -58q78 0 140.5 47.5t87.5 122.5v616h155v-909h-155v115q-41 -58 -111 -95.5t-154 -37.5q-152 0 -234.5 89.5t-82.5 241.5zM260 1169q0 41 28 69t68 28q39 0 67 -28t28 -69q0 -38 -28.5 -66t-66.5 -28q-40 0 -68 28t-28 66z M549 1169q0 41 27 69t65 28q40 0 68 -28t28 -69q0 -38 -28 -66t-68 -28q-38 0 -65 28t-27 66z" />
<glyph unicode="&#xfd;" horiz-adv-x="931" d="M37 909h166l268 -716l264 716h160l-489 -1257h-152l137 342zM385 1057l164 274h160l-183 -274h-141z" />
<glyph unicode="&#xfe;" horiz-adv-x="1028" d="M137 -348v1679h154v-528q38 53 106.5 89t149.5 36q98 0 176.5 -38.5t129 -104t77 -150t26.5 -180.5t-26.5 -180.5t-77 -150t-129 -104t-176.5 -38.5q-81 0 -149.5 35.5t-106.5 88.5v-454h-154zM291 270q35 -70 97.5 -109.5t135.5 -39.5q128 0 202.5 93t74.5 241 t-74.5 240.5t-202.5 92.5q-73 0 -135.5 -39.5t-97.5 -109.5v-369z" />
<glyph unicode="&#xff;" horiz-adv-x="931" d="M37 909h166l268 -716l264 716h160l-489 -1257h-152l137 342zM227 1169q0 41 28.5 69t68.5 28q39 0 66.5 -28t27.5 -69q0 -38 -28 -66t-66 -28q-40 0 -68.5 28t-28.5 66zM516 1169q0 41 27 69t65 28q40 0 68.5 -28t28.5 -69q0 -38 -28.5 -66t-68.5 -28q-38 0 -65 28 t-27 66z" />
<glyph unicode="&#x152;" horiz-adv-x="1699" d="M76 629q0 287 166.5 457.5t443.5 170.5h911v-143h-610v-397h549v-144h-549v-428h610v-145h-911q-277 0 -443.5 171t-166.5 458zM238 629q0 -224 119.5 -354t332.5 -130h139v969h-139q-213 0 -332.5 -130.5t-119.5 -354.5z" />
<glyph unicode="&#x153;" horiz-adv-x="1611" d="M72 455q0 210 115 341.5t302 131.5q108 0 195 -51t139 -140q118 191 338 191q183 0 283 -122t100 -325v-55h-645q3 -144 75.5 -228.5t188.5 -84.5q87 0 145.5 41.5t77.5 117.5h146q-25 -133 -121.5 -211.5t-247.5 -78.5q-109 0 -197.5 48.5t-142.5 137.5 q-53 -89 -139.5 -137.5t-194.5 -48.5q-187 0 -302 131.5t-115 341.5zM227 455q0 -152 70.5 -245t191.5 -93t192 93.5t71 244.5t-71 244.5t-192 93.5t-191.5 -93t-70.5 -245zM905 543h484q-3 109 -61 181.5t-167 72.5q-103 0 -171 -67.5t-85 -186.5z" />
<glyph unicode="&#x178;" horiz-adv-x="1140" d="M35 1257h176l362 -593l363 593h172l-459 -739v-518h-160v518zM332 1479q0 40 28 67t68 27q39 0 66.5 -27.5t27.5 -66.5t-28 -67t-66 -28q-40 0 -68 27.5t-28 67.5zM621 1479q0 40 27 67t65 27q40 0 68 -27t28 -67t-28 -67.5t-68 -27.5q-38 0 -65 27.5t-27 67.5z" />
<glyph unicode="&#x2c6;" horiz-adv-x="1024" d="M252 1042l188 279h144l188 -279h-133l-127 181l-127 -181h-133z" />
<glyph unicode="&#x2dc;" horiz-adv-x="1024" d="M244 1061q0 111 40 176.5t115 65.5q32 0 64 -18.5t53.5 -41t47.5 -41t48 -18.5q67 0 70 112h98q0 -111 -40 -176t-115 -65q-32 0 -63.5 18.5t-53.5 41t-48 41t-48 18.5q-70 0 -70 -113h-98z" />
<glyph unicode="&#x2000;" horiz-adv-x="840" />
<glyph unicode="&#x2001;" horiz-adv-x="1681" />
<glyph unicode="&#x2002;" horiz-adv-x="840" />
<glyph unicode="&#x2003;" horiz-adv-x="1681" />
<glyph unicode="&#x2004;" horiz-adv-x="560" />
<glyph unicode="&#x2005;" horiz-adv-x="420" />
<glyph unicode="&#x2006;" horiz-adv-x="280" />
<glyph unicode="&#x2007;" horiz-adv-x="280" />
<glyph unicode="&#x2008;" horiz-adv-x="210" />
<glyph unicode="&#x2009;" horiz-adv-x="336" />
<glyph unicode="&#x200a;" horiz-adv-x="93" />
<glyph unicode="&#x2010;" d="M82 463v143h493v-143h-493z" />
<glyph unicode="&#x2011;" d="M82 463v143h493v-143h-493z" />
<glyph unicode="&#x2012;" d="M82 463v143h493v-143h-493z" />
<glyph unicode="&#x2013;" horiz-adv-x="972" d="M82 473v125h809v-125h-809z" />
<glyph unicode="&#x2014;" horiz-adv-x="1732" d="M82 473v125h1569v-125h-1569z" />
<glyph unicode="&#x2018;" horiz-adv-x="344" d="M51 954q0 55 45 129l105 174h104l-125 -210q39 -6 64.5 -33.5t25.5 -69.5q0 -47 -32 -77.5t-78 -30.5q-47 0 -78 31.5t-31 86.5z" />
<glyph unicode="&#x2019;" horiz-adv-x="344" d="M39 854l125 211q-40 6 -65 33.5t-25 68.5q0 47 32 78t78 31q47 0 78 -32t31 -87t-45 -129l-105 -174h-104z" />
<glyph unicode="&#x201a;" horiz-adv-x="329" d="M39 -211l125 211q-40 6 -65 33.5t-25 68.5q0 47 32 78t78 31q47 0 78 -32t31 -87t-45 -129l-105 -174h-104z" />
<glyph unicode="&#x201c;" d="M51 954q0 55 45 129l105 174h104l-125 -210q39 -6 64.5 -33.5t25.5 -69.5q0 -47 -32 -77.5t-78 -30.5q-47 0 -78 31.5t-31 86.5zM365 954q0 55 45 129l104 174h104l-124 -210q39 -6 64.5 -33.5t25.5 -69.5q0 -47 -32.5 -77.5t-78.5 -30.5q-47 0 -77.5 31.5t-30.5 86.5z " />
<glyph unicode="&#x201d;" d="M39 854l125 211q-40 6 -65 33.5t-25 68.5q0 47 32 78t78 31q47 0 78 -32t31 -87t-45 -129l-105 -174h-104zM352 854l125 211q-40 6 -65 33.5t-25 68.5q0 47 32.5 78t78.5 31q47 0 77.5 -32t30.5 -87t-45 -129l-104 -174h-105z" />
<glyph unicode="&#x201e;" d="M39 -211l125 211q-40 6 -65 33.5t-25 68.5q0 47 32 78t78 31q47 0 78 -32t31 -87t-45 -129l-105 -174h-104zM352 -211l125 211q-40 6 -65 33.5t-25 68.5q0 47 32.5 78t78.5 31q47 0 77.5 -32t30.5 -87t-45 -129l-104 -174h-105z" />
<glyph unicode="&#x2022;" horiz-adv-x="702" d="M72 535q0 122 80 200t198 78q119 0 200 -78.5t81 -199.5t-81 -200t-200 -79q-118 0 -198 78.5t-80 200.5z" />
<glyph unicode="&#x2026;" horiz-adv-x="1134" d="M66 100q0 47 32 80t78 33q45 0 77 -33t32 -80t-32 -78.5t-77 -31.5q-46 0 -78 31.5t-32 78.5zM459 100q0 47 32 80t76 33q46 0 78.5 -33t32.5 -80t-32.5 -78.5t-78.5 -31.5q-45 0 -76.5 31.5t-31.5 78.5zM850 100q0 47 32.5 80t78.5 33q44 0 76 -33t32 -80t-31.5 -78.5 t-76.5 -31.5q-46 0 -78.5 31.5t-32.5 78.5z" />
<glyph unicode="&#x202f;" horiz-adv-x="336" />
<glyph unicode="&#x2039;" horiz-adv-x="440" d="M51 455l189 303h149l-188 -303l188 -303h-149z" />
<glyph unicode="&#x203a;" horiz-adv-x="440" d="M51 152l189 303l-189 303h150l188 -303l-188 -303h-150z" />
<glyph unicode="&#x205f;" horiz-adv-x="420" />
<glyph unicode="&#x20ac;" horiz-adv-x="1112" d="M59 430v123h109q-2 25 -2 76q0 42 2 65h-109v123h123q41 213 169 336t304 123q157 0 263 -90.5t141 -253.5h-148q-28 96 -94 149.5t-162 53.5q-118 0 -200 -85t-115 -233h420l-25 -123h-411q-2 -23 -2 -65q0 -51 2 -76h391l-25 -123h-348q34 -144 115.5 -225.5 t197.5 -81.5q96 0 162 53.5t94 149.5h148q-35 -163 -141 -253.5t-263 -90.5q-174 0 -300.5 119.5t-170.5 328.5h-125z" />
<glyph unicode="&#x2122;" horiz-adv-x="1200" d="M37 1163v94h444v-94h-166v-426h-110v426h-168zM565 737v520h131l142 -368l141 368h131v-520h-102v344l-134 -344h-73l-133 344v-344h-103z" />
<glyph unicode="&#x25fc;" horiz-adv-x="910" d="M0 0v910h910v-910h-910z" />
<glyph unicode="&#xfb01;" horiz-adv-x="1019" d="M41 778v131h154v152q0 134 77.5 211.5t200.5 77.5q67 0 119 -21v-139q-39 24 -96 24q-69 0 -109.5 -42.5t-40.5 -122.5v-140h205v-131h-205v-778h-151v778h-154zM707 1184q0 41 29 69.5t69 28.5q41 0 70.5 -28.5t29.5 -69.5q0 -40 -29.5 -69.5t-70.5 -29.5 q-40 0 -69 29.5t-29 69.5zM729 0v909h154v-909h-154z" />
<glyph unicode="&#xfb02;" horiz-adv-x="1019" d="M41 778v131h154v152q0 134 77.5 211.5t200.5 77.5q67 0 119 -21v-139q-39 24 -96 24q-69 0 -109.5 -42.5t-40.5 -122.5v-140h205v-131h-205v-778h-151v778h-154zM729 0v1331h154v-1331h-154z" />
</font>
</defs>
</svg>
