<svg version="1.0" xmlns="http://www.w3.org/2000/svg"
 width="216" height="218" viewBox="0 0 216 218">
<g transform="translate(0,218) scale(0.1,-0.1)"
fill="#000000" stroke="none">
<path d="M0 1095 l0 -1085 1075 0 1075 0 0 1085 0 1085 -1075 0 -1075 0 0
-1085z m1217 538 c-15 -158 -29 -434 -24 -439 3 -3 95 31 204 76 109 46 206
85 215 87 13 4 23 -14 48 -97 17 -56 29 -105 25 -108 -4 -4 -105 -32 -226 -62
-121 -30 -219 -59 -218 -65 1 -5 68 -95 150 -199 l149 -188 -84 -64 c-47 -35
-89 -64 -93 -64 -4 0 -64 97 -133 215 -69 118 -127 215 -130 215 -3 0 -61 -95
-130 -210 -84 -142 -129 -209 -138 -205 -25 9 -161 110 -161 119 -1 5 69 96
154 202 96 120 151 196 143 199 -7 2 -94 25 -193 50 -99 26 -196 51 -216 56
l-37 9 30 98 c16 53 33 100 37 105 4 4 104 -33 222 -82 118 -49 216 -87 218
-85 4 4 -17 397 -25 462 l-5 42 112 0 112 0 -6 -67z"/>
</g>
</svg>
