<svg width="1000" height="251" viewBox="0 0 1000 251" fill="none" xmlns="http://www.w3.org/2000/svg">
<g clip-path="url(#clip0_2009_1234)">
<path d="M251.411 58.4582V197.299H268.887V139.238H306.558C320.151 139.238 331.025 136.131 339.181 129.529C347.337 122.927 351.609 112.829 351.609 98.8482C351.609 85.0613 347.337 74.9637 339.181 68.3615C331.025 61.7593 320.151 58.4582 306.558 58.4582H251.411ZM307.724 123.704H268.887V73.9928H307.724C316.268 73.9928 322.676 76.1289 326.948 80.2067C331.22 84.2845 333.356 90.4984 333.356 98.8482C333.356 107.392 331.22 113.606 326.948 117.684C322.676 121.762 316.268 123.704 307.724 123.704ZM365.578 192.25C371.403 197.493 379.365 200.017 389.462 200.017C397.424 200.017 404.22 198.658 410.046 195.551C415.677 192.638 420.143 188.366 423.638 182.735H424.027C424.415 188.561 425.969 192.638 428.299 194.969C430.629 197.299 434.124 198.27 438.785 198.27C440.921 198.27 443.445 198.076 446.358 197.299V186.425L444.028 186.619C442.086 186.619 440.921 185.842 440.144 183.9C439.367 181.958 438.979 179.046 438.979 174.968V127.393C438.979 116.13 435.678 107.975 429.076 102.926C422.473 97.8773 414.123 95.3529 403.832 95.3529C389.851 95.3529 379.559 98.4599 372.763 104.48C365.772 110.693 362.083 118.849 361.694 128.947H378.005C378.394 124.092 379.365 120.208 380.918 117.296C382.472 114.383 384.996 112.247 388.491 110.888C391.987 109.722 397.035 108.946 403.249 108.946C416.842 108.946 423.833 113.8 423.833 123.509C423.833 126.616 422.862 129.141 421.308 130.888C419.561 132.636 417.036 133.995 413.735 134.966C410.434 136.131 405.579 137.102 399.171 138.267C389.462 140.015 381.695 141.957 375.869 144.287C369.85 146.617 365.189 150.112 361.888 154.384C358.393 158.851 356.84 164.676 356.84 171.861C356.84 180.405 359.752 187.201 365.578 192.25ZM377.423 182.541C374.51 180.017 373.151 176.133 373.151 171.084C373.151 165.647 375.093 161.375 379.365 158.462C383.443 155.744 390.433 153.219 400.531 151.083C413.735 148.559 421.502 146.035 423.833 143.316V159.045C423.833 168.171 420.726 174.968 414.706 179.628C408.686 184.289 400.725 186.425 391.016 186.425C384.802 186.425 380.141 185.26 377.423 182.541ZM460.691 231.087C464.38 231.863 467.876 232.058 470.983 232.058C477.973 232.058 483.993 229.922 489.042 225.261C494.09 220.601 498.945 212.251 503.799 200.212L543.801 98.2657H527.101L497.974 177.104H497.586L467.099 98.2657H449.622L489.818 196.328C487.876 204.289 484.964 209.921 481.08 213.416C477.196 216.911 473.119 218.465 468.458 218.465C466.516 218.465 463.992 218.271 460.691 217.882V231.087ZM556.265 58.4582V197.299H571.8V58.4582H556.265ZM611.469 193.609C618.848 198.076 627.392 200.212 637.49 200.212C647.199 200.212 655.743 198.076 663.122 193.609C670.501 189.337 676.132 183.123 680.016 175.162C683.899 167.201 685.841 158.074 685.841 147.782C685.841 137.685 683.899 128.558 680.016 120.597C676.132 112.635 670.501 106.421 663.122 101.955C655.743 97.6831 647.199 95.3529 637.49 95.3529C627.392 95.3529 618.848 97.6831 611.469 101.955C604.09 106.421 598.653 112.635 594.769 120.597C590.886 128.558 588.944 137.685 588.944 147.782C588.944 158.074 590.886 167.201 594.769 175.162C598.653 183.123 604.09 189.337 611.469 193.609ZM613.411 175.745C607.974 168.366 605.255 159.045 605.255 147.782C605.255 136.52 607.974 127.393 613.411 120.014C618.848 112.635 626.81 108.946 637.49 108.946C647.975 108.946 655.937 112.635 661.374 120.014C666.811 127.393 669.53 136.52 669.53 147.782C669.53 159.045 666.811 168.366 661.374 175.745C655.937 183.123 647.975 186.619 637.49 186.619C626.81 186.619 618.848 183.123 613.411 175.745ZM706.346 192.25C712.171 197.493 720.133 200.017 730.23 200.017C738.192 200.017 744.988 198.658 750.813 195.551C756.445 192.638 760.911 188.366 764.406 182.735H764.795C765.183 188.561 766.736 192.638 769.067 194.969C771.397 197.299 774.892 198.27 779.552 198.27C781.688 198.27 784.213 198.076 787.126 197.299V186.425L784.795 186.619C782.854 186.619 781.688 185.842 780.912 183.9C780.135 181.958 779.747 179.046 779.747 174.968V127.393C779.747 116.13 776.446 107.975 769.843 102.926C763.241 97.8773 754.891 95.3529 744.6 95.3529C730.618 95.3529 720.327 98.4599 713.53 104.48C706.54 110.693 702.85 118.849 702.462 128.947H718.773C719.162 124.092 720.133 120.208 721.686 117.296C723.239 114.383 725.764 112.247 729.259 110.888C732.754 109.722 737.803 108.946 744.017 108.946C757.61 108.946 764.6 113.8 764.6 123.509C764.6 126.616 763.629 129.141 762.076 130.888C760.328 132.636 757.804 133.995 754.503 134.966C751.202 136.131 746.347 137.102 739.939 138.267C730.23 140.015 722.463 141.957 716.637 144.287C710.618 146.617 705.957 150.112 702.656 154.384C699.161 158.851 697.607 164.676 697.607 171.861C697.607 180.405 700.52 187.201 706.346 192.25ZM718.191 182.541C715.278 180.017 713.919 176.133 713.919 171.084C713.919 165.647 715.861 161.375 720.133 158.462C724.21 155.744 731.201 153.219 741.298 151.083C754.503 148.559 762.27 146.035 764.6 143.316V159.045C764.6 168.171 761.493 174.968 755.474 179.628C749.454 184.289 741.493 186.425 731.784 186.425C725.57 186.425 720.909 185.26 718.191 182.541ZM819.865 193.804C826.661 198.076 834.235 200.017 842.584 200.017C855.595 200.017 865.886 195.163 873.654 185.065H874.042V197.299H889.577V58.4582H874.042V111.082H873.654C866.469 100.79 856.177 95.5471 842.584 95.5471C834.235 95.5471 826.661 97.6831 819.865 101.955C813.069 106.227 807.632 112.247 803.748 120.014C799.864 127.976 797.922 137.296 797.922 147.782C797.922 158.462 799.864 167.783 803.748 175.55C807.632 183.512 813.069 189.532 819.865 193.804ZM817.535 166.812C815.205 160.987 814.234 154.579 814.234 147.782C814.234 141.18 815.205 134.772 817.535 128.947C819.671 123.121 822.972 118.266 827.632 114.577C832.099 111.082 837.536 109.14 844.138 109.14C853.264 109.14 860.449 112.829 865.886 119.82C871.323 126.811 874.042 136.131 874.042 147.782C874.042 159.433 871.323 168.948 865.886 175.939C860.449 182.929 853.264 186.425 844.138 186.425C837.536 186.425 832.099 184.677 827.632 180.987C822.972 177.492 819.671 172.638 817.535 166.812Z" fill="white"/>
<g clip-path="url(#clip1_2009_1234)">
<g clip-path="url(#clip2_2009_1234)">
<path d="M93.3371 21.0488L178.108 75.9244V180.083L114.276 219.85V115.692L29.4038 60.889L93.3371 21.0488Z" fill="white"/>
<path d="M86.8412 214.061V132.783L22.874 172.623L86.8412 214.061Z" fill="white"/>
</g>
</g>
<path d="M931.392 78.5934C931.392 75.5124 931.924 72.7065 932.988 70.1756C934.088 67.6081 935.555 65.4257 937.389 63.6284C939.26 61.7945 941.442 60.3823 943.936 59.392C946.467 58.365 949.163 57.8515 952.024 57.8515C954.885 57.8515 957.562 58.365 960.057 59.392C962.551 60.3823 964.715 61.7945 966.549 63.6284C968.419 65.4257 969.887 67.6081 970.95 70.1756C972.051 72.7065 972.601 75.5124 972.601 78.5934C972.601 81.6378 972.051 84.4254 970.95 86.9562C969.887 89.4871 968.419 91.6695 966.549 93.5034C964.715 95.3007 962.551 96.6945 960.057 97.6848C957.562 98.6752 954.885 99.1703 952.024 99.1703C949.163 99.1703 946.467 98.6752 943.936 97.6848C941.442 96.6945 939.26 95.3007 937.389 93.5034C935.555 91.6695 934.088 89.4871 932.988 86.9562C931.924 84.4254 931.392 81.6378 931.392 78.5934ZM935.463 78.5934C935.463 81.1243 935.885 83.4351 936.729 85.5258C937.609 87.5798 938.783 89.3587 940.25 90.8625C941.754 92.3297 943.514 93.4667 945.532 94.2737C947.549 95.0806 949.713 95.4841 952.024 95.4841C954.371 95.4841 956.554 95.0806 958.571 94.2737C960.588 93.4667 962.331 92.3297 963.798 90.8625C965.302 89.3587 966.457 87.5798 967.264 85.5258C968.108 83.4351 968.529 81.1243 968.529 78.5934C968.529 76.0259 968.108 73.6968 967.264 71.6061C966.457 69.5154 965.302 67.7365 963.798 66.2693C962.331 64.7655 960.588 63.6101 958.571 62.8031C956.554 61.9595 954.371 61.5377 952.024 61.5377C949.713 61.5377 947.549 61.9595 945.532 62.8031C943.514 63.6101 941.754 64.7655 940.25 66.2693C938.783 67.7365 937.609 69.5154 936.729 71.6061C935.885 73.6968 935.463 76.0259 935.463 78.5934ZM952.684 80.409H951.694H948.503V88.7718H943.991V66.8195H950.703C952.317 66.8195 953.766 66.9112 955.05 67.0946C956.334 67.278 957.416 67.6264 958.296 68.1399C959.176 68.6168 959.855 69.2953 960.332 70.1756C960.808 71.0559 961.047 72.2113 961.047 73.6418C961.047 74.8522 960.735 75.9709 960.112 76.9979C959.488 78.0249 958.479 78.8502 957.086 79.4737L962.147 88.7718H957.141L952.684 80.409ZM956.535 73.6968C956.535 72.3763 956.059 71.4961 955.105 71.0559C954.188 70.6158 952.959 70.3957 951.419 70.3957H948.503V76.9429H951.694C953.418 76.9429 954.646 76.6678 955.38 76.1176C956.15 75.5674 956.535 74.7605 956.535 73.6968Z" fill="white"/>
</g>
<defs>
<clipPath id="clip0_2009_1234">
<rect width="1000" height="250" fill="white" transform="translate(0 0.388672)"/>
</clipPath>
<clipPath id="clip1_2009_1234">
<rect width="219.511" height="236.396" fill="white" transform="translate(-10.0552 7.08203)"/>
</clipPath>
<clipPath id="clip2_2009_1234">
<rect width="153.658" height="212.757" fill="white" transform="translate(22.874 7.08203)"/>
</clipPath>
</defs>
</svg>
