<svg width="1000" height="251" viewBox="0 0 1000 251" fill="none" xmlns="http://www.w3.org/2000/svg">
<g clip-path="url(#clip0_2034_1204)">
<path d="M251.411 58.6809V197.521H268.887V139.461H306.558C320.151 139.461 331.025 136.354 339.181 129.752C347.337 123.15 351.609 113.052 351.609 99.0709C351.609 85.2839 347.337 75.1864 339.181 68.5842C331.025 61.982 320.151 58.6809 306.558 58.6809H251.411ZM307.724 123.926H268.887V74.2155H307.724C316.268 74.2155 322.676 76.3515 326.948 80.4293C331.22 84.5072 333.356 90.721 333.356 99.0709C333.356 107.615 331.22 113.829 326.948 117.907C322.676 121.984 316.268 123.926 307.724 123.926ZM365.578 192.473C371.403 197.716 379.365 200.24 389.462 200.24C397.424 200.24 404.22 198.881 410.046 195.774C415.677 192.861 420.143 188.589 423.638 182.958H424.027C424.415 188.783 425.969 192.861 428.299 195.191C430.629 197.521 434.124 198.492 438.785 198.492C440.921 198.492 443.445 198.298 446.358 197.521V186.647L444.028 186.841C442.086 186.841 440.921 186.065 440.144 184.123C439.367 182.181 438.979 179.268 438.979 175.19V127.616C438.979 116.353 435.678 108.197 429.076 103.149C422.473 98.1 414.123 95.5756 403.832 95.5756C389.851 95.5756 379.559 98.6825 372.763 104.702C365.772 110.916 362.083 119.072 361.694 129.169H378.005C378.394 124.315 379.365 120.431 380.918 117.518C382.472 114.605 384.996 112.469 388.491 111.11C391.987 109.945 397.035 109.168 403.249 109.168C416.842 109.168 423.833 114.023 423.833 123.732C423.833 126.839 422.862 129.363 421.308 131.111C419.561 132.859 417.036 134.218 413.735 135.189C410.434 136.354 405.579 137.325 399.171 138.49C389.462 140.238 381.695 142.179 375.869 144.51C369.85 146.84 365.189 150.335 361.888 154.607C358.393 159.073 356.84 164.899 356.84 172.084C356.84 180.628 359.752 187.424 365.578 192.473ZM377.423 182.764C374.51 180.239 373.151 176.356 373.151 171.307C373.151 165.87 375.093 161.598 379.365 158.685C383.443 155.966 390.433 153.442 400.531 151.306C413.735 148.782 421.502 146.257 423.833 143.539V159.268C423.833 168.394 420.726 175.19 414.706 179.851C408.686 184.511 400.725 186.647 391.016 186.647C384.802 186.647 380.141 185.482 377.423 182.764ZM460.691 231.309C464.38 232.086 467.876 232.28 470.983 232.28C477.973 232.28 483.993 230.144 489.042 225.484C494.09 220.823 498.945 212.474 503.799 200.434L543.801 98.4883H527.101L497.974 177.326H497.586L467.099 98.4883H449.622L489.818 196.551C487.876 204.512 484.964 210.143 481.08 213.639C477.196 217.134 473.119 218.687 468.458 218.687C466.516 218.687 463.992 218.493 460.691 218.105V231.309ZM556.265 58.6809V197.521H571.8V58.6809H556.265ZM611.469 193.832C618.848 198.298 627.392 200.434 637.49 200.434C647.199 200.434 655.743 198.298 663.122 193.832C670.501 189.56 676.132 183.346 680.016 175.385C683.899 167.423 685.841 158.297 685.841 148.005C685.841 137.907 683.899 128.781 680.016 120.819C676.132 112.858 670.501 106.644 663.122 102.178C655.743 97.9058 647.199 95.5756 637.49 95.5756C627.392 95.5756 618.848 97.9058 611.469 102.178C604.09 106.644 598.653 112.858 594.769 120.819C590.886 128.781 588.944 137.907 588.944 148.005C588.944 158.297 590.886 167.423 594.769 175.385C598.653 183.346 604.09 189.56 611.469 193.832ZM613.411 175.967C607.974 168.588 605.255 159.268 605.255 148.005C605.255 136.742 607.974 127.616 613.411 120.237C618.848 112.858 626.81 109.168 637.49 109.168C647.975 109.168 655.937 112.858 661.374 120.237C666.811 127.616 669.53 136.742 669.53 148.005C669.53 159.268 666.811 168.588 661.374 175.967C655.937 183.346 647.975 186.841 637.49 186.841C626.81 186.841 618.848 183.346 613.411 175.967ZM706.346 192.473C712.171 197.716 720.133 200.24 730.23 200.24C738.192 200.24 744.988 198.881 750.813 195.774C756.445 192.861 760.911 188.589 764.406 182.958H764.795C765.183 188.783 766.736 192.861 769.067 195.191C771.397 197.521 774.892 198.492 779.552 198.492C781.688 198.492 784.213 198.298 787.126 197.521V186.647L784.795 186.841C782.854 186.841 781.688 186.065 780.912 184.123C780.135 182.181 779.747 179.268 779.747 175.19V127.616C779.747 116.353 776.446 108.197 769.843 103.149C763.241 98.1 754.891 95.5756 744.6 95.5756C730.618 95.5756 720.327 98.6825 713.53 104.702C706.54 110.916 702.85 119.072 702.462 129.169H718.773C719.162 124.315 720.133 120.431 721.686 117.518C723.239 114.605 725.764 112.469 729.259 111.11C732.754 109.945 737.803 109.168 744.017 109.168C757.61 109.168 764.6 114.023 764.6 123.732C764.6 126.839 763.629 129.363 762.076 131.111C760.328 132.859 757.804 134.218 754.503 135.189C751.202 136.354 746.347 137.325 739.939 138.49C730.23 140.238 722.463 142.179 716.637 144.51C710.618 146.84 705.957 150.335 702.656 154.607C699.161 159.073 697.607 164.899 697.607 172.084C697.607 180.628 700.52 187.424 706.346 192.473ZM718.191 182.764C715.278 180.239 713.919 176.356 713.919 171.307C713.919 165.87 715.861 161.598 720.133 158.685C724.21 155.966 731.201 153.442 741.298 151.306C754.503 148.782 762.27 146.257 764.6 143.539V159.268C764.6 168.394 761.493 175.19 755.474 179.851C749.454 184.511 741.493 186.647 731.784 186.647C725.57 186.647 720.909 185.482 718.191 182.764ZM819.865 194.026C826.661 198.298 834.235 200.24 842.584 200.24C855.595 200.24 865.886 195.385 873.654 185.288H874.042V197.521H889.577V58.6809H874.042V111.304H873.654C866.469 101.013 856.177 95.7698 842.584 95.7698C834.235 95.7698 826.661 97.9058 819.865 102.178C813.069 106.45 807.632 112.469 803.748 120.237C799.864 128.198 797.922 137.519 797.922 148.005C797.922 158.685 799.864 168.006 803.748 175.773C807.632 183.735 813.069 189.754 819.865 194.026ZM817.535 167.035C815.205 161.209 814.234 154.801 814.234 148.005C814.234 141.403 815.205 134.995 817.535 129.169C819.671 123.344 822.972 118.489 827.632 114.8C832.099 111.304 837.536 109.363 844.138 109.363C853.264 109.363 860.449 113.052 865.886 120.043C871.323 127.033 874.042 136.354 874.042 148.005C874.042 159.656 871.323 169.171 865.886 176.161C860.449 183.152 853.264 186.647 844.138 186.647C837.536 186.647 832.099 184.9 827.632 181.21C822.972 177.715 819.671 172.86 817.535 167.035Z" fill="black"/>
<g clip-path="url(#clip1_2034_1204)">
<g clip-path="url(#clip2_2034_1204)">
<path d="M93.3371 21.2715L178.108 76.147V180.305L114.276 220.073V115.915L29.4038 61.1116L93.3371 21.2715Z" fill="black"/>
<path d="M86.8412 214.284V133.006L22.874 172.846L86.8412 214.284Z" fill="black"/>
</g>
</g>
<path d="M931.392 78.8161C931.392 75.7351 931.924 72.9291 932.988 70.3983C934.088 67.8307 935.555 65.6483 937.389 63.8511C939.26 62.0171 941.442 60.605 943.936 59.6147C946.467 58.5876 949.163 58.0741 952.024 58.0741C954.885 58.0741 957.562 58.5876 960.057 59.6147C962.551 60.605 964.715 62.0171 966.549 63.8511C968.419 65.6483 969.887 67.8307 970.95 70.3983C972.051 72.9291 972.601 75.7351 972.601 78.8161C972.601 81.8604 972.051 84.648 970.95 87.1789C969.887 89.7097 968.419 91.8921 966.549 93.7261C964.715 95.5233 962.551 96.9171 960.057 97.9075C957.562 98.8978 954.885 99.393 952.024 99.393C949.163 99.393 946.467 98.8978 943.936 97.9075C941.442 96.9171 939.26 95.5233 937.389 93.7261C935.555 91.8921 934.088 89.7097 932.988 87.1789C931.924 84.648 931.392 81.8604 931.392 78.8161ZM935.463 78.8161C935.463 81.3469 935.885 83.6577 936.729 85.7484C937.609 87.8024 938.783 89.5814 940.25 91.0852C941.754 92.5524 943.514 93.6894 945.532 94.4963C947.549 95.3033 949.713 95.7067 952.024 95.7067C954.371 95.7067 956.554 95.3033 958.571 94.4963C960.588 93.6894 962.331 92.5524 963.798 91.0852C965.302 89.5814 966.457 87.8024 967.264 85.7484C968.108 83.6577 968.529 81.3469 968.529 78.8161C968.529 76.2486 968.108 73.9194 967.264 71.8287C966.457 69.738 965.302 67.9591 963.798 66.492C962.331 64.9881 960.588 63.8327 958.571 63.0258C956.554 62.1822 954.371 61.7604 952.024 61.7604C949.713 61.7604 947.549 62.1822 945.532 63.0258C943.514 63.8327 941.754 64.9881 940.25 66.492C938.783 67.9591 937.609 69.738 936.729 71.8287C935.885 73.9194 935.463 76.2486 935.463 78.8161ZM952.684 80.6317H951.694H948.503V88.9945H943.991V67.0421H950.703C952.317 67.0421 953.766 67.1338 955.05 67.3172C956.334 67.5006 957.416 67.8491 958.296 68.3626C959.176 68.8394 959.855 69.518 960.332 70.3983C960.808 71.2786 961.047 72.434 961.047 73.8644C961.047 75.0748 960.735 76.1935 960.112 77.2206C959.488 78.2476 958.479 79.0728 957.086 79.6964L962.147 88.9945H957.141L952.684 80.6317ZM956.535 73.9194C956.535 72.599 956.059 71.7187 955.105 71.2786C954.188 70.8384 952.959 70.6183 951.419 70.6183H948.503V77.1655H951.694C953.418 77.1655 954.646 76.8904 955.38 76.3403C956.15 75.7901 956.535 74.9831 956.535 73.9194Z" fill="black"/>
</g>
<defs>
<clipPath id="clip0_2034_1204">
<rect width="1000" height="250" fill="white" transform="translate(0 0.611328)"/>
</clipPath>
<clipPath id="clip1_2034_1204">
<rect width="219.511" height="236.396" fill="white" transform="translate(-10.0552 7.30469)"/>
</clipPath>
<clipPath id="clip2_2034_1204">
<rect width="153.658" height="212.757" fill="white" transform="translate(22.874 7.30469)"/>
</clipPath>
</defs>
</svg>
