<?xml version="1.0" encoding="utf-8"?>
<!-- Generator: Adobe Illustrator 25.2.1, SVG Export Plug-In . SVG Version: 6.00 Build 0)  -->
<svg version="1.1" id="Layer_1" xmlns="http://www.w3.org/2000/svg" xmlns:xlink="http://www.w3.org/1999/xlink" x="0px" y="0px"
	 viewBox="0 0 124 30" style="enable-background:new 0 0 124 30;" xml:space="preserve">
<style type="text/css">
	.st0{fill:#333333;}
</style>
<path class="st0" d="M34.813099,6.555H41.3451c1.385273-0.070708,2.751808,0.344133,3.863998,1.173
	c1.039825,0.899059,1.586941,2.241208,1.472,3.611c0.111458,1.37593-0.434399,2.723513-1.472,3.634
	c-1.118271,0.814574-2.4823,1.220535-3.863998,1.15h-4.461998V23h-2.07L34.813099,6.555z M41.483101,14.283
	c0.822922,0.06823,1.639957-0.18761,2.277-0.713c0.549107-0.607606,0.823647-1.41459,0.758999-2.231
	c0.067909-0.809881-0.207489-1.611044-0.758999-2.208c-0.630104-0.539837-1.450134-0.804896-2.277-0.736h-4.599998v5.888
	L41.483101,14.283z M51.1646,23.321999c-1.024158,0.052488-2.03162-0.275143-2.828999-0.92
	c-0.688705-0.609777-1.068405-1.495747-1.035-2.414999c-0.036377-0.737299,0.174046-1.465687,0.598-2.07
	c0.430389-0.544542,1.003754-0.958641,1.655998-1.195999c0.89489-0.325996,1.819183-0.564774,2.759998-0.712999
	c0.58239-0.095267,1.158451-0.225842,1.724998-0.391c0.333458-0.086607,0.64114-0.252282,0.896999-0.483
	c0.209099-0.241613,0.316288-0.554937,0.299-0.874c0-1.150001-0.812668-1.725001-2.438-1.725
	c-0.591373-0.020433-1.182041,0.057286-1.748001,0.23c-0.385189,0.128752-0.706268,0.400434-0.896999,0.759
	c-0.208683,0.431378-0.32613,0.901169-0.345001,1.38h-1.931999c0.013546-1.106599,0.488823-2.157211,1.311001-2.898
	c1.053455-0.797718,2.362473-1.182241,3.68-1.081c1.069542-0.048652,2.123863,0.267645,2.990002,0.897
	c0.835869,0.720024,1.272713,1.799289,1.173,2.898v5.635c-0.016964,0.358055,0.029758,0.716278,0.138,1.058001
	c0.066074,0.196636,0.252625,0.327223,0.459999,0.322001l0.276001-0.023001V23c-0.293846,0.071281-0.594673,0.10985-0.896999,0.115
	c-0.448277,0.029144-0.891262-0.110313-1.242001-0.391001c-0.327774-0.411825-0.506161-0.922657-0.506001-1.448999h-0.046001
	c-0.384689,0.646172-0.942337,1.171953-1.610001,1.518C52.844852,23.164421,52.008141,23.345972,51.1646,23.321999z
	 M49.232601,19.894999c-0.036285,0.504335,0.148373,0.999548,0.506001,1.357c0.461899,0.345982,1.035038,0.509735,1.610001,0.459999
	c0.998661,0.049717,1.98558-0.233416,2.806-0.805c0.737389-0.586956,1.141094-1.497444,1.081001-2.438v-1.862997
	c-0.836132,0.516708-1.781067,0.831686-2.759998,0.92c-0.881981,0.135984-1.731636,0.432194-2.507,0.874001
	C49.478649,18.735281,49.199535,19.302231,49.232601,19.894999z M60.820301,27.116999
	c-0.408855-0.003748-0.816658-0.042219-1.219002-0.115V25.438c0.305218,0.039368,0.612324,0.062401,0.919998,0.069
	c0.560413-0.003313,1.097176-0.226274,1.494999-0.621c0.540234-0.546392,0.901249-1.244356,1.035-2.000999L58.290298,11.27h2.07
	l3.611,9.338001h0.045998l3.449997-9.338h1.977997l-4.737999,12.075c-0.363663,1.095852-0.959949,2.100128-1.748001,2.944
	C62.381443,26.833206,61.613956,27.130299,60.820301,27.116999z M70.9216,6.555h1.839996V23H70.9216V6.555z M80.542297,23.345001
	c-1.079521,0.026121-2.145523-0.244358-3.082001-0.782c-0.857864-0.520388-1.54528-1.279743-1.977997-2.184999
	c-0.473877-1.014378-0.709877-2.123568-0.690002-3.243c-0.021645-1.112206,0.214523-2.214319,0.690002-3.22
	c0.42762-0.914654,1.1157-1.682744,1.977997-2.208c0.936478-0.537642,2.00248-0.80812,3.082001-0.782
	c1.06498-0.026295,2.116249,0.244486,3.036003,0.782c0.872543,0.519647,1.569481,1.28868,2.000999,2.208
	c0.475479,1.005681,0.711647,2.107795,0.690002,3.22c0.019875,1.119432-0.216125,2.228622-0.690002,3.243
	c-0.436684,0.909891-1.132935,1.670162-2.000999,2.184999C82.658546,23.100515,81.607277,23.371294,80.542297,23.345001z
	 M76.724297,17.135002c-0.046257,1.179615,0.292839,2.342216,0.966003,3.312c1.374138,1.568766,3.759834,1.72654,5.328598,0.3524
	c0.125099-0.109579,0.242821-0.227301,0.352402-0.3524c0.673164-0.969784,1.01226-2.132385,0.966003-3.312
	c0.048729-1.172768-0.290817-2.328851-0.966003-3.289c-1.337448-1.568765-3.693398-1.756284-5.262161-0.418835
	c-0.15049,0.128296-0.290543,0.268349-0.418839,0.418835C77.015114,14.80615,76.675568,15.962234,76.724297,17.135002z
	 M91.527,23.322001c-1.024162,0.052523-2.031639-0.275112-2.829002-0.92c-0.688705-0.609776-1.068413-1.495747-1.035004-2.415001
	c-0.03643-0.737303,0.174004-1.465708,0.598-2.07c0.430344-0.544586,1.003731-0.958694,1.655998-1.195999
	c0.894882-0.326023,1.819183-0.564798,2.760002-0.712999c0.582382-0.09529,1.158447-0.225863,1.724998-0.391
	c0.333443-0.086654,0.641113-0.252322,0.897003-0.483c0.209061-0.241635,0.316246-0.554943,0.299004-0.874
	c0-1.150001-0.812668-1.725001-2.438004-1.725c-0.59137-0.020441-1.182045,0.057279-1.748001,0.23
	c-0.385193,0.128751-0.706268,0.400434-0.897003,0.759c-0.208679,0.431378-0.326126,0.901169-0.345001,1.38h-1.931992
	c0.013458-1.106618,0.488747-2.157265,1.310997-2.898c1.053444-0.797748,2.362473-1.182275,3.68-1.081
	c1.069534-0.048619,2.123848,0.267673,2.989998,0.897c0.835869,0.720024,1.272713,1.799289,1.172997,2.898v5.635
	c-0.016968,0.358055,0.029762,0.716278,0.138,1.058001c0.066048,0.196655,0.252617,0.327251,0.459999,0.322001l0.276001-0.023001V23
	c-0.293846,0.07127-0.594681,0.109838-0.897003,0.115c-0.44828,0.029177-0.891273-0.110285-1.241997-0.391001
	c-0.32782-0.411802-0.50621-0.922649-0.505997-1.448999h-0.045998c-0.384743,0.646128-0.942375,1.171896-1.610001,1.518
	C93.207245,23.1644,92.370537,23.345951,91.527,23.322001z M89.595001,19.895c-0.036331,0.504341,0.148331,0.999575,0.505997,1.357
	c0.461891,0.345993,1.035042,0.509748,1.610001,0.459999c0.998657,0.049686,1.985565-0.233444,2.806-0.805
	c0.73735-0.586985,1.141045-1.497452,1.081001-2.438v-1.862999c-0.836136,0.516708-1.781067,0.831686-2.760002,0.92
	c-0.881989,0.135948-1.731651,0.432159-2.507004,0.874001C89.841019,18.73526,89.561897,19.302227,89.595001,19.895z
	 M104.834999,23.322001c-0.947945,0.009354-1.879768-0.245502-2.691002-0.736c-0.8218-0.53285-1.482002-1.280552-1.908997-2.162001
	c-0.480354-1.028526-0.716568-2.154137-0.690201-3.289c-0.026367-1.134863,0.209846-2.260472,0.690201-3.289
	c0.423233-0.877855,1.084732-1.61905,1.908997-2.139c0.806282-0.504401,1.739983-0.767752,2.691002-0.759
	c1.464203-0.073218,2.860054,0.624707,3.68,1.84h0.045998V6.555h1.839996V23h-1.839996v-1.448999h-0.045998
	C107.654121,22.710478,106.278236,23.372623,104.834999,23.322001z M101.476997,17.135
	c-0.005173,0.768642,0.127243,1.532007,0.390999,2.254c0.23764,0.658501,0.651306,1.239225,1.195999,1.679001
	c0.556534,0.43626,1.248146,0.664085,1.955002,0.643999c1.011169,0.03722,1.975395-0.427675,2.575996-1.242001
	c0.683739-0.973391,1.023643-2.146864,0.966003-3.335001c0.060226-1.181292-0.280151-2.348316-0.966003-3.312
	c-1.090065-1.404866-3.103142-1.680769-4.530998-0.621c-0.548683,0.445539-0.962761,1.034796-1.195999,1.702
	C101.602959,15.617669,101.470459,16.373734,101.476997,17.135z M4.67358,7.05762L14.7263,13.5488v12.336999l7.560599-4.7103
	V8.83849L12.2462,2.33875L4.67358,7.05762z M11.4765,25.201799v-9.627l-7.5766,4.7189L11.4765,25.201799z M117.998001,8.75976
	c-0.004463-0.341642,0.059807-0.680696,0.189003-0.997c0.120857-0.290308,0.29792-0.553858,0.521004-0.77549
	c0.22216-0.217432,0.485695-0.388062,0.775002-0.50178c0.304459-0.122437,0.629852-0.184414,0.958-0.18247
	c0.326248-0.002423,0.649773,0.059586,0.952003,0.18247c0.585327,0.233346,1.050858,0.694288,1.290001,1.27727
	c0.261337,0.636756,0.261337,1.350824,0,1.98758c-0.120064,0.290741-0.297226,0.554445-0.521004,0.77551
	c-0.220543,0.214946-0.482063,0.383349-0.768997,0.4952c-0.303246,0.118704-0.626358,0.178439-0.952003,0.176
	c-0.327545,0.001974-0.652542-0.057732-0.958-0.176c-0.288139-0.112983-0.551407-0.281204-0.775002-0.4952
	c-0.221207-0.223182-0.39801-0.486349-0.521004-0.77551C118.058205,9.436166,117.993927,9.099288,117.998001,8.75976z
	 M118.480003,8.75976c-0.00351,0.28082,0.047432,0.559659,0.150002,0.8211c0.098404,0.234851,0.239838,0.449244,0.417,0.63214
	c0.179451,0.174817,0.391914,0.312154,0.625,0.404c0.497253,0.191203,1.047745,0.191203,1.544998,0
	c0.473839-0.185051,0.847771-0.561208,1.029999-1.03614c0.198669-0.531618,0.198669-1.117102,0-1.64872
	c-0.184547-0.474923-0.557365-0.852327-1.029999-1.04267c-0.495613-0.199844-1.049385-0.199844-1.544998,0
	c-0.234268,0.092577-0.446999,0.232318-0.625,0.41055c-0.179039,0.181376-0.320724,0.396147-0.417,0.63212
	C118.527046,8.195745,118.476112,8.47679,118.480003,8.75976z M120.520004,8.97476h-0.496002v0.99053h-0.533997v-2.6001h0.794998
	c0.172218-0.001235,0.344307,0.009652,0.514999,0.03258c0.134796,0.016075,0.265205,0.058123,0.384003,0.12382
	c0.102715,0.05436,0.186691,0.138377,0.240997,0.24112c0.061989,0.127668,0.091194,0.268765,0.084999,0.41055
	c0.000862,0.140271-0.03759,0.277979-0.111,0.39751c-0.086395,0.13219-0.211388,0.234577-0.358002,0.29325l0.598999,1.10132
	h-0.593002L120.520004,8.97476z M120.976006,8.17976c0.014854-0.129661-0.053123-0.254731-0.169998-0.3128
	c-0.137817-0.057799-0.286682-0.084499-0.435997-0.0782h-0.346001v0.77549h0.377998
	c0.152237,0.012898,0.304764-0.02122,0.436996-0.09775c0.091606-0.065936,0.14325-0.174038,0.136993-0.28673L120.976006,8.17976z"/>
</svg>
