<svg width="597" height="131" fill="none" xmlns="http://www.w3.org/2000/svg"><path d="M189.512 115.984h-40.32v-13.776h11.256V14.176H148.52V.4h29.736v101.808h11.256v13.776ZM265.334 92.968c-.672 6.608-3.92 12.376-9.744 17.304-5.824 4.928-13.832 7.392-24.024 7.392-10.976 0-19.992-3.192-27.048-9.576-7.056-6.496-10.584-16.016-10.584-28.56 0-11.536 3.192-21.168 9.576-28.896 6.496-7.728 15.512-11.592 27.048-11.592 10.416 0 18.648 3.136 24.696 9.408 6.16 6.16 9.296 14 9.408 23.52 0 3.136-.336 6.496-1.008 10.08H212.75c1.008 14.112 7.728 21.168 20.16 21.168 5.824 0 9.968-1.4 12.432-4.2 2.576-2.8 4.256-5.768 5.04-8.904l14.952 2.856ZM246.182 70.96c.448-4.48-.616-8.68-3.192-12.6-2.464-4.032-6.664-6.048-12.6-6.048-5.376 0-9.464 1.792-12.264 5.376-2.8 3.584-4.536 8.008-5.208 13.272h33.264ZM352.448 115.984h-36.12v-13.776h7.224l-13.608-15.456-13.44 15.456h6.384v13.776H269.12v-13.776h10.416l21.84-23.52-23.184-24.36h-8.568V40.552h36.792v13.776h-7.056l12.6 15.12 13.44-15.12h-6.552V40.552H350.6v13.776h-7.896l-21.672 22.68 23.352 25.2h8.064v13.776ZM397.526 115.984h-40.32v-13.776h11.256V54.496h-11.928V40.552h29.736v61.656h11.256v13.776ZM472.117 88.936c-.784 6.72-3.752 13.216-8.904 19.488-5.152 6.16-13.44 9.24-24.864 9.24-10.752 0-19.544-3.248-26.376-9.744-6.72-6.496-10.08-15.96-10.08-28.392 0-12.208 3.472-22.008 10.416-29.4 7.056-7.392 16.24-11.088 27.552-11.088 4.48 0 8.96.56 13.44 1.68 4.48 1.12 8.904 2.968 13.272 5.544l3.024 21.168-14.448 1.512-2.52-12.432a29.58 29.58 0 0 0-13.104-3.024c-12.544 0-18.816 8.4-18.816 25.2 0 16.352 6.44 24.528 19.32 24.528 9.408 0 15.064-5.712 16.968-17.136l15.12 2.856ZM484.683 46.096c5.6-2.688 10.584-4.536 14.952-5.544s9.408-1.512 15.12-1.512c8.4 0 15.288 2.128 20.664 6.384 5.488 4.256 8.232 10.64 8.232 19.152v33.936c0 4.48 1.848 6.72 5.544 6.72 1.008 0 2.296-.224 3.864-.672l.168 9.912c-3.696 2.128-7.728 3.192-12.096 3.192-9.52 0-14.672-4.984-15.456-14.952v-.336c-2.24 3.92-5.432 7.448-9.576 10.584-4.032 3.136-9.072 4.704-15.12 4.704-5.264 0-10.472-1.568-15.624-4.704-5.04-3.248-7.56-8.848-7.56-16.8 0-9.296 3.696-15.4 11.088-18.312 7.392-3.024 15.4-4.536 24.024-4.536 2.128 0 4.312.056 6.552.168 2.24.112 4.312.28 6.216.504v-4.2c0-4.48-.784-8.512-2.352-12.096-1.568-3.584-5.488-5.376-11.76-5.376-2.352 0-4.592.168-6.72.504-2.016.336-3.976 1.008-5.88 2.016l-3.024 11.592-14.448-1.512 3.192-18.816Zm40.992 39.984v-2.688a917.892 917.892 0 0 0-5.88-.672 56.265 56.265 0 0 0-6.216-.336c-4.48 0-8.512.784-12.096 2.352-3.472 1.568-5.208 4.704-5.208 9.408 0 6.832 3.64 10.248 10.92 10.248 4.256 0 8.288-1.512 12.096-4.536 3.808-3.136 5.936-7.728 6.384-13.776ZM596.079 115.984h-40.32v-13.776h11.256V14.176h-11.928V.4h29.736v101.808h11.256v13.776Z" fill="#050505"/><path fill="#76B6FF" d="M367 2h19v20h-19zM20 54h22v10H20V54Z"/><path d="M47 54h22v10H47V54Z" fill="#050505"/><path d="M74 54h9v10h-9V54ZM20 70h36v10H20V70ZM61 70h22v10H61V70Z" fill="#76B6FF"/><path d="M20 86h22v10H20V86Z" fill="#050505"/><path d="M47 86h22v10H47V86Z" fill="#76B6FF"/><path d="M74 86h9v10h-9V86Z" fill="#050505"/><path d="M0 34h83v10H10v62h73v10H0V34ZM118 34h-15v10h5v62h-5v10h15V34Z" fill="#050505"/><path d="M78 29V19h31v10H98v92h11v10H78v-10h10V29H78Z" fill="#050505"/></svg>