<?xml version="1.0" standalone="no"?>
<!DOCTYPE svg PUBLIC "-//W3C//DTD SVG 1.1//EN" "http://www.w3.org/Graphics/SVG/1.1/DTD/svg11.dtd" >
<svg>
<metadata>
Created by FontForge 20090622 at Wed Jun 13 15:29:59 2018
 By deploy user
Copyright (c) 2012 by Dominik Huber &#38; Moire. All rights reserved.
</metadata>
<defs>
<font id="GTPressuraMono" horiz-adv-x="550" >
  <font-face 
    font-family="GT Pressura Mono"
    font-weight="400"
    font-stretch="normal"
    units-per-em="1000"
    panose-1="2 0 5 6 2 0 0 2 0 4"
    ascent="800"
    descent="-200"
    x-height="500"
    cap-height="700"
    bbox="-197.381 -249 631 1065"
    underline-thickness="50"
    underline-position="-50"
    unicode-range="U+0020-U+FB02"
  />
<missing-glyph 
d="M184 120q-12 0 -18.5 -9t-9.5 -19.5t-12.5 -19.5t-27.5 -9q-21 0 -36.5 13.5t-15.5 31.5q0 22 21 44t21 53q0 17 -8 27.5t-20 10.5q-8 0 -15.5 -3.5t-14.5 -3.5q-14 0 -22 15.5t-8 36.5q0 14 9.5 26.5t23.5 12.5q7 0 14.5 -5.5t12.5 -5.5q13 0 20 13.5t7 26.5
q0 8 -5 24.5t-5 24.5q0 37 40 37q9 0 9 8q0 3 -4 11t-4 13t5.5 9.5t10.5 4.5q11 0 22 -17.5t20 -17.5q11 0 15 8.5t4.5 19t7.5 19t22 8.5q21 0 37 -24t35 -24q20 0 27.5 11t7.5 37q0 27 14.5 40t38.5 13q22 0 34.5 -13t12.5 -35q0 -19 -12 -31.5t-24 -20.5t-12 -17
q0 -12 12 -22t27 -16t27 -21t12 -37q0 -20 -16 -38t-16 -34q0 -26 44 -26q40 0 40 -45q0 -22 -15 -37t-37 -15q-15 0 -35 25t-37 25q-25 0 -25 -21q0 -10 10 -21t10 -28q0 -14 -9 -23.5t-26 -9.5q-10 0 -35 15t-45 15q-26 0 -26 -31q0 -27 -24 -27q-8 0 -13 7.5t-7 16.5
t-10.5 16.5t-23.5 7.5zM298 340q0 -16 12 -28t28 -12q17 0 30 12t13 28q0 17 -13.5 32t-29.5 15t-28 -15t-12 -32zM281 226q-26 0 -48 20q-5 5 -7 0q-1 -3 2 -7q18 -29 53 -29q30 0 44 34q2 4 -1 6t-5 -2q-12 -22 -38 -22zM214 335q0 21 14 21t14 -21t-14 -21t-14 21z
M310 340q0 21 14 21t14 -21t-14 -21t-14 21zM178 340q0 -21 10 -35.5t26 -14.5q17 0 28.5 14.5t11.5 35.5t-11.5 35.5t-28.5 14.5q-16 0 -26 -14.5t-10 -35.5zM85 520q0 14 8.5 24t20.5 10q10 0 17 -10t7 -24t-7 -24t-17 -10q-12 0 -20.5 10t-8.5 24z" />
    <glyph glyph-name="IJ" unicode="IJ" 
d="M296 0h-225q-8 0 -14 6t-6 14v48q0 8 6 14t14 6h70q10 0 10 10v505q0 10 -10 10h-60q-8 0 -14 6t-6 14v47q0 8 6 14t14 6h215q8 0 14 -6t6 -14v-47q0 -8 -6 -14t-14 -6h-40q-10 0 -10 -10v-505q0 -10 10 -10h40q50 0 82.5 32t32.5 90v470q0 8 6 14t14 6h55q8 0 14 -6
t6 -14v-480q0 -91 -60 -145.5t-150 -54.5z" />
    <glyph glyph-name="ij" unicode="ij" 
d="M247 -210h-127q-8 0 -14 6t-6 14v50q0 8 6 14t14 6h127q38 0 64 25t26 65v435q0 10 -10 10h-125v-395q0 -8 -6 -14t-14 -6h-52q-8 0 -14 6t-6 14v385q0 10 -10 10h-40q-8 0 -14 6t-6 14v45q0 8 6 14t14 6h350q8 0 14 -6t6 -14v-510q0 -74 -52.5 -127t-130.5 -53zM434 691
v-69q0 -16 -16 -16h-68q-16 0 -16 16v69q0 6 4.5 11t11.5 5h68q7 0 11.5 -5t4.5 -11zM205 691v-69q0 -16 -16 -16h-68q-16 0 -16 16v69q0 6 4.5 11t11.5 5h68q7 0 11.5 -5t4.5 -11z" />
    <glyph glyph-name="napostrophe" unicode="&#x22;n" 
d="M183 477q9 0 38 16.5t69 16.5q80 0 135 -54t55 -136v-300q0 -8 -6 -14t-14 -6h-50q-8 0 -14 6t-6 14v300q0 43 -31.5 71.5t-78.5 28.5t-78.5 -26t-31.5 -69v-305q0 -8 -6 -14t-14 -6h-50q-8 0 -14 6t-6 14v460q0 8 6 14t14 6h44q7 0 14 -7q14 -16 25 -16zM28 599h-7
q-8 0 -14 6t-6 14v61q0 8 6 14t14 6h70q8 0 14 -6t6 -14v-61q0 -34 -20 -62l-32 -46q-10 -15 -26 -15h-9q-14 0 -19 11t1 22l31 57q3 5 -0.5 9t-8.5 4z" />
    <glyph glyph-name="fi" unicode="fi" 
d="M373 400h-161q-10 0 -10 -10v-370q0 -8 -6 -14t-14 -6h-50q-8 0 -14 6t-6 14v370q0 10 -10 10h-55q-8 0 -14 6t-6 14v50q0 8 6 14t14 6h55q10 0 10 10v20q0 79 53 133t132 54h165q7 0 11.5 -5t4.5 -11v-55q0 -16 -16 -16h-165q-39 0 -67 -30.5t-28 -69.5v-20
q0 -10 10 -10h243q8 0 14 -6t6 -14v-450q0 -8 -6 -14t-14 -6h-52q-8 0 -14 6t-6 14v370q0 10 -10 10z" />
    <glyph glyph-name="fl" unicode="fl" 
d="M392 20v370q0 10 -10 10h-182q-10 0 -10 -10v-370q0 -8 -6 -14t-14 -6h-50q-8 0 -14 6t-6 14v370q0 10 -10 10h-45q-8 0 -14 6t-6 14v50q0 8 6 14t14 6h45q10 0 10 10v20q0 79 53 133t132 54h10q8 0 14 -6t6 -14v-47q0 -8 -6 -14t-14 -6h-10q-39 0 -67 -30.5t-28 -69.5
v-20q0 -10 10 -10h182q10 0 10 10v187q0 8 6 14t14 6h50q8 0 14 -6t6 -14v-667q0 -8 -6 -14t-14 -6h-50q-8 0 -14 6t-6 14z" />
    <glyph glyph-name=".notdef" 
d="M184 120q-12 0 -18.5 -9t-9.5 -19.5t-12.5 -19.5t-27.5 -9q-21 0 -36.5 13.5t-15.5 31.5q0 22 21 44t21 53q0 17 -8 27.5t-20 10.5q-8 0 -15.5 -3.5t-14.5 -3.5q-14 0 -22 15.5t-8 36.5q0 14 9.5 26.5t23.5 12.5q7 0 14.5 -5.5t12.5 -5.5q13 0 20 13.5t7 26.5
q0 8 -5 24.5t-5 24.5q0 37 40 37q9 0 9 8q0 3 -4 11t-4 13t5.5 9.5t10.5 4.5q11 0 22 -17.5t20 -17.5q11 0 15 8.5t4.5 19t7.5 19t22 8.5q21 0 37 -24t35 -24q20 0 27.5 11t7.5 37q0 27 14.5 40t38.5 13q22 0 34.5 -13t12.5 -35q0 -19 -12 -31.5t-24 -20.5t-12 -17
q0 -12 12 -22t27 -16t27 -21t12 -37q0 -20 -16 -38t-16 -34q0 -26 44 -26q40 0 40 -45q0 -22 -15 -37t-37 -15q-15 0 -35 25t-37 25q-25 0 -25 -21q0 -10 10 -21t10 -28q0 -14 -9 -23.5t-26 -9.5q-10 0 -35 15t-45 15q-26 0 -26 -31q0 -27 -24 -27q-8 0 -13 7.5t-7 16.5
t-10.5 16.5t-23.5 7.5zM298 340q0 -16 12 -28t28 -12q17 0 30 12t13 28q0 17 -13.5 32t-29.5 15t-28 -15t-12 -32zM281 226q-26 0 -48 20q-5 5 -7 0q-1 -3 2 -7q18 -29 53 -29q30 0 44 34q2 4 -1 6t-5 -2q-12 -22 -38 -22zM214 335q0 21 14 21t14 -21t-14 -21t-14 21z
M310 340q0 21 14 21t14 -21t-14 -21t-14 21zM178 340q0 -21 10 -35.5t26 -14.5q17 0 28.5 14.5t11.5 35.5t-11.5 35.5t-28.5 14.5q-16 0 -26 -14.5t-10 -35.5zM85 520q0 14 8.5 24t20.5 10q10 0 17 -10t7 -24t-7 -24t-17 -10q-12 0 -20.5 10t-8.5 24z" />
    <glyph glyph-name=".null" horiz-adv-x="0" 
 />
    <glyph glyph-name="nonmarkingreturn" horiz-adv-x="333" 
 />
    <glyph glyph-name="space" unicode=" " 
 />
    <glyph glyph-name="exclam" unicode="!" 
d="M322 680v-470q0 -8 -6 -14t-14 -6h-56q-8 0 -14 6t-6 14v470q0 8 6 14t14 6h56q8 0 14 -6t6 -14zM336 103v-83q0 -8 -6 -14t-14 -6h-83q-8 0 -14 6t-6 14v83q0 8 6 14t14 6h83q8 0 14 -6t6 -14z" />
    <glyph glyph-name="quotedbl" unicode="&#x22;" 
d="M146 570h-17q-8 0 -14 6t-6 14v90q0 8 6 14t14 6h90q8 0 14 -6t6 -14v-90q0 -34 -20 -62l-52 -73q-10 -15 -26 -15h-14q-14 0 -19 11t1 22l46 84q3 5 -0.5 9t-8.5 4zM346 570h-17q-8 0 -14 6t-6 14v90q0 8 6 14t14 6h90q8 0 14 -6t6 -14v-90q0 -34 -20 -62l-52 -73
q-10 -15 -26 -15h-14q-14 0 -19 11t1 22l46 84q3 5 -0.5 9t-8.5 4z" />
    <glyph glyph-name="numbersign" unicode="#" 
d="M317 250l32 180q2 10 -8 10h-96q-10 0 -12 -10l-32 -180q-2 -10 8 -10h96q10 0 12 10zM119 250l32 180q2 10 -8 10h-50q-8 0 -13 6t-4 14l6 37q4 20 24 20h50q10 0 12 10l27 153q4 20 23 20h42q8 0 13 -6t4 -14l-27 -153q-2 -10 8 -10h96q10 0 12 10l27 153q4 20 23 20
h42q8 0 13 -6t4 -14l-27 -153q-2 -10 8 -10h50q8 0 13 -6t3 -14l-6 -37q-4 -20 -23 -20h-50q-10 0 -12 -10l-32 -180q-2 -10 8 -10h50q8 0 13 -6t3 -14l-6 -37q-4 -20 -23 -20h-50q-10 0 -12 -10l-24 -133q-4 -20 -23 -20h-42q-8 0 -13 6t-4 14l24 133q2 10 -8 10h-91
q-15 0 -17 -10l-24 -133q-4 -20 -23 -20h-42q-8 0 -13 6t-4 14l24 133q2 10 -8 10h-50q-8 0 -13 6t-4 14l6 37q4 20 24 20h50q10 0 12 10z" />
    <glyph glyph-name="dollar" unicode="$" 
d="M222 704q10 3 10 10v36q0 8 6 14t14 6h45q8 0 14 -6t6 -14v-36q0 -7 10 -10q67 -16 110 -67.5t43 -116.5v-13q0 -8 -6 -14t-14 -6h-55q-8 0 -14 6t-6 14v13q0 46 -33 69.5t-77 23.5q-49 0 -80 -25.5t-30 -67.5q0 -14 3 -26.5t9.5 -22t12 -16.5t17.5 -13.5l18.5 -10t22 -8
t22 -6l24 -5.5t21.5 -5q86 -19 135.5 -72.5t49.5 -134.5q0 -80 -49.5 -134.5t-123.5 -69.5q-10 -3 -10 -10v-36q0 -8 -6 -14t-14 -6h-45q-8 0 -14 6t-6 14v36q0 7 -10 10q-76 19 -124 75t-48 129v16q0 8 6 14t14 6h56q8 0 14 -6t6 -14v-16q0 -49 36.5 -81t92.5 -32
t92.5 32.5t36.5 80.5q0 27 -9 47t-19.5 31.5t-38 22t-43.5 15t-58 13.5q-76 17 -121.5 64.5t-45.5 126.5q0 71 43.5 119.5t109.5 64.5z" />
    <glyph glyph-name="percent" unicode="%" 
d="M470 672l-326 -657q-8 -15 -21 -15h-27q-10 0 -15.5 9t-0.5 19l324 657q8 15 22 15h28q10 0 15.5 -9t0.5 -19zM34 595q5 47 36.5 79.5t75.5 32.5q45 0 76.5 -33t36.5 -79q8 -69 0 -138q-5 -47 -36.5 -79.5t-76.5 -32.5q-44 0 -75.5 33t-36.5 79q-8 68 0 138zM146 633
q-15 0 -24.5 -10.5t-11.5 -25.5q-8 -71 0 -142q2 -16 12 -26t24 -10q15 0 25 10.5t12 25.5q8 71 0 142q-1 16 -12 26t-25 10zM290 244q5 47 36.5 79.5t75.5 32.5q45 0 76.5 -33t36.5 -79q8 -69 0 -138q-5 -47 -36.5 -79.5t-76.5 -32.5q-44 0 -75.5 33t-36.5 79q-8 68 0 138z
M402 282q-15 0 -24.5 -10.5t-11.5 -25.5q-8 -71 0 -142q2 -16 12 -26t24 -10q15 0 25 10.5t12 25.5q8 71 0 142q-1 16 -12 26t-25 10z" />
    <glyph glyph-name="ampersand" unicode="&#x26;" 
d="M110 369q10 9 0 24q-46 65 -46 124q0 82 50.5 132.5t137.5 50.5q79 0 128 -51t49 -132v-15q0 -8 -6 -14t-14 -6h-51q-8 0 -14 6t-6 14v15q0 45 -22.5 71.5t-64.5 26.5q-49 0 -73 -26.5t-24 -71.5q0 -11 5.5 -26t13 -28t19 -29.5t19 -26l19 -23.5t13.5 -16l133 -163
q6 -6 9 1q4 24 4 94q0 8 6 14t14 6h45q8 0 14 -6t6 -14q0 -112 -17 -158q-4 -11 2 -17l77 -88q9 -10 3.5 -23.5t-21.5 -13.5h-49q-12 0 -22 10l-37 40q-7 7 -14 0q-63 -58 -150 -58q-93 0 -155.5 62t-62.5 149q0 86 82 166zM246 82q51 0 87 31q6 6 2 10l-155 188q-3 4 -7 0
q-52 -52 -52 -108q0 -50 35.5 -85.5t89.5 -35.5z" />
    <glyph glyph-name="quotesingle" unicode="'" 
d="M248 570h-17q-8 0 -14 6t-6 14v90q0 8 6 14t14 6h90q8 0 14 -6t6 -14v-90q0 -34 -20 -62l-52 -73q-10 -15 -26 -15h-14q-14 0 -19 11t1 22l46 84q3 5 -0.5 9t-8.5 4z" />
    <glyph glyph-name="parenleft" unicode="(" 
d="M407 -2h48q8 0 14 -6t6 -14v-48q0 -8 -6 -14t-14 -6h-48q-90 0 -151.5 57t-73.5 153q-8 61 -8 195.5t8 194.5q10 87 70.5 148.5t154.5 61.5h42q8 0 14 -6t6 -14v-48q0 -8 -6 -14t-14 -6h-42q-49 0 -87.5 -34t-47.5 -88q-10 -61 -10 -195t10 -195q7 -48 43.5 -85t91.5 -37
z" />
    <glyph glyph-name="parenright" unicode=")" 
d="M94 -2h48q55 0 91.5 37t43.5 85q10 61 10 195t-10 195q-9 54 -47.5 88t-87.5 34h-42q-8 0 -14 6t-6 14v48q0 8 6 14t14 6h42q94 0 154.5 -61.5t70.5 -148.5q7 -60 7 -194.5t-7 -195.5q-12 -96 -73.5 -153t-151.5 -57h-48q-8 0 -14 6t-6 14v48q0 8 6 14t14 6z" />
    <glyph glyph-name="asterisk" unicode="*" 
d="M354 492l-40 24l2 -46q0 -8 -6 -14t-14 -6h-42q-8 0 -14 6t-6 14l1 47l-39 -25q-7 -4 -15 -2t-12 10l-21 36q-11 16 7 27l41 22l-41 22q-7 4 -9.5 12t2.5 15l21 37q10 17 27 7l39 -25l-1 47q0 8 6 14t14 6h42q8 0 14 -6t6 -14l-2 -47l40 25q7 4 15 2t12 -10l21 -36
q11 -16 -7 -27l-42 -22l42 -22q7 -4 9.5 -12t-2.5 -15l-21 -37q-10 -17 -27 -7z" />
    <glyph glyph-name="plus" unicode="+" 
d="M75 296h144q10 0 10 10v144q0 8 6 14t14 6h52q8 0 14 -6t6 -14v-144q0 -10 10 -10h144q8 0 14 -6t6 -14v-52q0 -8 -6 -14t-14 -6h-144q-10 0 -10 -10v-144q0 -8 -6 -14t-14 -6h-52q-8 0 -14 6t-6 14v144q0 10 -10 10h-144q-8 0 -14 6t-6 14v52q0 8 6 14t14 6z" />
    <glyph glyph-name="comma" unicode="," 
d="M246 0h-17q-8 0 -14 6t-6 14v90q0 8 6 14t14 6h90q8 0 14 -6t6 -14v-90q0 -34 -20 -62l-52 -73q-10 -15 -26 -15h-14q-14 0 -19 11t1 22l46 84q3 5 -0.5 9t-8.5 4z" />
    <glyph glyph-name="hyphen" unicode="-" 
d="M138 321h273q8 0 14 -6t6 -14v-68q0 -8 -6 -14t-14 -6h-273q-8 0 -14 6t-6 14v68q0 8 6 14t14 6z" />
    <glyph glyph-name="period" unicode="." 
d="M339 110v-90q0 -8 -6 -14t-14 -6h-90q-8 0 -14 6t-6 14v90q0 8 6 14t14 6h90q8 0 14 -6t6 -14z" />
    <glyph glyph-name="slash" unicode="/" 
d="M451 682l-264 -679q-5 -15 -21 -15h-52q-10 0 -15 8.5t-1 19.5l266 679q5 15 19 15h52q10 0 15 -8.5t1 -19.5z" />
    <glyph glyph-name="zero" unicode="0" 
d="M60 500q11 89 66 148.5t149 59.5q90 0 146.5 -55.5t68.5 -152.5q7 -62 7 -150t-7 -150q-10 -89 -65.5 -148.5t-149.5 -59.5q-90 0 -146.5 55.5t-68.5 152.5q-8 61 -8 150.5t8 149.5zM275 618q-50 0 -84 -31.5t-41 -86.5q-8 -63 -8 -150t8 -150q7 -50 38 -84t87 -34
q51 0 84 31.5t41 86.5q9 63 9 150t-9 150q-7 50 -37.5 83.5t-87.5 34.5z" />
    <glyph glyph-name="one" unicode="1" 
d="M262 99v450q0 4 -3.5 5.5t-5.5 -1.5l-143 -159q-5 -6 -13 -4t-8 11v78q0 18 20 41l144 171q9 9 20 9h62q8 0 14 -6t6 -14v-581q0 -10 10 -10h120q8 0 14 -6t6 -14v-49q0 -8 -6 -14t-14 -6h-380q-8 0 -14 6t-6 14v49q0 8 6 14t14 6h147q10 0 10 10z" />
    <glyph glyph-name="two" unicode="2" 
d="M371 517q0 43 -28 72t-71 29q-39 0 -68.5 -30.5t-29.5 -70.5v-15q0 -8 -6 -14t-14 -6h-52q-20 0 -20 20v15q0 80 55 135.5t135 55.5t134 -55t54 -136q0 -109 -76 -197l-188 -215q-4 -5 -1.5 -10.5t9.5 -5.5h252q20 0 20 -20v-49q0 -20 -20 -20h-362q-8 0 -14 6t-6 14v65
q0 16 9 25l226 260q62 71 62 147z" />
    <glyph glyph-name="three" unicode="3" 
d="M390 198q0 50 -26.5 85.5t-86.5 35.5h-12q-8 0 -14 6t-6 14v53q0 8 6 14t14 6h12q48 0 73 31.5t25 73.5q0 39 -28.5 67.5t-71.5 28.5q-44 0 -72.5 -28.5t-28.5 -67.5v-15q0 -8 -6 -14t-14 -6h-54q-8 0 -14 6t-6 14v15q0 80 56.5 135.5t138.5 55.5t138.5 -55.5
t56.5 -135.5q0 -85 -58 -137q-14 -12 -1 -24q74 -64 74 -158q0 -86 -61.5 -146t-148.5 -60q-88 0 -149.5 60t-61.5 146v7q0 8 6 14t14 6h55q8 0 14 -6t6 -14v-7q0 -46 32.5 -78.5t83.5 -32.5q50 0 82.5 32.5t32.5 78.5z" />
    <glyph glyph-name="four" unicode="4" 
d="M434 215h48q8 0 14 -6t6 -14v-45q0 -8 -6 -14t-14 -6h-48q-10 0 -10 -10v-100q0 -8 -6 -14t-14 -6h-47q-8 0 -14 6t-6 14v100q0 10 -10 10h-261q-8 0 -14 6t-6 14v44q0 12 16 38l259 454q8 14 21 14h62q8 0 14 -6t6 -14v-455q0 -10 10 -10zM329 541l-175 -318q-5 -8 4 -8
h169q10 0 10 10v314q0 4 -3.5 4.5t-4.5 -2.5z" />
    <glyph glyph-name="five" unicode="5" 
d="M434 610h-248q-10 0 -10 -10v-150q0 -9 6 -12t16 4q30 24 76 24q91 0 148.5 -69.5t57.5 -167.5q0 -99 -56.5 -168t-149.5 -69q-81 0 -142.5 53t-61.5 130q0 20 20 20h51q8 0 14 -6t6 -14q0 -40 33.5 -66.5t79.5 -26.5q54 0 85.5 41t31.5 106t-31.5 106t-85.5 41
q-30 0 -54 -16.5t-36 -43.5q-5 -11 -19 -11h-54q-8 0 -14 6t-6 14v355q0 8 6 14t14 6h323q8 0 14 -6t6 -14v-50q0 -8 -6 -14t-14 -6z" />
    <glyph glyph-name="six" unicode="6" 
d="M281 452q83 0 141 -59.5t64 -145.5q2 -24 0 -52q-5 -86 -63 -144.5t-142 -58.5q-85 0 -142 59t-68 149q-7 62 -7 150t7 150q10 90 65 149t139 59q80 0 136 -55.5t56 -135.5q0 -8 -6 -14t-14 -6h-52q-8 0 -14 6t-6 14q0 41 -26.5 71t-73.5 30q-50 0 -76.5 -27.5
t-37.5 -84.5q-8 -39 -6 -86q0 -6 5 -8.5t11 1.5q52 39 110 39zM169 194q6 -48 35.5 -79t76.5 -31t76.5 31t35.5 79q3 29 0 54q-6 48 -35.5 80t-76.5 32q-48 0 -77 -29t-35 -83q-3 -25 0 -54z" />
    <glyph glyph-name="seven" unicode="7" 
d="M131 24l245 576q4 10 -7 10h-274q-8 0 -14 6t-6 14v50q0 8 6 14t14 6h360q8 0 14 -6t6 -14v-67q0 -9 -5 -20l-242 -578q-7 -15 -19 -15h-60q-12 0 -16.5 8t-1.5 16z" />
    <glyph glyph-name="eight" unicode="8" 
d="M275 84q54 0 89.5 32.5t35.5 81.5t-35.5 82.5t-89.5 33.5q-55 0 -90 -33.5t-35 -82.5t35 -81.5t90 -32.5zM275 414q50 0 81 29.5t31 73.5t-31 72.5t-81 28.5t-81 -28.5t-31 -72.5t31 -73.5t81 -29.5zM276 708q87 0 144.5 -55t57.5 -136t-58 -137q-13 -13 -1 -24
q74 -64 74 -158q0 -87 -62.5 -146.5t-155.5 -59.5t-155.5 59.5t-62.5 146.5q0 94 74 158q12 11 -1 24q-57 57 -57 137q0 81 57.5 136t145.5 55z" />
    <glyph glyph-name="nine" unicode="9" 
d="M381 506q-6 48 -35.5 79t-76.5 31t-76.5 -31t-35.5 -79q-3 -29 0 -54q6 -48 35.5 -80t76.5 -32q48 0 77 29t35 83q3 25 0 54zM273 82q96 0 121 118q7 34 7 83q0 7 -5.5 9t-12.5 -3q-51 -41 -114 -41q-83 0 -141 59.5t-64 145.5q-2 24 0 52q5 86 63 144.5t142 58.5
q85 0 142 -59t68 -149q7 -62 7 -150t-7 -150q-10 -89 -66 -148.5t-140 -59.5q-81 0 -142 56t-61 135q0 8 6 14t14 6h52q8 0 14 -6t6 -14q0 -38 34.5 -69.5t76.5 -31.5z" />
    <glyph glyph-name="colon" unicode=":" 
d="M340 110v-90q0 -8 -6 -14t-14 -6h-90q-8 0 -14 6t-6 14v90q0 8 6 14t14 6h90q8 0 14 -6t6 -14zM340 470v-90q0 -8 -6 -14t-14 -6h-90q-8 0 -14 6t-6 14v90q0 8 6 14t14 6h90q8 0 14 -6t6 -14z" />
    <glyph glyph-name="semicolon" unicode=";" 
d="M340 470v-90q0 -8 -6 -14t-14 -6h-90q-8 0 -14 6t-6 14v90q0 8 6 14t14 6h90q8 0 14 -6t6 -14zM246 0h-17q-8 0 -14 6t-6 14v90q0 8 6 14t14 6h90q8 0 14 -6t6 -14v-90q0 -34 -20 -62l-52 -73q-10 -15 -26 -15h-14q-14 0 -19 11t1 22l46 84q3 5 -0.5 9t-8.5 4z" />
    <glyph glyph-name="less" unicode="&#x3c;" 
d="M173 246l267 -146q15 -9 15 -21v-60q0 -11 -7.5 -16.5t-15.5 -2.5l-362 204q-15 8 -15 22v49q0 14 15 22l362 203q7 4 15 -2t8 -17v-60q0 -12 -15 -21l-267 -146q-3 -1 -3 -4t3 -4z" />
    <glyph glyph-name="equal" unicode="=" 
d="M475 296h-400q-8 0 -14 6t-6 14v52q0 8 6 14t14 6h400q8 0 14 -6t6 -14v-52q0 -8 -6 -14t-14 -6zM475 112h-400q-8 0 -14 6t-6 14v52q0 8 6 14t14 6h400q8 0 14 -6t6 -14v-52q0 -8 -6 -14t-14 -6z" />
    <glyph glyph-name="greater" unicode="&#x3e;" 
d="M110 100l267 146q8 4 0 8l-267 146q-15 9 -15 21v60q0 11 8 17t15 2l362 -203q15 -8 15 -22v-49q0 -14 -15 -22l-362 -204q-7 -4 -15 2t-8 17v60q0 12 15 21z" />
    <glyph glyph-name="question" unicode="?" 
d="M370 517q0 42 -26 71.5t-70 29.5q-41 0 -68.5 -31t-27.5 -70v-15q0 -8 -6 -14t-14 -6h-51q-8 0 -14 6t-6 14v15q0 81 53.5 137t133.5 56q81 0 134.5 -54t53.5 -139q0 -42 -24 -79.5t-52 -60t-52 -49t-24 -48.5v-70q0 -8 -6 -14t-14 -6h-51q-8 0 -14 6t-6 14v28v18.5v20
t0.5 18t1.5 18.5t3 15t5.5 15.5t7.5 11.5q17 20 54.5 46.5t58 52t20.5 63.5zM327 103v-83q0 -8 -6 -14t-14 -6h-83q-8 0 -14 6t-6 14v83q0 8 6 14t14 6h83q8 0 14 -6t6 -14z" />
    <glyph glyph-name="at" unicode="@" 
d="M282 25q57 0 108 23q10 4 17 -0.5t7 -14.5v-28q0 -3 -0.5 -6t-2.5 -5.5t-2.5 -4t-4 -3.5t-4.5 -3t-6 -3l-4 -3q-38 -22 -106 -22q-110 0 -180 70t-70 178v107q0 114 75 187t175 73q115 0 176.5 -63t61.5 -177v-138q0 -38 -27.5 -65t-65.5 -27q-26 0 -41 10q-19 12 -39 0
q-27 -15 -65 -15q-72 0 -103.5 43.5t-31.5 127.5q0 71 36.5 118t98.5 47q53 0 86 -34.5t33 -88.5v-120q0 -22 26 -22q10 0 16.5 6t6.5 16v142q0 170 -170 170q-73 0 -123 -52.5t-50 -137.5v-103q0 -78 49 -130t124 -52zM334 217v91q0 23 -14 38t-36 15q-28 0 -43.5 -16.5
t-18.5 -34t-3 -44.5q0 -50 14.5 -75.5t50.5 -25.5q22 0 36 15t14 37z" />
    <glyph glyph-name="A" unicode="A" 
d="M173 168l-44 -153q-5 -15 -19 -15h-55q-11 0 -16.5 6t-3.5 14l186 665q3 15 19 15h70q16 0 19 -15l186 -665q2 -8 -3.5 -14t-16.5 -6h-55q-14 0 -19 15l-44 153q-3 14 -19 14h-166q-14 0 -19 -14zM270 565l-65 -279q-3 -11 8 -11h124q11 0 8 11l-65 279q-2 6 -4 6h-2
q-2 0 -4 -6z" />
    <glyph glyph-name="B" unicode="B" 
d="M421 379q-14 -12 0 -22q31 -25 51 -68t20 -85q0 -85 -61 -144.5t-149 -59.5h-185q-8 0 -14 6t-6 14v660q0 8 6 14t14 6h185q82 0 139 -53t57 -133q0 -37 -15 -74t-42 -61zM282 605h-100q-10 0 -10 -10v-173q0 -10 10 -10h100q47 0 74 29t27 73q0 42 -30 66.5t-71 24.5z
M182 95h100q46 0 80.5 32t34.5 77q0 51 -34 84.5t-81 33.5h-100q-10 0 -10 -10v-207q0 -10 10 -10z" />
    <glyph glyph-name="C" unicode="C" 
d="M283 87q53 0 91.5 30.5t38.5 82.5q0 34 20 34h55q8 0 14 -6t6 -14q0 -92 -61 -157t-164 -65q-91 0 -152 56t-73 152q-8 61 -8 150.5t8 149.5q10 87 70.5 147.5t154.5 60.5q99 0 162 -60t63 -162q0 -8 -6 -14t-14 -6h-55q-8 0 -14 6t-6 14q0 54 -33 90t-97 37
q-51 0 -87 -30t-43 -83q-7 -61 -7 -149.5t7 -150.5q6 -48 40.5 -80.5t89.5 -32.5z" />
    <glyph glyph-name="D" unicode="D" 
d="M281 0h-190q-8 0 -14 6t-6 14v660q0 8 6 14t14 6h190q85 0 142 -60t68 -150q17 -133 0 -280q-10 -89 -67.5 -149.5t-142.5 -60.5zM176 95h105q44 0 77 34t38 81q8 60 8 140t-8 140q-5 47 -38 81t-77 34h-105q-10 0 -10 -10v-490q0 -10 10 -10z" />
    <glyph glyph-name="E" unicode="E" 
d="M202 595v-180q0 -10 10 -10h237q8 0 14 -6t6 -14v-55q0 -8 -6 -14t-14 -6h-237q-10 0 -10 -10v-195q0 -10 10 -10h250q8 0 14 -6t6 -14v-55q0 -8 -6 -14t-14 -6h-335q-8 0 -14 6t-6 14v660q0 8 6 14t14 6h333q8 0 14 -6t6 -14v-55q0 -8 -6 -14t-14 -6h-248q-10 0 -10 -10
z" />
    <glyph glyph-name="F" unicode="F" 
d="M203 300v-280q0 -8 -6 -14t-14 -6h-55q-8 0 -14 6t-6 14v660q0 8 6 14t14 6h333q8 0 14 -6t6 -14v-55q0 -8 -6 -14t-14 -6h-248q-10 0 -10 -10v-180q0 -10 10 -10h237q8 0 14 -6t6 -14v-55q0 -8 -6 -14t-14 -6h-237q-10 0 -10 -10z" />
    <glyph glyph-name="G" unicode="G" 
d="M409 200v84q0 10 -10 10h-91q-8 0 -14 6t-6 14v55q0 8 6 14t14 6h176q8 0 14 -6t6 -14v-169q0 -88 -63.5 -148t-161.5 -60q-91 0 -152 56t-73 152q-8 61 -8 150.5t8 149.5q10 87 70.5 147.5t154.5 60.5t159.5 -57t65.5 -151v-14q0 -8 -6 -14t-14 -6h-55q-8 0 -14 6t-6 14
v14q0 46 -36 79t-94 34q-51 0 -87 -30t-43 -83q-7 -61 -7 -149.5t7 -150.5q6 -47 40.5 -80t89.5 -33t92.5 29t37.5 84z" />
    <glyph glyph-name="H" unicode="H" 
d="M155 680v-265q0 -10 10 -10h220q10 0 10 10v265q0 8 6 14t14 6h55q8 0 14 -6t6 -14v-660q0 -8 -6 -14t-14 -6h-55q-8 0 -14 6t-6 14v280q0 10 -10 10h-220q-10 0 -10 -10v-280q0 -8 -6 -14t-14 -6h-55q-8 0 -14 6t-6 14v660q0 8 6 14t14 6h55q8 0 14 -6t6 -14z" />
    <glyph glyph-name="I" unicode="I" 
d="M227 98v505q0 10 -10 10h-110q-8 0 -14 6t-6 14v47q0 8 6 14t14 6h335q8 0 14 -6t6 -14v-47q0 -8 -6 -14t-14 -6h-110q-10 0 -10 -10v-505q0 -10 10 -10h120q8 0 14 -6t6 -14v-48q0 -8 -6 -14t-14 -6h-355q-8 0 -14 6t-6 14v48q0 8 6 14t14 6h120q10 0 10 10z" />
    <glyph glyph-name="J" unicode="J" 
d="M125 230v-30q0 -55 38.5 -84t91.5 -29q58 0 94 35.5t36 98.5v459q0 8 6 14t14 6h55q8 0 14 -6t6 -14v-470q0 -98 -65.5 -158t-159.5 -60q-99 0 -162 56t-63 152v30q0 8 6 14t14 6h55q8 0 14 -6t6 -14z" />
    <glyph glyph-name="K" unicode="K" 
d="M178 680v-240q0 -4 3 -4t5 2l194 252q8 10 22 10h55q14 0 19.5 -12.5t-2.5 -23.5l-228 -291q-10 -14 -1 -24l256 -312q9 -10 3.5 -23.5t-21.5 -13.5h-63q-12 0 -22 10l-212 265q-2 2 -5 2t-3 -4v-253q0 -8 -6 -14t-14 -6h-55q-8 0 -14 6t-6 14v660q0 8 6 14t14 6h55
q8 0 14 -6t6 -14z" />
    <glyph glyph-name="L" unicode="L" 
d="M215 680v-575q0 -10 10 -10h244q8 0 14 -6t6 -14v-55q0 -8 -6 -14t-14 -6h-329q-8 0 -14 6t-6 14v660q0 8 6 14t14 6h55q8 0 14 -6t6 -14z" />
    <glyph glyph-name="M" unicode="M" 
d="M191 683l79 -288q1 -3 4.5 -3.5t5.5 3.5l79 288q6 17 21 17h99q8 0 14 -6t6 -14v-660q0 -8 -6 -14t-14 -6h-48q-8 0 -14 6t-6 14v522q0 5 -4.5 5.5t-5.5 -3.5l-79 -277q-5 -17 -21 -17h-52q-16 0 -21 17l-79 277q-1 4 -5.5 3.5t-4.5 -5.5v-522q0 -8 -6 -14t-14 -6h-48
q-8 0 -14 6t-6 14v660q0 8 6 14t14 6h99q15 0 21 -17z" />
    <glyph glyph-name="N" unicode="N" 
d="M485 680v-660q0 -8 -6 -14t-14 -6h-83q-15 0 -21 17l-197 495q-2 3 -5 2.5t-3 -4.5v-490q0 -8 -6 -14t-14 -6h-51q-8 0 -14 6t-6 14v660q0 8 6 14t14 6h83q15 0 21 -17l197 -493q2 -3 5 -2.5t3 4.5v488q0 8 6 14t14 6h51q8 0 14 -6t6 -14z" />
    <glyph glyph-name="O" unicode="O" 
d="M275 613q-51 0 -87 -30t-43 -83q-7 -61 -7 -149.5t7 -150.5q6 -47 40.5 -80t89.5 -33q51 0 87 30t43 83q9 63 8.5 150t-8.5 150q-6 48 -40 80.5t-90 32.5zM275 708q91 0 152 -56t73 -152q7 -62 7 -150t-7 -150q-10 -87 -70 -147.5t-155 -60.5q-91 0 -152 56t-73 152
q-8 61 -8 150.5t8 149.5q10 87 70.5 147.5t154.5 60.5z" />
    <glyph glyph-name="P" unicode="P" 
d="M195 270v-250q0 -8 -6 -14t-14 -6h-55q-8 0 -14 6t-6 14v660q0 8 6 14t14 6h180q87 0 148.5 -61.5t61.5 -148.5t-61.5 -148.5t-148.5 -61.5h-95q-10 0 -10 -10zM300 605h-95q-10 0 -10 -10v-210q0 -10 10 -10h95q46 0 80.5 34t34.5 81t-34 81t-81 34z" />
    <glyph glyph-name="Q" unicode="Q" 
d="M275 613q-51 0 -87 -30t-43 -83q-7 -61 -7 -149.5t7 -150.5q6 -47 40.5 -80t89.5 -33q51 0 87 30t43 83q9 63 8.5 150t-8.5 150q-6 48 -40 80t-90 33zM436 59q-6 -6 -3 -14l53 -107q5 -10 -0.5 -19t-15.5 -9h-61q-12 0 -20 15l-37 71q-5 8 -24 2q-24 -6 -53 -6
q-91 0 -152 56t-73 152q-8 61 -8 150.5t8 149.5q10 87 70.5 147.5t154.5 60.5q91 0 152 -56t73 -152q7 -62 7 -150t-7 -150q-9 -83 -64 -141z" />
    <glyph glyph-name="R" unicode="R" 
d="M290 605h-95q-10 0 -10 -10v-210q0 -10 10 -10h95q46 0 80.5 34t34.5 81t-34 81t-81 34zM256 280h-61q-10 0 -10 -10v-250q0 -8 -6 -14t-14 -6h-55q-8 0 -14 6t-6 14v660q0 8 6 14t14 6h180q87 0 148.5 -61.5t61.5 -148.5q0 -56 -28.5 -103.5t-75.5 -75.5
q-28 -16 -17 -38l118 -243q6 -11 0.5 -20.5t-19.5 -9.5h-56q-19 0 -29 20l-118 248q-6 12 -19 12z" />
    <glyph glyph-name="S" unicode="S" 
d="M404 200q0 27 -9 47t-19.5 31.5t-38 22t-43.5 15t-58 13.5q-76 17 -121.5 64.5t-45.5 126.5q0 86 62 137t144 51q88 0 146.5 -55t58.5 -133v-13q0 -8 -6 -14t-14 -6h-55q-8 0 -14 6t-6 14v13q0 46 -33 69.5t-77 23.5q-49 0 -79.5 -25.5t-30.5 -67.5q0 -18 4 -33t15 -25.5
l18.5 -17.5t27 -13.5t26.5 -9t31 -8t28 -6.5q185 -45 185 -207q0 -93 -67 -150.5t-158 -57.5q-96 0 -160.5 61t-64.5 147v16q0 8 6 14t14 6h56q8 0 14 -6t6 -14v-16q0 -49 36.5 -81t92.5 -32t92.5 32.5t36.5 80.5z" />
    <glyph glyph-name="T" unicode="T" 
d="M218 605h-133q-8 0 -14 6t-6 14v55q0 8 6 14t14 6h380q8 0 14 -6t6 -14v-55q0 -8 -6 -14t-14 -6h-132q-10 0 -10 -10v-575q0 -8 -6 -14t-14 -6h-55q-8 0 -14 6t-6 14v575q0 10 -10 10z" />
    <glyph glyph-name="U" unicode="U" 
d="M145 680v-480q0 -56 38 -84.5t92 -28.5q57 0 93.5 32.5t36.5 80.5v480q0 8 6 14t14 6h55q8 0 14 -6t6 -14v-480q0 -89 -66.5 -148.5t-158.5 -59.5q-97 0 -161 59t-64 149v480q0 8 6 14t14 6h55q8 0 14 -6t6 -14z" />
    <glyph glyph-name="V" unicode="V" 
d="M281 152l139 533q4 15 19 15h61q11 0 16 -7t3 -16l-187 -662q-4 -15 -19 -15h-78q-15 0 -19 15l-186 661q-3 8 2.5 16t16.5 8h60q15 0 19 -15l139 -533q1 -6 6 -6h2q5 0 6 6z" />
    <glyph glyph-name="W" unicode="W" 
d="M324 485l54 -305q1 -4 6 -4t6 4l45 505q1 15 19 15h49q22 0 20 -20l-72 -665q-1 -15 -19 -15h-91q-17 0 -19 15l-42 302q-1 6 -4 3q-2 -1 -2 -3l-56 -302q-3 -15 -19 -15h-91q-18 0 -19 15l-63 665q-2 20 20 20h49q18 0 19 -15l41 -505q1 -4 6 -4t6 4l61 305q3 15 19 15
h58q16 0 19 -15z" />
    <glyph glyph-name="X" unicode="X" 
d="M270 263l-124 -248q-7 -15 -21 -15h-66q-10 0 -15.5 9t-0.5 19l171 334q5 8 1 14l-157 296q-5 10 0.5 19t15.5 9h64q12 0 19 -15l113 -217q4 -10 8 0l113 217q7 15 19 15h64q10 0 15.5 -9t0.5 -19l-157 -296q-4 -6 1 -14l172 -334q5 -10 -0.5 -19t-15.5 -9h-68
q-13 0 -20 15l-124 248q-4 10 -8 0z" />
    <glyph glyph-name="Y" unicode="Y" 
d="M280 374l111 311q5 15 19 15h66q10 0 15 -8.5t1 -19.5l-168 -431v-221q0 -8 -6 -14t-14 -6h-56q-8 0 -14 6t-6 14v220l-170 432q-4 11 1 19.5t15 8.5h66q14 0 19 -15l113 -311q4 -10 8 0z" />
    <glyph glyph-name="Z" unicode="Z" 
d="M465 592l-290 -489q-6 -10 6 -10h279q8 0 14 -6t6 -14v-53q0 -8 -6 -14t-14 -6h-372q-8 0 -14 6t-6 14v75q0 8 5 16l294 487q6 10 -6 10h-263q-8 0 -14 6t-6 14v52q0 8 6 14t14 6h352q8 0 14 -6t6 -14v-72q0 -8 -5 -16z" />
    <glyph glyph-name="bracketleft" unicode="[" 
d="M291 623v-616q0 -10 10 -10h125q8 0 14 -6t6 -14v-47q0 -8 -6 -14t-14 -6h-202q-8 0 -14 6t-6 14v770q0 8 6 14t14 6h200q8 0 14 -6t6 -14v-47q0 -8 -6 -14t-14 -6h-123q-10 0 -10 -10z" />
    <glyph glyph-name="backslash" unicode="\" 
d="M363 3l-264 679q-4 11 1 19.5t15 8.5h52q14 0 19 -15l266 -679q4 -11 -1 -19.5t-15 -8.5h-52q-16 0 -21 15z" />
    <glyph glyph-name="bracketright" unicode="]" 
d="M259 7v616q0 10 -10 10h-123q-8 0 -14 6t-6 14v47q0 8 6 14t14 6h200q8 0 14 -6t6 -14v-770q0 -8 -6 -14t-14 -6h-202q-8 0 -14 6t-6 14v47q0 8 6 14t14 6h125q10 0 10 10z" />
    <glyph glyph-name="asciicircum" unicode="^" 
d="M267 650l-50 -49q-16 -16 -31 -16h-59q-9 0 -12.5 8.5t1.5 12.5l108 112q12 12 30 12h42q17 0 29 -12l108 -112q5 -4 1.5 -12.5t-12.5 -8.5h-59q-15 0 -31 16l-51 49q-7 7 -14 0z" />
    <glyph glyph-name="underscore" unicode="_" 
d="M30 0h490q8 0 14 -6t6 -14v-35q0 -8 -6 -14t-14 -6h-490q-8 0 -14 6t-6 14v35q0 8 6 14t14 6z" />
    <glyph glyph-name="grave" unicode="`" 
d="M190 730h79q15 0 26 -16l76 -109q4 -6 -0.5 -13t-13.5 -7h-40q-18 0 -30 12l-108 112q-5 5 -1.5 13t12.5 8z" />
    <glyph glyph-name="a" unicode="a" 
d="M379 220h-130q-75 0 -75 -69q0 -37 23 -57.5t66 -20.5q67 0 96.5 26t29.5 79v32q0 10 -10 10zM288 424q-15 0 -29 -2.5t-29.5 -8t-25 -17.5t-9.5 -29t-23 -17h-45q-20 0 -20 20q0 65 55.5 102.5t125.5 37.5q79 0 131 -40.5t52 -119.5v-330q0 -8 -6 -14t-14 -6h-34
q-8 0 -14 7q-1 2 -5 8.5t-7 9.5t-8 3q-6 0 -20 -9.5t-39.5 -19t-57.5 -9.5q-88 0 -135 46t-47 114q0 65 44.5 108.5t120.5 43.5h122q10 0 10 10v33q0 39 -26 59t-67 20z" />
    <glyph glyph-name="b" unicode="b" 
d="M287 80q50 0 81 29t34 71q5 70 0 140q-3 42 -34 71t-81 29t-81 -29t-34 -71q-5 -70 0 -140q3 -42 34 -71t81 -29zM297 -10q-43 0 -73 16.5t-39 16.5q-11 0 -25 -16q-7 -7 -14 -7h-34q-8 0 -14 6t-6 14v667q0 8 6 14t14 6h50q8 0 14 -6t6 -14v-177q0 -25 22 -25
q7 0 37 12.5t56 12.5q77 0 130.5 -55t59.5 -135q5 -70 0 -140q-6 -80 -59.5 -135t-130.5 -55z" />
    <glyph glyph-name="c" unicode="c" 
d="M280 80q45 0 73.5 23.5t28.5 59.5q0 17 19 17h52q8 0 14 -6t6 -14q0 -73 -54.5 -121.5t-138.5 -48.5q-87 0 -140.5 54t-59.5 136q-5 70 0 140q6 82 59.5 136t140.5 54q84 0 138.5 -48.5t54.5 -121.5q0 -20 -17 -20h-54q-19 0 -19 16q0 36 -28.5 60t-74.5 24
q-49 0 -78 -29t-32 -71q-5 -70 0 -140q3 -42 32 -71t78 -29z" />
    <glyph glyph-name="d" unicode="d" 
d="M264 80q50 0 81 29t34 71q5 70 0 140q-3 42 -34 71t-81 29t-81 -29t-34 -71q-5 -70 0 -140q3 -42 34 -71t81 -29zM254 -10q-77 0 -130.5 55t-59.5 135q-5 70 0 140q6 80 59.5 135t130.5 55q26 0 56 -12.5t37 -12.5q22 0 22 25v177q0 8 6 14t14 6h50q8 0 14 -6t6 -14v-667
q0 -8 -6 -14t-14 -6h-34q-7 0 -14 7q-14 16 -25 16q-9 0 -39 -16.5t-73 -16.5z" />
    <glyph glyph-name="e" unicode="e" 
d="M163 211q0 -66 31 -98.5t85 -32.5q38 0 66 17.5t37 45.5q5 17 23 17h51q20 0 17 -20q-9 -66 -63 -108t-131 -42q-87 0 -143 54.5t-62 135.5q-5 70 0 140q6 81 62 135.5t143 54.5q91 0 145.5 -53.5t54.5 -146.5v-69q0 -8 -6 -14t-14 -6h-286q-10 0 -10 -10zM165 311
q0 -10 10 -10h208q10 0 10 10q0 50 -32.5 79.5t-80.5 29.5q-51 0 -83 -31t-32 -78z" />
    <glyph glyph-name="f" unicode="f" 
d="M201 405h-125q-8 0 -14 6t-6 14v50q0 8 6 14t14 6h125q10 0 10 10v15q0 79 53 133t132 54h60q8 0 14 -6t6 -14v-47q0 -8 -6 -14t-14 -6h-60q-39 0 -67 -30.5t-28 -69.5v-15q0 -10 10 -10h162q8 0 14 -6t6 -14v-50q0 -8 -6 -14t-14 -6h-162q-10 0 -10 -10v-375
q0 -8 -6 -14t-14 -6h-50q-8 0 -14 6t-6 14v375q0 10 -10 10z" />
    <glyph glyph-name="g" unicode="g" 
d="M410 500h34q8 0 14 -6t6 -14v-510q0 -74 -52.5 -127t-130.5 -53q-70 0 -121 36t-61 101q-3 23 18 23h48q13 0 17.5 -4t7.5 -13q1 -2 1 -3q20 -50 90 -50q39 0 66 25t27 65v22q0 25 -22 23q-6 0 -36 -12.5t-57 -12.5q-77 0 -130.5 55t-59.5 135q-5 70 0 140q6 80 59.5 135
t130.5 55q43 0 73 -16.5t39 -16.5q11 0 25 16q7 7 14 7zM269 420q-50 0 -81 -29t-34 -71q-5 -70 0 -140q3 -42 34 -71t81 -29t81 29t34 71q5 70 0 140q-3 42 -34 71t-81 29z" />
    <glyph glyph-name="h" unicode="h" 
d="M158 0h-50q-8 0 -14 6t-6 14v667q0 8 6 14t14 6h50q8 0 14 -6t6 -14v-181q0 -8 6 -14.5t16 -6.5q7 0 36.5 12.5t55.5 12.5q79 0 134.5 -55.5t55.5 -134.5v-300q0 -8 -6 -14t-14 -6h-50q-8 0 -14 6t-6 14v300q0 40 -31 70t-76 30q-46 0 -76.5 -27.5t-30.5 -67.5v-305
q0 -8 -6 -14t-14 -6z" />
    <glyph glyph-name="i" unicode="i" 
d="M346 691v-69q0 -16 -16 -16h-68q-16 0 -16 16v69q0 6 4.5 11t11.5 5h68q7 0 11.5 -5t4.5 -11zM241 415h-121q-8 0 -14 6t-6 14v45q0 8 6 14t14 6h203q8 0 14 -6t6 -14v-385q0 -10 10 -10h127q8 0 14 -6t6 -14v-45q0 -8 -6 -14t-14 -6h-370q-8 0 -14 6t-6 14v45q0 8 6 14
t14 6h131q10 0 10 10v310q0 10 -10 10z" />
    <glyph glyph-name="j" unicode="j" 
d="M417 691v-69q0 -16 -16 -16h-68q-16 0 -16 16v69q0 6 4.5 11t11.5 5h68q7 0 11.5 -5t4.5 -11zM413 480v-527q0 -66 -47 -114.5t-113 -48.5t-113 47t-47 113q0 8 6 14t14 6h50q8 0 14 -6t6 -14q0 -29 18.5 -49.5t51.5 -20.5q32 0 49.5 21.5t17.5 51.5v452q0 10 -10 10
h-145q-8 0 -14 6t-6 14v45q0 8 6 14t14 6h228q8 0 14 -6t6 -14z" />
    <glyph glyph-name="k" unicode="k" 
d="M391 15l-173 166q-2 2 -5 1t-3 -5v-157q0 -8 -6 -14t-14 -6h-50q-8 0 -14 6t-6 14v667q0 8 6 14t14 6h50q8 0 14 -6t6 -14v-346q0 -10 8 -4l163 150q13 13 28 13h54q15 0 19.5 -13t-3.5 -20l-205 -193q-13 -13 0 -24l226 -217q10 -9 4 -21t-20 -12h-63q-15 0 -30 15z" />
    <glyph glyph-name="l" unicode="l" 
d="M236 624h-105q-8 0 -14 6t-6 14v43q0 8 6 14t14 6h185q8 0 14 -6t6 -14v-592q0 -10 10 -10h113q8 0 14 -6t6 -14v-45q0 -8 -6 -14t-14 -6h-348q-8 0 -14 6t-6 14v45q0 8 6 14t14 6h125q10 0 10 10v519q0 10 -10 10z" />
    <glyph glyph-name="m" unicode="m" 
d="M296 474q29 36 86 36q121 0 121 -143v-347q0 -8 -6 -14t-14 -6h-44q-8 0 -14 6t-6 14v347q0 19 -14.5 33.5t-33.5 14.5t-32 -14t-13 -34v-347q0 -8 -6 -14t-14 -6h-48q-8 0 -14 6t-6 14v347q0 20 -13.5 34t-32.5 14t-33 -14t-14 -34v-347q0 -8 -6 -14t-14 -6h-48
q-8 0 -14 6t-6 14v460q0 8 6 14t14 6h32q7 0 14 -7q6 -8 13 -8q1 0 21.5 12.5t48.5 12.5q43 0 69 -36q4 -6 10 -6q7 0 11 6z" />
    <glyph glyph-name="n" unicode="n" 
d="M183 477q9 0 38 16.5t69 16.5q80 0 135 -54t55 -136v-300q0 -8 -6 -14t-14 -6h-50q-8 0 -14 6t-6 14v300q0 43 -31.5 71.5t-78.5 28.5t-78.5 -26t-31.5 -69v-305q0 -8 -6 -14t-14 -6h-50q-8 0 -14 6t-6 14v460q0 8 6 14t14 6h44q7 0 14 -7q14 -16 25 -16z" />
    <glyph glyph-name="o" unicode="o" 
d="M275 510q87 0 143 -54.5t62 -135.5q5 -70 0 -140q-6 -81 -62 -135.5t-143 -54.5t-143 54.5t-62 135.5q-5 70 0 140q6 81 62 135.5t143 54.5zM275 80q50 0 81 29t34 71q5 70 0 140q-3 42 -34 71t-81 29t-81 -29t-34 -71q-5 -70 0 -140q3 -42 34 -71t81 -29z" />
    <glyph glyph-name="p" unicode="p" 
d="M281 420q-50 0 -81 -29t-34 -71q-5 -70 0 -140q3 -42 34 -71t81 -29t81 29t34 71q5 70 0 140q-3 42 -34 71t-81 29zM291 510q77 0 130.5 -55t59.5 -135q5 -70 0 -140q-6 -80 -59.5 -135t-130.5 -55q-26 0 -56 12.5t-37 12.5q-22 0 -22 -25v-170q0 -8 -6 -14t-14 -6h-50
q-8 0 -14 6t-6 14v660q0 8 6 14t14 6h34q7 0 14 -7q14 -16 25 -16q9 0 39 16.5t73 16.5z" />
    <glyph glyph-name="q" unicode="q" 
d="M269 420q-50 0 -81 -29t-34 -71q-5 -70 0 -140q3 -42 34 -71t81 -29t81 29t34 71q5 70 0 140q-3 42 -34 71t-81 29zM259 510q43 0 73 -16.5t39 -16.5q11 0 25 16q7 7 14 7h34q8 0 14 -6t6 -14v-660q0 -8 -6 -14t-14 -6h-50q-8 0 -14 6t-6 14v170q0 25 -22 25
q-7 0 -37 -12.5t-56 -12.5q-77 0 -130.5 55t-59.5 135q-5 70 0 140q6 80 59.5 135t130.5 55z" />
    <glyph glyph-name="r" unicode="r" 
d="M413 340q0 35 -28 57.5t-70 22.5q-49 0 -84.5 -26.5t-35.5 -68.5v-305q0 -8 -6 -14t-14 -6h-50q-8 0 -14 6t-6 14v460q0 8 6 14t14 6h44q7 0 14 -7q14 -16 25 -16q9 0 41.5 16.5t75.5 16.5q74 0 126.5 -49t52.5 -121q0 -8 -6 -14t-14 -6h-51q-8 0 -14 6t-6 14z" />
    <glyph glyph-name="s" unicode="s" 
d="M77 163q0 8 6 14t14 6h50q8 0 14 -6t6 -14q0 -87 108 -87q107 0 107 74q0 30 -26.5 44t-80.5 25q-34 7 -51.5 11.5t-46.5 16t-44 25t-27 38t-12 55.5q0 65 54.5 105t126.5 40t125 -41t53 -109q0 -8 -6 -14t-14 -6h-50q-8 0 -14 6t-6 14q0 28 -22 46.5t-66 18.5
q-43 0 -65.5 -18t-22.5 -42q0 -25 22 -36.5t66 -19.5l38.5 -7t37 -9t38 -13.5t31.5 -19t28.5 -27t16.5 -36t7 -47.5q0 -76 -57 -118t-140 -42t-140.5 43.5t-57.5 129.5z" />
    <glyph glyph-name="t" unicode="t" 
d="M270 395v-245q0 -28 20 -49t50 -21t50 21t20 49q0 8 6 14t14 6h50q8 0 14 -6t6 -14q0 -66 -47 -113t-113 -47t-113 47t-47 113v245q0 10 -10 10h-100q-8 0 -14 6t-6 14v50q0 8 6 14t14 6h100q10 0 10 10v155q0 8 6 14t14 6h50q8 0 14 -6t6 -14v-155q0 -10 10 -10h160
q8 0 14 -6t6 -14v-50q0 -8 -6 -14t-14 -6h-160q-10 0 -10 -10z" />
    <glyph glyph-name="u" unicode="u" 
d="M372 23q-9 0 -36.5 -16.5t-70.5 -16.5q-84 0 -137 53.5t-53 136.5v300q0 8 6 14t14 6h50q8 0 14 -6t6 -14v-300q0 -44 29.5 -72t80.5 -28q47 0 78.5 26t31.5 69v305q0 8 6 14t14 6h50q8 0 14 -6t6 -14v-460q0 -8 -6 -14t-14 -6h-44q-7 0 -14 7q-14 16 -25 16z" />
    <glyph glyph-name="v" unicode="v" 
d="M282 152l116 333q5 15 19 15h62q11 0 16.5 -7.5t2.5 -15.5l-176 -462q-6 -15 -19 -15h-55q-13 0 -19 15l-177 462q-3 8 2.5 15.5t16.5 7.5h62q14 0 19 -15l116 -333q2 -5 7 -5t7 5z" />
    <glyph glyph-name="w" unicode="w" 
d="M257 390h36q15 0 19 -15l50 -188q2 -6 7 -6t7 6l45 298q3 15 19 15h49q11 0 16 -7t3 -16l-85 -462q-3 -15 -19 -15h-55q-15 0 -19 15l-49 195q-1 5 -6 5t-6 -5l-49 -195q-4 -15 -19 -15h-55q-16 0 -19 15l-85 462q-2 9 3 16t16 7h49q16 0 19 -15l45 -298q1 -6 6.5 -6
t7.5 6l50 188q4 15 19 15z" />
    <glyph glyph-name="x" unicode="x" 
d="M271 180l-101 -170q-6 -10 -22 -10h-58q-14 0 -19 10.5t3 22.5l141 224q4 7 1 13l-125 197q-8 12 -3 22.5t19 10.5h56q16 0 22 -10l86 -145q4 -8 8 0l86 145q6 10 22 10h56q14 0 19 -10.5t-3 -22.5l-125 -197q-3 -6 1 -13l141 -224q8 -12 3 -22.5t-19 -10.5h-58
q-16 0 -22 10l-101 170q-4 8 -8 0z" />
    <glyph glyph-name="y" unicode="y" 
d="M283 160l116 325q5 15 19 15h59q11 0 16.5 -7.5t2.5 -15.5l-254 -662q-5 -15 -19 -15h-54q-11 0 -16.5 7.5t-2.5 15.5l74 204q3 8 1 13l-172 437q-3 8 2.5 15.5t16.5 7.5h61q14 0 19 -15l123 -325q4 -10 8 0z" />
    <glyph glyph-name="z" unicode="z" 
d="M88 110l263 294q3 4 1.5 7t-6.5 3h-241q-8 0 -14 6t-6 14v46q0 8 6 14t14 6h340q8 0 14 -6t6 -14v-57q0 -17 -20 -41l-252 -286q-3 -4 -1.5 -7t6.5 -3h257q8 0 14 -6t6 -14v-46q0 -8 -6 -14t-14 -6h-360q-8 0 -14 6t-6 14v59q0 16 13 31z" />
    <glyph glyph-name="braceleft" unicode="{" 
d="M161 120v135q0 12 -18 20l-11 5q-20 8 -20 20v40q0 12 20 20l11 5q18 8 18 20v125q0 87 55 148.5t150 61.5h42q8 0 14 -6t6 -14v-48q0 -8 -6 -14t-14 -6h-42q-50 0 -82.5 -33.5t-32.5 -88.5v-125q0 -40 -41 -65q41 -25 41 -65v-135q0 -55 32.5 -88.5t82.5 -33.5h52
q8 0 14 -6t6 -14v-48q0 -8 -6 -14t-14 -6h-52q-95 0 -150 61.5t-55 148.5z" />
    <glyph glyph-name="bar" unicode="|" 
d="M317 700v-750q0 -8 -6 -14t-14 -6h-45q-8 0 -14 6t-6 14v750q0 8 6 14t14 6h45q8 0 14 -6t6 -14z" />
    <glyph glyph-name="braceright" unicode="}" 
d="M389 255v-135q0 -87 -55 -148.5t-150 -61.5h-52q-8 0 -14 6t-6 14v48q0 8 6 14t14 6h52q50 0 82.5 33.5t32.5 88.5v135q0 40 41 65q-41 25 -41 65v125q0 55 -32.5 88.5t-82.5 33.5h-42q-8 0 -14 6t-6 14v48q0 8 6 14t14 6h42q95 0 150 -61.5t55 -148.5v-125q0 -12 18 -20
l11 -5q20 -8 20 -20v-40q0 -12 -20 -20l-11 -5q-18 -8 -18 -20z" />
    <glyph glyph-name="asciitilde" unicode="~" 
d="M161 235q-17 0 -35.5 -8t-26.5 -18q-5 -6 -12 -8t-12 3t-5 14v50q0 27 26.5 44t64.5 17q51 0 112 -22.5t116 -22.5q17 0 35.5 8t26.5 18q5 6 12 8t12 -3t5 -14v-50q0 -27 -26.5 -44t-64.5 -17q-51 0 -112 22.5t-116 22.5z" />
    <glyph glyph-name="exclamdown" unicode="&#xa1;" 
d="M321 290v-470q0 -8 -6 -14t-14 -6h-56q-8 0 -14 6t-6 14v470q0 8 6 14t14 6h56q8 0 14 -6t6 -14zM335 480v-83q0 -8 -6 -14t-14 -6h-83q-8 0 -14 6t-6 14v83q0 8 6 14t14 6h83q8 0 14 -6t6 -14z" />
    <glyph glyph-name="cent" unicode="&#xa2;" 
d="M335 -4q-10 -3 -10 -10v-36q0 -8 -6 -14t-14 -6h-45q-8 0 -14 6t-6 14v35q0 7 -10 10q-66 15 -105.5 65.5t-44.5 119.5q-5 70 0 140q5 69 44.5 119t104.5 65q11 3 11 10v36q0 8 6 14t14 6h45q8 0 14 -6t6 -14v-36q0 -7 10 -10q63 -15 100.5 -59.5t37.5 -104.5
q0 -20 -17 -20h-54q-19 0 -19 16q0 36 -28.5 60t-74.5 24q-49 0 -78 -29t-32 -71q-5 -70 0 -140q3 -42 32 -71t78 -29q45 0 73.5 23.5t28.5 59.5q0 17 19 17h52q8 0 14 -6t6 -14q0 -60 -37.5 -104.5t-100.5 -59.5z" />
    <glyph glyph-name="sterling" unicode="&#xa3;" 
d="M487 540v-10q0 -8 -6 -14t-14 -6h-54q-8 0 -14 6t-6 14v10q0 32 -22 53.5t-54 21.5t-53 -21.5t-21 -53.5v-127q0 -10 10 -10h136q8 0 14 -6t6 -14v-51q0 -8 -6 -14t-14 -6h-136q-10 0 -10 -12v-90q0 -82 -24 -107q-3 -3 -2 -5.5t6 -2.5h254q8 0 14 -6t6 -14v-55
q0 -8 -6 -14t-14 -6h-404q-9 0 -15 6t-6 14v55q0 8 6 14t14 6h5q31 0 51 31.5t20 83.5v90q0 12 -10 12h-57q-8 0 -14 6t-6 14v51q0 8 6 14t14 6h57q10 0 10 10v127q0 71 49.5 120.5t119.5 49.5q71 0 120.5 -50t49.5 -120z" />
    <glyph glyph-name="currency" unicode="&#xa4;" 
d="M277 524q63 0 117 -35l74 73q14 14 27 -1l37 -37q15 -13 1 -27l-74 -73q34 -55 34 -116q0 -65 -36 -118l75 -74q13 -13 0 -28l-37 -37q-15 -13 -28 0l-75 74q-53 -33 -115 -33q-63 0 -116 33l-75 -75q-14 -14 -27 1l-37 37q-15 13 -1 27l75 75q-35 54 -35 118
q0 63 33 115l-72 73q-13 13 0 28l37 37q15 13 28 0l72 -72q54 35 118 35zM151 308q0 -52 36.5 -89t89.5 -37t89.5 37t36.5 89t-36.5 89t-89.5 37t-89.5 -37t-36.5 -89z" />
    <glyph glyph-name="yen" unicode="&#xa5;" 
d="M455 364h-76q-7 0 -9 -5l-13 -37q-4 -12 7 -12h91q8 0 14 -6t6 -14v-43q0 -8 -6 -14t-14 -6h-121q-10 0 -10 -10v-197q0 -8 -6 -14t-14 -6h-56q-8 0 -14 6t-6 14v197q0 10 -10 10h-123q-8 0 -14 6t-6 14v43q0 8 6 14t14 6h92q11 0 7 12l-13 37q-2 5 -9 5h-77q-8 0 -14 6
t-6 14v44q0 8 6 14t14 6h39q11 0 7 12l-83 212q-4 11 1 19.5t15 8.5h66q14 0 19 -15l113 -311q4 -10 8 0l111 311q5 15 19 15h66q10 0 15 -8.5t1 -19.5l-82 -212q-4 -12 7 -12h38q8 0 14 -6t6 -14v-44q0 -8 -6 -14t-14 -6z" />
    <glyph glyph-name="brokenbar" unicode="&#xa6;" 
d="M318 687v-267q0 -8 -6 -14t-14 -6h-46q-8 0 -14 6t-6 14v267q0 8 6 14t14 6h46q8 0 14 -6t6 -14zM318 287v-267q0 -8 -6 -14t-14 -6h-46q-8 0 -14 6t-6 14v267q0 8 6 14t14 6h46q8 0 14 -6t6 -14z" />
    <glyph glyph-name="section" unicode="&#xa7;" 
d="M186 242l150 -126q10 -8 20 0q41 33 41 68q0 33 -30 58l-151 130q-10 8 -20 0q-41 -36 -41 -71q0 -32 31 -59zM135 427q13 9 2 23q-32 44 -32 93q0 73 54 117t125 44q75 0 124.5 -45.5t49.5 -120.5v-18q0 -8 -6 -14t-14 -6h-54q-8 0 -14 6t-6 14v18q0 32 -22 53t-58 21
q-35 0 -57 -17t-22 -48q0 -44 33 -71l189 -162q38 -32 50.5 -61.5t12.5 -71.5q0 -75 -69 -128q-12 -9 -1 -23q27 -34 27 -87q0 -71 -54 -114t-125 -43q-76 0 -127 43t-51 122v29q0 8 6 14t14 6h54q8 0 14 -6t6 -14v-29q0 -74 84 -74q78 0 78 66q0 33 -37 65l-172 148
q-46 40 -61 73t-15 76q0 67 74 122z" />
    <glyph glyph-name="dieresis" unicode="&#xa8;" 
d="M239 691v-69q0 -16 -16 -16h-68q-16 0 -16 16v69q0 6 4.5 11t11.5 5h68q7 0 11.5 -5t4.5 -11zM410 691v-69q0 -16 -16 -16h-68q-16 0 -16 16v69q0 6 4.5 11t11.5 5h68q7 0 11.5 -5t4.5 -11z" />
    <glyph glyph-name="copyright" unicode="&#xa9;" 
d="M18 350q0 106 75 181t182 75t181.5 -75t74.5 -181q0 -107 -75 -182t-181 -75q-107 0 -182 75.5t-75 181.5zM83 350q0 -80 56 -136t136 -56t135.5 56t55.5 136t-56 135.5t-135 55.5q-80 0 -136 -55.5t-56 -135.5zM373 305q0 -44 -25.5 -72t-72.5 -28q-116 0 -102 173
q7 111 102 111q47 0 72.5 -28t25.5 -72q0 -11 -9 -11h-40q-11 0 -11 8q0 21 -11 34t-27 13q-54 0 -44 -117q2 -24 13.5 -39.5t30.5 -15.5q15 0 26 13t11 33q0 9 12 9h37q12 0 12 -11z" />
    <glyph glyph-name="ordfeminine" unicode="&#xaa;" 
d="M252 558h-55q-37 0 -37 -28q0 -27 44 -27q21 0 37 10.5t16 30.5v9q0 5 -5 5zM212 655q-43 0 -43 -19q0 -8 -11 -8h-37q-10 0 -10 10q0 33 29.5 51.5t71.5 18.5q41 0 71 -23.5t30 -66.5v-155q0 -10 -10 -10h-27q-4 0 -7 3q-8 11 -10 11q-1 0 -21 -9.5t-42 -9.5
q-45 0 -70.5 23t-25.5 57t22.5 58.5t64.5 24.5h61q5 0 5 5v9q0 30 -41 30z" />
    <glyph glyph-name="guillemotleft" unicode="&#xab;" 
d="M115 274l96 161q9 15 25 15h45q15 0 20 -9t-4 -24l-85 -145q-8 -11 0 -24l85 -145q9 -15 4 -24t-20 -9h-45q-16 0 -25 15l-96 161q-9 14 0 28zM293 274l96 161q9 15 25 15h45q15 0 20 -9t-4 -24l-85 -145q-8 -11 0 -24l85 -145q9 -15 4 -24t-20 -9h-45q-16 0 -25 15
l-96 161q-9 14 0 28z" />
    <glyph glyph-name="logicalnot" unicode="&#xac;" 
d="M390 110v90q0 10 -10 10h-310q-8 0 -14 6t-6 14v50q0 8 6 14t14 6h390q8 0 14 -6t6 -14v-170q0 -8 -6 -14t-14 -6h-50q-8 0 -14 6t-6 14z" />
    <glyph glyph-name="registered" unicode="&#xae;" 
d="M19 350q0 106 75 181t182 75q106 0 181 -75t75 -181q0 -107 -75 -182t-181 -75t-181.5 75.5t-75.5 181.5zM84 350q0 -80 56 -136t136 -56t135.5 56t55.5 136t-55.5 135.5t-135.5 55.5t-136 -55.5t-56 -135.5zM297 430h-50q-6 0 -6 -6v-54q0 -4 6 -4h50q15 0 23.5 9.5
t8.5 22.5t-8.5 22.5t-23.5 9.5zM342 324q-10 -6 -10.5 -6.5t0.5 -9.5l43 -76q4 -6 1 -11t-10 -5h-32q-10 0 -16 11l-41 76q-3 7 -9 7h-21q-6 0 -6 -5v-78q0 -11 -10 -11h-35q-9 0 -9 11v247q0 11 9 11h101q36 0 61 -25.5t25 -61.5q0 -48 -41 -74z" />
    <glyph glyph-name="macron" unicode="&#xaf;" 
d="M396 616h-242q-8 0 -14 6t-6 14v38q0 8 6 14t14 6h242q8 0 14 -6t6 -14v-38q0 -8 -6 -14t-14 -6z" />
    <glyph glyph-name="degree" unicode="&#xb0;" 
d="M76 585q0 62 43.5 105t105.5 43q61 0 104.5 -43.5t43.5 -104.5q0 -62 -43 -105.5t-105 -43.5t-105.5 43.5t-43.5 105.5zM157 585q0 -28 20 -48t48 -20t48 20t20 48t-20 48t-48 20t-48 -20t-20 -48z" />
    <glyph glyph-name="plusminus" unicode="&#xb1;" 
d="M75 464h144q10 0 10 10v144q0 8 6 14t14 6h52q8 0 14 -6t6 -14v-144q0 -10 10 -10h144q8 0 14 -6t6 -14v-52q0 -8 -6 -14t-14 -6h-144q-10 0 -10 -10v-144q0 -8 -6 -14t-14 -6h-52q-8 0 -14 6t-6 14v144q0 10 -10 10h-144q-8 0 -14 6t-6 14v52q0 8 6 14t14 6zM78 92h394
q8 0 14 -6t6 -14v-52q0 -8 -6 -14t-14 -6h-394q-8 0 -14 6t-6 14v52q0 8 6 14t14 6z" />
    <glyph glyph-name="twosuperior" unicode="&#xb2;" 
d="M312 596q0 14 -9 23.5t-24 9.5q-39 0 -39 -33v-9q0 -10 -10 -10h-53q-10 0 -10 10v8q0 45 32.5 76t77.5 31t76.5 -31t31.5 -76q0 -37 -29 -68l-94 -97q-3 -2 -2 -6.5t7 -4.5h107q10 0 10 -10v-53q0 -10 -10 -10h-200q-10 0 -10 10v66q0 8 4 12l134 139q10 10 10 23z" />
    <glyph glyph-name="threesuperior" unicode="&#xb3;" 
d="M315 451q0 18 -11.5 27.5t-28.5 9.5h-6q-10 0 -10 10v52q0 10 10 10h6q16 0 26 9t10 26q0 16 -10 25t-26 9t-26 -9t-10 -25v-8q0 -10 -10 -10h-53q-10 0 -10 10v8q0 44 32.5 75.5t76.5 31.5q45 0 77 -31.5t32 -75.5q0 -35 -26 -65q-5 -5 0 -8q30 -24 30 -71
q0 -46 -33 -78.5t-80 -32.5t-80 32.5t-33 78.5v6q0 10 10 10h53q10 0 10 -10v-6q0 -38 40 -38t40 38z" />
    <glyph glyph-name="acute" unicode="&#xb4;" 
d="M280 730h79q9 0 12.5 -8t-1.5 -13l-108 -112q-12 -12 -30 -12h-40q-9 0 -13.5 7t-0.5 13l76 109q11 16 26 16z" />
    <glyph glyph-name="uni00B5" unicode="&#xb5;" 
d="M265 -10q-35 0 -78 29q-7 5 -15.5 1.5t-8.5 -14.5v-186q0 -8 -6 -14t-14 -6h-48q-8 0 -14 6t-6 14v660q0 8 6 14t14 6h50q8 0 14 -6t6 -14v-300q0 -43 31.5 -71.5t78.5 -28.5t78.5 26t31.5 69v305q0 8 6 14t14 6h50q8 0 14 -6t6 -14v-460q0 -8 -6 -14t-14 -6h-44
q-7 0 -18.5 11.5t-20.5 11.5t-36.5 -16.5t-70.5 -16.5z" />
    <glyph glyph-name="paragraph" unicode="&#xb6;" 
d="M210 360q-66 0 -113 50.5t-47 119.5q0 70 50 120t120 50h240q8 0 14 -6t6 -14v-760q0 -8 -6 -14t-14 -6h-40q-8 0 -14 6t-6 14v695q0 10 -10 10h-80q-10 0 -10 -10v-695q0 -8 -6 -14t-14 -6h-40q-8 0 -14 6t-6 14v430q0 10 -10 10z" />
    <glyph glyph-name="periodcentered" unicode="&#xb7;" 
d="M365 335v-140q0 -8 -6 -14t-14 -6h-140q-8 0 -14 6t-6 14v140q0 8 6 14t14 6h140q8 0 14 -6t6 -14z" />
    <glyph glyph-name="cedilla" unicode="&#xb8;" 
d="M338 -63l-28 -121q-4 -16 -19 -16h-63q-9 0 -13.5 5.5t-2.5 12.5l38 121q4 16 19 16h53q20 0 16 -18z" />
    <glyph glyph-name="onesuperior" unicode="&#xb9;" 
d="M247 424v166q0 5 -4.5 6.5t-6.5 -1.5l-58 -52q-5 -5 -12 -1.5t-7 11.5v50q0 14 8 22l54 57q14 14 29 14h62q10 0 10 -10v-262q0 -5 5 -5h54q10 0 10 -10v-53q0 -10 -10 -10h-209q-10 0 -10 10v53q0 10 10 10h70q5 0 5 5z" />
    <glyph glyph-name="ordmasculine" unicode="&#xba;" 
d="M215 648q-68 0 -55 -98q3 -19 18 -30.5t37 -11.5q36 0 49 27t6 67q-8 46 -55 46zM215 711q52 0 87.5 -42t27.5 -117q-6 -49 -40 -78t-75 -29q-52 0 -88.5 43.5t-26.5 114.5q7 52 40.5 80t74.5 28z" />
    <glyph glyph-name="guillemotright" unicode="&#xbb;" 
d="M339 435l96 -161q9 -14 0 -28l-96 -161q-9 -15 -25 -15h-45q-15 0 -20 9t4 24l85 145q8 13 0 24l-85 145q-9 15 -4 24t20 9h45q16 0 25 -15zM161 435l96 -161q9 -14 0 -28l-96 -161q-9 -15 -25 -15h-45q-15 0 -20 9t4 24l85 145q8 13 0 24l-85 145q-9 15 -4 24t20 9h45
q16 0 25 -15z" />
    <glyph glyph-name="onequarter" unicode="&#xbc;" 
d="M460 672l-326 -657q-8 -15 -21 -15h-27q-10 0 -15.5 9t-0.5 19l324 657q8 15 22 15h28q10 0 15.5 -9t0.5 -19zM480 130h17q10 0 10 -10v-48q0 -10 -10 -10h-17q-5 0 -5 -5v-47q0 -10 -10 -10h-51q-10 0 -10 10v47q0 5 -5 5h-114q-10 0 -10 10v59q0 6 8 20l112 192
q3 7 10 7h60q10 0 10 -10v-205q0 -5 5 -5zM398 230l-50 -94q-4 -6 4 -6h47q5 0 5 5v93q0 3 -2 3.5t-4 -1.5zM121 360v234q0 5 -4.5 6.5t-6.5 -1.5l-58 -52q-5 -5 -12 -1.5t-7 11.5v50q0 14 8 22l54 57q14 14 29 14h62q10 0 10 -10v-330q0 -10 -10 -10h-55q-10 0 -10 10z" />
    <glyph glyph-name="onehalf" unicode="&#xbd;" 
d="M121 360v234q0 5 -4.5 6.5t-6.5 -1.5l-58 -52q-5 -5 -12 -1.5t-7 11.5v50q0 14 8 22l54 57q14 14 29 14h62q10 0 10 -10v-330q0 -10 -10 -10h-55q-10 0 -10 10zM461 250q0 14 -9 23.5t-24 9.5q-39 0 -39 -33v-9q0 -10 -10 -10h-53q-10 0 -10 10v8q0 45 32.5 76t77.5 31
t76.5 -31t31.5 -76q0 -37 -29 -68l-94 -97q-3 -2 -2 -6.5t7 -4.5h107q10 0 10 -10v-53q0 -10 -10 -10h-200q-10 0 -10 10v66q0 8 4 12l134 139q10 10 10 23zM460 672l-326 -657q-8 -15 -21 -15h-27q-10 0 -15.5 9t-0.5 19l324 657q8 15 22 15h28q10 0 15.5 -9t0.5 -19z" />
    <glyph glyph-name="threequarters" unicode="&#xbe;" 
d="M480 672l-326 -657q-8 -15 -21 -15h-27q-10 0 -15.5 9t-0.5 19l324 657q8 15 22 15h28q10 0 15.5 -9t0.5 -19zM176 458q0 18 -11.5 27.5t-28.5 9.5h-6q-10 0 -10 10v52q0 10 10 10h6q16 0 26 9t10 26q0 16 -10 25t-26 9t-26 -9t-10 -25v-8q0 -10 -10 -10h-53
q-10 0 -10 10v8q0 44 32.5 75.5t76.5 31.5q45 0 77 -31.5t32 -75.5q0 -35 -26 -65q-5 -5 0 -8q30 -24 30 -71q0 -46 -33 -78.5t-80 -32.5t-80 32.5t-33 78.5v6q0 10 10 10h53q10 0 10 -10v-6q0 -38 40 -38t40 38zM500 130h17q10 0 10 -10v-48q0 -10 -10 -10h-17q-5 0 -5 -5
v-47q0 -10 -10 -10h-51q-10 0 -10 10v47q0 5 -5 5h-114q-10 0 -10 10v59q0 6 8 20l112 192q3 7 10 7h60q10 0 10 -10v-205q0 -5 5 -5zM418 230l-50 -94q-4 -6 4 -6h47q5 0 5 5v93q0 3 -2 3.5t-4 -1.5z" />
    <glyph glyph-name="questiondown" unicode="&#xbf;" 
d="M179 -7q0 -42 26 -71.5t70 -29.5q41 0 68.5 31t27.5 70v15q0 8 6 14t14 6h51q8 0 14 -6t6 -14v-15q0 -81 -53.5 -137t-133.5 -56q-81 0 -134.5 54t-53.5 139q0 93 89 161q5 4 17 12.5l18 13t13.5 12.5t11 17.5t3.5 20.5v70q0 8 6 14t14 6h51q8 0 14 -6t6 -14v-84
q0 -40 -18 -61q-19 -22 -49.5 -43t-42.5 -33q-41 -41 -41 -86zM222 407v83q0 8 6 14t14 6h83q8 0 14 -6t6 -14v-83q0 -8 -6 -14t-14 -6h-83q-8 0 -14 6t-6 14z" />
    <glyph glyph-name="Agrave" unicode="&#xc0;" 
d="M173 168l-44 -153q-5 -15 -19 -15h-55q-11 0 -16.5 6t-3.5 14l186 665q3 15 19 15h70q16 0 19 -15l186 -665q2 -8 -3.5 -14t-16.5 -6h-55q-14 0 -19 15l-44 153q-3 14 -19 14h-166q-14 0 -19 -14zM270 565l-65 -279q-3 -11 8 -11h124q11 0 8 11l-65 279q-2 6 -4 6h-2
q-2 0 -4 -6zM140 895h79q15 0 26 -16l76 -109q4 -6 -0.5 -13t-13.5 -7h-40q-18 0 -30 12l-108 112q-5 4 -1.5 12.5t12.5 8.5z" />
    <glyph glyph-name="Aacute" unicode="&#xc1;" 
d="M173 168l-44 -153q-5 -15 -19 -15h-55q-11 0 -16.5 6t-3.5 14l186 665q3 15 19 15h70q16 0 19 -15l186 -665q2 -8 -3.5 -14t-16.5 -6h-55q-14 0 -19 15l-44 153q-3 14 -19 14h-166q-14 0 -19 -14zM270 565l-65 -279q-3 -11 8 -11h124q11 0 8 11l-65 279q-2 6 -4 6h-2
q-2 0 -4 -6zM330 895h79q9 0 12.5 -8.5t-1.5 -12.5l-108 -112q-12 -12 -30 -12h-40q-9 0 -13.5 7t-0.5 13l76 109q11 16 26 16z" />
    <glyph glyph-name="Acircumflex" unicode="&#xc2;" 
d="M173 168l-44 -153q-5 -15 -19 -15h-55q-11 0 -16.5 6t-3.5 14l186 665q3 15 19 15h70q16 0 19 -15l186 -665q2 -8 -3.5 -14t-16.5 -6h-55q-14 0 -19 15l-44 153q-3 14 -19 14h-166q-14 0 -19 -14zM270 565l-65 -279q-3 -11 8 -11h124q11 0 8 11l-65 279q-2 6 -4 6h-2
q-2 0 -4 -6zM267 815l-50 -49q-16 -16 -31 -16h-59q-9 0 -12.5 8t1.5 13l108 112q12 12 30 12h42q17 0 29 -12l108 -112q5 -5 1.5 -13t-12.5 -8h-59q-15 0 -31 16l-51 49q-7 7 -14 0z" />
    <glyph glyph-name="Atilde" unicode="&#xc3;" 
d="M173 168l-44 -153q-5 -15 -19 -15h-55q-11 0 -16.5 6t-3.5 14l186 665q3 15 19 15h70q16 0 19 -15l186 -665q2 -8 -3.5 -14t-16.5 -6h-55q-14 0 -19 15l-44 153q-3 14 -19 14h-166q-14 0 -19 -14zM270 565l-65 -279q-3 -11 8 -11h124q11 0 8 11l-65 279q-2 6 -4 6h-2
q-2 0 -4 -6zM345 841q29 0 46 21q6 8 15.5 4t9.5 -18v-40q0 -20 -21 -35.5t-50 -15.5q-31 0 -68 12.5t-72 12.5q-28 0 -46 -21q-6 -8 -15.5 -3.5t-9.5 17.5v40q0 20 21 35.5t50 15.5q31 0 68 -12.5t72 -12.5z" />
    <glyph glyph-name="Adieresis" unicode="&#xc4;" 
d="M173 168l-44 -153q-5 -15 -19 -15h-55q-11 0 -16.5 6t-3.5 14l186 665q3 15 19 15h70q16 0 19 -15l186 -665q2 -8 -3.5 -14t-16.5 -6h-55q-14 0 -19 15l-44 153q-3 14 -19 14h-166q-14 0 -19 -14zM270 565l-65 -279q-3 -11 8 -11h124q11 0 8 11l-65 279q-2 6 -4 6h-2
q-2 0 -4 -6zM239 835v-69q0 -16 -16 -16h-68q-16 0 -16 16v69q0 6 4.5 11t11.5 5h68q7 0 11.5 -5t4.5 -11zM410 835v-69q0 -16 -16 -16h-68q-16 0 -16 16v69q0 6 4.5 11t11.5 5h68q7 0 11.5 -5t4.5 -11z" />
    <glyph glyph-name="Aring" unicode="&#xc5;" 
d="M173 168l-44 -153q-5 -15 -19 -15h-55q-11 0 -16.5 6t-3.5 14l186 665q3 15 19 15h70q16 0 19 -15l186 -665q2 -8 -3.5 -14t-16.5 -6h-55q-14 0 -19 15l-44 153q-3 14 -19 14h-166q-14 0 -19 -14zM270 565l-65 -279q-3 -11 8 -11h124q11 0 8 11l-65 279q-2 6 -4 6h-2
q-2 0 -4 -6zM165 840q0 46 32 78t78 32t78 -32t32 -78t-32 -78t-78 -32t-78 32t-32 78zM235 840q0 -17 11.5 -28.5t28.5 -11.5t28.5 11.5t11.5 28.5t-11.5 28.5t-28.5 11.5t-28.5 -11.5t-11.5 -28.5z" />
    <glyph glyph-name="AE" unicode="&#xc6;" 
d="M288 20v146q0 16 -19 16h-101q-13 0 -16 -14l-44 -153q-3 -15 -19 -15h-55q-11 0 -16.5 6t-3.5 14l183 654q2 9 11 17.5t23 8.5h280q8 0 14 -6t6 -14v-55q0 -8 -6 -14t-14 -6h-118q-10 0 -10 -10v-180q0 -10 10 -10h107q8 0 14 -6t6 -14v-55q0 -8 -6 -14t-14 -6h-107
q-10 0 -10 -10v-195q0 -10 10 -10h120q8 0 14 -6t6 -14v-55q0 -8 -6 -14t-14 -6h-205q-8 0 -14 6t-6 14zM192 275h86q10 0 10 11v309q0 10 -10 10h-3q-11 0 -13 -10l-78 -309q-3 -11 8 -11z" />
    <glyph glyph-name="Ccedilla" unicode="&#xc7;" 
d="M283 87q53 0 91.5 30.5t38.5 82.5q0 34 20 34h55q8 0 14 -6t6 -14q0 -92 -61 -157t-164 -65q-91 0 -152 56t-73 152q-8 61 -8 150.5t8 149.5q10 87 70.5 147.5t154.5 60.5q99 0 162 -60t63 -162q0 -8 -6 -14t-14 -6h-55q-8 0 -14 6t-6 14q0 54 -33 90t-97 37
q-51 0 -87 -30t-43 -83q-7 -61 -7 -149.5t7 -150.5q6 -48 40.5 -80.5t89.5 -32.5zM338 -63l-28 -121q-4 -16 -19 -16h-63q-9 0 -13.5 5.5t-2.5 12.5l38 121q4 16 19 16h53q20 0 16 -18z" />
    <glyph glyph-name="Egrave" unicode="&#xc8;" 
d="M202 595v-180q0 -10 10 -10h237q8 0 14 -6t6 -14v-55q0 -8 -6 -14t-14 -6h-237q-10 0 -10 -10v-195q0 -10 10 -10h250q8 0 14 -6t6 -14v-55q0 -8 -6 -14t-14 -6h-335q-8 0 -14 6t-6 14v660q0 8 6 14t14 6h333q8 0 14 -6t6 -14v-55q0 -8 -6 -14t-14 -6h-248q-10 0 -10 -10
zM160 895h79q15 0 26 -16l76 -109q4 -6 -0.5 -13t-13.5 -7h-40q-18 0 -30 12l-108 112q-5 4 -1.5 12.5t12.5 8.5z" />
    <glyph glyph-name="Eacute" unicode="&#xc9;" 
d="M202 595v-180q0 -10 10 -10h237q8 0 14 -6t6 -14v-55q0 -8 -6 -14t-14 -6h-237q-10 0 -10 -10v-195q0 -10 10 -10h250q8 0 14 -6t6 -14v-55q0 -8 -6 -14t-14 -6h-335q-8 0 -14 6t-6 14v660q0 8 6 14t14 6h333q8 0 14 -6t6 -14v-55q0 -8 -6 -14t-14 -6h-248q-10 0 -10 -10
zM340 895h79q9 0 12.5 -8.5t-1.5 -12.5l-108 -112q-12 -12 -30 -12h-40q-9 0 -13.5 7t-0.5 13l76 109q11 16 26 16z" />
    <glyph glyph-name="Ecircumflex" unicode="&#xca;" 
d="M202 595v-180q0 -10 10 -10h237q8 0 14 -6t6 -14v-55q0 -8 -6 -14t-14 -6h-237q-10 0 -10 -10v-195q0 -10 10 -10h250q8 0 14 -6t6 -14v-55q0 -8 -6 -14t-14 -6h-335q-8 0 -14 6t-6 14v660q0 8 6 14t14 6h333q8 0 14 -6t6 -14v-55q0 -8 -6 -14t-14 -6h-248q-10 0 -10 -10
zM287 815l-50 -49q-16 -16 -31 -16h-59q-9 0 -12.5 8t1.5 13l108 112q12 12 30 12h42q17 0 29 -12l108 -112q5 -5 1.5 -13t-12.5 -8h-59q-15 0 -31 16l-51 49q-7 7 -14 0z" />
    <glyph glyph-name="Edieresis" unicode="&#xcb;" 
d="M202 595v-180q0 -10 10 -10h237q8 0 14 -6t6 -14v-55q0 -8 -6 -14t-14 -6h-237q-10 0 -10 -10v-195q0 -10 10 -10h250q8 0 14 -6t6 -14v-55q0 -8 -6 -14t-14 -6h-335q-8 0 -14 6t-6 14v660q0 8 6 14t14 6h333q8 0 14 -6t6 -14v-55q0 -8 -6 -14t-14 -6h-248q-10 0 -10 -10
zM259 835v-69q0 -16 -16 -16h-68q-16 0 -16 16v69q0 6 4.5 11t11.5 5h68q7 0 11.5 -5t4.5 -11zM430 835v-69q0 -16 -16 -16h-68q-16 0 -16 16v69q0 6 4.5 11t11.5 5h68q7 0 11.5 -5t4.5 -11z" />
    <glyph glyph-name="Igrave" unicode="&#xcc;" 
d="M227 98v505q0 10 -10 10h-110q-8 0 -14 6t-6 14v47q0 8 6 14t14 6h335q8 0 14 -6t6 -14v-47q0 -8 -6 -14t-14 -6h-110q-10 0 -10 -10v-505q0 -10 10 -10h120q8 0 14 -6t6 -14v-48q0 -8 -6 -14t-14 -6h-355q-8 0 -14 6t-6 14v48q0 8 6 14t14 6h120q10 0 10 10zM140 895h79
q15 0 26 -16l76 -109q4 -6 -0.5 -13t-13.5 -7h-40q-18 0 -30 12l-108 112q-5 4 -1.5 12.5t12.5 8.5z" />
    <glyph glyph-name="Iacute" unicode="&#xcd;" 
d="M227 98v505q0 10 -10 10h-110q-8 0 -14 6t-6 14v47q0 8 6 14t14 6h335q8 0 14 -6t6 -14v-47q0 -8 -6 -14t-14 -6h-110q-10 0 -10 -10v-505q0 -10 10 -10h120q8 0 14 -6t6 -14v-48q0 -8 -6 -14t-14 -6h-355q-8 0 -14 6t-6 14v48q0 8 6 14t14 6h120q10 0 10 10zM330 895h79
q9 0 12.5 -8.5t-1.5 -12.5l-108 -112q-12 -12 -30 -12h-40q-9 0 -13.5 7t-0.5 13l76 109q11 16 26 16z" />
    <glyph glyph-name="Icircumflex" unicode="&#xce;" 
d="M227 98v505q0 10 -10 10h-110q-8 0 -14 6t-6 14v47q0 8 6 14t14 6h335q8 0 14 -6t6 -14v-47q0 -8 -6 -14t-14 -6h-110q-10 0 -10 -10v-505q0 -10 10 -10h120q8 0 14 -6t6 -14v-48q0 -8 -6 -14t-14 -6h-355q-8 0 -14 6t-6 14v48q0 8 6 14t14 6h120q10 0 10 10zM267 815
l-50 -49q-16 -16 -31 -16h-59q-9 0 -12.5 8t1.5 13l108 112q12 12 30 12h42q17 0 29 -12l108 -112q5 -5 1.5 -13t-12.5 -8h-59q-15 0 -31 16l-51 49q-7 7 -14 0z" />
    <glyph glyph-name="Idieresis" unicode="&#xcf;" 
d="M227 98v505q0 10 -10 10h-110q-8 0 -14 6t-6 14v47q0 8 6 14t14 6h335q8 0 14 -6t6 -14v-47q0 -8 -6 -14t-14 -6h-110q-10 0 -10 -10v-505q0 -10 10 -10h120q8 0 14 -6t6 -14v-48q0 -8 -6 -14t-14 -6h-355q-8 0 -14 6t-6 14v48q0 8 6 14t14 6h120q10 0 10 10zM239 835
v-69q0 -16 -16 -16h-68q-16 0 -16 16v69q0 6 4.5 11t11.5 5h68q7 0 11.5 -5t4.5 -11zM410 835v-69q0 -16 -16 -16h-68q-16 0 -16 16v69q0 6 4.5 11t11.5 5h68q7 0 11.5 -5t4.5 -11z" />
    <glyph glyph-name="Eth" unicode="&#xd0;" 
d="M71 415v265q0 8 6 14t14 6h190q85 0 142 -60t68 -150q17 -133 0 -280q-10 -89 -67.5 -149.5t-142.5 -60.5h-190q-8 0 -14 6t-6 14v280q0 10 -10 10h-32q-8 0 -14 6t-6 14v55q0 8 6 14t14 6h32q10 0 10 10zM166 595v-180q0 -10 10 -10h100q8 0 14 -6t6 -14v-55
q0 -8 -6 -14t-14 -6h-100q-10 0 -10 -10v-195q0 -10 10 -10h105q44 0 77 34t38 81q8 60 8 140t-8 140q-5 47 -38 81t-77 34h-105q-10 0 -10 -10z" />
    <glyph glyph-name="Ntilde" unicode="&#xd1;" 
d="M485 680v-660q0 -8 -6 -14t-14 -6h-83q-15 0 -21 17l-197 495q-2 3 -5 2.5t-3 -4.5v-490q0 -8 -6 -14t-14 -6h-51q-8 0 -14 6t-6 14v660q0 8 6 14t14 6h83q15 0 21 -17l197 -493q2 -3 5 -2.5t3 4.5v488q0 8 6 14t14 6h51q8 0 14 -6t6 -14zM345 841q29 0 46 21q6 8 15.5 4
t9.5 -18v-40q0 -20 -21 -35.5t-50 -15.5q-31 0 -68 12.5t-72 12.5q-28 0 -46 -21q-6 -8 -15.5 -3.5t-9.5 17.5v40q0 20 21 35.5t50 15.5q31 0 68 -12.5t72 -12.5z" />
    <glyph glyph-name="Ograve" unicode="&#xd2;" 
d="M275 613q-51 0 -87 -30t-43 -83q-7 -61 -7 -149.5t7 -150.5q6 -47 40.5 -80t89.5 -33q51 0 87 30t43 83q9 63 8.5 150t-8.5 150q-6 48 -40 80.5t-90 32.5zM275 708q91 0 152 -56t73 -152q7 -62 7 -150t-7 -150q-10 -87 -70 -147.5t-155 -60.5q-91 0 -152 56t-73 152
q-8 61 -8 150.5t8 149.5q10 87 70.5 147.5t154.5 60.5zM140 895h79q15 0 26 -16l76 -109q4 -6 -0.5 -13t-13.5 -7h-40q-18 0 -30 12l-108 112q-5 4 -1.5 12.5t12.5 8.5z" />
    <glyph glyph-name="Oacute" unicode="&#xd3;" 
d="M275 613q-51 0 -87 -30t-43 -83q-7 -61 -7 -149.5t7 -150.5q6 -47 40.5 -80t89.5 -33q51 0 87 30t43 83q9 63 8.5 150t-8.5 150q-6 48 -40 80.5t-90 32.5zM275 708q91 0 152 -56t73 -152q7 -62 7 -150t-7 -150q-10 -87 -70 -147.5t-155 -60.5q-91 0 -152 56t-73 152
q-8 61 -8 150.5t8 149.5q10 87 70.5 147.5t154.5 60.5zM330 895h79q9 0 12.5 -8.5t-1.5 -12.5l-108 -112q-12 -12 -30 -12h-40q-9 0 -13.5 7t-0.5 13l76 109q11 16 26 16z" />
    <glyph glyph-name="Ocircumflex" unicode="&#xd4;" 
d="M275 613q-51 0 -87 -30t-43 -83q-7 -61 -7 -149.5t7 -150.5q6 -47 40.5 -80t89.5 -33q51 0 87 30t43 83q9 63 8.5 150t-8.5 150q-6 48 -40 80.5t-90 32.5zM275 708q91 0 152 -56t73 -152q7 -62 7 -150t-7 -150q-10 -87 -70 -147.5t-155 -60.5q-91 0 -152 56t-73 152
q-8 61 -8 150.5t8 149.5q10 87 70.5 147.5t154.5 60.5zM267 815l-50 -49q-16 -16 -31 -16h-59q-9 0 -12.5 8t1.5 13l108 112q12 12 30 12h42q17 0 29 -12l108 -112q5 -5 1.5 -13t-12.5 -8h-59q-15 0 -31 16l-51 49q-7 7 -14 0z" />
    <glyph glyph-name="Otilde" unicode="&#xd5;" 
d="M275 613q-51 0 -87 -30t-43 -83q-7 -61 -7 -149.5t7 -150.5q6 -47 40.5 -80t89.5 -33q51 0 87 30t43 83q9 63 8.5 150t-8.5 150q-6 48 -40 80.5t-90 32.5zM275 708q91 0 152 -56t73 -152q7 -62 7 -150t-7 -150q-10 -87 -70 -147.5t-155 -60.5q-91 0 -152 56t-73 152
q-8 61 -8 150.5t8 149.5q10 87 70.5 147.5t154.5 60.5zM345 841q29 0 46 21q6 8 15.5 4t9.5 -18v-40q0 -20 -21 -35.5t-50 -15.5q-31 0 -68 12.5t-72 12.5q-28 0 -46 -21q-6 -8 -15.5 -3.5t-9.5 17.5v40q0 20 21 35.5t50 15.5q31 0 68 -12.5t72 -12.5z" />
    <glyph glyph-name="Odieresis" unicode="&#xd6;" 
d="M275 613q-51 0 -87 -30t-43 -83q-7 -61 -7 -149.5t7 -150.5q6 -47 40.5 -80t89.5 -33q51 0 87 30t43 83q9 63 8.5 150t-8.5 150q-6 48 -40 80.5t-90 32.5zM275 708q91 0 152 -56t73 -152q7 -62 7 -150t-7 -150q-10 -87 -70 -147.5t-155 -60.5q-91 0 -152 56t-73 152
q-8 61 -8 150.5t8 149.5q10 87 70.5 147.5t154.5 60.5zM239 835v-69q0 -16 -16 -16h-68q-16 0 -16 16v69q0 6 4.5 11t11.5 5h68q7 0 11.5 -5t4.5 -11zM410 835v-69q0 -16 -16 -16h-68q-16 0 -16 16v69q0 6 4.5 11t11.5 5h68q7 0 11.5 -5t4.5 -11z" />
    <glyph glyph-name="multiply" unicode="&#xd7;" 
d="M86 131l112 112q7 7 0 14l-113 113q-14 14 0 28l37 37q14 14 28 0l113 -113q7 -7 14 0l112 112q14 14 28 0l37 -37q14 -14 0 -28l-112 -112q-7 -7 0 -14l113 -113q14 -14 0 -28l-37 -37q-14 -14 -28 0l-113 113q-7 7 -14 0l-112 -112q-14 -14 -28 0l-37 37q-14 14 0 28z
" />
    <glyph glyph-name="Oslash" unicode="&#xd8;" 
d="M275 613q-51 0 -87 -30t-43 -83q-16 -128 -3 -276q0 -6 2.5 -7.5t7.5 5.5l210 350q9 14 -23 27.5t-64 13.5zM275 87q51 0 86.5 30t43.5 83q18 120 3 275q0 2 -1 3.5t-3.5 1t-4.5 -4.5l-206 -347q-9 -18 21.5 -29.5t60.5 -11.5zM123 15q-9 -15 -21 -15h-52q-10 0 -16 9
t0 19l41 66q6 9 0 18q-25 54 -31.5 175t6.5 213q10 87 70.5 147.5t154.5 60.5q78 0 134 -41q6 -6 11 2l11 16q9 15 19 15h52q10 0 16 -9.5t0 -18.5l-45 -71q-3 -5 0 -11q22 -42 30 -116q12 -140 -3 -274q-10 -87 -70 -147.5t-155 -60.5q-77 0 -132 39q-7 4 -11 -2z" />
    <glyph glyph-name="Ugrave" unicode="&#xd9;" 
d="M145 680v-480q0 -56 38 -84.5t92 -28.5q57 0 93.5 32.5t36.5 80.5v480q0 8 6 14t14 6h55q8 0 14 -6t6 -14v-480q0 -89 -66.5 -148.5t-158.5 -59.5q-97 0 -161 59t-64 149v480q0 8 6 14t14 6h55q8 0 14 -6t6 -14zM140 895h79q15 0 26 -16l76 -109q4 -6 -0.5 -13t-13.5 -7
h-40q-18 0 -30 12l-108 112q-5 4 -1.5 12.5t12.5 8.5z" />
    <glyph glyph-name="Uacute" unicode="&#xda;" 
d="M145 680v-480q0 -56 38 -84.5t92 -28.5q57 0 93.5 32.5t36.5 80.5v480q0 8 6 14t14 6h55q8 0 14 -6t6 -14v-480q0 -89 -66.5 -148.5t-158.5 -59.5q-97 0 -161 59t-64 149v480q0 8 6 14t14 6h55q8 0 14 -6t6 -14zM330 895h79q9 0 12.5 -8.5t-1.5 -12.5l-108 -112
q-12 -12 -30 -12h-40q-9 0 -13.5 7t-0.5 13l76 109q11 16 26 16z" />
    <glyph glyph-name="Ucircumflex" unicode="&#xdb;" 
d="M145 680v-480q0 -56 38 -84.5t92 -28.5q57 0 93.5 32.5t36.5 80.5v480q0 8 6 14t14 6h55q8 0 14 -6t6 -14v-480q0 -89 -66.5 -148.5t-158.5 -59.5q-97 0 -161 59t-64 149v480q0 8 6 14t14 6h55q8 0 14 -6t6 -14zM267 815l-50 -49q-16 -16 -31 -16h-59q-9 0 -12.5 8
t1.5 13l108 112q12 12 30 12h42q17 0 29 -12l108 -112q5 -5 1.5 -13t-12.5 -8h-59q-15 0 -31 16l-51 49q-7 7 -14 0z" />
    <glyph glyph-name="Udieresis" unicode="&#xdc;" 
d="M145 680v-480q0 -56 38 -84.5t92 -28.5q57 0 93.5 32.5t36.5 80.5v480q0 8 6 14t14 6h55q8 0 14 -6t6 -14v-480q0 -89 -66.5 -148.5t-158.5 -59.5q-97 0 -161 59t-64 149v480q0 8 6 14t14 6h55q8 0 14 -6t6 -14zM239 835v-69q0 -16 -16 -16h-68q-16 0 -16 16v69
q0 6 4.5 11t11.5 5h68q7 0 11.5 -5t4.5 -11zM410 835v-69q0 -16 -16 -16h-68q-16 0 -16 16v69q0 6 4.5 11t11.5 5h68q7 0 11.5 -5t4.5 -11z" />
    <glyph glyph-name="Yacute" unicode="&#xdd;" 
d="M280 374l111 311q5 15 19 15h66q10 0 15 -8.5t1 -19.5l-168 -431v-221q0 -8 -6 -14t-14 -6h-56q-8 0 -14 6t-6 14v220l-170 432q-4 11 1 19.5t15 8.5h66q14 0 19 -15l113 -311q4 -10 8 0zM330 895h79q9 0 12.5 -8.5t-1.5 -12.5l-108 -112q-12 -12 -30 -12h-40
q-9 0 -13.5 7t-0.5 13l76 109q11 16 26 16z" />
    <glyph glyph-name="Thorn" unicode="&#xde;" 
d="M390 330v50q0 47 -34 81t-81 34h-85q-10 0 -10 -10v-260q0 -10 10 -10h85q47 0 81 34t34 81zM485 380v-50q0 -87 -61.5 -148.5t-148.5 -61.5h-85q-10 0 -10 -10v-90q0 -8 -6 -14t-14 -6h-55q-8 0 -14 6t-6 14v660q0 8 6 14t14 6h55q8 0 14 -6t6 -14v-80q0 -10 10 -10h85
q87 0 148.5 -61.5t61.5 -148.5z" />
    <glyph glyph-name="germandbls" unicode="&#xdf;" 
d="M71 20v497q0 80 57.5 136.5t139.5 56.5t138.5 -56.5t56.5 -136.5q0 -79 -58 -137q-13 -13 -1 -24q74 -64 74 -158q0 -85 -61 -141.5t-149 -56.5h-20q-8 0 -14 6t-6 14v50q0 8 6 14t14 6h20q51 0 85.5 31.5t34.5 76.5q0 49 -29 86t-89 37h-12q-8 0 -14 6t-6 14v49
q0 8 6 14t14 6h12q49 0 76 31t27 76q0 43 -29 73t-76 30t-76 -30t-29 -73v-497q0 -8 -6 -14t-14 -6h-52q-8 0 -14 6t-6 14z" />
    <glyph glyph-name="agrave" unicode="&#xe0;" 
d="M379 220h-130q-75 0 -75 -69q0 -37 23 -57.5t66 -20.5q67 0 96.5 26t29.5 79v32q0 10 -10 10zM288 424q-15 0 -29 -2.5t-29.5 -8t-25 -17.5t-9.5 -29t-23 -17h-45q-20 0 -20 20q0 65 55.5 102.5t125.5 37.5q79 0 131 -40.5t52 -119.5v-330q0 -8 -6 -14t-14 -6h-34
q-8 0 -14 7q-1 2 -5 8.5t-7 9.5t-8 3q-6 0 -20 -9.5t-39.5 -19t-57.5 -9.5q-88 0 -135 46t-47 114q0 65 44.5 108.5t120.5 43.5h122q10 0 10 10v33q0 39 -26 59t-67 20zM160 730h79q15 0 26 -16l76 -109q4 -6 -0.5 -13t-13.5 -7h-40q-18 0 -30 12l-108 112q-5 5 -1.5 13
t12.5 8z" />
    <glyph glyph-name="aacute" unicode="&#xe1;" 
d="M379 220h-130q-75 0 -75 -69q0 -37 23 -57.5t66 -20.5q67 0 96.5 26t29.5 79v32q0 10 -10 10zM288 424q-15 0 -29 -2.5t-29.5 -8t-25 -17.5t-9.5 -29t-23 -17h-45q-20 0 -20 20q0 65 55.5 102.5t125.5 37.5q79 0 131 -40.5t52 -119.5v-330q0 -8 -6 -14t-14 -6h-34
q-8 0 -14 7q-1 2 -5 8.5t-7 9.5t-8 3q-6 0 -20 -9.5t-39.5 -19t-57.5 -9.5q-88 0 -135 46t-47 114q0 65 44.5 108.5t120.5 43.5h122q10 0 10 10v33q0 39 -26 59t-67 20zM350 730h79q9 0 12.5 -8t-1.5 -13l-108 -112q-12 -12 -30 -12h-40q-9 0 -13.5 7t-0.5 13l76 109
q11 16 26 16z" />
    <glyph glyph-name="acircumflex" unicode="&#xe2;" 
d="M379 220h-130q-75 0 -75 -69q0 -37 23 -57.5t66 -20.5q67 0 96.5 26t29.5 79v32q0 10 -10 10zM288 424q-15 0 -29 -2.5t-29.5 -8t-25 -17.5t-9.5 -29t-23 -17h-45q-20 0 -20 20q0 65 55.5 102.5t125.5 37.5q79 0 131 -40.5t52 -119.5v-330q0 -8 -6 -14t-14 -6h-34
q-8 0 -14 7q-1 2 -5 8.5t-7 9.5t-8 3q-6 0 -20 -9.5t-39.5 -19t-57.5 -9.5q-88 0 -135 46t-47 114q0 65 44.5 108.5t120.5 43.5h122q10 0 10 10v33q0 39 -26 59t-67 20zM287 650l-50 -49q-16 -16 -31 -16h-59q-9 0 -12.5 8.5t1.5 12.5l108 112q12 12 30 12h42q17 0 29 -12
l108 -112q5 -4 1.5 -12.5t-12.5 -8.5h-59q-15 0 -31 16l-51 49q-7 7 -14 0z" />
    <glyph glyph-name="atilde" unicode="&#xe3;" 
d="M379 220h-130q-75 0 -75 -69q0 -37 23 -57.5t66 -20.5q67 0 96.5 26t29.5 79v32q0 10 -10 10zM288 424q-15 0 -29 -2.5t-29.5 -8t-25 -17.5t-9.5 -29t-23 -17h-45q-20 0 -20 20q0 65 55.5 102.5t125.5 37.5q79 0 131 -40.5t52 -119.5v-330q0 -8 -6 -14t-14 -6h-34
q-8 0 -14 7q-1 2 -5 8.5t-7 9.5t-8 3q-6 0 -20 -9.5t-39.5 -19t-57.5 -9.5q-88 0 -135 46t-47 114q0 65 44.5 108.5t120.5 43.5h122q10 0 10 10v33q0 39 -26 59t-67 20zM365 684q29 0 46 21q6 8 15.5 4t9.5 -18v-40q0 -20 -21 -35.5t-50 -15.5q-31 0 -68 12.5t-72 12.5
q-28 0 -46 -21q-6 -8 -15.5 -3.5t-9.5 17.5v40q0 20 21 35.5t50 15.5q31 0 68 -12.5t72 -12.5z" />
    <glyph glyph-name="adieresis" unicode="&#xe4;" 
d="M379 220h-130q-75 0 -75 -69q0 -37 23 -57.5t66 -20.5q67 0 96.5 26t29.5 79v32q0 10 -10 10zM288 424q-15 0 -29 -2.5t-29.5 -8t-25 -17.5t-9.5 -29t-23 -17h-45q-20 0 -20 20q0 65 55.5 102.5t125.5 37.5q79 0 131 -40.5t52 -119.5v-330q0 -8 -6 -14t-14 -6h-34
q-8 0 -14 7q-1 2 -5 8.5t-7 9.5t-8 3q-6 0 -20 -9.5t-39.5 -19t-57.5 -9.5q-88 0 -135 46t-47 114q0 65 44.5 108.5t120.5 43.5h122q10 0 10 10v33q0 39 -26 59t-67 20zM259 691v-69q0 -16 -16 -16h-68q-16 0 -16 16v69q0 6 4.5 11t11.5 5h68q7 0 11.5 -5t4.5 -11zM430 691
v-69q0 -16 -16 -16h-68q-16 0 -16 16v69q0 6 4.5 11t11.5 5h68q7 0 11.5 -5t4.5 -11z" />
    <glyph glyph-name="aring" unicode="&#xe5;" 
d="M379 220h-130q-75 0 -75 -69q0 -37 23 -57.5t66 -20.5q67 0 96.5 26t29.5 79v32q0 10 -10 10zM288 424q-15 0 -29 -2.5t-29.5 -8t-25 -17.5t-9.5 -29t-23 -17h-45q-20 0 -20 20q0 65 55.5 102.5t125.5 37.5q79 0 131 -40.5t52 -119.5v-330q0 -8 -6 -14t-14 -6h-34
q-8 0 -14 7q-1 2 -5 8.5t-7 9.5t-8 3q-6 0 -20 -9.5t-39.5 -19t-57.5 -9.5q-88 0 -135 46t-47 114q0 65 44.5 108.5t120.5 43.5h122q10 0 10 10v33q0 39 -26 59t-67 20zM186 670q0 46 32 78t78 32t78 -32t32 -78t-32 -78t-78 -32t-78 32t-32 78zM256 670q0 -17 11.5 -28.5
t28.5 -11.5t28.5 11.5t11.5 28.5t-11.5 28.5t-28.5 11.5t-28.5 -11.5t-11.5 -28.5z" />
    <glyph glyph-name="ae" unicode="&#xe6;" 
d="M290 21q-19 13 -38 -1q-41 -30 -84 -30q-76 0 -111.5 45t-35.5 115q0 65 39.5 108t109.5 43h43q10 0 10 10v54q0 26 -14 42.5t-37 16.5t-36.5 -17t-13.5 -40q0 -17 -23 -17h-45q-20 0 -20 20q0 58 36 99t97 41q62 0 96 -39q5 -7 14 -7t16 7q38 39 92 39q67 0 106 -62.5
t39 -157.5v-49q0 -8 -6 -14t-14 -6h-186q-10 0 -10 -10q0 -136 71 -136q23 0 39.5 21t18.5 47q1 17 23 17h41q17 0 17 -20q0 -58 -39.5 -104t-99.5 -46q-50 0 -95 31zM221 221h-52q-58 0 -58 -70q0 -37 15.5 -57.5t43.5 -20.5q61 0 61 105v33q0 10 -10 10zM316 311
q0 -10 10 -10h108q10 0 10 10q0 51 -16.5 82.5t-41.5 31.5q-35 0 -52.5 -32.5t-17.5 -81.5z" />
    <glyph glyph-name="ccedilla" unicode="&#xe7;" 
d="M280 80q45 0 73.5 23.5t28.5 59.5q0 17 19 17h52q8 0 14 -6t6 -14q0 -73 -54.5 -121.5t-138.5 -48.5q-87 0 -140.5 54t-59.5 136q-5 70 0 140q6 82 59.5 136t140.5 54q84 0 138.5 -48.5t54.5 -121.5q0 -20 -17 -20h-54q-19 0 -19 16q0 36 -28.5 60t-74.5 24
q-49 0 -78 -29t-32 -71q-5 -70 0 -140q3 -42 32 -71t78 -29zM338 -63l-28 -121q-4 -16 -19 -16h-63q-9 0 -13.5 5.5t-2.5 12.5l38 121q4 16 19 16h53q20 0 16 -18z" />
    <glyph glyph-name="egrave" unicode="&#xe8;" 
d="M163 211q0 -66 31 -98.5t85 -32.5q38 0 66 17.5t37 45.5q5 17 23 17h51q20 0 17 -20q-9 -66 -63 -108t-131 -42q-87 0 -143 54.5t-62 135.5q-5 70 0 140q6 81 62 135.5t143 54.5q91 0 145.5 -53.5t54.5 -146.5v-69q0 -8 -6 -14t-14 -6h-286q-10 0 -10 -10zM165 311
q0 -10 10 -10h208q10 0 10 10q0 50 -32.5 79.5t-80.5 29.5q-51 0 -83 -31t-32 -78zM140 730h79q15 0 26 -16l76 -109q4 -6 -0.5 -13t-13.5 -7h-40q-18 0 -30 12l-108 112q-5 5 -1.5 13t12.5 8z" />
    <glyph glyph-name="eacute" unicode="&#xe9;" 
d="M163 211q0 -66 31 -98.5t85 -32.5q38 0 66 17.5t37 45.5q5 17 23 17h51q20 0 17 -20q-9 -66 -63 -108t-131 -42q-87 0 -143 54.5t-62 135.5q-5 70 0 140q6 81 62 135.5t143 54.5q91 0 145.5 -53.5t54.5 -146.5v-69q0 -8 -6 -14t-14 -6h-286q-10 0 -10 -10zM165 311
q0 -10 10 -10h208q10 0 10 10q0 50 -32.5 79.5t-80.5 29.5q-51 0 -83 -31t-32 -78zM330 730h79q9 0 12.5 -8t-1.5 -13l-108 -112q-12 -12 -30 -12h-40q-9 0 -13.5 7t-0.5 13l76 109q11 16 26 16z" />
    <glyph glyph-name="ecircumflex" unicode="&#xea;" 
d="M163 211q0 -66 31 -98.5t85 -32.5q38 0 66 17.5t37 45.5q5 17 23 17h51q20 0 17 -20q-9 -66 -63 -108t-131 -42q-87 0 -143 54.5t-62 135.5q-5 70 0 140q6 81 62 135.5t143 54.5q91 0 145.5 -53.5t54.5 -146.5v-69q0 -8 -6 -14t-14 -6h-286q-10 0 -10 -10zM165 311
q0 -10 10 -10h208q10 0 10 10q0 50 -32.5 79.5t-80.5 29.5q-51 0 -83 -31t-32 -78zM277 650l-50 -49q-16 -16 -31 -16h-59q-9 0 -12.5 8.5t1.5 12.5l108 112q12 12 30 12h42q17 0 29 -12l108 -112q5 -4 1.5 -12.5t-12.5 -8.5h-59q-15 0 -31 16l-51 49q-7 7 -14 0z" />
    <glyph glyph-name="edieresis" unicode="&#xeb;" 
d="M163 211q0 -66 31 -98.5t85 -32.5q38 0 66 17.5t37 45.5q5 17 23 17h51q20 0 17 -20q-9 -66 -63 -108t-131 -42q-87 0 -143 54.5t-62 135.5q-5 70 0 140q6 81 62 135.5t143 54.5q91 0 145.5 -53.5t54.5 -146.5v-69q0 -8 -6 -14t-14 -6h-286q-10 0 -10 -10zM165 311
q0 -10 10 -10h208q10 0 10 10q0 50 -32.5 79.5t-80.5 29.5q-51 0 -83 -31t-32 -78zM245 691v-69q0 -16 -16 -16h-68q-16 0 -16 16v69q0 6 4.5 11t11.5 5h68q7 0 11.5 -5t4.5 -11zM416 691v-69q0 -16 -16 -16h-68q-16 0 -16 16v69q0 6 4.5 11t11.5 5h68q7 0 11.5 -5t4.5 -11z
" />
    <glyph glyph-name="igrave" unicode="&#xec;" 
d="M140 730h79q15 0 26 -16l76 -109q4 -6 -0.5 -13t-13.5 -7h-40q-18 0 -30 12l-108 112q-5 5 -1.5 13t12.5 8zM241 415h-121q-8 0 -14 6t-6 14v45q0 8 6 14t14 6h203q8 0 14 -6t6 -14v-385q0 -10 10 -10h127q8 0 14 -6t6 -14v-45q0 -8 -6 -14t-14 -6h-370q-8 0 -14 6t-6 14
v45q0 8 6 14t14 6h131q10 0 10 10v310q0 10 -10 10z" />
    <glyph glyph-name="iacute" unicode="&#xed;" 
d="M330 730h79q9 0 12.5 -8t-1.5 -13l-108 -112q-12 -12 -30 -12h-40q-9 0 -13.5 7t-0.5 13l76 109q11 16 26 16zM241 415h-121q-8 0 -14 6t-6 14v45q0 8 6 14t14 6h203q8 0 14 -6t6 -14v-385q0 -10 10 -10h127q8 0 14 -6t6 -14v-45q0 -8 -6 -14t-14 -6h-370q-8 0 -14 6
t-6 14v45q0 8 6 14t14 6h131q10 0 10 10v310q0 10 -10 10z" />
    <glyph glyph-name="icircumflex" unicode="&#xee;" 
d="M241 415h-121q-8 0 -14 6t-6 14v45q0 8 6 14t14 6h203q8 0 14 -6t6 -14v-385q0 -10 10 -10h127q8 0 14 -6t6 -14v-45q0 -8 -6 -14t-14 -6h-370q-8 0 -14 6t-6 14v45q0 8 6 14t14 6h131q10 0 10 10v310q0 10 -10 10zM287 650l-50 -49q-16 -16 -31 -16h-59q-9 0 -12.5 8.5
t1.5 12.5l108 112q12 12 30 12h42q17 0 29 -12l108 -112q5 -4 1.5 -12.5t-12.5 -8.5h-59q-15 0 -31 16l-51 49q-7 7 -14 0z" />
    <glyph glyph-name="idieresis" unicode="&#xef;" 
d="M259 691v-69q0 -16 -16 -16h-68q-16 0 -16 16v69q0 6 4.5 11t11.5 5h68q7 0 11.5 -5t4.5 -11zM430 691v-69q0 -16 -16 -16h-68q-16 0 -16 16v69q0 6 4.5 11t11.5 5h68q7 0 11.5 -5t4.5 -11zM241 415h-121q-8 0 -14 6t-6 14v45q0 8 6 14t14 6h203q8 0 14 -6t6 -14v-385
q0 -10 10 -10h127q8 0 14 -6t6 -14v-45q0 -8 -6 -14t-14 -6h-370q-8 0 -14 6t-6 14v45q0 8 6 14t14 6h131q10 0 10 10v310q0 10 -10 10z" />
    <glyph glyph-name="eth" unicode="&#xf0;" 
d="M271 370q-62 0 -89.5 -38t-27.5 -94q-2 -39 4.5 -71.5t35 -59.5t77.5 -27q50 0 81 29t34 71q5 28 1.5 61.5t-11.5 62t-35 47.5t-70 19zM362 663q5 -2 9 1l71 41q8 5 16.5 0.5t8.5 -14.5v-41q0 -16 -13 -24l-31 -19q-8 -6 -5 -10q35 -68 50.5 -179t5.5 -211
q-11 -97 -59.5 -157t-143.5 -60q-87 0 -143 54.5t-62 135.5q-4 39 -2 65q0 90 56.5 152.5t150.5 62.5q45 0 87 -24q4 -2 6.5 -2t3.5 1.5t1 4.5q-7 61 -25 96q-7 14 -12 9l-73 -41q-8 -5 -18 -1t-10 15v31q0 14 5.5 20t33.5 20q19 10 -14 18q-14 3 -26 3h-36q-8 0 -14 6
t-6 14v50q0 8 6 14t14 6h36q81 0 132 -37z" />
    <glyph glyph-name="ntilde" unicode="&#xf1;" 
d="M183 477q9 0 38 16.5t69 16.5q80 0 135 -54t55 -136v-300q0 -8 -6 -14t-14 -6h-50q-8 0 -14 6t-6 14v300q0 43 -31.5 71.5t-78.5 28.5t-78.5 -26t-31.5 -69v-305q0 -8 -6 -14t-14 -6h-50q-8 0 -14 6t-6 14v460q0 8 6 14t14 6h44q7 0 14 -7q14 -16 25 -16zM351 684
q29 0 46 21q6 8 15.5 4t9.5 -18v-40q0 -20 -21 -35.5t-50 -15.5q-31 0 -68 12.5t-72 12.5q-28 0 -46 -21q-6 -8 -15.5 -3.5t-9.5 17.5v40q0 20 21 35.5t50 15.5q31 0 68 -12.5t72 -12.5z" />
    <glyph glyph-name="ograve" unicode="&#xf2;" 
d="M275 510q87 0 143 -54.5t62 -135.5q5 -70 0 -140q-6 -81 -62 -135.5t-143 -54.5t-143 54.5t-62 135.5q-5 70 0 140q6 81 62 135.5t143 54.5zM275 80q50 0 81 29t34 71q5 70 0 140q-3 42 -34 71t-81 29t-81 -29t-34 -71q-5 -70 0 -140q3 -42 34 -71t81 -29zM140 730h79
q15 0 26 -16l76 -109q4 -6 -0.5 -13t-13.5 -7h-40q-18 0 -30 12l-108 112q-5 5 -1.5 13t12.5 8z" />
    <glyph glyph-name="oacute" unicode="&#xf3;" 
d="M275 510q87 0 143 -54.5t62 -135.5q5 -70 0 -140q-6 -81 -62 -135.5t-143 -54.5t-143 54.5t-62 135.5q-5 70 0 140q6 81 62 135.5t143 54.5zM275 80q50 0 81 29t34 71q5 70 0 140q-3 42 -34 71t-81 29t-81 -29t-34 -71q-5 -70 0 -140q3 -42 34 -71t81 -29zM330 730h79
q9 0 12.5 -8t-1.5 -13l-108 -112q-12 -12 -30 -12h-40q-9 0 -13.5 7t-0.5 13l76 109q11 16 26 16z" />
    <glyph glyph-name="ocircumflex" unicode="&#xf4;" 
d="M275 510q87 0 143 -54.5t62 -135.5q5 -70 0 -140q-6 -81 -62 -135.5t-143 -54.5t-143 54.5t-62 135.5q-5 70 0 140q6 81 62 135.5t143 54.5zM275 80q50 0 81 29t34 71q5 70 0 140q-3 42 -34 71t-81 29t-81 -29t-34 -71q-5 -70 0 -140q3 -42 34 -71t81 -29zM267 650
l-50 -49q-16 -16 -31 -16h-59q-9 0 -12.5 8.5t1.5 12.5l108 112q12 12 30 12h42q17 0 29 -12l108 -112q5 -4 1.5 -12.5t-12.5 -8.5h-59q-15 0 -31 16l-51 49q-7 7 -14 0z" />
    <glyph glyph-name="otilde" unicode="&#xf5;" 
d="M275 510q87 0 143 -54.5t62 -135.5q5 -70 0 -140q-6 -81 -62 -135.5t-143 -54.5t-143 54.5t-62 135.5q-5 70 0 140q6 81 62 135.5t143 54.5zM275 80q50 0 81 29t34 71q5 70 0 140q-3 42 -34 71t-81 29t-81 -29t-34 -71q-5 -70 0 -140q3 -42 34 -71t81 -29zM345 684
q29 0 46 21q6 8 15.5 4t9.5 -18v-40q0 -20 -21 -35.5t-50 -15.5q-31 0 -68 12.5t-72 12.5q-28 0 -46 -21q-6 -8 -15.5 -3.5t-9.5 17.5v40q0 20 21 35.5t50 15.5q31 0 68 -12.5t72 -12.5z" />
    <glyph glyph-name="odieresis" unicode="&#xf6;" 
d="M275 510q87 0 143 -54.5t62 -135.5q5 -70 0 -140q-6 -81 -62 -135.5t-143 -54.5t-143 54.5t-62 135.5q-5 70 0 140q6 81 62 135.5t143 54.5zM275 80q50 0 81 29t34 71q5 70 0 140q-3 42 -34 71t-81 29t-81 -29t-34 -71q-5 -70 0 -140q3 -42 34 -71t81 -29zM239 691v-69
q0 -16 -16 -16h-68q-16 0 -16 16v69q0 6 4.5 11t11.5 5h68q7 0 11.5 -5t4.5 -11zM410 691v-69q0 -16 -16 -16h-68q-16 0 -16 16v69q0 6 4.5 11t11.5 5h68q7 0 11.5 -5t4.5 -11z" />
    <glyph glyph-name="divide" unicode="&#xf7;" 
d="M485 277v-55q0 -8 -6 -14t-14 -6h-380q-8 0 -14 6t-6 14v55q0 8 6 14t14 6h380q8 0 14 -6t6 -14zM343 103v-83q0 -8 -6 -14t-14 -6h-83q-8 0 -14 6t-6 14v83q0 8 6 14t14 6h83q8 0 14 -6t6 -14zM240 490h83q8 0 14 -6t6 -14v-83q0 -8 -6 -14t-14 -6h-83q-8 0 -14 6t-6 14
v83q0 8 6 14t14 6z" />
    <glyph glyph-name="oslash" unicode="&#xf8;" 
d="M274 510q71 0 121 -36q5 -3 9 1l9 10q12 15 24 15h47q10 0 15.5 -10.5t-1.5 -19.5l-42 -51q-4 -5 -1 -14q21 -50 24 -85q5 -70 0 -140q-6 -81 -62 -135.5t-143 -54.5q-74 0 -127 40q-6 3 -9 -1l-11 -14q-12 -15 -25 -15h-48q-10 0 -16 11t2 21l49 58q4 5 1 11
q-18 36 -21 79q-5 70 0 140q6 81 62 135.5t143 54.5zM274 80q50 0 81 29t34 71q5 70 0 140q0 4 -2.5 6.5t-6.5 -1.5l-176 -215q-5 -7 1 -10q28 -20 69 -20zM274 420q-50 0 -81 -29t-34 -71q-5 -65 0 -134q0 -2 2 -3t5 1l172 210q5 7 -1 10q-29 16 -63 16z" />
    <glyph glyph-name="ugrave" unicode="&#xf9;" 
d="M372 23q-9 0 -36.5 -16.5t-70.5 -16.5q-84 0 -137 53.5t-53 136.5v300q0 8 6 14t14 6h50q8 0 14 -6t6 -14v-300q0 -44 29.5 -72t80.5 -28q47 0 78.5 26t31.5 69v305q0 8 6 14t14 6h50q8 0 14 -6t6 -14v-460q0 -8 -6 -14t-14 -6h-44q-7 0 -14 7q-14 16 -25 16zM140 730h79
q15 0 26 -16l76 -109q4 -6 -0.5 -13t-13.5 -7h-40q-18 0 -30 12l-108 112q-5 5 -1.5 13t12.5 8z" />
    <glyph glyph-name="uacute" unicode="&#xfa;" 
d="M372 23q-9 0 -36.5 -16.5t-70.5 -16.5q-84 0 -137 53.5t-53 136.5v300q0 8 6 14t14 6h50q8 0 14 -6t6 -14v-300q0 -44 29.5 -72t80.5 -28q47 0 78.5 26t31.5 69v305q0 8 6 14t14 6h50q8 0 14 -6t6 -14v-460q0 -8 -6 -14t-14 -6h-44q-7 0 -14 7q-14 16 -25 16zM330 730h79
q9 0 12.5 -8t-1.5 -13l-108 -112q-12 -12 -30 -12h-40q-9 0 -13.5 7t-0.5 13l76 109q11 16 26 16z" />
    <glyph glyph-name="ucircumflex" unicode="&#xfb;" 
d="M372 23q-9 0 -36.5 -16.5t-70.5 -16.5q-84 0 -137 53.5t-53 136.5v300q0 8 6 14t14 6h50q8 0 14 -6t6 -14v-300q0 -44 29.5 -72t80.5 -28q47 0 78.5 26t31.5 69v305q0 8 6 14t14 6h50q8 0 14 -6t6 -14v-460q0 -8 -6 -14t-14 -6h-44q-7 0 -14 7q-14 16 -25 16zM267 650
l-50 -49q-16 -16 -31 -16h-59q-9 0 -12.5 8.5t1.5 12.5l108 112q12 12 30 12h42q17 0 29 -12l108 -112q5 -4 1.5 -12.5t-12.5 -8.5h-59q-15 0 -31 16l-51 49q-7 7 -14 0z" />
    <glyph glyph-name="udieresis" unicode="&#xfc;" 
d="M372 23q-9 0 -36.5 -16.5t-70.5 -16.5q-84 0 -137 53.5t-53 136.5v300q0 8 6 14t14 6h50q8 0 14 -6t6 -14v-300q0 -44 29.5 -72t80.5 -28q47 0 78.5 26t31.5 69v305q0 8 6 14t14 6h50q8 0 14 -6t6 -14v-460q0 -8 -6 -14t-14 -6h-44q-7 0 -14 7q-14 16 -25 16zM241 691
v-69q0 -16 -16 -16h-68q-16 0 -16 16v69q0 6 4.5 11t11.5 5h68q7 0 11.5 -5t4.5 -11zM412 691v-69q0 -16 -16 -16h-68q-16 0 -16 16v69q0 6 4.5 11t11.5 5h68q7 0 11.5 -5t4.5 -11z" />
    <glyph glyph-name="yacute" unicode="&#xfd;" 
d="M283 160l116 325q5 15 19 15h59q11 0 16.5 -7.5t2.5 -15.5l-254 -662q-5 -15 -19 -15h-54q-11 0 -16.5 7.5t-2.5 15.5l74 204q3 8 1 13l-172 437q-3 8 2.5 15.5t16.5 7.5h61q14 0 19 -15l123 -325q4 -10 8 0zM330 730h79q9 0 12.5 -8t-1.5 -13l-108 -112q-12 -12 -30 -12
h-40q-9 0 -13.5 7t-0.5 13l76 109q11 16 26 16z" />
    <glyph glyph-name="thorn" unicode="&#xfe;" 
d="M270 420q-50 0 -81 -29t-34 -71q-5 -70 0 -140q3 -42 34 -71t81 -29t81 29t34 71q5 70 0 140q-3 42 -34 71t-81 29zM75 -180v867q0 8 6 14t14 6h50q8 0 14 -6t6 -14v-181q0 -8 6 -14.5t16 -6.5q7 0 37 12.5t56 12.5q77 0 130.5 -55t59.5 -135q5 -70 0 -140
q-6 -80 -59.5 -135t-130.5 -55q-26 0 -55.5 12.5t-37.5 12.5q-10 0 -16 -6.5t-6 -14.5v-174q0 -8 -6 -14t-14 -6h-50q-8 0 -14 6t-6 14z" />
    <glyph glyph-name="ydieresis" unicode="&#xff;" 
d="M283 160l116 325q5 15 19 15h59q11 0 16.5 -7.5t2.5 -15.5l-254 -662q-5 -15 -19 -15h-54q-11 0 -16.5 7.5t-2.5 15.5l74 204q3 8 1 13l-172 437q-3 8 2.5 15.5t16.5 7.5h61q14 0 19 -15l123 -325q4 -10 8 0zM239 691v-69q0 -16 -16 -16h-68q-16 0 -16 16v69q0 6 4.5 11
t11.5 5h68q7 0 11.5 -5t4.5 -11zM410 691v-69q0 -16 -16 -16h-68q-16 0 -16 16v69q0 6 4.5 11t11.5 5h68q7 0 11.5 -5t4.5 -11z" />
    <glyph glyph-name="Amacron" unicode="&#x100;" 
d="M173 168l-44 -153q-5 -15 -19 -15h-55q-11 0 -16.5 6t-3.5 14l186 665q3 15 19 15h70q16 0 19 -15l186 -665q2 -8 -3.5 -14t-16.5 -6h-55q-14 0 -19 15l-44 153q-3 14 -19 14h-166q-14 0 -19 -14zM270 565l-65 -279q-3 -11 8 -11h124q11 0 8 11l-65 279q-2 6 -4 6h-2
q-2 0 -4 -6zM396 761h-242q-8 0 -14 6t-6 14v38q0 8 6 14t14 6h242q8 0 14 -6t6 -14v-38q0 -8 -6 -14t-14 -6z" />
    <glyph glyph-name="amacron" unicode="&#x101;" 
d="M379 220h-130q-75 0 -75 -69q0 -37 23 -57.5t66 -20.5q67 0 96.5 26t29.5 79v32q0 10 -10 10zM288 424q-15 0 -29 -2.5t-29.5 -8t-25 -17.5t-9.5 -29t-23 -17h-45q-20 0 -20 20q0 65 55.5 102.5t125.5 37.5q79 0 131 -40.5t52 -119.5v-330q0 -8 -6 -14t-14 -6h-34
q-8 0 -14 7q-1 2 -5 8.5t-7 9.5t-8 3q-6 0 -20 -9.5t-39.5 -19t-57.5 -9.5q-88 0 -135 46t-47 114q0 65 44.5 108.5t120.5 43.5h122q10 0 10 10v33q0 39 -26 59t-67 20zM416 616h-242q-8 0 -14 6t-6 14v38q0 8 6 14t14 6h242q8 0 14 -6t6 -14v-38q0 -8 -6 -14t-14 -6z" />
    <glyph glyph-name="Abreve" unicode="&#x102;" 
d="M173 168l-44 -153q-5 -15 -19 -15h-55q-11 0 -16.5 6t-3.5 14l186 665q3 15 19 15h70q16 0 19 -15l186 -665q2 -8 -3.5 -14t-16.5 -6h-55q-14 0 -19 15l-44 153q-3 14 -19 14h-166q-14 0 -19 -14zM270 565l-65 -279q-3 -11 8 -11h124q11 0 8 11l-65 279q-2 6 -4 6h-2
q-2 0 -4 -6zM335 878q0 7 5 12t12 5h43q7 0 12 -5t5 -12q0 -54 -39 -91t-98 -37q-60 0 -99 37t-39 91q0 7 5 12t12 5h43q7 0 12 -5t5 -12q0 -23 18.5 -39.5t42.5 -16.5t42 16.5t18 39.5z" />
    <glyph glyph-name="abreve" unicode="&#x103;" 
d="M379 220h-130q-75 0 -75 -69q0 -37 23 -57.5t66 -20.5q67 0 96.5 26t29.5 79v32q0 10 -10 10zM288 424q-15 0 -29 -2.5t-29.5 -8t-25 -17.5t-9.5 -29t-23 -17h-45q-20 0 -20 20q0 65 55.5 102.5t125.5 37.5q79 0 131 -40.5t52 -119.5v-330q0 -8 -6 -14t-14 -6h-34
q-8 0 -14 7q-1 2 -5 8.5t-7 9.5t-8 3q-6 0 -20 -9.5t-39.5 -19t-57.5 -9.5q-88 0 -135 46t-47 114q0 65 44.5 108.5t120.5 43.5h122q10 0 10 10v33q0 39 -26 59t-67 20zM355 713q0 7 5 12t12 5h43q7 0 12 -5t5 -12q0 -54 -39 -91t-98 -37q-60 0 -99 37t-39 91q0 7 5 12t12 5
h43q7 0 12 -5t5 -12q0 -23 18.5 -39.5t42.5 -16.5t42 16.5t18 39.5z" />
    <glyph glyph-name="Aogonek" unicode="&#x104;" 
d="M345 286l-65 279q-2 6 -4 6h-2q-2 0 -4 -6l-65 -279q-3 -11 8 -11h124q11 0 8 11zM329 685l186 -665q2 -10 -5 -15t-22 -5q-33 0 -53.5 -19t-20.5 -50q0 -66 76 -66q8 0 14 -6t6 -14v-35q0 -8 -6 -14t-14 -6q-72 0 -115.5 35t-43.5 101q0 83 79 126l-33 116q-3 14 -19 14
h-166q-14 0 -19 -14l-44 -153q-5 -15 -19 -15h-55q-11 0 -16.5 6t-3.5 14l186 665q3 15 19 15h70q16 0 19 -15z" />
    <glyph glyph-name="aogonek" unicode="&#x105;" 
d="M451 0q-34 0 -57.5 -18.5t-23.5 -50.5q0 -66 76 -66q8 0 14 -6t6 -14v-35q0 -8 -6 -14t-14 -6q-72 0 -115.5 35t-43.5 101q0 19 10 42t23 35q-24 -13 -54 -13q-88 0 -135 46t-47 114q0 65 44.5 108.5t120.5 43.5h122q10 0 10 10v33q0 39 -26 59t-67 20q-15 0 -29 -2.5
t-29.5 -8t-25 -17.5t-9.5 -29t-23 -17h-45q-20 0 -20 20q0 65 55.5 102.5t125.5 37.5q79 0 131 -40.5t52 -119.5v-330q0 -8 -6 -14t-14 -6zM379 220h-130q-36 0 -55.5 -18t-19.5 -51q0 -37 23 -57.5t66 -20.5q67 0 96.5 26t29.5 79v32q0 10 -10 10z" />
    <glyph glyph-name="Cacute" unicode="&#x106;" 
d="M283 87q53 0 91.5 30.5t38.5 82.5q0 34 20 34h55q8 0 14 -6t6 -14q0 -92 -61 -157t-164 -65q-91 0 -152 56t-73 152q-8 61 -8 150.5t8 149.5q10 87 70.5 147.5t154.5 60.5q99 0 162 -60t63 -162q0 -8 -6 -14t-14 -6h-55q-8 0 -14 6t-6 14q0 54 -33 90t-97 37
q-51 0 -87 -30t-43 -83q-7 -61 -7 -149.5t7 -150.5q6 -48 40.5 -80.5t89.5 -32.5zM340 895h79q9 0 12.5 -8.5t-1.5 -12.5l-108 -112q-12 -12 -30 -12h-40q-9 0 -13.5 7t-0.5 13l76 109q11 16 26 16z" />
    <glyph glyph-name="cacute" unicode="&#x107;" 
d="M280 80q45 0 73.5 23.5t28.5 59.5q0 17 19 17h52q8 0 14 -6t6 -14q0 -73 -54.5 -121.5t-138.5 -48.5q-87 0 -140.5 54t-59.5 136q-5 70 0 140q6 82 59.5 136t140.5 54q84 0 138.5 -48.5t54.5 -121.5q0 -20 -17 -20h-54q-19 0 -19 16q0 36 -28.5 60t-74.5 24
q-49 0 -78 -29t-32 -71q-5 -70 0 -140q3 -42 32 -71t78 -29zM330 730h79q9 0 12.5 -8t-1.5 -13l-108 -112q-12 -12 -30 -12h-40q-9 0 -13.5 7t-0.5 13l76 109q11 16 26 16z" />
    <glyph glyph-name="Ccircumflex" unicode="&#x108;" 
d="M283 87q53 0 91.5 30.5t38.5 82.5q0 34 20 34h55q8 0 14 -6t6 -14q0 -92 -61 -157t-164 -65q-91 0 -152 56t-73 152q-8 61 -8 150.5t8 149.5q10 87 70.5 147.5t154.5 60.5q99 0 162 -60t63 -162q0 -8 -6 -14t-14 -6h-55q-8 0 -14 6t-6 14q0 54 -33 90t-97 37
q-51 0 -87 -30t-43 -83q-7 -61 -7 -149.5t7 -150.5q6 -48 40.5 -80.5t89.5 -32.5zM277 815l-50 -49q-16 -16 -31 -16h-59q-9 0 -12.5 8t1.5 13l108 112q12 12 30 12h42q17 0 29 -12l108 -112q5 -5 1.5 -13t-12.5 -8h-59q-15 0 -31 16l-51 49q-7 7 -14 0z" />
    <glyph glyph-name="ccircumflex" unicode="&#x109;" 
d="M280 80q45 0 73.5 23.5t28.5 59.5q0 17 19 17h52q8 0 14 -6t6 -14q0 -73 -54.5 -121.5t-138.5 -48.5q-87 0 -140.5 54t-59.5 136q-5 70 0 140q6 82 59.5 136t140.5 54q84 0 138.5 -48.5t54.5 -121.5q0 -20 -17 -20h-54q-19 0 -19 16q0 36 -28.5 60t-74.5 24
q-49 0 -78 -29t-32 -71q-5 -70 0 -140q3 -42 32 -71t78 -29zM267 650l-50 -49q-16 -16 -31 -16h-59q-9 0 -12.5 8.5t1.5 12.5l108 112q12 12 30 12h42q17 0 29 -12l108 -112q5 -4 1.5 -12.5t-12.5 -8.5h-59q-15 0 -31 16l-51 49q-7 7 -14 0z" />
    <glyph glyph-name="Cdotaccent" unicode="&#x10a;" 
d="M283 87q53 0 91.5 30.5t38.5 82.5q0 34 20 34h55q8 0 14 -6t6 -14q0 -92 -61 -157t-164 -65q-91 0 -152 56t-73 152q-8 61 -8 150.5t8 149.5q10 87 70.5 147.5t154.5 60.5q99 0 162 -60t63 -162q0 -8 -6 -14t-14 -6h-55q-8 0 -14 6t-6 14q0 54 -33 90t-97 37
q-51 0 -87 -30t-43 -83q-7 -61 -7 -149.5t7 -150.5q6 -48 40.5 -80.5t89.5 -32.5zM336 835v-69q0 -16 -16 -16h-68q-16 0 -16 16v69q0 6 4.5 11t11.5 5h68q7 0 11.5 -5t4.5 -11z" />
    <glyph glyph-name="cdotaccent" unicode="&#x10b;" 
d="M280 80q45 0 73.5 23.5t28.5 59.5q0 17 19 17h52q8 0 14 -6t6 -14q0 -73 -54.5 -121.5t-138.5 -48.5q-87 0 -140.5 54t-59.5 136q-5 70 0 140q6 82 59.5 136t140.5 54q84 0 138.5 -48.5t54.5 -121.5q0 -20 -17 -20h-54q-19 0 -19 16q0 36 -28.5 60t-74.5 24
q-49 0 -78 -29t-32 -71q-5 -70 0 -140q3 -42 32 -71t78 -29zM335 691v-69q0 -16 -16 -16h-68q-16 0 -16 16v69q0 6 4.5 11t11.5 5h68q7 0 11.5 -5t4.5 -11z" />
    <glyph glyph-name="Ccaron" unicode="&#x10c;" 
d="M283 87q53 0 91.5 30.5t38.5 82.5q0 34 20 34h55q8 0 14 -6t6 -14q0 -92 -61 -157t-164 -65q-91 0 -152 56t-73 152q-8 61 -8 150.5t8 149.5q10 87 70.5 147.5t154.5 60.5q99 0 162 -60t63 -162q0 -8 -6 -14t-14 -6h-55q-8 0 -14 6t-6 14q0 54 -33 90t-97 37
q-51 0 -87 -30t-43 -83q-7 -61 -7 -149.5t7 -150.5q6 -48 40.5 -80.5t89.5 -32.5zM217 879l50 -49q7 -7 14 0l51 49q16 16 31 16h59q9 0 12.5 -8.5t-1.5 -12.5l-108 -112q-12 -12 -29 -12h-42q-18 0 -30 12l-108 112q-5 4 -1.5 12.5t12.5 8.5h59q15 0 31 -16z" />
    <glyph glyph-name="ccaron" unicode="&#x10d;" 
d="M280 80q45 0 73.5 23.5t28.5 59.5q0 17 19 17h52q8 0 14 -6t6 -14q0 -73 -54.5 -121.5t-138.5 -48.5q-87 0 -140.5 54t-59.5 136q-5 70 0 140q6 82 59.5 136t140.5 54q84 0 138.5 -48.5t54.5 -121.5q0 -20 -17 -20h-54q-19 0 -19 16q0 36 -28.5 60t-74.5 24
q-49 0 -78 -29t-32 -71q-5 -70 0 -140q3 -42 32 -71t78 -29zM217 714l50 -49q7 -7 14 0l51 49q16 16 31 16h59q9 0 12.5 -8t-1.5 -13l-108 -112q-12 -12 -29 -12h-42q-18 0 -30 12l-108 112q-5 5 -1.5 13t12.5 8h59q15 0 31 -16z" />
    <glyph glyph-name="Dcaron" unicode="&#x10e;" 
d="M281 0h-190q-8 0 -14 6t-6 14v660q0 8 6 14t14 6h190q85 0 142 -60t68 -150q17 -133 0 -280q-10 -89 -67.5 -149.5t-142.5 -60.5zM176 95h105q44 0 77 34t38 81q8 60 8 140t-8 140q-5 47 -38 81t-77 34h-105q-10 0 -10 -10v-490q0 -10 10 -10zM207 879l50 -49q7 -7 14 0
l51 49q16 16 31 16h59q9 0 12.5 -8.5t-1.5 -12.5l-108 -112q-12 -12 -29 -12h-42q-18 0 -30 12l-108 112q-5 4 -1.5 12.5t12.5 8.5h59q15 0 31 -16z" />
    <glyph glyph-name="dcaron" unicode="&#x10f;" 
d="M264 80q50 0 81 29t34 71q5 70 0 140q-3 42 -34 71t-81 29t-81 -29t-34 -71q-5 -70 0 -140q3 -42 34 -71t81 -29zM254 -10q-77 0 -130.5 55t-59.5 135q-5 70 0 140q6 80 59.5 135t130.5 55q26 0 56 -12.5t37 -12.5q22 0 22 25v177q0 8 6 14t14 6h50q8 0 14 -6t6 -14v-667
q0 -8 -6 -14t-14 -6h-34q-7 0 -14 7q-14 16 -25 16q-9 0 -39 -16.5t-73 -16.5zM548 599h-7q-8 0 -14 6t-6 14v61q0 8 6 14t14 6h70q8 0 14 -6t6 -14v-61q0 -34 -20 -62l-32 -46q-10 -15 -26 -15h-9q-14 0 -19 11t1 22l31 57q3 5 -0.5 9t-8.5 4z" />
    <glyph glyph-name="Dcroat" unicode="&#x110;" 
d="M71 415v265q0 8 6 14t14 6h190q85 0 142 -60t68 -150q17 -133 0 -280q-10 -89 -67.5 -149.5t-142.5 -60.5h-190q-8 0 -14 6t-6 14v280q0 10 -10 10h-32q-8 0 -14 6t-6 14v55q0 8 6 14t14 6h32q10 0 10 10zM166 595v-180q0 -10 10 -10h100q8 0 14 -6t6 -14v-55
q0 -8 -6 -14t-14 -6h-100q-10 0 -10 -10v-195q0 -10 10 -10h105q44 0 77 34t38 81q8 60 8 140t-8 140q-5 47 -38 81t-77 34h-105q-10 0 -10 -10z" />
    <glyph glyph-name="dcroat" unicode="&#x111;" 
d="M265 80q50 0 81 29t34 71q5 70 0 140q-3 42 -34 71t-81 29t-81 -29t-34 -71q-5 -70 0 -140q3 -42 34 -71t81 -29zM370 510v37q0 10 -10 10h-70q-8 0 -14 6t-6 14v40q0 8 6 14t14 6h70q10 0 10 10v40q0 8 6 14t14 6h50q8 0 14 -6t6 -14v-40q0 -10 10 -10h25q8 0 14 -6
t6 -14v-40q0 -8 -6 -14t-14 -6h-25q-10 0 -10 -10v-527q0 -8 -6 -14t-14 -6h-34q-7 0 -14 7q-14 16 -25 16q-9 0 -39 -16.5t-73 -16.5q-77 0 -130.5 55t-59.5 135q-5 70 0 140q6 80 59.5 135t130.5 55q26 0 56 -12.5t37 -12.5q22 0 22 25z" />
    <glyph glyph-name="Emacron" unicode="&#x112;" 
d="M202 595v-180q0 -10 10 -10h237q8 0 14 -6t6 -14v-55q0 -8 -6 -14t-14 -6h-237q-10 0 -10 -10v-195q0 -10 10 -10h250q8 0 14 -6t6 -14v-55q0 -8 -6 -14t-14 -6h-335q-8 0 -14 6t-6 14v660q0 8 6 14t14 6h333q8 0 14 -6t6 -14v-55q0 -8 -6 -14t-14 -6h-248q-10 0 -10 -10
zM416 761h-242q-8 0 -14 6t-6 14v38q0 8 6 14t14 6h242q8 0 14 -6t6 -14v-38q0 -8 -6 -14t-14 -6z" />
    <glyph glyph-name="emacron" unicode="&#x113;" 
d="M163 211q0 -66 31 -98.5t85 -32.5q38 0 66 17.5t37 45.5q5 17 23 17h51q20 0 17 -20q-9 -66 -63 -108t-131 -42q-87 0 -143 54.5t-62 135.5q-5 70 0 140q6 81 62 135.5t143 54.5q91 0 145.5 -53.5t54.5 -146.5v-69q0 -8 -6 -14t-14 -6h-286q-10 0 -10 -10zM165 311
q0 -10 10 -10h208q10 0 10 10q0 50 -32.5 79.5t-80.5 29.5q-51 0 -83 -31t-32 -78zM401 616h-242q-8 0 -14 6t-6 14v38q0 8 6 14t14 6h242q8 0 14 -6t6 -14v-38q0 -8 -6 -14t-14 -6z" />
    <glyph glyph-name="Ebreve" unicode="&#x114;" 
d="M202 595v-180q0 -10 10 -10h237q8 0 14 -6t6 -14v-55q0 -8 -6 -14t-14 -6h-237q-10 0 -10 -10v-195q0 -10 10 -10h250q8 0 14 -6t6 -14v-55q0 -8 -6 -14t-14 -6h-335q-8 0 -14 6t-6 14v660q0 8 6 14t14 6h333q8 0 14 -6t6 -14v-55q0 -8 -6 -14t-14 -6h-248q-10 0 -10 -10
zM355 878q0 7 5 12t12 5h43q7 0 12 -5t5 -12q0 -54 -39 -91t-98 -37q-60 0 -99 37t-39 91q0 7 5 12t12 5h43q7 0 12 -5t5 -12q0 -23 18.5 -39.5t42.5 -16.5t42 16.5t18 39.5z" />
    <glyph glyph-name="ebreve" unicode="&#x115;" 
d="M163 211q0 -66 31 -98.5t85 -32.5q38 0 66 17.5t37 45.5q5 17 23 17h51q20 0 17 -20q-9 -66 -63 -108t-131 -42q-87 0 -143 54.5t-62 135.5q-5 70 0 140q6 81 62 135.5t143 54.5q91 0 145.5 -53.5t54.5 -146.5v-69q0 -8 -6 -14t-14 -6h-286q-10 0 -10 -10zM165 311
q0 -10 10 -10h208q10 0 10 10q0 50 -32.5 79.5t-80.5 29.5q-51 0 -83 -31t-32 -78zM335 713q0 7 5 12t12 5h43q7 0 12 -5t5 -12q0 -54 -39 -91t-98 -37q-60 0 -99 37t-39 91q0 7 5 12t12 5h43q7 0 12 -5t5 -12q0 -23 18.5 -39.5t42.5 -16.5t42 16.5t18 39.5z" />
    <glyph glyph-name="Edotaccent" unicode="&#x116;" 
d="M202 595v-180q0 -10 10 -10h237q8 0 14 -6t6 -14v-55q0 -8 -6 -14t-14 -6h-237q-10 0 -10 -10v-195q0 -10 10 -10h250q8 0 14 -6t6 -14v-55q0 -8 -6 -14t-14 -6h-335q-8 0 -14 6t-6 14v660q0 8 6 14t14 6h333q8 0 14 -6t6 -14v-55q0 -8 -6 -14t-14 -6h-248q-10 0 -10 -10
zM346 835v-69q0 -16 -16 -16h-68q-16 0 -16 16v69q0 6 4.5 11t11.5 5h68q7 0 11.5 -5t4.5 -11z" />
    <glyph glyph-name="edotaccent" unicode="&#x117;" 
d="M163 211q0 -66 31 -98.5t85 -32.5q38 0 66 17.5t37 45.5q5 17 23 17h51q20 0 17 -20q-9 -66 -63 -108t-131 -42q-87 0 -143 54.5t-62 135.5q-5 70 0 140q6 81 62 135.5t143 54.5q91 0 145.5 -53.5t54.5 -146.5v-69q0 -8 -6 -14t-14 -6h-286q-10 0 -10 -10zM165 311
q0 -10 10 -10h208q10 0 10 10q0 50 -32.5 79.5t-80.5 29.5q-51 0 -83 -31t-32 -78zM330 691v-69q0 -16 -16 -16h-68q-16 0 -16 16v69q0 6 4.5 11t11.5 5h68q7 0 11.5 -5t4.5 -11z" />
    <glyph glyph-name="Eogonek" unicode="&#x118;" 
d="M202 595v-180q0 -10 10 -10h237q8 0 14 -6t6 -14v-55q0 -8 -6 -14t-14 -6h-237q-10 0 -10 -10v-195q0 -10 10 -10h250q8 0 14 -6t6 -14v-55q0 -8 -6 -14t-14 -6q-36 0 -58.5 -18.5t-22.5 -50.5q0 -66 76 -66q8 0 14 -6t6 -14v-35q0 -8 -6 -14t-14 -6q-71 0 -115 37
t-44 99q0 46 26 74h-197q-8 0 -14 6t-6 14v660q0 8 6 14t14 6h333q8 0 14 -6t6 -14v-55q0 -8 -6 -14t-14 -6h-248q-10 0 -10 -10z" />
    <glyph glyph-name="eogonek" unicode="&#x119;" 
d="M432 52q-3 -4 -14.5 -16.5l-16 -17.5t-13.5 -16t-13 -17.5t-9 -16.5t-7 -19t-2 -18q0 -66 81 -66q8 0 14 -6t6 -14v-35q0 -8 -6 -14t-14 -6q-78 0 -121 34.5t-43 101.5q0 30 20 65q-5 -1 -15 -1q-87 0 -143 54.5t-62 135.5q-5 70 0 140q6 81 62 135.5t143 54.5
q91 0 145.5 -53.5t54.5 -146.5v-69q0 -8 -6 -14t-14 -6h-286q-10 0 -10 -10q0 -66 31 -98.5t85 -32.5q38 0 66 17.5t37 45.5q5 17 23 17h51q20 0 17 -20q-8 -52 -41 -88zM165 311q0 -10 10 -10h208q10 0 10 10q0 50 -32.5 79.5t-80.5 29.5q-51 0 -83 -31t-32 -78z" />
    <glyph glyph-name="Ecaron" unicode="&#x11a;" 
d="M202 595v-180q0 -10 10 -10h237q8 0 14 -6t6 -14v-55q0 -8 -6 -14t-14 -6h-237q-10 0 -10 -10v-195q0 -10 10 -10h250q8 0 14 -6t6 -14v-55q0 -8 -6 -14t-14 -6h-335q-8 0 -14 6t-6 14v660q0 8 6 14t14 6h333q8 0 14 -6t6 -14v-55q0 -8 -6 -14t-14 -6h-248q-10 0 -10 -10
zM237 879l50 -49q7 -7 14 0l51 49q16 16 31 16h59q9 0 12.5 -8.5t-1.5 -12.5l-108 -112q-12 -12 -29 -12h-42q-18 0 -30 12l-108 112q-5 4 -1.5 12.5t12.5 8.5h59q15 0 31 -16z" />
    <glyph glyph-name="ecaron" unicode="&#x11b;" 
d="M163 211q0 -66 31 -98.5t85 -32.5q38 0 66 17.5t37 45.5q5 17 23 17h51q20 0 17 -20q-9 -66 -63 -108t-131 -42q-87 0 -143 54.5t-62 135.5q-5 70 0 140q6 81 62 135.5t143 54.5q91 0 145.5 -53.5t54.5 -146.5v-69q0 -8 -6 -14t-14 -6h-286q-10 0 -10 -10zM165 311
q0 -10 10 -10h208q10 0 10 10q0 50 -32.5 79.5t-80.5 29.5q-51 0 -83 -31t-32 -78zM217 714l50 -49q7 -7 14 0l51 49q16 16 31 16h59q9 0 12.5 -8t-1.5 -13l-108 -112q-12 -12 -29 -12h-42q-18 0 -30 12l-108 112q-5 5 -1.5 13t12.5 8h59q15 0 31 -16z" />
    <glyph glyph-name="Gcircumflex" unicode="&#x11c;" 
d="M409 200v84q0 10 -10 10h-91q-8 0 -14 6t-6 14v55q0 8 6 14t14 6h176q8 0 14 -6t6 -14v-169q0 -88 -63.5 -148t-161.5 -60q-91 0 -152 56t-73 152q-8 61 -8 150.5t8 149.5q10 87 70.5 147.5t154.5 60.5t159.5 -57t65.5 -151v-14q0 -8 -6 -14t-14 -6h-55q-8 0 -14 6t-6 14
v14q0 46 -36 79t-94 34q-51 0 -87 -30t-43 -83q-7 -61 -7 -149.5t7 -150.5q6 -47 40.5 -80t89.5 -33t92.5 29t37.5 84zM267 815l-50 -49q-16 -16 -31 -16h-59q-9 0 -12.5 8t1.5 13l108 112q12 12 30 12h42q17 0 29 -12l108 -112q5 -5 1.5 -13t-12.5 -8h-59q-15 0 -31 16
l-51 49q-7 7 -14 0z" />
    <glyph glyph-name="gcircumflex" unicode="&#x11d;" 
d="M410 500h34q8 0 14 -6t6 -14v-510q0 -74 -52.5 -127t-130.5 -53q-70 0 -121 36t-61 101q-3 23 18 23h48q13 0 17.5 -4t7.5 -13q1 -2 1 -3q20 -50 90 -50q39 0 66 25t27 65v22q0 25 -22 23q-6 0 -36 -12.5t-57 -12.5q-77 0 -130.5 55t-59.5 135q-5 70 0 140q6 80 59.5 135
t130.5 55q43 0 73 -16.5t39 -16.5q11 0 25 16q7 7 14 7zM269 420q-50 0 -81 -29t-34 -71q-5 -70 0 -140q3 -42 34 -71t81 -29t81 29t34 71q5 70 0 140q-3 42 -34 71t-81 29zM267 650l-50 -49q-16 -16 -31 -16h-59q-9 0 -12.5 8.5t1.5 12.5l108 112q12 12 30 12h42
q17 0 29 -12l108 -112q5 -4 1.5 -12.5t-12.5 -8.5h-59q-15 0 -31 16l-51 49q-7 7 -14 0z" />
    <glyph glyph-name="Gbreve" unicode="&#x11e;" 
d="M409 200v84q0 10 -10 10h-91q-8 0 -14 6t-6 14v55q0 8 6 14t14 6h176q8 0 14 -6t6 -14v-169q0 -88 -63.5 -148t-161.5 -60q-91 0 -152 56t-73 152q-8 61 -8 150.5t8 149.5q10 87 70.5 147.5t154.5 60.5t159.5 -57t65.5 -151v-14q0 -8 -6 -14t-14 -6h-55q-8 0 -14 6t-6 14
v14q0 46 -36 79t-94 34q-51 0 -87 -30t-43 -83q-7 -61 -7 -149.5t7 -150.5q6 -47 40.5 -80t89.5 -33t92.5 29t37.5 84zM335 878q0 7 5 12t12 5h43q7 0 12 -5t5 -12q0 -54 -39 -91t-98 -37q-60 0 -99 37t-39 91q0 7 5 12t12 5h43q7 0 12 -5t5 -12q0 -23 18.5 -39.5
t42.5 -16.5t42 16.5t18 39.5z" />
    <glyph glyph-name="gbreve" unicode="&#x11f;" 
d="M410 500h34q8 0 14 -6t6 -14v-510q0 -74 -52.5 -127t-130.5 -53q-70 0 -121 36t-61 101q-3 23 18 23h48q13 0 17.5 -4t7.5 -13q1 -2 1 -3q20 -50 90 -50q39 0 66 25t27 65v22q0 25 -22 23q-6 0 -36 -12.5t-57 -12.5q-77 0 -130.5 55t-59.5 135q-5 70 0 140q6 80 59.5 135
t130.5 55q43 0 73 -16.5t39 -16.5q11 0 25 16q7 7 14 7zM269 420q-50 0 -81 -29t-34 -71q-5 -70 0 -140q3 -42 34 -71t81 -29t81 29t34 71q5 70 0 140q-3 42 -34 71t-81 29zM335 713q0 7 5 12t12 5h43q7 0 12 -5t5 -12q0 -54 -39 -91t-98 -37q-60 0 -99 37t-39 91q0 7 5 12
t12 5h43q7 0 12 -5t5 -12q0 -23 18.5 -39.5t42.5 -16.5t42 16.5t18 39.5z" />
    <glyph glyph-name="Gdotaccent" unicode="&#x120;" 
d="M409 200v84q0 10 -10 10h-91q-8 0 -14 6t-6 14v55q0 8 6 14t14 6h176q8 0 14 -6t6 -14v-169q0 -88 -63.5 -148t-161.5 -60q-91 0 -152 56t-73 152q-8 61 -8 150.5t8 149.5q10 87 70.5 147.5t154.5 60.5t159.5 -57t65.5 -151v-14q0 -8 -6 -14t-14 -6h-55q-8 0 -14 6t-6 14
v14q0 46 -36 79t-94 34q-51 0 -87 -30t-43 -83q-7 -61 -7 -149.5t7 -150.5q6 -47 40.5 -80t89.5 -33t92.5 29t37.5 84zM336 835v-69q0 -16 -16 -16h-68q-16 0 -16 16v69q0 6 4.5 11t11.5 5h68q7 0 11.5 -5t4.5 -11z" />
    <glyph glyph-name="gdotaccent" unicode="&#x121;" 
d="M410 500h34q8 0 14 -6t6 -14v-510q0 -74 -52.5 -127t-130.5 -53q-70 0 -121 36t-61 101q-3 23 18 23h48q13 0 17.5 -4t7.5 -13q1 -2 1 -3q20 -50 90 -50q39 0 66 25t27 65v22q0 25 -22 23q-6 0 -36 -12.5t-57 -12.5q-77 0 -130.5 55t-59.5 135q-5 70 0 140q6 80 59.5 135
t130.5 55q43 0 73 -16.5t39 -16.5q11 0 25 16q7 7 14 7zM269 420q-50 0 -81 -29t-34 -71q-5 -70 0 -140q3 -42 34 -71t81 -29t81 29t34 71q5 70 0 140q-3 42 -34 71t-81 29zM325 691v-69q0 -16 -16 -16h-68q-16 0 -16 16v69q0 6 4.5 11t11.5 5h68q7 0 11.5 -5t4.5 -11z" />
    <glyph glyph-name="Gcommaaccent" unicode="&#x122;" 
d="M409 200v84q0 10 -10 10h-91q-8 0 -14 6t-6 14v55q0 8 6 14t14 6h176q8 0 14 -6t6 -14v-169q0 -88 -63.5 -148t-161.5 -60q-91 0 -152 56t-73 152q-8 61 -8 150.5t8 149.5q10 87 70.5 147.5t154.5 60.5t159.5 -57t65.5 -151v-14q0 -8 -6 -14t-14 -6h-55q-8 0 -14 6t-6 14
v14q0 46 -36 79t-94 34q-51 0 -87 -30t-43 -83q-7 -61 -7 -149.5t7 -150.5q6 -47 40.5 -80t89.5 -33t92.5 29t37.5 84zM248 -146h-7q-8 0 -14 6t-6 14v61q0 8 6 14t14 6h70q8 0 14 -6t6 -14v-61q0 -34 -20 -62l-32 -46q-10 -15 -26 -15h-9q-14 0 -19 11t1 22l31 57
q3 5 -0.5 9t-8.5 4z" />
    <glyph glyph-name="gcommaaccent" unicode="&#x123;" 
d="M410 500h34q8 0 14 -6t6 -14v-510q0 -74 -52.5 -127t-130.5 -53q-70 0 -121 36t-61 101q-3 23 18 23h48q13 0 17.5 -4t7.5 -13q1 -2 1 -3q20 -50 90 -50q39 0 66 25t27 65v22q0 25 -22 23q-6 0 -36 -12.5t-57 -12.5q-77 0 -130.5 55t-59.5 135q-5 70 0 140q6 80 59.5 135
t130.5 55q43 0 73 -16.5t39 -16.5q11 0 25 16q7 7 14 7zM269 420q-50 0 -81 -29t-34 -71q-5 -70 0 -140q3 -42 34 -71t81 -29t81 29t34 71q5 70 0 140q-3 42 -34 71t-81 29zM298 677h7q8 0 14 -6t6 -14v-61q0 -8 -6 -14t-14 -6h-70q-8 0 -14 6t-6 14v61q0 34 20 62l32 46
q10 15 26 15h9q14 0 19 -11t-1 -22l-31 -57q-3 -5 0.5 -9t8.5 -4z" />
    <glyph glyph-name="Hcircumflex" unicode="&#x124;" 
d="M155 680v-265q0 -10 10 -10h220q10 0 10 10v265q0 8 6 14t14 6h55q8 0 14 -6t6 -14v-660q0 -8 -6 -14t-14 -6h-55q-8 0 -14 6t-6 14v280q0 10 -10 10h-220q-10 0 -10 -10v-280q0 -8 -6 -14t-14 -6h-55q-8 0 -14 6t-6 14v660q0 8 6 14t14 6h55q8 0 14 -6t6 -14zM267 815
l-50 -49q-16 -16 -31 -16h-59q-9 0 -12.5 8t1.5 13l108 112q12 12 30 12h42q17 0 29 -12l108 -112q5 -5 1.5 -13t-12.5 -8h-59q-15 0 -31 16l-51 49q-7 7 -14 0z" />
    <glyph glyph-name="hcircumflex" unicode="&#x125;" 
d="M158 0h-50q-8 0 -14 6t-6 14v667q0 8 6 14t14 6h50q8 0 14 -6t6 -14v-181q0 -8 6 -14.5t16 -6.5q7 0 36.5 12.5t55.5 12.5q79 0 134.5 -55.5t55.5 -134.5v-300q0 -8 -6 -14t-14 -6h-50q-8 0 -14 6t-6 14v300q0 40 -31 70t-76 30q-46 0 -76.5 -27.5t-30.5 -67.5v-305
q0 -8 -6 -14t-14 -6zM247 815l-50 -49q-16 -16 -31 -16h-59q-9 0 -12.5 8t1.5 13l108 112q12 12 30 12h42q17 0 29 -12l108 -112q5 -5 1.5 -13t-12.5 -8h-59q-15 0 -31 16l-51 49q-7 7 -14 0z" />
    <glyph glyph-name="Hbar" unicode="&#x126;" 
d="M155 495v-80q0 -10 10 -10h220q10 0 10 10v80q0 10 -10 10h-220q-10 0 -10 -10zM155 680v-80q0 -10 10 -10h220q10 0 10 10v80q0 8 6 14t14 6h55q8 0 14 -6t6 -14v-660q0 -8 -6 -14t-14 -6h-55q-8 0 -14 6t-6 14v280q0 10 -10 10h-220q-10 0 -10 -10v-280q0 -8 -6 -14
t-14 -6h-55q-8 0 -14 6t-6 14v660q0 8 6 14t14 6h55q8 0 14 -6t6 -14z" />
    <glyph glyph-name="hbar" unicode="&#x127;" 
d="M178 547v-41q0 -8 6 -14.5t16 -6.5q7 0 36.5 12.5t55.5 12.5q79 0 134.5 -55.5t55.5 -134.5v-300q0 -8 -6 -14t-14 -6h-50q-8 0 -14 6t-6 14v300q0 40 -31 70t-76 30q-46 0 -76.5 -27.5t-30.5 -67.5v-305q0 -8 -6 -14t-14 -6h-50q-8 0 -14 6t-6 14v527q0 10 -10 10h-25
q-8 0 -14 6t-6 14v40q0 8 6 14t14 6h25q10 0 10 10v40q0 8 6 14t14 6h50q8 0 14 -6t6 -14v-40q0 -10 10 -10h70q8 0 14 -6t6 -14v-40q0 -8 -6 -14t-14 -6h-70q-10 0 -10 -10z" />
    <glyph glyph-name="Itilde" unicode="&#x128;" 
d="M227 98v505q0 10 -10 10h-110q-8 0 -14 6t-6 14v47q0 8 6 14t14 6h335q8 0 14 -6t6 -14v-47q0 -8 -6 -14t-14 -6h-110q-10 0 -10 -10v-505q0 -10 10 -10h120q8 0 14 -6t6 -14v-48q0 -8 -6 -14t-14 -6h-355q-8 0 -14 6t-6 14v48q0 8 6 14t14 6h120q10 0 10 10zM345 841
q29 0 46 21q6 8 15.5 4t9.5 -18v-40q0 -20 -21 -35.5t-50 -15.5q-31 0 -68 12.5t-72 12.5q-28 0 -46 -21q-6 -8 -15.5 -3.5t-9.5 17.5v40q0 20 21 35.5t50 15.5q31 0 68 -12.5t72 -12.5z" />
    <glyph glyph-name="itilde" unicode="&#x129;" 
d="M345 684q29 0 46 21q6 8 15.5 4t9.5 -18v-40q0 -20 -21 -35.5t-50 -15.5q-31 0 -68 12.5t-72 12.5q-28 0 -46 -21q-6 -8 -15.5 -3.5t-9.5 17.5v40q0 20 21 35.5t50 15.5q31 0 68 -12.5t72 -12.5zM241 415h-121q-8 0 -14 6t-6 14v45q0 8 6 14t14 6h203q8 0 14 -6t6 -14
v-385q0 -10 10 -10h127q8 0 14 -6t6 -14v-45q0 -8 -6 -14t-14 -6h-370q-8 0 -14 6t-6 14v45q0 8 6 14t14 6h131q10 0 10 10v310q0 10 -10 10z" />
    <glyph glyph-name="Imacron" unicode="&#x12a;" 
d="M227 98v505q0 10 -10 10h-110q-8 0 -14 6t-6 14v47q0 8 6 14t14 6h335q8 0 14 -6t6 -14v-47q0 -8 -6 -14t-14 -6h-110q-10 0 -10 -10v-505q0 -10 10 -10h120q8 0 14 -6t6 -14v-48q0 -8 -6 -14t-14 -6h-355q-8 0 -14 6t-6 14v48q0 8 6 14t14 6h120q10 0 10 10zM396 761
h-242q-8 0 -14 6t-6 14v38q0 8 6 14t14 6h242q8 0 14 -6t6 -14v-38q0 -8 -6 -14t-14 -6z" />
    <glyph glyph-name="imacron" unicode="&#x12b;" 
d="M396 616h-242q-8 0 -14 6t-6 14v38q0 8 6 14t14 6h242q8 0 14 -6t6 -14v-38q0 -8 -6 -14t-14 -6zM241 415h-121q-8 0 -14 6t-6 14v45q0 8 6 14t14 6h203q8 0 14 -6t6 -14v-385q0 -10 10 -10h127q8 0 14 -6t6 -14v-45q0 -8 -6 -14t-14 -6h-370q-8 0 -14 6t-6 14v45
q0 8 6 14t14 6h131q10 0 10 10v310q0 10 -10 10z" />
    <glyph glyph-name="Ibreve" unicode="&#x12c;" 
d="M227 98v505q0 10 -10 10h-110q-8 0 -14 6t-6 14v47q0 8 6 14t14 6h335q8 0 14 -6t6 -14v-47q0 -8 -6 -14t-14 -6h-110q-10 0 -10 -10v-505q0 -10 10 -10h120q8 0 14 -6t6 -14v-48q0 -8 -6 -14t-14 -6h-355q-8 0 -14 6t-6 14v48q0 8 6 14t14 6h120q10 0 10 10zM335 878
q0 7 5 12t12 5h43q7 0 12 -5t5 -12q0 -54 -39 -91t-98 -37q-60 0 -99 37t-39 91q0 7 5 12t12 5h43q7 0 12 -5t5 -12q0 -23 18.5 -39.5t42.5 -16.5t42 16.5t18 39.5z" />
    <glyph glyph-name="ibreve" unicode="&#x12d;" 
d="M335 713q0 7 5 12t12 5h43q7 0 12 -5t5 -12q0 -54 -39 -91t-98 -37q-60 0 -99 37t-39 91q0 7 5 12t12 5h43q7 0 12 -5t5 -12q0 -23 18.5 -39.5t42.5 -16.5t42 16.5t18 39.5zM241 415h-121q-8 0 -14 6t-6 14v45q0 8 6 14t14 6h203q8 0 14 -6t6 -14v-385q0 -10 10 -10h127
q8 0 14 -6t6 -14v-45q0 -8 -6 -14t-14 -6h-370q-8 0 -14 6t-6 14v45q0 8 6 14t14 6h131q10 0 10 10v310q0 10 -10 10z" />
    <glyph glyph-name="Iogonek" unicode="&#x12e;" 
d="M302 -210h-61q-74 0 -119 35t-45 101v142q0 8 6 14t14 6h120q10 0 10 10v505q0 10 -10 10h-110q-8 0 -14 6t-6 14v47q0 8 6 14t14 6h335q8 0 14 -6t6 -14v-47q0 -8 -6 -14t-14 -6h-110q-10 0 -10 -10v-505q0 -10 10 -10h120q8 0 14 -6t6 -14v-48q0 -8 -6 -14t-14 -6h-292
v-69q0 -66 81 -66h61q8 0 14 -6t6 -14v-35q0 -8 -6 -14t-14 -6z" />
    <glyph glyph-name="iogonek" unicode="&#x12f;" 
d="M346 691v-69q0 -16 -16 -16h-68q-16 0 -16 16v69q0 6 4.5 11t11.5 5h68q7 0 11.5 -5t4.5 -11zM173 0v-60q0 -70 81 -70h61q8 0 14 -6t6 -14v-40q0 -8 -6 -14t-14 -6h-61q-74 0 -119 35t-45 101v139q0 8 6 14t14 6h131q10 0 10 10v310q0 10 -10 10h-121q-8 0 -14 6t-6 14
v45q0 8 6 14t14 6h203q8 0 14 -6t6 -14v-385q0 -10 10 -10h127q8 0 14 -6t6 -14v-45q0 -8 -6 -14t-14 -6h-307z" />
    <glyph glyph-name="Idotaccent" unicode="&#x130;" 
d="M227 98v505q0 10 -10 10h-110q-8 0 -14 6t-6 14v47q0 8 6 14t14 6h335q8 0 14 -6t6 -14v-47q0 -8 -6 -14t-14 -6h-110q-10 0 -10 -10v-505q0 -10 10 -10h120q8 0 14 -6t6 -14v-48q0 -8 -6 -14t-14 -6h-355q-8 0 -14 6t-6 14v48q0 8 6 14t14 6h120q10 0 10 10zM325 835
v-69q0 -16 -16 -16h-68q-16 0 -16 16v69q0 6 4.5 11t11.5 5h68q7 0 11.5 -5t4.5 -11z" />
    <glyph glyph-name="dotlessi" unicode="&#x131;" 
d="M241 415h-121q-8 0 -14 6t-6 14v45q0 8 6 14t14 6h203q8 0 14 -6t6 -14v-385q0 -10 10 -10h127q8 0 14 -6t6 -14v-45q0 -8 -6 -14t-14 -6h-370q-8 0 -14 6t-6 14v45q0 8 6 14t14 6h131q10 0 10 10v310q0 10 -10 10z" />
    <glyph glyph-name="Jcircumflex" unicode="&#x134;" 
d="M125 230v-30q0 -55 38.5 -84t91.5 -29q58 0 94 35.5t36 98.5v459q0 8 6 14t14 6h55q8 0 14 -6t6 -14v-470q0 -98 -65.5 -158t-159.5 -60q-99 0 -162 56t-63 152v30q0 8 6 14t14 6h55q8 0 14 -6t6 -14zM307 815l-50 -49q-16 -16 -31 -16h-59q-9 0 -12.5 8t1.5 13l108 112
q12 12 30 12h42q17 0 29 -12l108 -112q5 -5 1.5 -13t-12.5 -8h-59q-15 0 -31 16l-51 49q-7 7 -14 0z" />
    <glyph glyph-name="jcircumflex" unicode="&#x135;" 
d="M413 480v-527q0 -66 -47 -114.5t-113 -48.5t-113 47t-47 113q0 8 6 14t14 6h50q8 0 14 -6t6 -14q0 -29 18.5 -49.5t51.5 -20.5q32 0 49.5 21.5t17.5 51.5v452q0 10 -10 10h-145q-8 0 -14 6t-6 14v45q0 8 6 14t14 6h228q8 0 14 -6t6 -14zM297 650l-50 -49q-16 -16 -31 -16
h-59q-9 0 -12.5 8.5t1.5 12.5l108 112q12 12 30 12h42q17 0 29 -12l108 -112q5 -4 1.5 -12.5t-12.5 -8.5h-59q-15 0 -31 16l-51 49q-7 7 -14 0z" />
    <glyph glyph-name="Kcommaaccent" unicode="&#x136;" 
d="M178 680v-240q0 -4 3 -4t5 2l194 252q8 10 22 10h55q14 0 19.5 -12.5t-2.5 -23.5l-228 -291q-10 -14 -1 -24l256 -312q9 -10 3.5 -23.5t-21.5 -13.5h-63q-12 0 -22 10l-212 265q-2 2 -5 2t-3 -4v-253q0 -8 -6 -14t-14 -6h-55q-8 0 -14 6t-6 14v660q0 8 6 14t14 6h55
q8 0 14 -6t6 -14zM228 -146h-7q-8 0 -14 6t-6 14v61q0 8 6 14t14 6h70q8 0 14 -6t6 -14v-61q0 -34 -20 -62l-32 -46q-10 -15 -26 -15h-9q-14 0 -19 11t1 22l31 57q3 5 -0.5 9t-8.5 4z" />
    <glyph glyph-name="kcommaaccent" unicode="&#x137;" 
d="M391 15l-173 166q-2 2 -5 1t-3 -5v-157q0 -8 -6 -14t-14 -6h-50q-8 0 -14 6t-6 14v667q0 8 6 14t14 6h50q8 0 14 -6t6 -14v-346q0 -10 8 -4l163 150q13 13 28 13h54q15 0 19.5 -13t-3.5 -20l-205 -193q-13 -13 0 -24l226 -217q10 -9 4 -21t-20 -12h-63q-15 0 -30 15z
M248 -146h-7q-8 0 -14 6t-6 14v61q0 8 6 14t14 6h70q8 0 14 -6t6 -14v-61q0 -34 -20 -62l-32 -46q-10 -15 -26 -15h-9q-14 0 -19 11t1 22l31 57q3 5 -0.5 9t-8.5 4z" />
    <glyph glyph-name="kgreenlandic" unicode="&#x138;" 
d="M389 15l-171 167q-2 2 -5 2t-3 -4v-160q0 -8 -6 -14t-14 -6h-50q-8 0 -14 6t-6 14v460q0 8 6 14t14 6h50q8 0 14 -6t6 -14v-146q0 -4 3 -4.5t5 2.5l163 155q13 13 25 13h57q15 0 19.5 -13t-3.5 -20l-201 -193q-11 -11 0 -24l225 -217q10 -9 4 -21t-20 -12h-72
q-11 0 -26 15z" />
    <glyph glyph-name="Lacute" unicode="&#x139;" 
d="M215 680v-575q0 -10 10 -10h244q8 0 14 -6t6 -14v-55q0 -8 -6 -14t-14 -6h-329q-8 0 -14 6t-6 14v660q0 8 6 14t14 6h55q8 0 14 -6t6 -14zM260 895h79q9 0 12.5 -8.5t-1.5 -12.5l-108 -112q-12 -12 -30 -12h-40q-9 0 -13.5 7t-0.5 13l76 109q11 16 26 16z" />
    <glyph glyph-name="lacute" unicode="&#x13a;" 
d="M236 624h-105q-8 0 -14 6t-6 14v43q0 8 6 14t14 6h185q8 0 14 -6t6 -14v-592q0 -10 10 -10h113q8 0 14 -6t6 -14v-45q0 -8 -6 -14t-14 -6h-348q-8 0 -14 6t-6 14v45q0 8 6 14t14 6h125q10 0 10 10v519q0 10 -10 10zM330 895h79q9 0 12.5 -8.5t-1.5 -12.5l-108 -112
q-12 -12 -30 -12h-40q-9 0 -13.5 7t-0.5 13l76 109q11 16 26 16z" />
    <glyph glyph-name="Lcommaaccent" unicode="&#x13b;" 
d="M215 680v-575q0 -10 10 -10h244q8 0 14 -6t6 -14v-55q0 -8 -6 -14t-14 -6h-329q-8 0 -14 6t-6 14v660q0 8 6 14t14 6h55q8 0 14 -6t6 -14zM268 -146h-7q-8 0 -14 6t-6 14v61q0 8 6 14t14 6h70q8 0 14 -6t6 -14v-61q0 -34 -20 -62l-32 -46q-10 -15 -26 -15h-9
q-14 0 -19 11t1 22l31 57q3 5 -0.5 9t-8.5 4z" />
    <glyph glyph-name="lcommaaccent" unicode="&#x13c;" 
d="M236 624h-105q-8 0 -14 6t-6 14v43q0 8 6 14t14 6h185q8 0 14 -6t6 -14v-592q0 -10 10 -10h113q8 0 14 -6t6 -14v-45q0 -8 -6 -14t-14 -6h-348q-8 0 -14 6t-6 14v45q0 8 6 14t14 6h125q10 0 10 10v519q0 10 -10 10zM258 -146h-7q-8 0 -14 6t-6 14v61q0 8 6 14t14 6h70
q8 0 14 -6t6 -14v-61q0 -34 -20 -62l-32 -46q-10 -15 -26 -15h-9q-14 0 -19 11t1 22l31 57q3 5 -0.5 9t-8.5 4z" />
    <glyph glyph-name="Lcaron" unicode="&#x13d;" 
d="M215 680v-575q0 -10 10 -10h244q8 0 14 -6t6 -14v-55q0 -8 -6 -14t-14 -6h-329q-8 0 -14 6t-6 14v660q0 8 6 14t14 6h55q8 0 14 -6t6 -14zM346 599h-7q-8 0 -14 6t-6 14v61q0 8 6 14t14 6h70q8 0 14 -6t6 -14v-61q0 -34 -20 -62l-32 -46q-10 -15 -26 -15h-9q-14 0 -19 11
t1 22l31 57q3 5 -0.5 9t-8.5 4z" />
    <glyph glyph-name="lcaron" unicode="&#x13e;" 
d="M236 624h-105q-8 0 -14 6t-6 14v43q0 8 6 14t14 6h185q8 0 14 -6t6 -14v-592q0 -10 10 -10h113q8 0 14 -6t6 -14v-45q0 -8 -6 -14t-14 -6h-348q-8 0 -14 6t-6 14v45q0 8 6 14t14 6h125q10 0 10 10v519q0 10 -10 10zM466 599h-7q-8 0 -14 6t-6 14v61q0 8 6 14t14 6h70
q8 0 14 -6t6 -14v-61q0 -34 -20 -62l-32 -46q-10 -15 -26 -15h-9q-14 0 -19 11t1 22l31 57q3 5 -0.5 9t-8.5 4z" />
    <glyph glyph-name="Ldot" unicode="&#x13f;" 
d="M215 680v-575q0 -10 10 -10h244q8 0 14 -6t6 -14v-55q0 -8 -6 -14t-14 -6h-329q-8 0 -14 6t-6 14v660q0 8 6 14t14 6h55q8 0 14 -6t6 -14zM405 334v-69q0 -16 -16 -16h-68q-16 0 -16 16v69q0 6 4.5 11t11.5 5h68q7 0 11.5 -5t4.5 -11z" />
    <glyph glyph-name="ldot" unicode="&#x140;" 
d="M236 624h-105q-8 0 -14 6t-6 14v43q0 8 6 14t14 6h185q8 0 14 -6t6 -14v-592q0 -10 10 -10h113q8 0 14 -6t6 -14v-45q0 -8 -6 -14t-14 -6h-348q-8 0 -14 6t-6 14v45q0 8 6 14t14 6h125q10 0 10 10v519q0 10 -10 10zM524 334v-69q0 -16 -16 -16h-68q-16 0 -16 16v69
q0 6 4.5 11t11.5 5h68q7 0 11.5 -5t4.5 -11z" />
    <glyph glyph-name="Lslash" unicode="&#x141;" 
d="M215 292v-187q0 -10 10 -10h244q8 0 14 -6t6 -14v-55q0 -8 -6 -14t-14 -6h-329q-8 0 -14 6t-6 14v200q0 4 -4 5.5t-5 -0.5l-33 -23q-8 -6 -18 -1.5t-10 15.5v48q0 18 15 28l47 33q8 6 8 14v341q0 8 6 14t14 6h55q8 0 14 -6t6 -14v-272q0 -3 3 -4.5t6 0.5l116 82
q7 5 16 0.5t9 -14.5v-52q0 -14 -20 -30l-124 -88q-6 -4 -6 -10z" />
    <glyph glyph-name="lslash" unicode="&#x142;" 
d="M246 369v245q0 10 -10 10h-105q-8 0 -14 6t-6 14v43q0 8 6 14t14 6h185q8 0 14 -6t6 -14v-249q0 -3 3 -4.5t6 0.5l51 36q7 5 16 0.5t9 -14.5v-52q0 -14 -20 -30l-59 -42q-6 -4 -6 -10v-227q0 -10 10 -10h113q8 0 14 -6t6 -14v-45q0 -8 -6 -14t-14 -6h-348q-8 0 -14 6
t-6 14v45q0 8 6 14t14 6h125q10 0 10 10v155q0 4 -4 5.5t-5 -0.5l-33 -23q-8 -6 -18 -1.5t-10 15.5v48q0 18 15 28l47 33q8 6 8 14z" />
    <glyph glyph-name="Nacute" unicode="&#x143;" 
d="M485 680v-660q0 -8 -6 -14t-14 -6h-83q-15 0 -21 17l-197 495q-2 3 -5 2.5t-3 -4.5v-490q0 -8 -6 -14t-14 -6h-51q-8 0 -14 6t-6 14v660q0 8 6 14t14 6h83q15 0 21 -17l197 -493q2 -3 5 -2.5t3 4.5v488q0 8 6 14t14 6h51q8 0 14 -6t6 -14zM330 895h79q9 0 12.5 -8.5
t-1.5 -12.5l-108 -112q-12 -12 -30 -12h-40q-9 0 -13.5 7t-0.5 13l76 109q11 16 26 16z" />
    <glyph glyph-name="nacute" unicode="&#x144;" 
d="M183 477q9 0 38 16.5t69 16.5q80 0 135 -54t55 -136v-300q0 -8 -6 -14t-14 -6h-50q-8 0 -14 6t-6 14v300q0 43 -31.5 71.5t-78.5 28.5t-78.5 -26t-31.5 -69v-305q0 -8 -6 -14t-14 -6h-50q-8 0 -14 6t-6 14v460q0 8 6 14t14 6h44q7 0 14 -7q14 -16 25 -16zM330 730h79
q9 0 12.5 -8t-1.5 -13l-108 -112q-12 -12 -30 -12h-40q-9 0 -13.5 7t-0.5 13l76 109q11 16 26 16z" />
    <glyph glyph-name="Ncommaaccent" unicode="&#x145;" 
d="M485 680v-660q0 -8 -6 -14t-14 -6h-83q-15 0 -21 17l-197 495q-2 3 -5 2.5t-3 -4.5v-490q0 -8 -6 -14t-14 -6h-51q-8 0 -14 6t-6 14v660q0 8 6 14t14 6h83q15 0 21 -17l197 -493q2 -3 5 -2.5t3 4.5v488q0 8 6 14t14 6h51q8 0 14 -6t6 -14zM248 -146h-7q-8 0 -14 6t-6 14
v61q0 8 6 14t14 6h70q8 0 14 -6t6 -14v-61q0 -34 -20 -62l-32 -46q-10 -15 -26 -15h-9q-14 0 -19 11t1 22l31 57q3 5 -0.5 9t-8.5 4z" />
    <glyph glyph-name="ncommaaccent" unicode="&#x146;" 
d="M183 477q9 0 38 16.5t69 16.5q80 0 135 -54t55 -136v-300q0 -8 -6 -14t-14 -6h-50q-8 0 -14 6t-6 14v300q0 43 -31.5 71.5t-78.5 28.5t-78.5 -26t-31.5 -69v-305q0 -8 -6 -14t-14 -6h-50q-8 0 -14 6t-6 14v460q0 8 6 14t14 6h44q7 0 14 -7q14 -16 25 -16zM248 -146h-7
q-8 0 -14 6t-6 14v61q0 8 6 14t14 6h70q8 0 14 -6t6 -14v-61q0 -34 -20 -62l-32 -46q-10 -15 -26 -15h-9q-14 0 -19 11t1 22l31 57q3 5 -0.5 9t-8.5 4z" />
    <glyph glyph-name="Ncaron" unicode="&#x147;" 
d="M485 680v-660q0 -8 -6 -14t-14 -6h-83q-15 0 -21 17l-197 495q-2 3 -5 2.5t-3 -4.5v-490q0 -8 -6 -14t-14 -6h-51q-8 0 -14 6t-6 14v660q0 8 6 14t14 6h83q15 0 21 -17l197 -493q2 -3 5 -2.5t3 4.5v488q0 8 6 14t14 6h51q8 0 14 -6t6 -14zM217 879l50 -49q7 -7 14 0
l51 49q16 16 31 16h59q9 0 12.5 -8.5t-1.5 -12.5l-108 -112q-12 -12 -29 -12h-42q-18 0 -30 12l-108 112q-5 4 -1.5 12.5t12.5 8.5h59q15 0 31 -16z" />
    <glyph glyph-name="ncaron" unicode="&#x148;" 
d="M183 477q9 0 38 16.5t69 16.5q80 0 135 -54t55 -136v-300q0 -8 -6 -14t-14 -6h-50q-8 0 -14 6t-6 14v300q0 43 -31.5 71.5t-78.5 28.5t-78.5 -26t-31.5 -69v-305q0 -8 -6 -14t-14 -6h-50q-8 0 -14 6t-6 14v460q0 8 6 14t14 6h44q7 0 14 -7q14 -16 25 -16zM217 714l50 -49
q7 -7 14 0l51 49q16 16 31 16h59q9 0 12.5 -8t-1.5 -13l-108 -112q-12 -12 -29 -12h-42q-18 0 -30 12l-108 112q-5 5 -1.5 13t12.5 8h59q15 0 31 -16z" />
    <glyph glyph-name="Eng" unicode="&#x14a;" 
d="M395 0l-231 512q-2 3 -5 2.5t-3 -4.5v-490q0 -8 -6 -14t-14 -6h-51q-8 0 -14 6t-6 14v660q0 8 6 14t14 6h75q15 0 21 -17l205 -447q2 -3 5 -2.5t3 4.5v442q0 8 6 14t14 6h51q8 0 14 -6t6 -14v-710q0 -74 -48 -127t-120 -53q-8 0 -14 6t-6 14v50q0 8 6 14t14 6
q32 0 55 25.5t23 64.5v30z" />
    <glyph glyph-name="eng" unicode="&#x14b;" 
d="M312 -120q32 0 55 25.5t23 64.5v350q0 47 -30.5 73.5t-79.5 26.5q-47 0 -78.5 -26t-31.5 -69v-305q0 -8 -6 -14t-14 -6h-50q-8 0 -14 6t-6 14v460q0 8 6 14t14 6h44q8 0 18.5 -11.5t20.5 -11.5q9 0 38 16.5t69 16.5q85 0 137.5 -51.5t52.5 -138.5v-350q0 -74 -48 -127
t-120 -53q-8 0 -14 6t-6 14v50q0 8 6 14t14 6z" />
    <glyph glyph-name="Omacron" unicode="&#x14c;" 
d="M275 613q-51 0 -87 -30t-43 -83q-7 -61 -7 -149.5t7 -150.5q6 -47 40.5 -80t89.5 -33q51 0 87 30t43 83q9 63 8.5 150t-8.5 150q-6 48 -40 80.5t-90 32.5zM275 708q91 0 152 -56t73 -152q7 -62 7 -150t-7 -150q-10 -87 -70 -147.5t-155 -60.5q-91 0 -152 56t-73 152
q-8 61 -8 150.5t8 149.5q10 87 70.5 147.5t154.5 60.5zM396 761h-242q-8 0 -14 6t-6 14v38q0 8 6 14t14 6h242q8 0 14 -6t6 -14v-38q0 -8 -6 -14t-14 -6z" />
    <glyph glyph-name="omacron" unicode="&#x14d;" 
d="M275 510q87 0 143 -54.5t62 -135.5q5 -70 0 -140q-6 -81 -62 -135.5t-143 -54.5t-143 54.5t-62 135.5q-5 70 0 140q6 81 62 135.5t143 54.5zM275 80q50 0 81 29t34 71q5 70 0 140q-3 42 -34 71t-81 29t-81 -29t-34 -71q-5 -70 0 -140q3 -42 34 -71t81 -29zM396 616h-242
q-8 0 -14 6t-6 14v38q0 8 6 14t14 6h242q8 0 14 -6t6 -14v-38q0 -8 -6 -14t-14 -6z" />
    <glyph glyph-name="Obreve" unicode="&#x14e;" 
d="M275 613q-51 0 -87 -30t-43 -83q-7 -61 -7 -149.5t7 -150.5q6 -47 40.5 -80t89.5 -33q51 0 87 30t43 83q9 63 8.5 150t-8.5 150q-6 48 -40 80.5t-90 32.5zM275 708q91 0 152 -56t73 -152q7 -62 7 -150t-7 -150q-10 -87 -70 -147.5t-155 -60.5q-91 0 -152 56t-73 152
q-8 61 -8 150.5t8 149.5q10 87 70.5 147.5t154.5 60.5zM335 878q0 7 5 12t12 5h43q7 0 12 -5t5 -12q0 -54 -39 -91t-98 -37q-60 0 -99 37t-39 91q0 7 5 12t12 5h43q7 0 12 -5t5 -12q0 -23 18.5 -39.5t42.5 -16.5t42 16.5t18 39.5z" />
    <glyph glyph-name="obreve" unicode="&#x14f;" 
d="M275 510q87 0 143 -54.5t62 -135.5q5 -70 0 -140q-6 -81 -62 -135.5t-143 -54.5t-143 54.5t-62 135.5q-5 70 0 140q6 81 62 135.5t143 54.5zM275 80q50 0 81 29t34 71q5 70 0 140q-3 42 -34 71t-81 29t-81 -29t-34 -71q-5 -70 0 -140q3 -42 34 -71t81 -29zM335 713
q0 7 5 12t12 5h43q7 0 12 -5t5 -12q0 -54 -39 -91t-98 -37q-60 0 -99 37t-39 91q0 7 5 12t12 5h43q7 0 12 -5t5 -12q0 -23 18.5 -39.5t42.5 -16.5t42 16.5t18 39.5z" />
    <glyph glyph-name="Ohungarumlaut" unicode="&#x150;" 
d="M275 613q-51 0 -87 -30t-43 -83q-7 -61 -7 -149.5t7 -150.5q6 -47 40.5 -80t89.5 -33q51 0 87 30t43 83q9 63 8.5 150t-8.5 150q-6 48 -40 80.5t-90 32.5zM275 708q91 0 152 -56t73 -152q7 -62 7 -150t-7 -150q-10 -87 -70 -147.5t-155 -60.5q-91 0 -152 56t-73 152
q-8 61 -8 150.5t8 149.5q10 87 70.5 147.5t154.5 60.5zM246 896h79q9 0 12.5 -8t-1.5 -13l-108 -112q-12 -12 -30 -12h-40q-9 0 -13.5 7t-0.5 13l76 109q11 16 26 16zM416 896h79q9 0 12.5 -8t-1.5 -13l-108 -112q-12 -12 -30 -12h-40q-9 0 -13.5 7t-0.5 13l76 109
q11 16 26 16z" />
    <glyph glyph-name="ohungarumlaut" unicode="&#x151;" 
d="M275 510q87 0 143 -54.5t62 -135.5q5 -70 0 -140q-6 -81 -62 -135.5t-143 -54.5t-143 54.5t-62 135.5q-5 70 0 140q6 81 62 135.5t143 54.5zM275 80q50 0 81 29t34 71q5 70 0 140q-3 42 -34 71t-81 29t-81 -29t-34 -71q-5 -70 0 -140q3 -42 34 -71t81 -29zM246 730h79
q9 0 12.5 -8t-1.5 -13l-108 -112q-12 -12 -30 -12h-40q-9 0 -13.5 7t-0.5 13l76 109q11 16 26 16zM416 730h79q9 0 12.5 -8t-1.5 -13l-108 -112q-12 -12 -30 -12h-40q-9 0 -13.5 7t-0.5 13l76 109q11 16 26 16z" />
    <glyph glyph-name="OE" unicode="&#x152;" 
d="M275 700h233q8 0 14 -6t6 -14v-55q0 -8 -6 -14t-14 -6h-128q-10 0 -10 -10v-180q0 -10 10 -10h117q8 0 14 -6t6 -14v-55q0 -8 -6 -14t-14 -6h-117q-10 0 -10 -10v-195q0 -10 10 -10h130q8 0 14 -6t6 -14v-55q0 -8 -6 -14t-14 -6h-235q-92 0 -152.5 52.5t-72.5 147.5
q-8 61 -8 150.5t8 149.5q10 86 70 143t155 57zM265 95q10 0 10 10v490q0 10 -10 10q-48 -2 -81 -28.5t-39 -76.5q-8 -63 -8 -150t8 -150q6 -44 37.5 -74.5t82.5 -30.5z" />
    <glyph glyph-name="oe" unicode="&#x153;" 
d="M287 29q-14 13 -30 0q-44 -39 -88 -39q-77 0 -115.5 74.5t-38.5 190.5q0 113 39 184t115 71q10 0 19 -1t17 -4t12.5 -4.5t12 -7t10 -7.5t10.5 -9t10 -9q16 -13 30 0q43 42 99 42q67 0 106 -62.5t39 -157.5v-49q0 -8 -6 -14t-14 -6h-186q-10 0 -10 -10q0 -136 71 -136
q24 0 41 19.5t17 48.5q0 17 23 17h41q17 0 17 -20q0 -62 -39 -106t-100 -44q-60 0 -102 39zM320 311q0 -10 10 -10h108q10 0 10 10q0 51 -16.5 82.5t-41.5 31.5q-35 0 -52.5 -32.5t-17.5 -81.5zM100 255q0 -40 2.5 -69t9.5 -55t21.5 -39t35.5 -13t35.5 13t21.5 39t9.5 55
t2.5 69t-2.5 69t-9.5 55t-21.5 39t-35.5 13t-35.5 -13t-21.5 -39t-9.5 -55t-2.5 -69z" />
    <glyph glyph-name="Racute" unicode="&#x154;" 
d="M290 605h-95q-10 0 -10 -10v-210q0 -10 10 -10h95q46 0 80.5 34t34.5 81t-34 81t-81 34zM256 280h-61q-10 0 -10 -10v-250q0 -8 -6 -14t-14 -6h-55q-8 0 -14 6t-6 14v660q0 8 6 14t14 6h180q87 0 148.5 -61.5t61.5 -148.5q0 -56 -28.5 -103.5t-75.5 -75.5
q-28 -16 -17 -38l118 -243q6 -11 0.5 -20.5t-19.5 -9.5h-56q-19 0 -29 20l-118 248q-6 12 -19 12zM320 895h79q9 0 12.5 -8.5t-1.5 -12.5l-108 -112q-12 -12 -30 -12h-40q-9 0 -13.5 7t-0.5 13l76 109q11 16 26 16z" />
    <glyph glyph-name="racute" unicode="&#x155;" 
d="M413 340q0 35 -28 57.5t-70 22.5q-49 0 -84.5 -26.5t-35.5 -68.5v-305q0 -8 -6 -14t-14 -6h-50q-8 0 -14 6t-6 14v460q0 8 6 14t14 6h44q7 0 14 -7q14 -16 25 -16q9 0 41.5 16.5t75.5 16.5q74 0 126.5 -49t52.5 -121q0 -8 -6 -14t-14 -6h-51q-8 0 -14 6t-6 14zM340 730
h79q9 0 12.5 -8t-1.5 -13l-108 -112q-12 -12 -30 -12h-40q-9 0 -13.5 7t-0.5 13l76 109q11 16 26 16z" />
    <glyph glyph-name="Rcommaaccent" unicode="&#x156;" 
d="M290 605h-95q-10 0 -10 -10v-210q0 -10 10 -10h95q46 0 80.5 34t34.5 81t-34 81t-81 34zM256 280h-61q-10 0 -10 -10v-250q0 -8 -6 -14t-14 -6h-55q-8 0 -14 6t-6 14v660q0 8 6 14t14 6h180q87 0 148.5 -61.5t61.5 -148.5q0 -56 -28.5 -103.5t-75.5 -75.5
q-28 -16 -17 -38l118 -243q6 -11 0.5 -20.5t-19.5 -9.5h-56q-19 0 -29 20l-118 248q-6 12 -19 12zM248 -146h-7q-8 0 -14 6t-6 14v61q0 8 6 14t14 6h70q8 0 14 -6t6 -14v-61q0 -34 -20 -62l-32 -46q-10 -15 -26 -15h-9q-14 0 -19 11t1 22l31 57q3 5 -0.5 9t-8.5 4z" />
    <glyph glyph-name="rcommaaccent" unicode="&#x157;" 
d="M413 340q0 35 -28 57.5t-70 22.5q-49 0 -84.5 -26.5t-35.5 -68.5v-305q0 -8 -6 -14t-14 -6h-50q-8 0 -14 6t-6 14v460q0 8 6 14t14 6h44q7 0 14 -7q14 -16 25 -16q9 0 41.5 16.5t75.5 16.5q74 0 126.5 -49t52.5 -121q0 -8 -6 -14t-14 -6h-51q-8 0 -14 6t-6 14zM122 -146
h-7q-8 0 -14 6t-6 14v61q0 8 6 14t14 6h70q8 0 14 -6t6 -14v-61q0 -34 -20 -62l-32 -46q-10 -15 -26 -15h-9q-14 0 -19 11t1 22l31 57q3 5 -0.5 9t-8.5 4z" />
    <glyph glyph-name="Rcaron" unicode="&#x158;" 
d="M290 605h-95q-10 0 -10 -10v-210q0 -10 10 -10h95q46 0 80.5 34t34.5 81t-34 81t-81 34zM256 280h-61q-10 0 -10 -10v-250q0 -8 -6 -14t-14 -6h-55q-8 0 -14 6t-6 14v660q0 8 6 14t14 6h180q87 0 148.5 -61.5t61.5 -148.5q0 -56 -28.5 -103.5t-75.5 -75.5
q-28 -16 -17 -38l118 -243q6 -11 0.5 -20.5t-19.5 -9.5h-56q-19 0 -29 20l-118 248q-6 12 -19 12zM217 879l50 -49q7 -7 14 0l51 49q16 16 31 16h59q9 0 12.5 -8.5t-1.5 -12.5l-108 -112q-12 -12 -29 -12h-42q-18 0 -30 12l-108 112q-5 4 -1.5 12.5t12.5 8.5h59q15 0 31 -16
z" />
    <glyph glyph-name="rcaron" unicode="&#x159;" 
d="M413 340q0 35 -28 57.5t-70 22.5q-49 0 -84.5 -26.5t-35.5 -68.5v-305q0 -8 -6 -14t-14 -6h-50q-8 0 -14 6t-6 14v460q0 8 6 14t14 6h44q7 0 14 -7q14 -16 25 -16q9 0 41.5 16.5t75.5 16.5q74 0 126.5 -49t52.5 -121q0 -8 -6 -14t-14 -6h-51q-8 0 -14 6t-6 14zM237 714
l50 -49q7 -7 14 0l51 49q16 16 31 16h59q9 0 12.5 -8t-1.5 -13l-108 -112q-12 -12 -29 -12h-42q-18 0 -30 12l-108 112q-5 5 -1.5 13t12.5 8h59q15 0 31 -16z" />
    <glyph glyph-name="Sacute" unicode="&#x15a;" 
d="M404 200q0 27 -9 47t-19.5 31.5t-38 22t-43.5 15t-58 13.5q-76 17 -121.5 64.5t-45.5 126.5q0 86 62 137t144 51q88 0 146.5 -55t58.5 -133v-13q0 -8 -6 -14t-14 -6h-55q-8 0 -14 6t-6 14v13q0 46 -33 69.5t-77 23.5q-49 0 -79.5 -25.5t-30.5 -67.5q0 -18 4 -33t15 -25.5
l18.5 -17.5t27 -13.5t26.5 -9t31 -8t28 -6.5q185 -45 185 -207q0 -93 -67 -150.5t-158 -57.5q-96 0 -160.5 61t-64.5 147v16q0 8 6 14t14 6h56q8 0 14 -6t6 -14v-16q0 -49 36.5 -81t92.5 -32t92.5 32.5t36.5 80.5zM340 895h79q9 0 12.5 -8.5t-1.5 -12.5l-108 -112
q-12 -12 -30 -12h-40q-9 0 -13.5 7t-0.5 13l76 109q11 16 26 16z" />
    <glyph glyph-name="sacute" unicode="&#x15b;" 
d="M77 163q0 8 6 14t14 6h50q8 0 14 -6t6 -14q0 -87 108 -87q107 0 107 74q0 30 -26.5 44t-80.5 25q-34 7 -51.5 11.5t-46.5 16t-44 25t-27 38t-12 55.5q0 65 54.5 105t126.5 40t125 -41t53 -109q0 -8 -6 -14t-14 -6h-50q-8 0 -14 6t-6 14q0 28 -22 46.5t-66 18.5
q-43 0 -65.5 -18t-22.5 -42q0 -25 22 -36.5t66 -19.5l38.5 -7t37 -9t38 -13.5t31.5 -19t28.5 -27t16.5 -36t7 -47.5q0 -76 -57 -118t-140 -42t-140.5 43.5t-57.5 129.5zM330 730h79q9 0 12.5 -8t-1.5 -13l-108 -112q-12 -12 -30 -12h-40q-9 0 -13.5 7t-0.5 13l76 109
q11 16 26 16z" />
    <glyph glyph-name="Scircumflex" unicode="&#x15c;" 
d="M404 200q0 27 -9 47t-19.5 31.5t-38 22t-43.5 15t-58 13.5q-76 17 -121.5 64.5t-45.5 126.5q0 86 62 137t144 51q88 0 146.5 -55t58.5 -133v-13q0 -8 -6 -14t-14 -6h-55q-8 0 -14 6t-6 14v13q0 46 -33 69.5t-77 23.5q-49 0 -79.5 -25.5t-30.5 -67.5q0 -18 4 -33t15 -25.5
l18.5 -17.5t27 -13.5t26.5 -9t31 -8t28 -6.5q185 -45 185 -207q0 -93 -67 -150.5t-158 -57.5q-96 0 -160.5 61t-64.5 147v16q0 8 6 14t14 6h56q8 0 14 -6t6 -14v-16q0 -49 36.5 -81t92.5 -32t92.5 32.5t36.5 80.5zM267 815l-50 -49q-16 -16 -31 -16h-59q-9 0 -12.5 8t1.5 13
l108 112q12 12 30 12h42q17 0 29 -12l108 -112q5 -5 1.5 -13t-12.5 -8h-59q-15 0 -31 16l-51 49q-7 7 -14 0z" />
    <glyph glyph-name="scircumflex" unicode="&#x15d;" 
d="M77 163q0 8 6 14t14 6h50q8 0 14 -6t6 -14q0 -87 108 -87q107 0 107 74q0 30 -26.5 44t-80.5 25q-34 7 -51.5 11.5t-46.5 16t-44 25t-27 38t-12 55.5q0 65 54.5 105t126.5 40t125 -41t53 -109q0 -8 -6 -14t-14 -6h-50q-8 0 -14 6t-6 14q0 28 -22 46.5t-66 18.5
q-43 0 -65.5 -18t-22.5 -42q0 -25 22 -36.5t66 -19.5l38.5 -7t37 -9t38 -13.5t31.5 -19t28.5 -27t16.5 -36t7 -47.5q0 -76 -57 -118t-140 -42t-140.5 43.5t-57.5 129.5zM267 650l-50 -49q-16 -16 -31 -16h-59q-9 0 -12.5 8.5t1.5 12.5l108 112q12 12 30 12h42q17 0 29 -12
l108 -112q5 -4 1.5 -12.5t-12.5 -8.5h-59q-15 0 -31 16l-51 49q-7 7 -14 0z" />
    <glyph glyph-name="Scedilla" unicode="&#x15e;" 
d="M404 200q0 27 -9 47t-19.5 31.5t-38 22t-43.5 15t-58 13.5q-76 17 -121.5 64.5t-45.5 126.5q0 86 62 137t144 51q88 0 146.5 -55t58.5 -133v-13q0 -8 -6 -14t-14 -6h-55q-8 0 -14 6t-6 14v13q0 46 -33 69.5t-77 23.5q-49 0 -79.5 -25.5t-30.5 -67.5q0 -18 4 -33t15 -25.5
l18.5 -17.5t27 -13.5t26.5 -9t31 -8t28 -6.5q185 -45 185 -207q0 -93 -67 -150.5t-158 -57.5q-96 0 -160.5 61t-64.5 147v16q0 8 6 14t14 6h56q8 0 14 -6t6 -14v-16q0 -49 36.5 -81t92.5 -32t92.5 32.5t36.5 80.5zM318 -63l-28 -121q-4 -16 -19 -16h-63q-9 0 -13.5 5.5
t-2.5 12.5l38 121q4 16 19 16h53q20 0 16 -18z" />
    <glyph glyph-name="scedilla" unicode="&#x15f;" 
d="M77 163q0 8 6 14t14 6h50q8 0 14 -6t6 -14q0 -87 108 -87q107 0 107 74q0 30 -26.5 44t-80.5 25q-34 7 -51.5 11.5t-46.5 16t-44 25t-27 38t-12 55.5q0 65 54.5 105t126.5 40t125 -41t53 -109q0 -8 -6 -14t-14 -6h-50q-8 0 -14 6t-6 14q0 28 -22 46.5t-66 18.5
q-43 0 -65.5 -18t-22.5 -42q0 -25 22 -36.5t66 -19.5l38.5 -7t37 -9t38 -13.5t31.5 -19t28.5 -27t16.5 -36t7 -47.5q0 -76 -57 -118t-140 -42t-140.5 43.5t-57.5 129.5zM328 -63l-28 -121q-4 -16 -19 -16h-63q-9 0 -13.5 5.5t-2.5 12.5l38 121q4 16 19 16h53q20 0 16 -18z
" />
    <glyph glyph-name="Scaron" unicode="&#x160;" 
d="M404 200q0 27 -9 47t-19.5 31.5t-38 22t-43.5 15t-58 13.5q-76 17 -121.5 64.5t-45.5 126.5q0 86 62 137t144 51q88 0 146.5 -55t58.5 -133v-13q0 -8 -6 -14t-14 -6h-55q-8 0 -14 6t-6 14v13q0 46 -33 69.5t-77 23.5q-49 0 -79.5 -25.5t-30.5 -67.5q0 -18 4 -33t15 -25.5
l18.5 -17.5t27 -13.5t26.5 -9t31 -8t28 -6.5q185 -45 185 -207q0 -93 -67 -150.5t-158 -57.5q-96 0 -160.5 61t-64.5 147v16q0 8 6 14t14 6h56q8 0 14 -6t6 -14v-16q0 -49 36.5 -81t92.5 -32t92.5 32.5t36.5 80.5zM217 879l50 -49q7 -7 14 0l51 49q16 16 31 16h59
q9 0 12.5 -8.5t-1.5 -12.5l-108 -112q-12 -12 -29 -12h-42q-18 0 -30 12l-108 112q-5 4 -1.5 12.5t12.5 8.5h59q15 0 31 -16z" />
    <glyph glyph-name="scaron" unicode="&#x161;" 
d="M77 163q0 8 6 14t14 6h50q8 0 14 -6t6 -14q0 -87 108 -87q107 0 107 74q0 30 -26.5 44t-80.5 25q-34 7 -51.5 11.5t-46.5 16t-44 25t-27 38t-12 55.5q0 65 54.5 105t126.5 40t125 -41t53 -109q0 -8 -6 -14t-14 -6h-50q-8 0 -14 6t-6 14q0 28 -22 46.5t-66 18.5
q-43 0 -65.5 -18t-22.5 -42q0 -25 22 -36.5t66 -19.5l38.5 -7t37 -9t38 -13.5t31.5 -19t28.5 -27t16.5 -36t7 -47.5q0 -76 -57 -118t-140 -42t-140.5 43.5t-57.5 129.5zM217 714l50 -49q7 -7 14 0l51 49q16 16 31 16h59q9 0 12.5 -8t-1.5 -13l-108 -112q-12 -12 -29 -12h-42
q-18 0 -30 12l-108 112q-5 5 -1.5 13t12.5 8h59q15 0 31 -16z" />
    <glyph glyph-name="Tcommaaccent" unicode="&#x162;" 
d="M218 605h-133q-8 0 -14 6t-6 14v55q0 8 6 14t14 6h380q8 0 14 -6t6 -14v-55q0 -8 -6 -14t-14 -6h-132q-10 0 -10 -10v-575q0 -8 -6 -14t-14 -6h-55q-8 0 -14 6t-6 14v575q0 10 -10 10zM248 -146h-7q-8 0 -14 6t-6 14v61q0 8 6 14t14 6h70q8 0 14 -6t6 -14v-61
q0 -34 -20 -62l-32 -46q-10 -15 -26 -15h-9q-14 0 -19 11t1 22l31 57q3 5 -0.5 9t-8.5 4z" />
    <glyph glyph-name="tcommaaccent" unicode="&#x163;" 
d="M270 395v-245q0 -28 20 -49t50 -21t50 21t20 49q0 8 6 14t14 6h50q8 0 14 -6t6 -14q0 -66 -47 -113t-113 -47t-113 47t-47 113v245q0 10 -10 10h-100q-8 0 -14 6t-6 14v50q0 8 6 14t14 6h100q10 0 10 10v155q0 8 6 14t14 6h50q8 0 14 -6t6 -14v-155q0 -10 10 -10h160
q8 0 14 -6t6 -14v-50q0 -8 -6 -14t-14 -6h-160q-10 0 -10 -10zM248 -146h-7q-8 0 -14 6t-6 14v61q0 8 6 14t14 6h70q8 0 14 -6t6 -14v-61q0 -34 -20 -62l-32 -46q-10 -15 -26 -15h-9q-14 0 -19 11t1 22l31 57q3 5 -0.5 9t-8.5 4z" />
    <glyph glyph-name="Tcaron" unicode="&#x164;" 
d="M218 605h-133q-8 0 -14 6t-6 14v55q0 8 6 14t14 6h380q8 0 14 -6t6 -14v-55q0 -8 -6 -14t-14 -6h-132q-10 0 -10 -10v-575q0 -8 -6 -14t-14 -6h-55q-8 0 -14 6t-6 14v575q0 10 -10 10zM217 879l50 -49q7 -7 14 0l51 49q16 16 31 16h59q9 0 12.5 -8.5t-1.5 -12.5
l-108 -112q-12 -12 -29 -12h-42q-18 0 -30 12l-108 112q-5 4 -1.5 12.5t12.5 8.5h59q15 0 31 -16z" />
    <glyph glyph-name="tcaron" unicode="&#x165;" 
d="M270 395v-245q0 -28 20 -49t50 -21t50 21t20 49q0 8 6 14t14 6h50q8 0 14 -6t6 -14q0 -66 -47 -113t-113 -47t-113 47t-47 113v245q0 10 -10 10h-100q-8 0 -14 6t-6 14v50q0 8 6 14t14 6h100q10 0 10 10v155q0 8 6 14t14 6h50q8 0 14 -6t6 -14v-155q0 -10 10 -10h100
q8 0 14 -6t6 -14v-50q0 -8 -6 -14t-14 -6h-100q-10 0 -10 -10zM446 599h-7q-8 0 -14 6t-6 14v61q0 8 6 14t14 6h70q8 0 14 -6t6 -14v-61q0 -34 -20 -62l-32 -46q-10 -15 -26 -15h-9q-14 0 -19 11t1 22l31 57q3 5 -0.5 9t-8.5 4z" />
    <glyph glyph-name="Tbar" unicode="&#x166;" 
d="M228 20v380q0 10 -10 10h-113q-8 0 -14 6t-6 14v50q0 8 6 14t14 6h113q10 0 10 10v85q0 10 -10 10h-133q-8 0 -14 6t-6 14v55q0 8 6 14t14 6h380q8 0 14 -6t6 -14v-55q0 -8 -6 -14t-14 -6h-132q-10 0 -10 -10v-85q0 -10 10 -10h112q8 0 14 -6t6 -14v-50q0 -8 -6 -14
t-14 -6h-112q-10 0 -10 -10v-380q0 -8 -6 -14t-14 -6h-55q-8 0 -14 6t-6 14z" />
    <glyph glyph-name="tbar" unicode="&#x167;" 
d="M270 221v-71q0 -28 20 -49t50 -21t50 21t20 49q0 8 6 14t14 6h50q8 0 14 -6t6 -14q0 -66 -47 -113t-113 -47t-113 47t-47 113v71q0 10 -10 10h-95q-8 0 -14 6t-6 14v45q0 8 6 14t14 6h95q10 0 10 10v69q0 10 -10 10h-100q-8 0 -14 6t-6 14v50q0 8 6 14t14 6h100
q10 0 10 10v155q0 8 6 14t14 6h50q8 0 14 -6t6 -14v-155q0 -10 10 -10h160q8 0 14 -6t6 -14v-50q0 -8 -6 -14t-14 -6h-160q-10 0 -10 -10v-69q0 -10 10 -10h130q8 0 14 -6t6 -14v-45q0 -8 -6 -14t-14 -6h-130q-10 0 -10 -10z" />
    <glyph glyph-name="Utilde" unicode="&#x168;" 
d="M145 680v-480q0 -56 38 -84.5t92 -28.5q57 0 93.5 32.5t36.5 80.5v480q0 8 6 14t14 6h55q8 0 14 -6t6 -14v-480q0 -89 -66.5 -148.5t-158.5 -59.5q-97 0 -161 59t-64 149v480q0 8 6 14t14 6h55q8 0 14 -6t6 -14zM345 841q29 0 46 21q6 8 15.5 4t9.5 -18v-40
q0 -20 -21 -35.5t-50 -15.5q-31 0 -68 12.5t-72 12.5q-28 0 -46 -21q-6 -8 -15.5 -3.5t-9.5 17.5v40q0 20 21 35.5t50 15.5q31 0 68 -12.5t72 -12.5z" />
    <glyph glyph-name="utilde" unicode="&#x169;" 
d="M372 23q-9 0 -36.5 -16.5t-70.5 -16.5q-84 0 -137 53.5t-53 136.5v300q0 8 6 14t14 6h50q8 0 14 -6t6 -14v-300q0 -44 29.5 -72t80.5 -28q47 0 78.5 26t31.5 69v305q0 8 6 14t14 6h50q8 0 14 -6t6 -14v-460q0 -8 -6 -14t-14 -6h-44q-7 0 -14 7q-14 16 -25 16zM345 684
q29 0 46 21q6 8 15.5 4t9.5 -18v-40q0 -20 -21 -35.5t-50 -15.5q-31 0 -68 12.5t-72 12.5q-28 0 -46 -21q-6 -8 -15.5 -3.5t-9.5 17.5v40q0 20 21 35.5t50 15.5q31 0 68 -12.5t72 -12.5z" />
    <glyph glyph-name="Umacron" unicode="&#x16a;" 
d="M145 680v-480q0 -56 38 -84.5t92 -28.5q57 0 93.5 32.5t36.5 80.5v480q0 8 6 14t14 6h55q8 0 14 -6t6 -14v-480q0 -89 -66.5 -148.5t-158.5 -59.5q-97 0 -161 59t-64 149v480q0 8 6 14t14 6h55q8 0 14 -6t6 -14zM396 761h-242q-8 0 -14 6t-6 14v38q0 8 6 14t14 6h242
q8 0 14 -6t6 -14v-38q0 -8 -6 -14t-14 -6z" />
    <glyph glyph-name="umacron" unicode="&#x16b;" 
d="M372 23q-9 0 -36.5 -16.5t-70.5 -16.5q-84 0 -137 53.5t-53 136.5v300q0 8 6 14t14 6h50q8 0 14 -6t6 -14v-300q0 -44 29.5 -72t80.5 -28q47 0 78.5 26t31.5 69v305q0 8 6 14t14 6h50q8 0 14 -6t6 -14v-460q0 -8 -6 -14t-14 -6h-44q-7 0 -14 7q-14 16 -25 16zM396 616
h-242q-8 0 -14 6t-6 14v38q0 8 6 14t14 6h242q8 0 14 -6t6 -14v-38q0 -8 -6 -14t-14 -6z" />
    <glyph glyph-name="Ubreve" unicode="&#x16c;" 
d="M145 680v-480q0 -56 38 -84.5t92 -28.5q57 0 93.5 32.5t36.5 80.5v480q0 8 6 14t14 6h55q8 0 14 -6t6 -14v-480q0 -89 -66.5 -148.5t-158.5 -59.5q-97 0 -161 59t-64 149v480q0 8 6 14t14 6h55q8 0 14 -6t6 -14zM335 878q0 7 5 12t12 5h43q7 0 12 -5t5 -12q0 -54 -39 -91
t-98 -37q-60 0 -99 37t-39 91q0 7 5 12t12 5h43q7 0 12 -5t5 -12q0 -23 18.5 -39.5t42.5 -16.5t42 16.5t18 39.5z" />
    <glyph glyph-name="ubreve" unicode="&#x16d;" 
d="M372 23q-9 0 -36.5 -16.5t-70.5 -16.5q-84 0 -137 53.5t-53 136.5v300q0 8 6 14t14 6h50q8 0 14 -6t6 -14v-300q0 -44 29.5 -72t80.5 -28q47 0 78.5 26t31.5 69v305q0 8 6 14t14 6h50q8 0 14 -6t6 -14v-460q0 -8 -6 -14t-14 -6h-44q-7 0 -14 7q-14 16 -25 16zM335 713
q0 7 5 12t12 5h43q7 0 12 -5t5 -12q0 -54 -39 -91t-98 -37q-60 0 -99 37t-39 91q0 7 5 12t12 5h43q7 0 12 -5t5 -12q0 -23 18.5 -39.5t42.5 -16.5t42 16.5t18 39.5z" />
    <glyph glyph-name="Uring" unicode="&#x16e;" 
d="M145 680v-480q0 -56 38 -84.5t92 -28.5q57 0 93.5 32.5t36.5 80.5v480q0 8 6 14t14 6h55q8 0 14 -6t6 -14v-480q0 -89 -66.5 -148.5t-158.5 -59.5q-97 0 -161 59t-64 149v480q0 8 6 14t14 6h55q8 0 14 -6t6 -14zM165 840q0 46 32 78t78 32t78 -32t32 -78t-32 -78t-78 -32
t-78 32t-32 78zM235 840q0 -17 11.5 -28.5t28.5 -11.5t28.5 11.5t11.5 28.5t-11.5 28.5t-28.5 11.5t-28.5 -11.5t-11.5 -28.5z" />
    <glyph glyph-name="uring" unicode="&#x16f;" 
d="M372 23q-9 0 -36.5 -16.5t-70.5 -16.5q-84 0 -137 53.5t-53 136.5v300q0 8 6 14t14 6h50q8 0 14 -6t6 -14v-300q0 -44 29.5 -72t80.5 -28q47 0 78.5 26t31.5 69v305q0 8 6 14t14 6h50q8 0 14 -6t6 -14v-460q0 -8 -6 -14t-14 -6h-44q-7 0 -14 7q-14 16 -25 16zM165 670
q0 46 32 78t78 32t78 -32t32 -78t-32 -78t-78 -32t-78 32t-32 78zM235 670q0 -17 11.5 -28.5t28.5 -11.5t28.5 11.5t11.5 28.5t-11.5 28.5t-28.5 11.5t-28.5 -11.5t-11.5 -28.5z" />
    <glyph glyph-name="Uhungarumlaut" unicode="&#x170;" 
d="M145 680v-480q0 -56 38 -84.5t92 -28.5q57 0 93.5 32.5t36.5 80.5v480q0 8 6 14t14 6h55q8 0 14 -6t6 -14v-480q0 -89 -66.5 -148.5t-158.5 -59.5q-97 0 -161 59t-64 149v480q0 8 6 14t14 6h55q8 0 14 -6t6 -14zM246 896h79q9 0 12.5 -8t-1.5 -13l-108 -112
q-12 -12 -30 -12h-40q-9 0 -13.5 7t-0.5 13l76 109q11 16 26 16zM416 896h79q9 0 12.5 -8t-1.5 -13l-108 -112q-12 -12 -30 -12h-40q-9 0 -13.5 7t-0.5 13l76 109q11 16 26 16z" />
    <glyph glyph-name="uhungarumlaut" unicode="&#x171;" 
d="M372 23q-9 0 -36.5 -16.5t-70.5 -16.5q-84 0 -137 53.5t-53 136.5v300q0 8 6 14t14 6h50q8 0 14 -6t6 -14v-300q0 -44 29.5 -72t80.5 -28q47 0 78.5 26t31.5 69v305q0 8 6 14t14 6h50q8 0 14 -6t6 -14v-460q0 -8 -6 -14t-14 -6h-44q-7 0 -14 7q-14 16 -25 16zM256 730h79
q9 0 12.5 -8t-1.5 -13l-108 -112q-12 -12 -30 -12h-40q-9 0 -13.5 7t-0.5 13l76 109q11 16 26 16zM426 730h79q9 0 12.5 -8t-1.5 -13l-108 -112q-12 -12 -30 -12h-40q-9 0 -13.5 7t-0.5 13l76 109q11 16 26 16z" />
    <glyph glyph-name="Uogonek" unicode="&#x172;" 
d="M145 680v-480q0 -56 38 -84.5t92 -28.5q57 0 93.5 32.5t36.5 80.5v480q0 8 6 14t14 6h55q8 0 14 -6t6 -14v-480q0 -89 -65 -147q-76 -68 -76 -122q0 -66 81 -66q8 0 14 -6t6 -14v-35q0 -8 -6 -14t-14 -6q-78 0 -121 34.5t-43 101.5q0 30 21 67q-5 -1 -22 -1
q-97 0 -161 59t-64 149v480q0 8 6 14t14 6h55q8 0 14 -6t6 -14z" />
    <glyph glyph-name="uogonek" unicode="&#x173;" 
d="M165 180q0 -44 29.5 -72t80.5 -28q47 0 78.5 26t31.5 69v305q0 8 6 14t14 6h50q8 0 14 -6t6 -14v-460q0 -8 -6 -14t-14 -6h-7q-34 -2 -54 -20t-20 -49q0 -66 76 -66q8 0 14 -6t6 -14v-35q0 -8 -6 -14t-14 -6q-72 0 -115.5 35t-43.5 101q0 39 30 73q-23 -9 -56 -9
q-84 0 -137 53.5t-53 136.5v300q0 8 6 14t14 6h50q8 0 14 -6t6 -14v-300z" />
    <glyph glyph-name="Wcircumflex" unicode="&#x174;" 
d="M324 485l54 -305q1 -4 6 -4t6 4l45 505q1 15 19 15h49q22 0 20 -20l-72 -665q-1 -15 -19 -15h-91q-17 0 -19 15l-42 302q-1 6 -4 3q-2 -1 -2 -3l-56 -302q-3 -15 -19 -15h-91q-18 0 -19 15l-63 665q-2 20 20 20h49q18 0 19 -15l41 -505q1 -4 6 -4t6 4l61 305q3 15 19 15
h58q16 0 19 -15zM267 815l-50 -49q-16 -16 -31 -16h-59q-9 0 -12.5 8t1.5 13l108 112q12 12 30 12h42q17 0 29 -12l108 -112q5 -5 1.5 -13t-12.5 -8h-59q-15 0 -31 16l-51 49q-7 7 -14 0z" />
    <glyph glyph-name="wcircumflex" unicode="&#x175;" 
d="M257 390h36q15 0 19 -15l50 -188q2 -6 7 -6t7 6l45 298q3 15 19 15h49q11 0 16 -7t3 -16l-85 -462q-3 -15 -19 -15h-55q-15 0 -19 15l-49 195q-1 5 -6 5t-6 -5l-49 -195q-4 -15 -19 -15h-55q-16 0 -19 15l-85 462q-2 9 3 16t16 7h49q16 0 19 -15l45 -298q1 -6 6.5 -6
t7.5 6l50 188q4 15 19 15zM267 650l-50 -49q-16 -16 -31 -16h-59q-9 0 -12.5 8.5t1.5 12.5l108 112q12 12 30 12h42q17 0 29 -12l108 -112q5 -4 1.5 -12.5t-12.5 -8.5h-59q-15 0 -31 16l-51 49q-7 7 -14 0z" />
    <glyph glyph-name="Ycircumflex" unicode="&#x176;" 
d="M280 374l111 311q5 15 19 15h66q10 0 15 -8.5t1 -19.5l-168 -431v-221q0 -8 -6 -14t-14 -6h-56q-8 0 -14 6t-6 14v220l-170 432q-4 11 1 19.5t15 8.5h66q14 0 19 -15l113 -311q4 -10 8 0zM267 815l-50 -49q-16 -16 -31 -16h-59q-9 0 -12.5 8t1.5 13l108 112q12 12 30 12
h42q17 0 29 -12l108 -112q5 -5 1.5 -13t-12.5 -8h-59q-15 0 -31 16l-51 49q-7 7 -14 0z" />
    <glyph glyph-name="ycircumflex" unicode="&#x177;" 
d="M283 160l116 325q5 15 19 15h59q11 0 16.5 -7.5t2.5 -15.5l-254 -662q-5 -15 -19 -15h-54q-11 0 -16.5 7.5t-2.5 15.5l74 204q3 8 1 13l-172 437q-3 8 2.5 15.5t16.5 7.5h61q14 0 19 -15l123 -325q4 -10 8 0zM267 650l-50 -49q-16 -16 -31 -16h-59q-9 0 -12.5 8.5
t1.5 12.5l108 112q12 12 30 12h42q17 0 29 -12l108 -112q5 -4 1.5 -12.5t-12.5 -8.5h-59q-15 0 -31 16l-51 49q-7 7 -14 0z" />
    <glyph glyph-name="Ydieresis" unicode="&#x178;" 
d="M280 374l111 311q5 15 19 15h66q10 0 15 -8.5t1 -19.5l-168 -431v-221q0 -8 -6 -14t-14 -6h-56q-8 0 -14 6t-6 14v220l-170 432q-4 11 1 19.5t15 8.5h66q14 0 19 -15l113 -311q4 -10 8 0zM239 835v-69q0 -16 -16 -16h-68q-16 0 -16 16v69q0 6 4.5 11t11.5 5h68
q7 0 11.5 -5t4.5 -11zM410 835v-69q0 -16 -16 -16h-68q-16 0 -16 16v69q0 6 4.5 11t11.5 5h68q7 0 11.5 -5t4.5 -11z" />
    <glyph glyph-name="Zacute" unicode="&#x179;" 
d="M465 592l-290 -489q-6 -10 6 -10h279q8 0 14 -6t6 -14v-53q0 -8 -6 -14t-14 -6h-372q-8 0 -14 6t-6 14v75q0 8 5 16l294 487q6 10 -6 10h-263q-8 0 -14 6t-6 14v52q0 8 6 14t14 6h352q8 0 14 -6t6 -14v-72q0 -8 -5 -16zM330 895h79q9 0 12.5 -8.5t-1.5 -12.5l-108 -112
q-12 -12 -30 -12h-40q-9 0 -13.5 7t-0.5 13l76 109q11 16 26 16z" />
    <glyph glyph-name="zacute" unicode="&#x17a;" 
d="M88 110l263 294q3 4 1.5 7t-6.5 3h-241q-8 0 -14 6t-6 14v46q0 8 6 14t14 6h340q8 0 14 -6t6 -14v-57q0 -17 -20 -41l-252 -286q-3 -4 -1.5 -7t6.5 -3h257q8 0 14 -6t6 -14v-46q0 -8 -6 -14t-14 -6h-360q-8 0 -14 6t-6 14v59q0 16 13 31zM330 730h79q9 0 12.5 -8
t-1.5 -13l-108 -112q-12 -12 -30 -12h-40q-9 0 -13.5 7t-0.5 13l76 109q11 16 26 16z" />
    <glyph glyph-name="Zdotaccent" unicode="&#x17b;" 
d="M465 592l-290 -489q-6 -10 6 -10h279q8 0 14 -6t6 -14v-53q0 -8 -6 -14t-14 -6h-372q-8 0 -14 6t-6 14v75q0 8 5 16l294 487q6 10 -6 10h-263q-8 0 -14 6t-6 14v52q0 8 6 14t14 6h352q8 0 14 -6t6 -14v-72q0 -8 -5 -16zM318 835v-69q0 -16 -16 -16h-68q-16 0 -16 16v69
q0 6 4.5 11t11.5 5h68q7 0 11.5 -5t4.5 -11z" />
    <glyph glyph-name="zdotaccent" unicode="&#x17c;" 
d="M88 110l263 294q3 4 1.5 7t-6.5 3h-241q-8 0 -14 6t-6 14v46q0 8 6 14t14 6h340q8 0 14 -6t6 -14v-57q0 -17 -20 -41l-252 -286q-3 -4 -1.5 -7t6.5 -3h257q8 0 14 -6t6 -14v-46q0 -8 -6 -14t-14 -6h-360q-8 0 -14 6t-6 14v59q0 16 13 31zM325 691v-69q0 -16 -16 -16h-68
q-16 0 -16 16v69q0 6 4.5 11t11.5 5h68q7 0 11.5 -5t4.5 -11z" />
    <glyph glyph-name="Zcaron" unicode="&#x17d;" 
d="M465 592l-290 -489q-6 -10 6 -10h279q8 0 14 -6t6 -14v-53q0 -8 -6 -14t-14 -6h-372q-8 0 -14 6t-6 14v75q0 8 5 16l294 487q6 10 -6 10h-263q-8 0 -14 6t-6 14v52q0 8 6 14t14 6h352q8 0 14 -6t6 -14v-72q0 -8 -5 -16zM217 879l50 -49q7 -7 14 0l51 49q16 16 31 16h59
q9 0 12.5 -8.5t-1.5 -12.5l-108 -112q-12 -12 -29 -12h-42q-18 0 -30 12l-108 112q-5 4 -1.5 12.5t12.5 8.5h59q15 0 31 -16z" />
    <glyph glyph-name="zcaron" unicode="&#x17e;" 
d="M88 110l263 294q3 4 1.5 7t-6.5 3h-241q-8 0 -14 6t-6 14v46q0 8 6 14t14 6h340q8 0 14 -6t6 -14v-57q0 -17 -20 -41l-252 -286q-3 -4 -1.5 -7t6.5 -3h257q8 0 14 -6t6 -14v-46q0 -8 -6 -14t-14 -6h-360q-8 0 -14 6t-6 14v59q0 16 13 31zM217 714l50 -49q7 -7 14 0l51 49
q16 16 31 16h59q9 0 12.5 -8t-1.5 -13l-108 -112q-12 -12 -29 -12h-42q-18 0 -30 12l-108 112q-5 5 -1.5 13t12.5 8h59q15 0 31 -16z" />
    <glyph glyph-name="longs" unicode="&#x17f;" 
d="M301 520v-500q0 -8 -6 -14t-14 -6h-50q-8 0 -14 6t-6 14v375q0 10 -10 10h-125q-8 0 -14 6t-6 14v50q0 8 6 14t14 6h125q10 0 10 10v15q0 79 53 133t132 54h60q8 0 14 -6t6 -14v-47q0 -8 -6 -14t-14 -6h-60q-39 0 -67 -30.5t-28 -69.5z" />
    <glyph glyph-name="florin" unicode="&#x192;" 
d="M240 -30v425q0 10 -10 10h-115q-8 0 -14 6t-6 14v50q0 8 6 14t14 6h115q10 0 10 10v15q0 90 51.5 138.5t133.5 48.5h60q8 0 14 -6t6 -14v-47q0 -8 -6 -14t-14 -6h-60q-42 0 -68.5 -25t-26.5 -75v-15q0 -10 10 -10h132q8 0 14 -6t6 -14v-50q0 -8 -6 -14t-14 -6h-132
q-10 0 -10 -10v-425q0 -88 -30.5 -129t-113.5 -41h-41q-8 0 -14 6t-6 14v50q0 8 5.5 14t13.5 6h44q30 0 41 19.5t11 60.5z" />
    <glyph glyph-name="Aringacute" unicode="&#x1fa;" 
d="M344 1065h79q9 0 12.5 -8.5t-1.5 -12.5l-105 -109q56 -32 56 -95q0 -46 -32 -78t-78 -32t-78 32t-32 78q0 38 22.5 67.5t58.5 38.5l72 103q11 16 26 16zM235 840q0 -17 11.5 -28.5t28.5 -11.5t28.5 11.5t11.5 28.5t-11.5 28.5t-28.5 11.5t-28.5 -11.5t-11.5 -28.5z
M173 168l-44 -153q-5 -15 -19 -15h-55q-11 0 -16.5 6t-3.5 14l186 665q3 15 19 15h70q16 0 19 -15l186 -665q2 -8 -3.5 -14t-16.5 -6h-55q-14 0 -19 15l-44 153q-3 14 -19 14h-166q-14 0 -19 -14zM270 565l-65 -279q-3 -11 8 -11h124q11 0 8 11l-65 279q-2 6 -4 6h-2
q-2 0 -4 -6z" />
    <glyph glyph-name="aringacute" unicode="&#x1fb;" 
d="M364 895h79q9 0 12.5 -8.5t-1.5 -12.5l-105 -109q56 -32 56 -95q0 -46 -32 -78t-78 -32t-78 32t-32 78q0 38 22.5 67.5t58.5 38.5l72 103q11 16 26 16zM255 670q0 -17 11.5 -28.5t28.5 -11.5t28.5 11.5t11.5 28.5t-11.5 28.5t-28.5 11.5t-28.5 -11.5t-11.5 -28.5z
M379 220h-130q-75 0 -75 -69q0 -37 23 -57.5t66 -20.5q67 0 96.5 26t29.5 79v32q0 10 -10 10zM288 424q-15 0 -29 -2.5t-29.5 -8t-25 -17.5t-9.5 -29t-23 -17h-45q-20 0 -20 20q0 65 55.5 102.5t125.5 37.5q79 0 131 -40.5t52 -119.5v-330q0 -8 -6 -14t-14 -6h-34
q-8 0 -14 7q-1 2 -5 8.5t-7 9.5t-8 3q-6 0 -20 -9.5t-39.5 -19t-57.5 -9.5q-88 0 -135 46t-47 114q0 65 44.5 108.5t120.5 43.5h122q10 0 10 10v33q0 39 -26 59t-67 20z" />
    <glyph glyph-name="AEacute" unicode="&#x1fc;" 
d="M288 20v146q0 16 -19 16h-101q-13 0 -16 -14l-44 -153q-3 -15 -19 -15h-55q-11 0 -16.5 6t-3.5 14l183 654q2 9 11 17.5t23 8.5h280q8 0 14 -6t6 -14v-55q0 -8 -6 -14t-14 -6h-118q-10 0 -10 -10v-180q0 -10 10 -10h107q8 0 14 -6t6 -14v-55q0 -8 -6 -14t-14 -6h-107
q-10 0 -10 -10v-195q0 -10 10 -10h120q8 0 14 -6t6 -14v-55q0 -8 -6 -14t-14 -6h-205q-8 0 -14 6t-6 14zM192 275h86q10 0 10 11v309q0 10 -10 10h-3q-11 0 -13 -10l-78 -309q-3 -11 8 -11zM380 895h79q9 0 12.5 -8.5t-1.5 -12.5l-108 -112q-12 -12 -30 -12h-40
q-9 0 -13.5 7t-0.5 13l76 109q11 16 26 16z" />
    <glyph glyph-name="aeacute" unicode="&#x1fd;" 
d="M290 21q-19 13 -38 -1q-41 -30 -84 -30q-76 0 -111.5 45t-35.5 115q0 65 39.5 108t109.5 43h43q10 0 10 10v54q0 26 -14 42.5t-37 16.5t-36.5 -17t-13.5 -40q0 -17 -23 -17h-45q-20 0 -20 20q0 58 36 99t97 41q62 0 96 -39q5 -7 14 -7t16 7q38 39 92 39q67 0 106 -62.5
t39 -157.5v-49q0 -8 -6 -14t-14 -6h-186q-10 0 -10 -10q0 -136 71 -136q23 0 39.5 21t18.5 47q1 17 23 17h41q17 0 17 -20q0 -58 -39.5 -104t-99.5 -46q-50 0 -95 31zM221 221h-52q-58 0 -58 -70q0 -37 15.5 -57.5t43.5 -20.5q61 0 61 105v33q0 10 -10 10zM330 730h79
q9 0 12.5 -8t-1.5 -13l-108 -112q-12 -12 -30 -12h-40q-9 0 -13.5 7t-0.5 13l76 109q11 16 26 16zM316 311q0 -10 10 -10h108q10 0 10 10q0 51 -16.5 82.5t-41.5 31.5q-35 0 -52.5 -32.5t-17.5 -81.5z" />
    <glyph glyph-name="Oslashacute" unicode="&#x1fe;" 
d="M275 613q-51 0 -87 -30t-43 -83q-16 -128 -3 -276q0 -6 2.5 -7.5t7.5 5.5l210 350q9 14 -23 27.5t-64 13.5zM275 87q51 0 86.5 30t43.5 83q18 120 3 275q0 2 -1 3.5t-3.5 1t-4.5 -4.5l-206 -347q-9 -18 21.5 -29.5t60.5 -11.5zM123 15q-9 -15 -21 -15h-52q-10 0 -16 9
t0 19l41 66q6 9 0 18q-25 54 -31.5 175t6.5 213q10 87 70.5 147.5t154.5 60.5q78 0 134 -41q6 -6 11 2l11 16q9 15 19 15h52q10 0 16 -9.5t0 -18.5l-45 -71q-3 -5 0 -11q22 -42 30 -116q12 -140 -3 -274q-10 -87 -70 -147.5t-155 -60.5q-77 0 -132 39q-7 4 -11 -2zM315 895
h79q9 0 12.5 -8.5t-1.5 -12.5l-108 -112q-12 -12 -30 -12h-40q-9 0 -13.5 7t-0.5 13l76 109q11 16 26 16z" />
    <glyph glyph-name="oslashacute" unicode="&#x1ff;" 
d="M330 730h79q9 0 12.5 -8t-1.5 -13l-108 -112q-12 -12 -30 -12h-40q-9 0 -13.5 7t-0.5 13l76 109q11 16 26 16zM274 510q71 0 121 -36q5 -3 9 1l9 10q12 15 24 15h47q10 0 15.5 -10.5t-1.5 -19.5l-42 -51q-4 -5 -1 -14q21 -50 24 -85q5 -70 0 -140q-6 -81 -62 -135.5
t-143 -54.5q-74 0 -127 40q-6 3 -9 -1l-11 -14q-12 -15 -25 -15h-48q-10 0 -16 11t2 21l49 58q4 5 1 11q-18 36 -21 79q-5 70 0 140q6 81 62 135.5t143 54.5zM274 80q50 0 81 29t34 71q5 70 0 140q0 4 -2.5 6.5t-6.5 -1.5l-176 -215q-5 -7 1 -10q28 -20 69 -20zM274 420
q-50 0 -81 -29t-34 -71q-5 -65 0 -134q0 -2 2 -3t5 1l172 210q5 7 -1 10q-29 16 -63 16z" />
    <glyph glyph-name="Scommaaccent" unicode="&#x218;" 
d="M404 200q0 27 -9 47t-19.5 31.5t-38 22t-43.5 15t-58 13.5q-76 17 -121.5 64.5t-45.5 126.5q0 86 62 137t144 51q88 0 146.5 -55t58.5 -133v-13q0 -8 -6 -14t-14 -6h-55q-8 0 -14 6t-6 14v13q0 46 -33 69.5t-77 23.5q-49 0 -79.5 -25.5t-30.5 -67.5q0 -18 4 -33t15 -25.5
l18.5 -17.5t27 -13.5t26.5 -9t31 -8t28 -6.5q185 -45 185 -207q0 -93 -67 -150.5t-158 -57.5q-96 0 -160.5 61t-64.5 147v16q0 8 6 14t14 6h56q8 0 14 -6t6 -14v-16q0 -49 36.5 -81t92.5 -32t92.5 32.5t36.5 80.5zM248 -146h-7q-8 0 -14 6t-6 14v61q0 8 6 14t14 6h70
q8 0 14 -6t6 -14v-61q0 -34 -20 -62l-32 -46q-10 -15 -26 -15h-9q-14 0 -19 11t1 22l31 57q3 5 -0.5 9t-8.5 4z" />
    <glyph glyph-name="scommaaccent" unicode="&#x219;" 
d="M77 163q0 8 6 14t14 6h50q8 0 14 -6t6 -14q0 -87 108 -87q107 0 107 74q0 30 -26.5 44t-80.5 25q-34 7 -51.5 11.5t-46.5 16t-44 25t-27 38t-12 55.5q0 65 54.5 105t126.5 40t125 -41t53 -109q0 -8 -6 -14t-14 -6h-50q-8 0 -14 6t-6 14q0 28 -22 46.5t-66 18.5
q-43 0 -65.5 -18t-22.5 -42q0 -25 22 -36.5t66 -19.5l38.5 -7t37 -9t38 -13.5t31.5 -19t28.5 -27t16.5 -36t7 -47.5q0 -76 -57 -118t-140 -42t-140.5 43.5t-57.5 129.5zM248 -146h-7q-8 0 -14 6t-6 14v61q0 8 6 14t14 6h70q8 0 14 -6t6 -14v-61q0 -34 -20 -62l-32 -46
q-10 -15 -26 -15h-9q-14 0 -19 11t1 22l31 57q3 5 -0.5 9t-8.5 4z" />
    <glyph glyph-name="uni021A" unicode="&#x21a;" 
d="M218 605h-133q-8 0 -14 6t-6 14v55q0 8 6 14t14 6h380q8 0 14 -6t6 -14v-55q0 -8 -6 -14t-14 -6h-132q-10 0 -10 -10v-575q0 -8 -6 -14t-14 -6h-55q-8 0 -14 6t-6 14v575q0 10 -10 10zM248 -146h-7q-8 0 -14 6t-6 14v61q0 8 6 14t14 6h70q8 0 14 -6t6 -14v-61
q0 -34 -20 -62l-32 -46q-10 -15 -26 -15h-9q-14 0 -19 11t1 22l31 57q3 5 -0.5 9t-8.5 4z" />
    <glyph glyph-name="uni021B" unicode="&#x21b;" 
d="M270 395v-245q0 -28 20 -49t50 -21t50 21t20 49q0 8 6 14t14 6h50q8 0 14 -6t6 -14q0 -66 -47 -113t-113 -47t-113 47t-47 113v245q0 10 -10 10h-100q-8 0 -14 6t-6 14v50q0 8 6 14t14 6h100q10 0 10 10v155q0 8 6 14t14 6h50q8 0 14 -6t6 -14v-155q0 -10 10 -10h160
q8 0 14 -6t6 -14v-50q0 -8 -6 -14t-14 -6h-160q-10 0 -10 -10zM248 -146h-7q-8 0 -14 6t-6 14v61q0 8 6 14t14 6h70q8 0 14 -6t6 -14v-61q0 -34 -20 -62l-32 -46q-10 -15 -26 -15h-9q-14 0 -19 11t1 22l31 57q3 5 -0.5 9t-8.5 4z" />
    <glyph glyph-name="hsuperior" unicode="&#x2b0;" 
d="M231 346h-50q-10 0 -10 10v335q0 10 10 10h50q10 0 10 -10v-83q0 -8 4.5 -11t11.5 0q10 5 26 5q39 0 67 -27t28 -66v-153q0 -10 -10 -10h-50q-10 0 -10 10v153q0 25 -34 25q-33 0 -33 -25v-153q0 -10 -10 -10z" />
    <glyph glyph-name="jsuperior" unicode="&#x2b2;" 
d="M375 693v-58q0 -8 -8 -8h-59q-8 0 -8 8v58q0 8 8 8h59q8 0 8 -8zM371 589v-257q0 -40 -28.5 -66t-69.5 -26t-70 27t-29 67q0 10 10 10h50q10 0 10 -10q0 -24 29 -24t29 23v188q0 5 -5 5h-57q-10 0 -10 10v50q0 10 10 10h124q7 0 7 -7z" />
    <glyph glyph-name="wsuperior" unicode="&#x2b7;" 
d="M255 541h38q8 0 9 -8l17 -99q2 -2 6 -1l15 155q0 8 9 8h53q11 0 9 -12l-38 -231q-1 -7 -10 -7h-61q-9 0 -10 7l-14 72q-1 2 -4 2.5t-3 -2.5l-12 -71q-2 -8 -9 -8h-62q-7 0 -9 8l-40 231q-2 11 9 11h53q9 0 10 -7l15 -156q0 -1 2.5 -1t2.5 1l14 101q1 7 10 7z" />
    <glyph glyph-name="ysuperior" unicode="&#x2b8;" 
d="M280 452l36 137q1 7 9 7h56q6 0 9 -4t1 -8l-115 -330q-3 -8 -10 -8h-51q-6 0 -8.5 4t-0.5 8l34 90q2 6 0 13l-82 224q-2 4 1 7.5t9 3.5h56q7 0 10 -8l40 -137q1 -3 3 -2.5t3 3.5z" />
    <glyph glyph-name="apostrophemod" unicode="&#x2bc;" 
d="M248 570h-17q-8 0 -14 6t-6 14v90q0 8 6 14t14 6h90q8 0 14 -6t6 -14v-90q0 -34 -20 -62l-52 -73q-10 -15 -26 -15h-14q-14 0 -19 11t1 22l46 84q3 5 -0.5 9t-8.5 4z" />
    <glyph glyph-name="circumflex" unicode="&#x2c6;" 
d="M267 650l-50 -49q-16 -16 -31 -16h-59q-9 0 -12.5 8.5t1.5 12.5l108 112q12 12 30 12h42q17 0 29 -12l108 -112q5 -4 1.5 -12.5t-12.5 -8.5h-59q-15 0 -31 16l-51 49q-7 7 -14 0z" />
    <glyph glyph-name="caron" unicode="&#x2c7;" 
d="M217 714l50 -49q7 -7 14 0l51 49q16 16 31 16h59q9 0 12.5 -8t-1.5 -13l-108 -112q-12 -12 -29 -12h-42q-18 0 -30 12l-108 112q-5 5 -1.5 13t12.5 8h59q15 0 31 -16z" />
    <glyph glyph-name="breve" unicode="&#x2d8;" 
d="M335 713q0 7 5 12t12 5h43q7 0 12 -5t5 -12q0 -54 -39 -91t-98 -37q-60 0 -99 37t-39 91q0 7 5 12t12 5h43q7 0 12 -5t5 -12q0 -23 18.5 -39.5t42.5 -16.5t42 16.5t18 39.5z" />
    <glyph glyph-name="dotaccent" unicode="&#x2d9;" 
d="M325 691v-69q0 -16 -16 -16h-68q-16 0 -16 16v69q0 6 4.5 11t11.5 5h68q7 0 11.5 -5t4.5 -11z" />
    <glyph glyph-name="ring" unicode="&#x2da;" 
d="M165 670q0 46 32 78t78 32t78 -32t32 -78t-32 -78t-78 -32t-78 32t-32 78zM235 670q0 -17 11.5 -28.5t28.5 -11.5t28.5 11.5t11.5 28.5t-11.5 28.5t-28.5 11.5t-28.5 -11.5t-11.5 -28.5z" />
    <glyph glyph-name="ogonek" unicode="&#x2db;" 
d="M224 0q-36 0 -58.5 -18.5t-22.5 -50.5q0 -66 81 -66q8 0 14 -6t6 -14v-35q0 -8 -6 -14t-14 -6q-74 0 -119 35t-45 101q0 67 51.5 108t112.5 41q8 0 14 -6t6 -14v-35q0 -8 -6 -14t-14 -6z" />
    <glyph glyph-name="tilde" unicode="&#x2dc;" 
d="M345 684q29 0 46 21q6 8 15.5 4t9.5 -18v-40q0 -20 -21 -35.5t-50 -15.5q-31 0 -68 12.5t-72 12.5q-28 0 -46 -21q-6 -8 -15.5 -3.5t-9.5 17.5v40q0 20 21 35.5t50 15.5q31 0 68 -12.5t72 -12.5z" />
    <glyph glyph-name="hungarumlaut" unicode="&#x2dd;" 
d="M214 730h79q9 0 12.5 -8t-1.5 -13l-108 -112q-12 -12 -30 -12h-40q-9 0 -13.5 7t-0.5 13l76 109q11 16 26 16zM384 730h79q9 0 12.5 -8t-1.5 -13l-108 -112q-12 -12 -30 -12h-40q-9 0 -13.5 7t-0.5 13l76 109q11 16 26 16z" />
    <glyph glyph-name="xsuperior" unicode="&#x2e3;" 
d="M273 418l-36 -67q-2 -5 -11 -5h-56q-7 0 -9.5 4.5t1.5 11.5l66 108q3 7 0 12l-58 98q-4 6 -1 11t10 5h51q6 0 11 -5l32 -60q3 -7 7 0l32 60q2 5 11 5h51q7 0 9.5 -5t-1.5 -11l-58 -99q-4 -7 0 -12l64 -106q4 -7 2 -12t-9 -5h-56q-9 0 -11 5l-35 68q-3 6 -6 -1z" />
    <glyph glyph-name="Delta" unicode="&#x394;" 
d="M503 0h-456q-8 0 -14 6t-6 14v51q0 11 7 29l190 585q4 15 19 15h64q15 0 19 -15l190 -585q7 -18 7 -29v-51q0 -8 -6 -14t-14 -6zM135 85h280q11 0 6 12l-139 483q-2 6 -6 6h-2q-4 0 -6 -6l-139 -483q-5 -12 6 -12z" />
    <glyph glyph-name="Omega" unicode="&#x3a9;" 
d="M412 102q-9 -5 -6.5 -13.5t13.5 -8.5h67q8 0 14 -6t6 -14v-40q0 -8 -6 -14t-14 -6h-166q-8 0 -14 6t-6 14v59q0 29 25 46q44 28 83.5 98t39.5 163q0 101 -43 169t-130 68t-129.5 -68t-42.5 -169q0 -93 39.5 -163t83.5 -98q25 -17 25 -46v-59q0 -8 -6 -14t-14 -6h-166
q-8 0 -14 6t-6 14v40q0 8 6 14t14 6h67q11 0 13.5 8t-5.5 13q-56 38 -89.5 121t-33.5 165q0 136 67 226t191 90t191.5 -90t67.5 -226q0 -82 -33 -164t-89 -121z" />
    <glyph glyph-name="mu" unicode="&#x3bc;" 
d="M265 -10q-35 0 -78 29q-7 5 -15.5 1.5t-8.5 -14.5v-186q0 -8 -6 -14t-14 -6h-48q-8 0 -14 6t-6 14v660q0 8 6 14t14 6h50q8 0 14 -6t6 -14v-300q0 -43 31.5 -71.5t78.5 -28.5t78.5 26t31.5 69v305q0 8 6 14t14 6h50q8 0 14 -6t6 -14v-460q0 -8 -6 -14t-14 -6h-44
q-7 0 -18.5 11.5t-20.5 11.5t-36.5 -16.5t-70.5 -16.5z" />
    <glyph glyph-name="pi" unicode="&#x3c0;" 
d="M500 410h-85q-10 0 -10 -10v-210q0 -41 29.5 -70.5t70.5 -29.5q8 0 14 -6t6 -14v-50q0 -8 -6 -14t-14 -6q-79 0 -134.5 55.5t-55.5 134.5v210q0 10 -8 10h-97q-10 0 -10 -10v-380q0 -8 -6 -14t-14 -6h-50q-8 0 -14 6t-6 14v380q0 10 -10 10h-60q-8 0 -14 6t-6 14v50
q0 8 6 14t14 6h460q8 0 14 -6t6 -14v-50q0 -8 -6 -14t-14 -6z" />
    <glyph glyph-name="Wgrave" unicode="&#x1e80;" 
d="M324 485l54 -305q1 -4 6 -4t6 4l45 505q1 15 19 15h49q22 0 20 -20l-72 -665q-1 -15 -19 -15h-91q-17 0 -19 15l-42 302q-1 6 -4 3q-2 -1 -2 -3l-56 -302q-3 -15 -19 -15h-91q-18 0 -19 15l-63 665q-2 20 20 20h49q18 0 19 -15l41 -505q1 -4 6 -4t6 4l61 305q3 15 19 15
h58q16 0 19 -15zM140 895h79q15 0 26 -16l76 -109q4 -6 -0.5 -13t-13.5 -7h-40q-18 0 -30 12l-108 112q-5 4 -1.5 12.5t12.5 8.5z" />
    <glyph glyph-name="wgrave" unicode="&#x1e81;" 
d="M257 390h36q15 0 19 -15l50 -188q2 -6 7 -6t7 6l45 298q3 15 19 15h49q11 0 16 -7t3 -16l-85 -462q-3 -15 -19 -15h-55q-15 0 -19 15l-49 195q-1 5 -6 5t-6 -5l-49 -195q-4 -15 -19 -15h-55q-16 0 -19 15l-85 462q-2 9 3 16t16 7h49q16 0 19 -15l45 -298q1 -6 6.5 -6
t7.5 6l50 188q4 15 19 15zM150 730h79q15 0 26 -16l76 -109q4 -6 -0.5 -13t-13.5 -7h-40q-18 0 -30 12l-108 112q-5 5 -1.5 13t12.5 8z" />
    <glyph glyph-name="Wacute" unicode="&#x1e82;" 
d="M324 485l54 -305q1 -4 6 -4t6 4l45 505q1 15 19 15h49q22 0 20 -20l-72 -665q-1 -15 -19 -15h-91q-17 0 -19 15l-42 302q-1 6 -4 3q-2 -1 -2 -3l-56 -302q-3 -15 -19 -15h-91q-18 0 -19 15l-63 665q-2 20 20 20h49q18 0 19 -15l41 -505q1 -4 6 -4t6 4l61 305q3 15 19 15
h58q16 0 19 -15zM330 895h79q9 0 12.5 -8.5t-1.5 -12.5l-108 -112q-12 -12 -30 -12h-40q-9 0 -13.5 7t-0.5 13l76 109q11 16 26 16z" />
    <glyph glyph-name="wacute" unicode="&#x1e83;" 
d="M257 390h36q15 0 19 -15l50 -188q2 -6 7 -6t7 6l45 298q3 15 19 15h49q11 0 16 -7t3 -16l-85 -462q-3 -15 -19 -15h-55q-15 0 -19 15l-49 195q-1 5 -6 5t-6 -5l-49 -195q-4 -15 -19 -15h-55q-16 0 -19 15l-85 462q-2 9 3 16t16 7h49q16 0 19 -15l45 -298q1 -6 6.5 -6
t7.5 6l50 188q4 15 19 15zM330 730h79q9 0 12.5 -8t-1.5 -13l-108 -112q-12 -12 -30 -12h-40q-9 0 -13.5 7t-0.5 13l76 109q11 16 26 16z" />
    <glyph glyph-name="Wdieresis" unicode="&#x1e84;" 
d="M324 485l54 -305q1 -4 6 -4t6 4l45 505q1 15 19 15h49q22 0 20 -20l-72 -665q-1 -15 -19 -15h-91q-17 0 -19 15l-42 302q-1 6 -4 3q-2 -1 -2 -3l-56 -302q-3 -15 -19 -15h-91q-18 0 -19 15l-63 665q-2 20 20 20h49q18 0 19 -15l41 -505q1 -4 6 -4t6 4l61 305q3 15 19 15
h58q16 0 19 -15zM239 835v-69q0 -16 -16 -16h-68q-16 0 -16 16v69q0 6 4.5 11t11.5 5h68q7 0 11.5 -5t4.5 -11zM410 835v-69q0 -16 -16 -16h-68q-16 0 -16 16v69q0 6 4.5 11t11.5 5h68q7 0 11.5 -5t4.5 -11z" />
    <glyph glyph-name="wdieresis" unicode="&#x1e85;" 
d="M257 390h36q15 0 19 -15l50 -188q2 -6 7 -6t7 6l45 298q3 15 19 15h49q11 0 16 -7t3 -16l-85 -462q-3 -15 -19 -15h-55q-15 0 -19 15l-49 195q-1 5 -6 5t-6 -5l-49 -195q-4 -15 -19 -15h-55q-16 0 -19 15l-85 462q-2 9 3 16t16 7h49q16 0 19 -15l45 -298q1 -6 6.5 -6
t7.5 6l50 188q4 15 19 15zM239 691v-69q0 -16 -16 -16h-68q-16 0 -16 16v69q0 6 4.5 11t11.5 5h68q7 0 11.5 -5t4.5 -11zM410 691v-69q0 -16 -16 -16h-68q-16 0 -16 16v69q0 6 4.5 11t11.5 5h68q7 0 11.5 -5t4.5 -11z" />
    <glyph glyph-name="Ygrave" unicode="&#x1ef2;" 
d="M280 374l111 311q5 15 19 15h66q10 0 15 -8.5t1 -19.5l-168 -431v-221q0 -8 -6 -14t-14 -6h-56q-8 0 -14 6t-6 14v220l-170 432q-4 11 1 19.5t15 8.5h66q14 0 19 -15l113 -311q4 -10 8 0zM140 895h79q15 0 26 -16l76 -109q4 -6 -0.5 -13t-13.5 -7h-40q-18 0 -30 12
l-108 112q-5 4 -1.5 12.5t12.5 8.5z" />
    <glyph glyph-name="ygrave" unicode="&#x1ef3;" 
d="M283 160l116 325q5 15 19 15h59q11 0 16.5 -7.5t2.5 -15.5l-254 -662q-5 -15 -19 -15h-54q-11 0 -16.5 7.5t-2.5 15.5l74 204q3 8 1 13l-172 437q-3 8 2.5 15.5t16.5 7.5h61q14 0 19 -15l123 -325q4 -10 8 0zM160 730h79q15 0 26 -16l76 -109q4 -6 -0.5 -13t-13.5 -7h-40
q-18 0 -30 12l-108 112q-5 5 -1.5 13t12.5 8z" />
    <glyph glyph-name="endash" unicode="&#x2013;" 
d="M95 308h360q8 0 14 -6t6 -14v-55q0 -8 -6 -14t-14 -6h-360q-8 0 -14 6t-6 14v55q0 8 6 14t14 6z" />
    <glyph glyph-name="emdash" unicode="&#x2014;" 
d="M50 308h450q8 0 14 -6t6 -14v-55q0 -8 -6 -14t-14 -6h-450q-8 0 -14 6t-6 14v55q0 8 6 14t14 6z" />
    <glyph glyph-name="quoteleft" unicode="&#x2018;" 
d="M303 570h17q8 0 14 -6t6 -14v-90q0 -8 -6 -14t-14 -6h-90q-8 0 -14 6t-6 14v90q0 34 20 62l52 73q10 15 26 15h14q14 0 19 -11t-1 -22l-46 -84q-3 -5 0.5 -9t8.5 -4z" />
    <glyph glyph-name="quoteright" unicode="&#x2019;" 
d="M248 570h-17q-8 0 -14 6t-6 14v90q0 8 6 14t14 6h90q8 0 14 -6t6 -14v-90q0 -34 -20 -62l-52 -73q-10 -15 -26 -15h-14q-14 0 -19 11t1 22l46 84q3 5 -0.5 9t-8.5 4z" />
    <glyph glyph-name="quotesinglbase" unicode="&#x201a;" 
d="M253 0h-17q-8 0 -14 6t-6 14v90q0 8 6 14t14 6h90q8 0 14 -6t6 -14v-90q0 -34 -20 -62l-52 -73q-10 -15 -26 -15h-14q-14 0 -19 11t1 22l46 84q3 5 -0.5 9t-8.5 4z" />
    <glyph glyph-name="quotedblleft" unicode="&#x201c;" 
d="M203 570h17q8 0 14 -6t6 -14v-90q0 -8 -6 -14t-14 -6h-90q-8 0 -14 6t-6 14v90q0 34 20 62l52 73q10 15 26 15h14q14 0 19 -11t-1 -22l-46 -84q-3 -5 0.5 -9t8.5 -4zM403 570h17q8 0 14 -6t6 -14v-90q0 -8 -6 -14t-14 -6h-90q-8 0 -14 6t-6 14v90q0 34 20 62l52 73
q10 15 26 15h14q14 0 19 -11t-1 -22l-46 -84q-3 -5 0.5 -9t8.5 -4z" />
    <glyph glyph-name="quotedblright" unicode="&#x201d;" 
d="M346 570h-17q-8 0 -14 6t-6 14v90q0 8 6 14t14 6h90q8 0 14 -6t6 -14v-90q0 -34 -20 -62l-52 -73q-10 -15 -26 -15h-14q-14 0 -19 11t1 22l46 84q3 5 -0.5 9t-8.5 4zM146 570h-17q-8 0 -14 6t-6 14v90q0 8 6 14t14 6h90q8 0 14 -6t6 -14v-90q0 -34 -20 -62l-52 -73
q-10 -15 -26 -15h-14q-14 0 -19 11t1 22l46 84q3 5 -0.5 9t-8.5 4z" />
    <glyph glyph-name="quotedblbase" unicode="&#x201e;" 
d="M354 0h-17q-8 0 -14 6t-6 14v90q0 8 6 14t14 6h90q8 0 14 -6t6 -14v-90q0 -34 -20 -62l-52 -73q-10 -15 -26 -15h-14q-14 0 -19 11t1 22l46 84q3 5 -0.5 9t-8.5 4zM154 0h-17q-8 0 -14 6t-6 14v90q0 8 6 14t14 6h90q8 0 14 -6t6 -14v-90q0 -34 -20 -62l-52 -73
q-10 -15 -26 -15h-14q-14 0 -19 11t1 22l46 84q3 5 -0.5 9t-8.5 4z" />
    <glyph glyph-name="dagger" unicode="&#x2020;" 
d="M321 390v-490q0 -8 -6 -14t-14 -6h-50q-8 0 -14 6t-6 14v490q0 10 -10 10h-130q-8 0 -14 6t-6 14v50q0 8 6 14t14 6h130q10 0 10 10v180q0 8 6 14t14 6h50q8 0 14 -6t6 -14v-180q0 -10 10 -10h130q8 0 14 -6t6 -14v-50q0 -8 -6 -14t-14 -6h-130q-10 0 -10 -10z" />
    <glyph glyph-name="daggerdbl" unicode="&#x2021;" 
d="M223 168h-138q-8 0 -14 6t-6 14v48q0 8 6 14t14 6h138q10 0 10 10v168q0 10 -10 10h-138q-8 0 -14 6t-6 14v48q0 8 6 14t14 6h138q10 0 10 10v138q0 8 6 14t14 6h44q8 0 14 -6t6 -14v-138q0 -10 10 -10h138q8 0 14 -6t6 -14v-48q0 -8 -6 -14t-14 -6h-138q-10 0 -10 -10
v-168q0 -10 10 -10h138q8 0 14 -6t6 -14v-48q0 -8 -6 -14t-14 -6h-138q-10 0 -10 -10v-138q0 -8 -6 -14t-14 -6h-44q-8 0 -14 6t-6 14v138q0 10 -10 10z" />
    <glyph glyph-name="bullet" unicode="&#x2022;" 
d="M385 385v-180q0 -8 -6 -14t-14 -6h-180q-8 0 -14 6t-6 14v180q0 8 6 14t14 6h180q8 0 14 -6t6 -14z" />
    <glyph glyph-name="ellipsis" unicode="&#x2026;" 
d="M153 113v-93q0 -8 -6 -14t-14 -6h-83q-8 0 -14 6t-6 14v93q0 8 6 14t14 6h83q8 0 14 -6t6 -14zM519 113v-93q0 -8 -6 -14t-14 -6h-83q-8 0 -14 6t-6 14v93q0 8 6 14t14 6h83q8 0 14 -6t6 -14zM336 113v-93q0 -8 -6 -14t-14 -6h-83q-8 0 -14 6t-6 14v93q0 8 6 14t14 6h83
q8 0 14 -6t6 -14z" />
    <glyph glyph-name="perthousand" unicode="&#x2030;" 
d="M381 672l-266 -657q-6 -15 -21 -15h-27q-10 0 -15 8.5t-1 19.5l264 657q7 15 22 15h28q10 0 15 -9t1 -19zM289 150q0 -74 36 -74t36 74t-36 74t-36 -74zM218 150q0 140 107 140t107 -140t-107 -140t-107 140zM73 550q0 -74 36 -74t36 74t-36 74t-36 -74zM2 550
q0 140 107 140t107 -140t-107 -140t-107 140zM405 440q0 -74 36 -74t36 74t-36 74t-36 -74zM334 440q0 140 107 140t107 -140t-107 -140t-107 140z" />
    <glyph glyph-name="guilsinglleft" unicode="&#x2039;" 
d="M205 274l96 161q9 15 25 15h45q15 0 19.5 -8.5t-3.5 -24.5l-85 -145q-8 -11 0 -24l85 -145q8 -16 3.5 -24.5t-19.5 -8.5h-45q-16 0 -25 15l-96 161q-9 14 0 28z" />
    <glyph glyph-name="guilsinglright" unicode="&#x203a;" 
d="M249 435l96 -161q9 -14 0 -28l-96 -161q-9 -15 -25 -15h-45q-15 0 -19.5 8.5t3.5 24.5l85 145q8 13 0 24l-85 145q-8 16 -3.5 24.5t19.5 8.5h45q16 0 25 -15z" />
    <glyph glyph-name="fraction" unicode="&#x2044;" horiz-adv-x="0" 
d="M195 672l-326 -657q-7 -15 -21 -15h-27q-10 0 -15.5 9t-0.5 19l324 657q7 15 22 15h28q10 0 15.5 -9t0.5 -19z" />
    <glyph glyph-name="zerosuperior" unicode="&#x2070;" 
d="M162 590q5 47 36.5 79.5t75.5 32.5q45 0 76.5 -33t36.5 -79q8 -69 0 -138q-5 -47 -36.5 -79.5t-76.5 -32.5q-44 0 -75.5 33t-36.5 79q-8 68 0 138zM274 628q-15 0 -24.5 -10.5t-11.5 -25.5q-8 -71 0 -142q2 -16 12 -26t24 -10q15 0 25 10.5t12 25.5q8 71 0 142
q-1 16 -12 26t-25 10z" />
    <glyph glyph-name="foursuperior" unicode="&#x2074;" 
d="M364 476h17q10 0 10 -10v-48q0 -10 -10 -10h-17q-5 0 -5 -5v-47q0 -10 -10 -10h-51q-10 0 -10 10v47q0 5 -5 5h-114q-10 0 -10 10v59q0 6 8 20l112 192q3 7 10 7h60q10 0 10 -10v-205q0 -5 5 -5zM282 576l-50 -94q-4 -6 4 -6h47q5 0 5 5v93q0 3 -2 3.5t-4 -1.5z" />
    <glyph glyph-name="fivesuperior" unicode="&#x2075;" 
d="M362 622h-117q-5 0 -5 -5v-39q0 -10 9 -5q12 8 29 8q49 0 78.5 -32.5t30.5 -86.5q1 -49 -29.5 -85.5t-83.5 -36.5q-49 0 -81 25.5t-32 76.5q0 10 10 10h52q10 0 10 -10q0 -28 41 -28q40 0 40 48q0 51 -40 51q-20 0 -30 -12q-6 -6 -13 -6h-54q-10 0 -10 10v181q0 10 10 10
h185q10 0 10 -10v-54q0 -10 -10 -10z" />
    <glyph glyph-name="sixsuperior" unicode="&#x2076;" 
d="M239 444q1 -16 11.5 -25.5t25.5 -9.5q16 0 25.5 9.5t11.5 25.5q1 14 0 28q-2 17 -12 27.5t-25 10.5t-25 -11t-12 -27q-1 -14 0 -28zM280 636q-25 0 -37.5 -15.5t-12.5 -39.5q0 -9 13 -7q24 4 37 4q44 0 74.5 -31.5t32.5 -76.5q1 -11 0 -24q-2 -45 -32.5 -75.5
t-75.5 -30.5q-47 0 -78.5 31.5t-36.5 78.5q-8 71 0 142q5 47 36.5 78.5t77.5 31.5q48 0 77.5 -28t29.5 -71q0 -10 -10 -10h-39q-12 0 -15 10q-10 33 -41 33z" />
    <glyph glyph-name="sevensuperior" unicode="&#x2077;" 
d="M189 358l117 260q2 5 -4 5h-125q-10 0 -10 10v53q0 10 10 10h195q10 0 10 -10v-67q0 -3 -3 -10l-112 -255q-3 -8 -9 -8h-60q-14 0 -9 12z" />
    <glyph glyph-name="eightsuperior" unicode="&#x2078;" 
d="M275 412q20 0 32.5 11t12.5 28q0 18 -12.5 30t-32.5 12t-32 -12t-12 -30q0 -17 12 -28t32 -11zM275 557q17 0 28.5 11t11.5 27q0 15 -11.5 25t-28.5 10t-28 -10t-11 -25q0 -16 11.5 -27t27.5 -11zM275 702q46 0 78.5 -31.5t32.5 -75.5q0 -40 -20 -64q-5 -6 0 -11
q24 -25 24 -69q0 -47 -33 -79t-82 -32q-48 0 -81.5 32.5t-33.5 78.5q0 39 24 69q3 4 -1 11q-19 26 -19 64q0 44 32.5 75.5t78.5 31.5z" />
    <glyph glyph-name="ninesuperior" unicode="&#x2079;" 
d="M311 598q-1 16 -11.5 25.5t-25.5 9.5q-16 0 -25.5 -9.5t-11.5 -25.5q-1 -14 0 -28q2 -17 12 -27.5t25 -10.5t25 11t12 27q1 14 0 28zM270 406q25 0 37.5 15.5t12.5 39.5q0 9 -13 7q-24 -4 -37 -4q-44 0 -74.5 31.5t-32.5 76.5q-1 11 0 24q2 45 32.5 75.5t75.5 30.5
q47 0 78.5 -31.5t36.5 -78.5q8 -71 0 -142q-5 -47 -36.5 -78.5t-77.5 -31.5q-48 0 -77.5 28t-29.5 71q0 10 10 10h39q12 0 15 -10q10 -33 41 -33z" />
    <glyph glyph-name="plussuperior" unicode="&#x207a;" 
d="M175 506h60q5 0 5 5v60q0 10 10 10h49q10 0 10 -10v-60q0 -5 5 -5h61q10 0 10 -10v-49q0 -10 -10 -10h-61q-5 0 -5 -5v-61q0 -10 -10 -10h-49q-10 0 -10 10v61q0 5 -5 5h-60q-10 0 -10 10v49q0 10 10 10z" />
    <glyph glyph-name="minussuperior" unicode="&#x207b;" 
d="M170 511h209q10 0 10 -10v-49q0 -10 -10 -10h-209q-10 0 -10 10v49q0 10 10 10z" />
    <glyph glyph-name="equalsuperior" unicode="&#x207c;" 
d="M375 488h-200q-10 0 -10 10v48q0 10 10 10h200q10 0 10 -10v-48q0 -10 -10 -10zM375 386h-200q-10 0 -10 10v48q0 10 10 10h200q10 0 10 -10v-48q0 -10 -10 -10z" />
    <glyph glyph-name="parenleftsuperior" unicode="&#x207d;" 
d="M311 370h33q10 0 10 -10v-49q0 -10 -10 -10h-33q-45 0 -75.5 28.5t-36.5 76.5q-4 30 -4 97.5t4 97.5q6 43 36 74t76 31h34q10 0 10 -10v-49q0 -10 -10 -10h-34q-35 0 -42 -36q-6 -31 -6 -97.5t6 -97.5q6 -36 42 -36z" />
    <glyph glyph-name="parenrightsuperior" unicode="&#x207e;" 
d="M206 370h33q36 0 42 36q6 31 6 97.5t-6 97.5q-7 36 -42 36h-34q-10 0 -10 10v49q0 10 10 10h34q46 0 76 -31t36 -74q4 -30 4 -97.5t-4 -97.5q-6 -48 -36.5 -76.5t-75.5 -28.5h-33q-10 0 -10 10v49q0 10 10 10z" />
    <glyph glyph-name="nsuperior" unicode="&#x207f;" 
d="M231 584q5 0 22 9t33 9q39 0 65.5 -27t26.5 -66v-153q0 -10 -10 -10h-50q-10 0 -10 10v154q0 24 -33 24q-16 0 -24.5 -6.5t-8.5 -15.5v-156q0 -10 -10 -10h-50q-10 0 -10 10v230q0 10 10 10h26q5 0 12 -7q5 -5 11 -5z" />
    <glyph glyph-name="zeroinferior" unicode="&#x2080;" 
d="M162 62q5 47 36.5 79.5t75.5 32.5q45 0 76.5 -33t36.5 -79q8 -69 0 -138q-5 -47 -36.5 -79.5t-76.5 -32.5q-44 0 -75.5 33t-36.5 79q-8 68 0 138zM274 100q-15 0 -24.5 -10.5t-11.5 -25.5q-8 -71 0 -142q2 -16 12 -26t24 -10q15 0 25 10.5t12 25.5q8 71 0 142
q-1 16 -12 26t-25 10z" />
    <glyph glyph-name="oneinferior" unicode="&#x2081;" 
d="M246 -104v166q0 5 -4 6.5t-6 -1.5l-58 -52q-5 -5 -12 -1.5t-7 11.5v50q0 14 8 22l54 57q14 14 29 14h62q10 0 10 -10v-262q0 -5 5 -5h54q10 0 10 -10v-53q0 -10 -10 -10h-209q-10 0 -10 10v53q0 10 10 10h69q5 0 5 5z" />
    <glyph glyph-name="twoinferior" unicode="&#x2082;" 
d="M312 68q0 14 -9 23.5t-24 9.5q-39 0 -39 -33v-9q0 -10 -10 -10h-53q-10 0 -10 10v8q0 45 32.5 76t77.5 31t76.5 -31t31.5 -76q0 -37 -29 -68l-94 -97q-3 -2 -2 -6.5t7 -4.5h107q10 0 10 -10v-53q0 -10 -10 -10h-200q-10 0 -10 10v66q0 8 4 12l134 139q10 10 10 23z" />
    <glyph glyph-name="threeinferior" unicode="&#x2083;" 
d="M315 -77q0 18 -11.5 27.5t-28.5 9.5h-6q-10 0 -10 10v52q0 10 10 10h6q16 0 26 9t10 25t-10 25.5t-26 9.5t-26 -9.5t-10 -25.5v-7q0 -10 -10 -10h-53q-10 0 -10 10v7q0 45 32 76.5t77 31.5t77 -31.5t32 -76.5q0 -34 -26 -64q-5 -5 0 -8q30 -24 30 -71q0 -46 -33 -78.5
t-80 -32.5t-80 32.5t-33 78.5v6q0 10 10 10h53q10 0 10 -10v-6q0 -38 40 -38t40 38z" />
    <glyph glyph-name="fourinferior" unicode="&#x2084;" 
d="M364 -52h17q10 0 10 -10v-48q0 -10 -10 -10h-17q-5 0 -5 -5v-47q0 -10 -10 -10h-51q-10 0 -10 10v47q0 5 -5 5h-114q-10 0 -10 10v59q0 6 8 20l112 192q3 7 10 7h60q10 0 10 -10v-205q0 -5 5 -5zM282 48l-50 -94q-4 -6 4 -6h47q5 0 5 5v93q0 3 -2 3.5t-4 -1.5z" />
    <glyph glyph-name="fiveinferior" unicode="&#x2085;" 
d="M362 94h-117q-5 0 -5 -5v-39q0 -10 9 -5q12 8 29 8q49 0 78.5 -32.5t30.5 -86.5q1 -49 -29.5 -85.5t-83.5 -36.5q-49 0 -81 25.5t-32 76.5q0 10 10 10h52q10 0 10 -10q0 -28 41 -28q40 0 40 48q0 51 -40 51q-20 0 -30 -12q-6 -6 -13 -6h-54q-10 0 -10 10v181q0 10 10 10
h185q10 0 10 -10v-54q0 -10 -10 -10z" />
    <glyph glyph-name="sixinferior" unicode="&#x2086;" 
d="M239 -84q1 -16 11.5 -25.5t25.5 -9.5q16 0 25.5 9.5t11.5 25.5q1 14 0 28q-2 17 -12 27.5t-25 10.5t-25 -11t-12 -27q-1 -14 0 -28zM280 103q-38 0 -46 -26q-4 -12 -4 -24q0 -9 13 -7q24 4 37 4q44 0 74.5 -31.5t32.5 -76.5q1 -11 0 -24q-2 -45 -32.5 -75.5t-75.5 -30.5
q-47 0 -78.5 31.5t-36.5 78.5q-8 71 0 142q5 47 36.5 78.5t77.5 31.5q48 0 80 -28.5t32 -70.5q0 -10 -10 -10h-44q-12 0 -15 10q-9 28 -41 28z" />
    <glyph glyph-name="seveninferior" unicode="&#x2087;" 
d="M189 -170l117 260q2 5 -4 5h-125q-10 0 -10 10v53q0 10 10 10h195q10 0 10 -10v-67q0 -3 -3 -10l-112 -255q-3 -8 -9 -8h-60q-14 0 -9 12z" />
    <glyph glyph-name="eightinferior" unicode="&#x2088;" 
d="M275 -116q20 0 32.5 10.5t12.5 28.5t-12.5 30t-32.5 12t-32 -12t-12 -30t12 -28.5t32 -10.5zM275 29q17 0 28.5 11t11.5 26q0 16 -11.5 26t-28.5 10t-28 -10t-11 -26q0 -15 11.5 -26t27.5 -11zM275 174q46 0 78.5 -31.5t32.5 -76.5q0 -39 -20 -63q-5 -6 0 -11
q24 -25 24 -69q0 -47 -33 -79t-82 -32q-48 0 -81.5 32.5t-33.5 78.5q0 39 24 69q3 4 -1 11q-19 26 -19 63q0 45 32.5 76.5t78.5 31.5z" />
    <glyph glyph-name="nineinferior" unicode="&#x2089;" 
d="M311 70q-1 16 -11.5 25.5t-25.5 9.5q-16 0 -25.5 -9.5t-11.5 -25.5q-1 -14 0 -28q2 -17 12 -27.5t25 -10.5t25 11t12 27q1 14 0 28zM270 -117q38 0 46 26q4 12 4 24q0 9 -13 7q-24 -4 -37 -4q-44 0 -74.5 31.5t-32.5 76.5q-1 11 0 24q2 45 32.5 75.5t75.5 30.5
q47 0 78.5 -31.5t36.5 -78.5q8 -71 0 -142q-5 -47 -36.5 -78.5t-77.5 -31.5q-48 0 -80 28.5t-32 70.5q0 10 10 10h44q12 0 15 -10q9 -28 41 -28z" />
    <glyph glyph-name="parenleftinferior" unicode="&#x208d;" 
d="M311 -158h33q10 0 10 -10v-49q0 -10 -10 -10h-33q-45 0 -75.5 28.5t-36.5 76.5q-4 30 -4 97.5t4 97.5q6 44 35.5 74.5t76.5 30.5h34q10 0 10 -10v-49q0 -10 -10 -10h-34q-35 0 -42 -36q-6 -31 -6 -97.5t6 -97.5q6 -36 42 -36z" />
    <glyph glyph-name="parenrightinferior" unicode="&#x208e;" 
d="M206 -158h33q36 0 42 36q6 31 6 97.5t-6 97.5q-7 36 -42 36h-34q-10 0 -10 10v49q0 10 10 10h34q46 0 76 -31t36 -74q4 -30 4 -97.5t-4 -97.5q-6 -48 -36.5 -76.5t-75.5 -28.5h-33q-10 0 -10 10v49q0 10 10 10z" />
    <glyph glyph-name="Euro" unicode="&#x20ac;" 
d="M171 332q0 -4 2.5 -6.5t7 -3t8 -1t10 0t8.5 0.5h142q8 0 14 -6t6 -14v-42q0 -7 -2.5 -11.5t-9.5 -6.5t-10.5 -2.5t-14 0t-11.5 0.5h-138q-7 0 -7 -9q0 -65 33 -104.5t100 -39.5q53 0 91.5 30.5t38.5 82.5q0 34 20 34h55q8 0 14 -6t6 -14q0 -92 -61 -157t-164 -65
q-105 0 -166.5 68.5t-61.5 170.5q0 9 -10 9h-32q-8 0 -14 6t-6 14v42q0 8 6 14t14 6h29q8 0 8 8v57q0 7 -7 7h-30q-8 0 -14 6t-6 14v42q0 8 6 14t14 6h34q9 0 9 7q0 99 64 162t163 63t162 -60t63 -162q0 -8 -6 -14t-14 -6h-55q-8 0 -14 6t-6 14q0 54 -33 90t-97 37
q-55 0 -93.5 -31.5t-38.5 -98.5q0 -3 2 -5t6.5 -2.5t8 -0.5t8.5 0.5t7 0.5h140q8 0 14 -6t6 -14v-42q0 -6 -2.5 -10t-6 -6t-10 -3t-10 -1h-11h-9.5h-142q-7 0 -7 -8v-54z" />
    <glyph glyph-name="afii61289" unicode="&#x2113;" 
d="M128 272h-48q-8 0 -14 6t-6 14v50q0 8 6 14t14 6h48v148q0 80 53.5 135t131.5 55t129 -55t51 -135q0 -92 -73.5 -155.5t-196.5 -76.5v-53q0 -78 35.5 -111.5t120.5 -33.5h36q8 0 14 -6t6 -14v-50q0 -8 -6 -14t-14 -6h-36q-133 0 -192 57.5t-59 175.5v49zM223 510v-143
q81 9 128 45t47 98q0 42 -23 71t-62 29t-64.5 -29.5t-25.5 -70.5z" />
    <glyph glyph-name="afii61352" unicode="&#x2116;" 
d="M127 683l67 -383q0 -2 2 -2.5t4 1t2 3.5v378q0 8 6 14t14 6h31q8 0 14 -6t6 -14v-660q0 -8 -6 -14t-14 -6h-63q-19 0 -21 17l-67 405q0 2 -2 2.5t-4 -1t-2 -3.5v-400q0 -8 -6 -14t-14 -6h-31q-8 0 -14 6t-6 14v660q0 8 6 14t14 6h63q18 0 21 -17zM498 0h-154q-8 0 -14 6
t-6 14v43q0 8 6 14t14 6h154q8 0 14 -6t6 -14v-43q0 -8 -6 -14t-14 -6zM419 322q-36 0 -44 -32q-5 -21 0 -50q7 -30 44 -30t44 30q5 29 0 50q-8 32 -44 32zM419 399q101 0 113 -98q5 -30 0 -71q-6 -48 -38.5 -72.5t-74.5 -24.5t-74.5 24.5t-38.5 72.5q-5 41 0 71
q12 98 113 98z" />
    <glyph glyph-name="trademark" unicode="&#x2122;" 
d="M90 632h-66q-10 0 -10 10v48q0 10 10 10h210q10 0 10 -10v-48q0 -10 -10 -10h-66q-5 0 -5 -26v-246q0 -10 -10 -10h-48q-10 0 -10 10v267q0 5 -5 5zM363 691l29 -124q1 -1 2.5 -1t2.5 1l30 124q1 9 10 9h70q10 0 10 -10v-330q0 -10 -10 -10h-44q-10 0 -10 10v241
q0 2 -2 2.5t-3 -1.5l-30 -119q-3 -8 -10 -8h-26q-9 0 -11 8l-29 119q-2 4 -5 -1v-241q0 -10 -10 -10h-44q-10 0 -10 10v330q0 10 10 10h69q10 0 11 -9z" />
    <glyph glyph-name="uni2126" unicode="&#x2126;" 
d="M412 102q-9 -5 -6.5 -13.5t13.5 -8.5h67q8 0 14 -6t6 -14v-40q0 -8 -6 -14t-14 -6h-166q-8 0 -14 6t-6 14v59q0 29 25 46q44 28 83.5 98t39.5 163q0 101 -43 169t-130 68t-129.5 -68t-42.5 -169q0 -93 39.5 -163t83.5 -98q25 -17 25 -46v-59q0 -8 -6 -14t-14 -6h-166
q-8 0 -14 6t-6 14v40q0 8 6 14t14 6h67q11 0 13.5 8t-5.5 13q-56 38 -89.5 121t-33.5 165q0 136 67 226t191 90t191.5 -90t67.5 -226q0 -82 -33 -164t-89 -121z" />
    <glyph glyph-name="estimated" unicode="&#x212e;" 
d="M286 80q46 0 79.5 17.5t43.5 45.5q7 17 23 17h46q18 0 17 -20q-7 -65 -65.5 -107.5t-143.5 -42.5q-129 0 -191.5 96.5t-36.5 286.5q15 105 75.5 156t152.5 51q45 0 82 -12t69 -39t49.5 -76.5t17.5 -118.5v-63q0 -8 -6 -14t-14 -6h-329q-10 0 -10 -10q14 -161 141 -161z
M148 362l-2 -21q0 -10 10 -10h248q4 0 6.5 2t3 6t1 7t0 8.5t-0.5 7.5q0 68 -37 103t-93 35q-55 0 -92.5 -34t-43.5 -104z" />
    <glyph glyph-name="arrowleft" unicode="&#x2190;" 
d="M178 296h322q8 0 14 -6t6 -14v-47q0 -7 -6 -13.5t-14 -6.5h-324l94 -94q12 -13 12 -25v-65q0 -9 -8 -13t-16 3l-225 225q-12 12 1 27l217 217q9 9 20 3.5t11 -17.5v-62q0 -8 -15 -23z" />
    <glyph glyph-name="arrowup" unicode="&#x2191;" 
d="M229 20v382l-89 -89q-15 -15 -23 -15h-62q-12 0 -17.5 11t3.5 20l217 217q15 13 27 1l225 -225q7 -8 3 -16t-13 -8h-65q-11 0 -25 12l-94 94v-384q0 -8 -6 -14t-14 -6h-47q-7 0 -13.5 6t-6.5 14z" />
    <glyph glyph-name="arrowright" unicode="&#x2192;" 
d="M29 276q0 8 6.5 14t13.5 6h322l-89 89q-15 15 -15 23v62q0 12 11 17.5t20 -3.5l217 -217q13 -15 1 -27l-225 -225q-7 -7 -15.5 -3t-8.5 13v65q0 12 12 25l94 94h-324q-7 0 -13.5 6.5t-6.5 13.5v47z" />
    <glyph glyph-name="arrowdown" unicode="&#x2193;" 
d="M229 129v382q0 7 6.5 13.5t13.5 6.5h47q8 0 14 -6.5t6 -13.5v-384l94 94q14 12 25 12h65q9 0 13 -8.5t-3 -15.5l-225 -225q-12 -12 -27 1l-217 217q-9 9 -3.5 20t17.5 11h62q8 0 23 -15z" />
    <glyph glyph-name="uni2196" unicode="&#x2196;" 
d="M221 376l271 -271q12 -14 0 -28l-33 -33q-15 -13 -28 0l-270 270v-126q0 -21 -6 -27l-44 -44q-8 -9 -19.5 -4.5t-11.5 16.5v307q0 20 18 20h318q10 0 13 -9t-3 -15l-46 -46q-9 -9 -26 -9z" />
    <glyph glyph-name="uni2197" unicode="&#x2197;" 
d="M66 105l271 271l-133 1q-17 0 -26 9l-46 46q-6 6 -3 15t13 9h318q18 0 18 -20v-307q0 -12 -11.5 -16.5t-19.5 4.5l-44 44q-6 6 -6 27v126l-270 -270q-13 -13 -28 0l-33 33q-12 14 0 28z" />
    <glyph glyph-name="uni2198" unicode="&#x2198;" 
d="M337 127l-271 271q-12 14 0 28l33 33q14 12 28 0l270 -270v126q0 21 6 27l44 44q8 9 19.5 4.5t11.5 -16.5v-307q0 -20 -18 -20h-318q-10 0 -13 9t3 15l46 46q9 9 26 9z" />
    <glyph glyph-name="uni2199" unicode="&#x2199;" 
d="M502 398l-271 -271l133 -1q17 0 26 -9l46 -46q6 -6 3 -15t-13 -9h-318q-18 0 -18 20v307q0 12 11.5 16.5t19.5 -4.5l44 -44q6 -6 6 -27v-126l270 270q14 12 28 0l33 -33q12 -14 0 -28z" />
    <glyph glyph-name="partialdiff" unicode="&#x2202;" 
d="M266 80q50 0 81 29t34 71q5 28 1.5 61.5t-11.5 62t-35 47.5t-70 19q-62 0 -89.5 -38t-27.5 -94q-2 -39 4.5 -71.5t35 -59.5t77.5 -27zM225 610h-36q-8 0 -14 6t-6 14v50q0 8 6 14t14 6h36q187 0 230 -228q26 -151 11 -292q-9 -83 -61.5 -136.5t-138.5 -53.5
q-87 0 -143 54.5t-62 135.5q-3 45 0 90q6 81 62 135.5t143 54.5q45 0 87 -24q4 -2 6.5 -2t3.5 1.5t1 4.5q-7 78 -42 124t-97 46z" />
    <glyph glyph-name="uni2206" unicode="&#x2206;" 
d="M503 0h-456q-8 0 -14 6t-6 14v51q0 11 7 29l190 585q4 15 19 15h64q15 0 19 -15l190 -585q7 -18 7 -29v-51q0 -8 -6 -14t-14 -6zM135 85h280q11 0 6 12l-139 483q-2 6 -6 6h-2q-4 0 -6 -6l-139 -483q-5 -12 6 -12z" />
    <glyph glyph-name="product" unicode="&#x220f;" 
d="M393 -180v778q0 10 -10 10h-216q-10 0 -10 -10v-778q0 -8 -6 -14t-14 -6h-52q-8 0 -14 6t-6 14v860q0 8 6 14t14 6h380q8 0 14 -6t6 -14v-860q0 -8 -6 -14t-14 -6h-52q-8 0 -14 6t-6 14z" />
    <glyph glyph-name="summation" unicode="&#x2211;" 
d="M256 270l-175 320q-9 22 -9 30v60q0 8 6 14t14 6h373q8 0 14 -6t6 -14v-51q0 -8 -6 -14t-14 -6h-270q-7 0 -9.5 -4t0.5 -8l172 -317q11 -20 0 -40l-182 -336q-1 -3 -1 -5.5t3 -5t7 -2.5h282q8 0 14 -6t6 -14v-51q0 -8 -6 -14t-14 -6h-385q-8 0 -14 6t-6 14v60q0 8 9 30
l185 339q6 11 0 21z" />
    <glyph glyph-name="minus" unicode="&#x2212;" 
d="M85 308h380q8 0 14 -6t6 -14v-55q0 -8 -6 -14t-14 -6h-380q-8 0 -14 6t-6 14v55q0 8 6 14t14 6z" />
    <glyph glyph-name="radical" unicode="&#x221a;" 
d="M448 860h163q8 0 14 -6t6 -14v-30q0 -8 -6 -14t-14 -6h-117l-230 -775q-4 -15 -19 -15h-56q-15 0 -19 15l-118 371q-3 8 2.5 16t16.5 8h45q15 0 19 -15l75 -268q2 -6 6 -6h2q4 0 6 6l205 718q4 15 19 15z" />
    <glyph glyph-name="infinity" unicode="&#x221e;" 
d="M455 259q0 39 -13.5 62t-35.5 23q-19 0 -39.5 -21.5t-30.5 -42.5l-11 -21q4 -10 11.5 -24t29 -37.5t40.5 -23.5q22 0 35.5 23t13.5 62zM287 336q14 36 45.5 64t72.5 28q60 0 94.5 -46.5t34.5 -122.5t-34.5 -123t-94.5 -47q-67 0 -118 92q-5 8 -11 7.5t-9 -7.5
q-46 -92 -118 -92q-60 0 -94.5 47t-34.5 123t34.5 122.5t94.5 46.5q73 0 118 -92q4 -7 10.5 -7t9.5 7zM99 259q0 -39 13.5 -62t35.5 -23q19 0 39.5 21t30.5 43l11 21q-4 9 -11.5 23t-29 38t-40.5 24q-22 0 -35.5 -23t-13.5 -62z" />
    <glyph glyph-name="integral" unicode="&#x222b;" 
d="M230 -23v553q0 78 52.5 127.5t132.5 49.5h50q8 0 14 -6t6 -14v-47q0 -8 -6 -14t-14 -6h-50q-40 0 -67.5 -26t-27.5 -64v-553q0 -78 -52.5 -127.5t-132.5 -49.5h-50q-8 0 -14 6t-6 14v47q0 8 6 14t14 6h50q40 0 67.5 26t27.5 64z" />
    <glyph glyph-name="approxequal" unicode="&#x2248;" 
d="M161 315q-17 0 -35.5 -8t-26.5 -18q-5 -6 -12 -8t-12 3t-5 14v50q0 27 26.5 44t64.5 17q51 0 112 -22.5t116 -22.5q17 0 35.5 8t26.5 18q5 6 12 8t12 -3t5 -14v-50q0 -27 -26.5 -44t-64.5 -17q-51 0 -112 22.5t-116 22.5zM161 130q-17 0 -35.5 -8t-26.5 -18q-5 -6 -12 -8
t-12 3t-5 14v50q0 27 26.5 44t64.5 17q51 0 112 -22.5t116 -22.5q17 0 35.5 8t26.5 18q5 6 12 8t12 -3t5 -14v-50q0 -27 -26.5 -44t-64.5 -17q-51 0 -112 22.5t-116 22.5z" />
    <glyph glyph-name="notequal" unicode="&#x2260;" 
d="M309 204h166q8 0 14 -6t6 -14v-52q0 -8 -6 -14t-14 -6h-227q-9 0 -14 -7l-42 -62q-10 -15 -24 -15h-49q-10 0 -16 9t0 19l33 49q5 7 -5 7h-56q-8 0 -14 6t-6 14v52q0 8 6 14t14 6h117q9 0 14 7l54 78q5 7 -5 7h-180q-8 0 -14 6t-6 14v52q0 8 6 14t14 6h242q9 0 14 7
l47 68q10 15 19 15h52q10 0 16 -9t0 -19l-38 -55q-5 -7 5 -7h43q8 0 14 -6t6 -14v-52q0 -8 -6 -14t-14 -6h-104q-9 0 -14 -7l-53 -78q-5 -7 5 -7z" />
    <glyph glyph-name="lessequal" unicode="&#x2264;" 
d="M178 416l267 -146q15 -9 15 -21v-60q0 -11 -8 -17t-15 -2l-362 204q-15 8 -15 22v49q0 14 15 22l362 203q7 4 15 -2t8 -17v-60q0 -12 -15 -21l-234 -128l-9 -4.5t-10.5 -5.5t-9.5 -6t-6 -5.5t2 -4.5zM78 92h394q8 0 14 -6t6 -14v-52q0 -8 -6 -14t-14 -6h-394q-8 0 -14 6
t-6 14v52q0 8 6 14t14 6z" />
    <glyph glyph-name="greaterequal" unicode="&#x2265;" 
d="M105 270l267 146q8 4 0 8l-267 146q-15 9 -15 21v60q0 11 8 17t15 2l362 -203q15 -8 15 -22v-49q0 -14 -15 -22l-362 -204q-7 -4 -15 2t-8 17v60q0 12 15 21zM78 92h394q8 0 14 -6t6 -14v-52q0 -8 -6 -14t-14 -6h-394q-8 0 -14 6t-6 14v52q0 8 6 14t14 6z" />
    <glyph glyph-name="lozenge" unicode="&#x25ca;" 
d="M525 348l-204 -332q-8 -15 -22 -15h-49q-14 0 -22 15l-203 332q-3 6 0 13l203 332q8 15 22 15h49q14 0 22 -15l204 -332q3 -8 0 -13zM424 354l-145 236q-4 8 -8 0l-145 -236l145 -235q4 -8 8 0z" />
    <glyph glyph-name="commaaccent" unicode="&#xf6c3;" 
d="M247 -146h-7q-8 0 -14 6t-6 14v61q0 8 6 14t14 6h70q8 0 14 -6t6 -14v-61q0 -34 -20 -62l-32 -46q-10 -15 -26 -15h-9q-14 0 -19 11t1 22l31 57q3 5 -0.5 9t-8.5 4z" />
    <glyph glyph-name="asuperior" unicode="&#xf6e9;" 
d="M307 446h-50q-22 0 -22 -23t30 -23q47 0 47 30v11q0 5 -5 5zM274 541q-27 0 -32 -17q-3 -9 -14 -9h-39q-10 0 -10 10q0 31 26.5 54t71.5 23q47 0 74.5 -25t27.5 -68v-153q0 -10 -10 -10h-27q-4 0 -7 4q-1 1 -2 3l-1.5 3t-2.5 2t-4 1q-1 0 -19.5 -9.5t-40.5 -9.5
q-44 0 -69.5 22t-25.5 62q0 28 23 53t64 25h48q5 0 5 5v6q0 28 -36 28z" />
    <glyph glyph-name="bsuperior" unicode="&#xf6ea;" 
d="M274 408q30 0 32 25q2 38 0 76q-2 25 -32 25q-32 0 -33 -25q-4 -38 0 -76q2 -25 33 -25zM282 340q-21 0 -36 9t-19 9q-5 0 -13 -8q-4 -4 -7 -4h-27q-10 0 -10 10v335q0 10 10 10h50q10 0 10 -10v-84q0 -8 5.5 -10.5t10.5 0.5q10 5 26 5q39 0 65.5 -26.5t29.5 -66.5
q4 -38 0 -76q-3 -40 -29.5 -66.5t-65.5 -26.5z" />
    <glyph glyph-name="dsuperior" unicode="&#xf6eb;" 
d="M276 408q31 0 33 25q4 38 0 76q-1 25 -33 25q-31 0 -33 -25q-2 -38 0 -76q2 -25 33 -25zM267 340q-39 0 -65 26.5t-29 66.5q-4 38 0 76q3 40 29 66.5t65 26.5q16 0 26 -5q5 -3 10.5 -0.5t5.5 10.5v84q0 10 10 10h50q10 0 10 -10v-335q0 -10 -10 -10h-27q-3 0 -7 4
q-8 8 -12 8q-5 0 -20 -9t-36 -9z" />
    <glyph glyph-name="esuperior" unicode="&#xf6ec;" 
d="M236 442q0 -17 12 -29.5t28 -12.5q28 0 36 18q4 9 11 9h46q12 0 9 -12q-21 -75 -102 -75q-44 0 -70.5 26t-32.5 67q-6 38 0 76q6 41 32.5 67t70.5 26q46 0 74.5 -26t28.5 -73v-43q0 -10 -10 -10h-127q-6 0 -6 -8zM236 508q0 -4 5 -4h69q5 0 5 4q0 17 -9.5 29.5
t-29.5 12.5q-19 0 -29.5 -13.5t-10.5 -28.5z" />
    <glyph glyph-name="isuperior" unicode="&#xf6ed;" 
d="M312 693v-58q0 -8 -8 -8h-59q-8 0 -8 8v58q0 8 8 8h59q8 0 8 -8zM234 527h-47q-10 0 -10 10v49q0 10 10 10h115q7 0 7 -7v-167q0 -5 5 -5h53q10 0 10 -10v-51q0 -10 -10 -10h-185q-10 0 -10 10v51q0 10 10 10h52q5 0 5 5v100q0 5 -5 5z" />
    <glyph glyph-name="lsuperior" unicode="&#xf6ee;" 
d="M231 632h-49q-10 0 -10 10v49q0 10 10 10h117q7 0 7 -7v-272q0 -5 5 -5h61q10 0 10 -10v-51q0 -10 -10 -10h-194q-10 0 -10 10v51q0 10 10 10h53q5 0 5 5v205q0 5 -5 5z" />
    <glyph glyph-name="msuperior" unicode="&#xf6ef;" 
d="M288 589q16 12 46 12t49 -23.5t19 -58.5v-163q0 -10 -10 -10h-45q-10 0 -10 10v169q0 16 -16 16q-6 0 -11 -4.5t-5 -11.5v-169q0 -10 -10 -10h-41q-10 0 -10 10v169q0 16 -16 16t-16 -16v-169q0 -10 -10 -10h-44q-10 0 -10 10v230q0 10 10 10h15q8 0 11 -5q4 -6 9 -6
q3 0 16 8t28 8q24 0 37 -11q3 -3 7 -3q3 0 7 2z" />
    <glyph glyph-name="osuperior" unicode="&#xf6f0;" 
d="M274 602q45 0 72 -26t33 -67q6 -38 0 -76q-6 -41 -33 -67t-71 -26q-45 0 -71.5 26t-32.5 67q-6 38 0 76q6 41 32.5 67t70.5 26zM274 410q32 0 35 23q8 38 0 76q-3 23 -35 23q-29 0 -33 -23q-7 -33 0 -76q5 -23 33 -23z" />
    <glyph glyph-name="rsuperior" unicode="&#xf6f1;" 
d="M310 514q0 11 -10 18.5t-25 7.5q-14 0 -24.5 -8t-10.5 -22v-154q0 -10 -10 -10h-50q-10 0 -10 10v230q0 10 10 10h26q8 0 14 -6q5 -5 11 -5q5 0 21 8.5t37 8.5q41 0 65.5 -24t24.5 -64q0 -10 -10 -10h-49q-10 0 -10 10z" />
    <glyph glyph-name="ssuperior" unicode="&#xf6f2;" 
d="M166 428q0 10 10 10h41q16 0 17 -13q2 -12 13 -20t28 -8q19 0 31.5 8.5t12.5 18.5q0 14 -40 21q-3 1 -5 1q-20 3 -34 7t-31.5 12.5t-27 23.5t-9.5 36q0 32 32 54.5t71 22.5q41 0 71 -21t30 -58q0 -13 -10 -13h-40q-10 0 -12 13q-2 11 -14.5 19t-24.5 8q-15 0 -27 -7.5
t-12 -17.5q0 -16 44 -25q3 -1 16.5 -4t18.5 -4t16.5 -4.5t16.5 -7l13.5 -9.5t12 -12.5t6.5 -16t3 -20.5q0 -35 -32 -58.5t-76 -23.5q-46 0 -77.5 22t-31.5 66z" />
    <glyph glyph-name="tsuperior" unicode="&#xf6f3;" 
d="M278 526v-92q0 -24 28 -24q29 0 29 24q0 10 10 10h50q10 0 10 -10q0 -40 -29 -67t-70 -27t-69.5 26t-28.5 66v94q0 5 -5 5h-49q-10 0 -10 10v44q0 10 10 10h49q5 0 5 5v76q0 10 10 10h50q10 0 10 -10v-76q0 -5 5 -5h86q10 0 10 -10v-44q0 -10 -10 -10h-86q-5 0 -5 -5z
" />
    <glyph glyph-name="apple" unicode="&#xf8ff;" 
d="M184 120q-12 0 -18.5 -9t-9.5 -19.5t-12.5 -19.5t-27.5 -9q-21 0 -36.5 13.5t-15.5 31.5q0 22 21 44t21 53q0 17 -8 27.5t-20 10.5q-8 0 -15.5 -3.5t-14.5 -3.5q-14 0 -22 15.5t-8 36.5q0 14 9.5 26.5t23.5 12.5q7 0 14.5 -5.5t12.5 -5.5q13 0 20 13.5t7 26.5
q0 8 -5 24.5t-5 24.5q0 37 40 37q9 0 9 8q0 3 -4 11t-4 13t5.5 9.5t10.5 4.5q11 0 22 -17.5t20 -17.5q11 0 15 8.5t4.5 19t7.5 19t22 8.5q21 0 37 -24t35 -24q20 0 27.5 11t7.5 37q0 27 14.5 40t38.5 13q22 0 34.5 -13t12.5 -35q0 -19 -12 -31.5t-24 -20.5t-12 -17
q0 -12 12 -22t27 -16t27 -21t12 -37q0 -20 -16 -38t-16 -34q0 -26 44 -26q40 0 40 -45q0 -22 -15 -37t-37 -15q-15 0 -35 25t-37 25q-25 0 -25 -21q0 -10 10 -21t10 -28q0 -14 -9 -23.5t-26 -9.5q-10 0 -35 15t-45 15q-26 0 -26 -31q0 -27 -24 -27q-8 0 -13 7.5t-7 16.5
t-10.5 16.5t-23.5 7.5zM298 340q0 -16 12 -28t28 -12q17 0 30 12t13 28q0 17 -13.5 32t-29.5 15t-28 -15t-12 -32zM281 226q-26 0 -48 20q-5 5 -7 0q-1 -3 2 -7q18 -29 53 -29q30 0 44 34q2 4 -1 6t-5 -2q-12 -22 -38 -22zM214 335q0 21 14 21t14 -21t-14 -21t-14 21z
M310 340q0 21 14 21t14 -21t-14 -21t-14 21zM178 340q0 -21 10 -35.5t26 -14.5q17 0 28.5 14.5t11.5 35.5t-11.5 35.5t-28.5 14.5q-16 0 -26 -14.5t-10 -35.5zM85 520q0 14 8.5 24t20.5 10q10 0 17 -10t7 -24t-7 -24t-17 -10q-12 0 -20.5 10t-8.5 24z" />
    <glyph glyph-name="f_f" unicode="&#xfb00;" 
d="M515 620q-39 0 -67 -30.5t-28 -69.5v-15q0 -10 10 -10h72q8 0 14 -6t6 -14v-50q0 -8 -6 -14t-14 -6h-72q-10 0 -10 -10v-375q0 -8 -6 -14t-14 -6h-50q-8 0 -14 6t-6 14v375q0 10 -8 10h-114q-7 0 -7 -10v-375q0 -8 -6 -14t-14 -6h-50q-8 0 -14 6t-6 14v375q0 10 -10 10
h-55q-8 0 -14 6t-6 14v50q0 8 6 14t14 6h55q10 0 10 10v15q0 79 53 133t132 54q8 0 14 -6t6 -14v-47q0 -8 -6 -14t-14 -6q-39 0 -67 -30.5t-28 -69.5v-25q0 -10 10 -10h109q10 0 10 10v25q0 79 53 133t132 54q8 0 14 -6t6 -14v-47q0 -8 -6 -14t-14 -6z" />
    <glyph glyph-name="commaturn" 
d="M303 677h7q8 0 14 -6t6 -14v-61q0 -8 -6 -14t-14 -6h-70q-8 0 -14 6t-6 14v61q0 34 20 62l32 46q10 15 26 15h9q14 0 19 -11t-1 -22l-31 -57q-3 -5 0.5 -9t8.5 -4z" />
    <glyph glyph-name="zero.slash" 
d="M60 500q11 89 66 148.5t149 59.5q90 0 146.5 -55.5t68.5 -152.5q7 -62 7 -150t-7 -150q-10 -89 -65.5 -148.5t-149.5 -59.5q-90 0 -146.5 55.5t-68.5 152.5q-8 61 -8 150.5t8 149.5zM400 200q17 131 4 271q-2 14 -10 2l-203 -339q-9 -15 2 -23q34 -29 82 -29
q51 0 84 31.5t41 86.5zM275 618q-50 0 -84 -31.5t-41 -86.5q-16 -127 -4 -266q3 -17 11 -3l203 336q7 12 -3 22q-32 29 -82 29z" />
    <glyph glyph-name="csuperior" 
d="M277 410q16 0 24 7t12 27q2 8 10 8h49q8 0 8 -10q0 -46 -30.5 -74t-72.5 -28q-45 0 -72 26t-33 67q-6 38 0 76q6 41 33 67t72 26q43 0 73 -27.5t30 -74.5q0 -10 -8 -10h-49q-10 0 -10 8q-3 34 -37 34q-30 0 -34 -33q-4 -28 0 -56q4 -33 35 -33z" />
    <glyph glyph-name="psuperior" 
d="M274 534q-31 0 -33 -25q-4 -38 0 -76q1 -25 33 -25q30 0 32 25q2 38 0 76q-2 25 -32 25zM282 602q39 0 65.5 -26.5t29.5 -66.5q4 -38 0 -76q-3 -40 -29.5 -66.5t-65.5 -26.5q-16 0 -26 5q-5 3 -10.5 0.5t-5.5 -10.5v-79q0 -10 -10 -10h-50q-10 0 -10 10v330q0 10 10 10
h27q3 0 7 -4q7 -7 13 -7q4 0 19 8.5t36 8.5z" />
    <glyph glyph-name="gsuperior" 
d="M342 596h27q10 0 10 -10v-255q0 -39 -29 -66t-71 -27t-71.5 25t-28.5 61q0 10 10 10h41q8 0 10 -2.5t3 -9.5q4 -21 32 -21q14 0 24 7.5t10 22.5v4q0 16 -16 10q-10 -5 -26 -5q-39 0 -65 26.5t-29 66.5q-4 38 0 76q3 40 29 66.5t65 26.5q21 0 36 -8.5t20 -8.5t12 7
q4 4 7 4zM276 534q-31 0 -33 -25q-2 -38 0 -76q2 -25 33 -25t33 25q4 38 0 76q-1 25 -33 25z" />
    <glyph glyph-name="fsuperior" 
d="M224 531h-53q-10 0 -10 10v44q0 10 10 10h53q5 0 5 5v10q0 39 28 65t68 26h48q10 0 10 -10v-50q0 -10 -10 -10h-48q-26 0 -26 -22v-9q0 -5 5 -5h74q10 0 10 -10v-44q0 -10 -10 -10h-74q-5 0 -5 -5v-170q0 -10 -10 -10h-50q-10 0 -10 10v170q0 5 -5 5z" />
    <glyph glyph-name="ksuperior" 
d="M310 354l-76 87q-1 2 -3 1.5t-2 -2.5v-84q0 -10 -10 -10h-50q-10 0 -10 10v335q0 10 10 10h50q10 0 10 -10v-174q1 -4 5 -2l71 74q5 7 12 7h55q8 0 10.5 -6t-1.5 -10l-87 -92q-7 -7 1 -16l92 -109q5 -5 2 -11t-10 -6h-57q-7 0 -12 8z" />
    <glyph glyph-name="qsuperior" 
d="M276 534q-31 0 -33 -25q-2 -38 0 -76q2 -25 33 -25q32 0 33 25q4 38 0 76q-2 25 -33 25zM267 602q21 0 36 -8.5t20 -8.5t12 7q4 4 7 4h27q10 0 10 -10v-330q0 -10 -10 -10h-50q-10 0 -10 10v79q0 8 -5.5 10.5t-10.5 -0.5q-10 -5 -26 -5q-39 0 -65 26.5t-29 66.5
q-4 38 0 76q3 40 29 66.5t65 26.5z" />
    <glyph glyph-name="usuperior" 
d="M319 356q-5 0 -20.5 -8t-31.5 -8q-39 0 -67 27t-28 66v153q0 10 10 10h50q10 0 10 -10v-154q0 -10 9 -17t24 -7q16 0 24.5 6.5t8.5 15.5v156q0 10 10 10h50q10 0 10 -10v-230q0 -10 -10 -10h-26q-4 0 -12 5t-11 5z" />
    <glyph glyph-name="vsuperior" 
d="M277 452l48 136q3 8 10 8h54q6 0 9 -4t1 -8l-84 -230q-3 -8 -10 -8h-59q-7 0 -10 8l-85 231q-2 4 1 7.5t9 3.5h54q7 0 10 -8l46 -136q1 -3 3 -2.5t3 2.5z" />
    <glyph glyph-name="zsuperior" 
d="M179 420l108 106q3 4 -2 6h-98q-10 0 -10 10v44q0 10 10 10h175q10 0 10 -10v-47q0 -11 -10 -21l-102 -103q-2 -1 -1 -3t3 -2h105q10 0 10 -10v-44q0 -10 -10 -10h-185q-10 0 -10 10v49q0 9 7 15z" />
    <glyph glyph-name="less.case" 
d="M145 324l361 -201q19 -10 19 -26v-55q0 -14 -9 -21t-19 -2l-454 254q-18 10 -18 23v70q0 13 19 23l453 254q9 5 18.5 -2.5t9.5 -21.5v-55q0 -16 -19 -26l-362 -202q-4 -2 -3.5 -6t4.5 -6z" />
    <glyph glyph-name="greater.case" 
d="M43 123l363 202q9 5 0 11l-363 202q-18 10 -18 26v55q0 14 10 21.5t19 2.5l453 -254q18 -10 18 -23v-70q0 -13 -19 -23l-453 -255q-9 -5 -18.5 2.5t-9.5 21.5v55q0 15 18 26z" />
    <glyph glyph-name="plus.case" 
d="M25 385h188q13 0 13 12v189q0 10 7.5 17.5t17.5 7.5h49q10 0 17.5 -7.5t7.5 -17.5v-189q0 -12 12 -12h188q10 0 17.5 -7.5t7.5 -17.5v-49q0 -11 -7 -18t-18 -7h-188q-12 0 -12 -13v-187q0 -10 -7.5 -17.5t-17.5 -7.5h-49q-11 0 -18 7.5t-7 17.5v187q0 13 -13 13h-188
q-11 0 -18 7t-7 18v49q0 10 7.5 17.5t17.5 7.5z" />
    <glyph glyph-name="equal.case" 
d="M525 392h-500q-10 0 -17.5 7.5t-7.5 17.5v50q0 11 7 18t18 7h500q11 0 18 -7t7 -18v-50q0 -10 -7.5 -17.5t-17.5 -7.5zM525 169h-500q-11 0 -18 7.5t-7 17.5v50q0 10 7.5 17.5t17.5 7.5h500q10 0 17.5 -7.5t7.5 -17.5v-50q0 -10 -7 -17.5t-18 -7.5z" />
    <glyph glyph-name="multiply.case" 
d="M46 177l150 150q8 9 1 18l-153 152q-8 7 -8 17t8 18l35 35q17 17 35 0l152 -152q9 -9 18 0l150 150q17 17 34 0l35 -35q17 -18 0 -35l-150 -150q-9 -9 0 -18l152 -151q17 -18 0 -35l-35 -35q-8 -8 -18 -8t-17 8l-151 152q-9 9 -18 0l-151 -150q-17 -18 -35 0l-34 35
q-17 17 0 34z" />
    <glyph glyph-name="minus.case" 
d="M44 389h462q10 0 17.5 -7.5t7.5 -17.5v-54q0 -10 -7.5 -17.5t-17.5 -7.5h-462q-10 0 -17.5 7.5t-7.5 17.5v54q0 10 7.5 17.5t17.5 7.5z" />
    <glyph glyph-name="notequal.case" 
d="M314 269h211q10 0 17.5 -7.5t7.5 -17.5v-50q0 -10 -7 -17.5t-18 -7.5h-277q-11 0 -18 -9l-53 -80q-12 -19 -31 -19h-52q-13 0 -20.5 11t0.5 24l43 64q5 9 -7 9h-85q-11 0 -18 7.5t-7 17.5v50q0 10 7.5 17.5t17.5 7.5h151q12 0 18 9l73 106q6 8 -6 8h-236q-10 0 -17.5 7.5
t-7.5 17.5v50q0 11 7 18t18 7h303q11 0 18 9l62 90q13 19 23 19h57q13 0 20.5 -11t-0.5 -23l-51 -75q-7 -9 6 -9h62q11 0 18 -7t7 -18v-50q0 -10 -7.5 -17.5t-17.5 -7.5h-128q-12 0 -18 -9l-72 -106q-4 -8 7 -8z" />
    <glyph glyph-name="divide.case" 
d="M349 173v-95q0 -10 -7.5 -17.5t-17.5 -7.5h-95q-11 0 -18 7.5t-7 17.5v95q0 11 7 18t18 7h95q10 0 17.5 -7.5t7.5 -17.5zM349 596v-95q0 -10 -7.5 -17.5t-17.5 -7.5h-95q-11 0 -18 7t-7 18v95q0 10 7 17.5t18 7.5h95q10 0 17.5 -7.5t7.5 -17.5zM44 389h462
q10 0 17.5 -7.5t7.5 -17.5v-54q0 -10 -7.5 -17.5t-17.5 -7.5h-462q-10 0 -17.5 7.5t-7.5 17.5v54q0 10 7.5 17.5t17.5 7.5z" />
    <glyph glyph-name="approxequal.case" 
d="M161 412q-17 0 -35.5 -8t-26.5 -18q-5 -6 -12 -8t-12 3t-5 14v50q0 27 26.5 44t64.5 17q51 0 112 -22.5t116 -22.5q17 0 35.5 8t26.5 18q5 6 12 8t12 -3t5 -14v-50q0 -27 -26.5 -44t-64.5 -17q-51 0 -112 22.5t-116 22.5zM161 184q-17 0 -35.5 -8t-26.5 -18q-5 -6 -12 -8
t-12 3t-5 14v50q0 27 26.5 44t64.5 17q51 0 112 -22.5t116 -22.5q17 0 35.5 8t26.5 18q5 6 12 8t12 -3t5 -14v-50q0 -27 -26.5 -44t-64.5 -17q-51 0 -112 22.5t-116 22.5z" />
    <glyph glyph-name="logicalnot.case" 
d="M449 164v122q0 12 -13 12h-405q-11 0 -18 7t-7 18v45q0 10 7 17.5t18 7.5h488q10 0 17.5 -7.5t7.5 -17.5v-204q0 -10 -7.5 -17.5t-17.5 -7.5h-45q-10 0 -17.5 7.5t-7.5 17.5z" />
    <glyph glyph-name="parenleft.case" 
d="M461 -99h54q10 0 17.5 -7.5t7.5 -17.5v-43q0 -10 -7.5 -17.5t-17.5 -7.5h-54q-113 0 -189.5 71.5t-91.5 191.5q-10 75 -10 244.5t9 243.5q14 109 89 185.5t193 76.5h44q10 0 17.5 -7.5t7.5 -17.5v-42q0 -10 -7.5 -17.5t-17.5 -7.5h-44q-68 0 -122 -49.5t-64 -121.5
q-11 -77 -11.5 -243t10.5 -244q9 -64 61 -117t126 -53z" />
    <glyph glyph-name="parenright.case" 
d="M35 -99h54q74 0 125.5 53t60.5 117q11 77 11 244t-11 243q-10 72 -64 121.5t-122 49.5h-44q-11 0 -18 7.5t-7 17.5v42q0 10 7 17.5t18 7.5h44q118 0 192.5 -76.5t88.5 -185.5q9 -76 9.5 -243.5t-9.5 -244.5q-15 -120 -91.5 -191.5t-189.5 -71.5h-54q-10 0 -17.5 7.5
t-7.5 17.5v43q0 10 7 17.5t18 7.5z" />
    <glyph glyph-name="bracketleft.case" 
d="M305 715v-801q0 -12 13 -12h154q10 0 17.5 -7t7.5 -18v-44q0 -10 -7.5 -17.5t-17.5 -7.5h-235q-10 0 -17.5 7.5t-7.5 17.5v963q0 10 7 17.5t18 7.5h232q10 0 17.5 -7.5t7.5 -17.5v-43q0 -10 -7.5 -17.5t-17.5 -7.5h-151q-13 0 -13 -13z" />
    <glyph glyph-name="bracketright.case" 
d="M244 -86v801q0 13 -13 13h-151q-10 0 -17.5 7.5t-7.5 17.5v43q0 10 7.5 17.5t17.5 7.5h232q10 0 17.5 -7.5t7.5 -17.5v-963q0 -10 -7.5 -17.5t-17.5 -7.5h-235q-10 0 -17.5 7.5t-7.5 17.5v44q0 11 7 18t18 7h154q13 0 13 12z" />
    <glyph glyph-name="braceleft.case" 
d="M221 71v169q0 15 -23 25l-13 6q-25 10 -25 25v50q0 15 25 25l14 6q22 10 22 25v157q0 110 65 186t183 76h39q10 0 17.5 -7.5t7.5 -17.5v-42q0 -10 -7.5 -17.5t-17.5 -7.5h-39q-67 0 -110 -48.5t-43 -121.5v-157q0 -49 -51 -81q51 -32 51 -81v-169q0 -76 44 -123t109 -47
h40q11 0 18 -7.5t7 -17.5v-43q0 -10 -7.5 -17.5t-17.5 -7.5h-40q-119 0 -183.5 78t-64.5 185z" />
    <glyph glyph-name="braceright.case" 
d="M329 240v-169q0 -107 -64.5 -185t-183.5 -78h-40q-10 0 -17.5 7.5t-7.5 17.5v43q0 10 7 17.5t18 7.5h40q65 0 109 47t44 123v169q0 49 51 81q-51 32 -51 81v157q0 73 -43 121.5t-110 48.5h-39q-10 0 -17.5 7.5t-7.5 17.5v42q0 10 7.5 17.5t17.5 7.5h39q118 0 183 -76
t65 -186v-157q0 -15 22 -25l14 -6q25 -10 25 -25v-50q0 -15 -25 -25l-13 -6q-23 -10 -23 -25z" />
    <glyph glyph-name="endash.case" 
d="M61 391h428q10 0 17.5 -7.5t7.5 -17.5v-54q0 -10 -7 -17.5t-18 -7.5h-428q-11 0 -18 7.5t-7 17.5v54q0 10 7.5 17.5t17.5 7.5z" />
    <glyph glyph-name="emdash.case" 
d="M17 391h516q10 0 17.5 -7.5t7.5 -17.5v-54q0 -10 -7.5 -17.5t-17.5 -7.5h-516q-11 0 -18 7.5t-7 17.5v54q0 10 7.5 17.5t17.5 7.5z" />
    <glyph glyph-name="guillemotleft.case" 
d="M61 354l120 201q13 19 31 19h41q19 0 25.5 -11.5t-4.5 -30.5l-108 -181q-9 -15 1 -30l107 -182q10 -19 4 -29.5t-25 -10.5h-41q-19 0 -31 18l-120 201q-12 18 0 36zM275 354l120 201q13 19 31 19h41q18 0 24.5 -11.5t-4.5 -30.5l-107 -181q-9 -14 0 -30l107 -181
q11 -20 4.5 -30.5t-24.5 -10.5h-41q-19 0 -31 18l-120 201q-12 18 0 36z" />
    <glyph glyph-name="guillemotright.case" 
d="M369 555l120 -200q10 -18 0 -36l-120 -200q-11 -19 -32 -19h-41q-18 0 -24 11t4 30l107 181q9 15 0 30l-108 182q-10 19 -3.5 30t24.5 11h41q21 0 32 -20zM155 556l120 -201q10 -18 0 -36l-120 -201q-12 -18 -31 -18h-41q-19 0 -25.5 11t4.5 30l107 181q8 16 0 30
l-108 182q-10 19 -3.5 30t25.5 11h41q18 0 31 -19z" />
    <glyph glyph-name="bar.case" 
d="M317 700v-750q0 -8 -6 -14t-14 -6h-45q-8 0 -14 6t-6 14v750q0 8 6 14t14 6h45q8 0 14 -6t6 -14z" />
    <glyph glyph-name="guilsinglleft.case" 
d="M169 355l120 201q13 19 31 19h41q19 0 25 -11.5t-5 -30.5l-106 -181q-8 -14 0 -30l106 -181q11 -19 5 -30t-25 -11h-41q-19 0 -31 18l-120 201q-12 18 0 36z" />
    <glyph glyph-name="guilsinglright.case" 
d="M261 555l120 -201q10 -18 0 -36l-120 -201q-12 -18 -31 -18h-41q-19 0 -25 10.5t5 30.5l106 181q9 15 1 30l-107 181q-11 20 -5 31t25 11h41q18 0 31 -19z" />
    <glyph glyph-name="hyphen.case" 
d="M104 412h341q11 0 18 -7t7 -18v-71q0 -10 -7 -17.5t-18 -7.5h-341q-10 0 -17.5 7.5t-7.5 17.5v71q0 11 7.5 18t17.5 7z" />
    <glyph glyph-name="at.case" 
d="M279 88q57 0 108 23q10 4 17 -0.5t7 -14.5v-28q0 -3 -0.5 -6t-2.5 -5.5t-2.5 -4t-4 -3.5t-4.5 -3t-5 -4l-5 -2q-39 -22 -106 -22q-110 0 -180 70t-70 178v107q0 114 75 187t175 73q115 0 176.5 -63t61.5 -177v-138q0 -38 -27.5 -65t-65.5 -27q-26 0 -41 10q-19 12 -39 0
q-27 -15 -65 -15q-72 0 -103.5 43.5t-31.5 127.5q0 71 36.5 118t98.5 47q53 0 86 -34.5t33 -88.5v-120q0 -22 26 -22q10 0 16.5 6t6.5 16v142q0 170 -170 170q-73 0 -123 -52.5t-50 -137.5v-103q0 -78 49 -130t124 -52zM331 280v91q0 23 -14 38t-36 15q-28 0 -43.5 -16.5
t-18.5 -34t-3 -44.5q0 -50 14.5 -75.5t50.5 -25.5q22 0 36 15t14 37z" />
    <glyph glyph-name="brokenbar.case" 
d="M318 687v-267q0 -8 -6 -14t-14 -6h-46q-8 0 -14 6t-6 14v267q0 8 6 14t14 6h46q8 0 14 -6t6 -14zM318 287v-267q0 -8 -6 -14t-14 -6h-46q-8 0 -14 6t-6 14v267q0 8 6 14t14 6h46q8 0 14 -6t6 -14z" />
    <glyph glyph-name="plusinferior" 
d="M175 -22h60q5 0 5 5v60q0 10 10 10h49q10 0 10 -10v-60q0 -5 5 -5h61q10 0 10 -10v-49q0 -10 -10 -10h-61q-5 0 -5 -5v-61q0 -10 -10 -10h-49q-10 0 -10 10v61q0 5 -5 5h-60q-10 0 -10 10v49q0 10 10 10z" />
    <glyph glyph-name="equalinferior" 
d="M375 -40h-200q-10 0 -10 10v48q0 10 10 10h200q10 0 10 -10v-48q0 -10 -10 -10zM375 -142h-200q-10 0 -10 10v48q0 10 10 10h200q10 0 10 -10v-48q0 -10 -10 -10z" />
    <glyph glyph-name="minusinferior" 
d="M170 -17h209q10 0 10 -10v-49q0 -10 -10 -10h-209q-10 0 -10 10v49q0 10 10 10z" />
    <glyph glyph-name="eight.numerator" 
d="M275 412q20 0 32.5 11t12.5 28q0 18 -12.5 30t-32.5 12t-32 -12t-12 -30q0 -17 12 -28t32 -11zM275 557q17 0 28.5 11t11.5 27q0 15 -11.5 25t-28.5 10t-28 -10t-11 -25q0 -16 11.5 -27t27.5 -11zM275 702q46 0 78.5 -31.5t32.5 -75.5q0 -40 -20 -64q-5 -6 0 -11
q24 -25 24 -69q0 -47 -33 -79t-82 -32q-48 0 -81.5 32.5t-33.5 78.5q0 39 24 69q3 4 -1 11q-19 26 -19 64q0 44 32.5 75.5t78.5 31.5z" />
    <glyph glyph-name="two.numerator" 
d="M312 596q0 14 -9 23.5t-24 9.5q-39 0 -39 -33v-9q0 -10 -10 -10h-53q-10 0 -10 10v8q0 45 32.5 76t77.5 31t76.5 -31t31.5 -76q0 -37 -29 -68l-94 -97q-3 -2 -2 -6.5t7 -4.5h107q10 0 10 -10v-53q0 -10 -10 -10h-200q-10 0 -10 10v66q0 8 4 12l134 139q10 10 10 23z" />
    <glyph glyph-name="three.numerator" 
d="M315 451q0 18 -11.5 27.5t-28.5 9.5h-6q-10 0 -10 10v52q0 10 10 10h6q16 0 26 9t10 26q0 16 -10 25t-26 9t-26 -9t-10 -25v-8q0 -10 -10 -10h-53q-10 0 -10 10v8q0 44 32.5 75.5t76.5 31.5q45 0 77 -31.5t32 -75.5q0 -35 -26 -65q-5 -5 0 -8q30 -24 30 -71
q0 -46 -33 -78.5t-80 -32.5t-80 32.5t-33 78.5v6q0 10 10 10h53q10 0 10 -10v-6q0 -38 40 -38t40 38z" />
    <glyph glyph-name="four.numerator" 
d="M364 476h17q10 0 10 -10v-48q0 -10 -10 -10h-17q-5 0 -5 -5v-47q0 -10 -10 -10h-51q-10 0 -10 10v47q0 5 -5 5h-114q-10 0 -10 10v59q0 6 8 20l112 192q3 7 10 7h60q10 0 10 -10v-205q0 -5 5 -5zM282 576l-50 -94q-4 -6 4 -6h47q5 0 5 5v93q0 3 -2 3.5t-4 -1.5z" />
    <glyph glyph-name="five.numerator" 
d="M362 622h-117q-5 0 -5 -5v-39q0 -10 9 -5q12 8 29 8q49 0 78.5 -32.5t30.5 -86.5q1 -49 -29.5 -85.5t-83.5 -36.5q-49 0 -81 25.5t-32 76.5q0 10 10 10h52q10 0 10 -10q0 -28 41 -28q40 0 40 48q0 51 -40 51q-20 0 -30 -12q-6 -6 -13 -6h-54q-10 0 -10 10v181q0 10 10 10
h185q10 0 10 -10v-54q0 -10 -10 -10z" />
    <glyph glyph-name="seven.numerator" 
d="M189 358l117 260q2 5 -4 5h-125q-10 0 -10 10v53q0 10 10 10h195q10 0 10 -10v-67q0 -3 -3 -10l-112 -255q-3 -8 -9 -8h-60q-14 0 -9 12z" />
    <glyph glyph-name="nine.numerator" 
d="M311 598q-1 16 -11.5 25.5t-25.5 9.5q-16 0 -25.5 -9.5t-11.5 -25.5q-1 -14 0 -28q2 -17 12 -27.5t25 -10.5t25 11t12 27q1 14 0 28zM270 411q38 0 46 26q4 12 4 24q0 9 -13 7q-24 -4 -37 -4q-44 0 -74.5 31.5t-32.5 76.5q-1 11 0 24q2 45 32.5 75.5t75.5 30.5
q47 0 78.5 -31.5t36.5 -78.5q8 -71 0 -142q-5 -47 -36.5 -78.5t-77.5 -31.5q-48 0 -80 28.5t-32 70.5q0 10 10 10h44q12 0 15 -10q9 -28 41 -28z" />
    <glyph glyph-name="one.numerator" 
d="M246 424v166q0 5 -4 6.5t-6 -1.5l-58 -52q-5 -5 -12 -1.5t-7 11.5v50q0 14 8 22l54 57q14 14 29 14h62q10 0 10 -10v-262q0 -5 5 -5h54q10 0 10 -10v-53q0 -10 -10 -10h-209q-10 0 -10 10v53q0 10 10 10h69q5 0 5 5z" />
    <glyph glyph-name="plus.numerator" 
d="M175 506h60q5 0 5 5v60q0 10 10 10h49q10 0 10 -10v-60q0 -5 5 -5h61q10 0 10 -10v-49q0 -10 -10 -10h-61q-5 0 -5 -5v-61q0 -10 -10 -10h-49q-10 0 -10 10v61q0 5 -5 5h-60q-10 0 -10 10v49q0 10 10 10z" />
    <glyph glyph-name="equal.numerator" 
d="M375 488h-200q-10 0 -10 10v48q0 10 10 10h200q10 0 10 -10v-48q0 -10 -10 -10zM375 386h-200q-10 0 -10 10v48q0 10 10 10h200q10 0 10 -10v-48q0 -10 -10 -10z" />
    <glyph glyph-name="parenleft.numerator" 
d="M311 370h33q10 0 10 -10v-49q0 -10 -10 -10h-33q-45 0 -75.5 28.5t-36.5 76.5q-4 30 -4 97.5t4 97.5q6 44 35.5 74.5t76.5 30.5h34q10 0 10 -10v-49q0 -10 -10 -10h-34q-35 0 -42 -36q-6 -31 -6 -97.5t6 -97.5q6 -36 42 -36z" />
    <glyph glyph-name="parenright.numerator" 
d="M206 370h33q36 0 42 36q6 31 6 97.5t-6 97.5q-7 36 -42 36h-34q-10 0 -10 10v49q0 10 10 10h34q46 0 76 -31t36 -74q4 -30 4 -97.5t-4 -97.5q-6 -48 -36.5 -76.5t-75.5 -28.5h-33q-10 0 -10 10v49q0 10 10 10z" />
    <glyph glyph-name="minus.numerator" 
d="M170 511h209q10 0 10 -10v-49q0 -10 -10 -10h-209q-10 0 -10 10v49q0 10 10 10z" />
    <glyph glyph-name="zero.numerator" 
d="M162 590q5 47 36.5 79.5t75.5 32.5q45 0 76.5 -33t36.5 -79q8 -69 0 -138q-5 -47 -36.5 -79.5t-76.5 -32.5q-44 0 -75.5 33t-36.5 79q-8 68 0 138zM274 628q-15 0 -24.5 -10.5t-11.5 -25.5q-8 -71 0 -142q2 -16 12 -26t24 -10q15 0 25 10.5t12 25.5q8 71 0 142
q-1 16 -12 26t-25 10z" />
    <glyph glyph-name="six.numerator" 
d="M239 444q1 -16 11.5 -25.5t25.5 -9.5q16 0 25.5 9.5t11.5 25.5q1 14 0 28q-2 17 -12 27.5t-25 10.5t-25 -11t-12 -27q-1 -14 0 -28zM280 631q-38 0 -46 -26q-4 -12 -4 -24q0 -9 13 -7q24 4 37 4q44 0 74.5 -31.5t32.5 -76.5q1 -11 0 -24q-2 -45 -32.5 -75.5t-75.5 -30.5
q-47 0 -78.5 31.5t-36.5 78.5q-8 71 0 142q5 47 36.5 78.5t77.5 31.5q48 0 80 -28.5t32 -70.5q0 -10 -10 -10h-44q-12 0 -15 10q-9 28 -41 28z" />
    <glyph glyph-name="eight.denominator" 
d="M275 66q20 0 32.5 10.5t12.5 28.5t-12.5 30t-32.5 12t-32 -12t-12 -30t12 -28.5t32 -10.5zM275 211q17 0 28.5 11t11.5 26q0 16 -11.5 26t-28.5 10t-28 -10t-11 -26q0 -15 11.5 -26t27.5 -11zM275 356q46 0 78.5 -31.5t32.5 -76.5q0 -39 -20 -63q-5 -6 0 -11
q24 -25 24 -69q0 -47 -33 -79t-82 -32q-48 0 -81.5 32.5t-33.5 78.5q0 39 24 69q3 4 -1 11q-19 26 -19 63q0 45 32.5 76.5t78.5 31.5z" />
    <glyph glyph-name="two.denominator" 
d="M312 250q0 14 -9 23.5t-24 9.5q-39 0 -39 -33v-9q0 -10 -10 -10h-53q-10 0 -10 10v8q0 45 32.5 76t77.5 31t76.5 -31t31.5 -76q0 -37 -29 -68l-94 -97q-3 -2 -2 -6.5t7 -4.5h107q10 0 10 -10v-53q0 -10 -10 -10h-200q-10 0 -10 10v66q0 8 4 12l134 139q10 10 10 23z" />
    <glyph glyph-name="three.denominator" 
d="M315 105q0 18 -11.5 27.5t-28.5 9.5h-6q-10 0 -10 10v52q0 10 10 10h6q16 0 26 9t10 25t-10 25.5t-26 9.5t-26 -9.5t-10 -25.5v-7q0 -10 -10 -10h-53q-10 0 -10 10v7q0 45 32 76.5t77 31.5t77 -31.5t32 -76.5q0 -34 -26 -64q-5 -5 0 -8q30 -24 30 -71q0 -46 -33 -78.5
t-80 -32.5t-80 32.5t-33 78.5v6q0 10 10 10h53q10 0 10 -10v-6q0 -38 40 -38t40 38z" />
    <glyph glyph-name="four.denominator" 
d="M364 130h17q10 0 10 -10v-48q0 -10 -10 -10h-17q-5 0 -5 -5v-47q0 -10 -10 -10h-51q-10 0 -10 10v47q0 5 -5 5h-114q-10 0 -10 10v59q0 6 8 20l112 192q3 7 10 7h60q10 0 10 -10v-205q0 -5 5 -5zM282 230l-50 -94q-4 -6 4 -6h47q5 0 5 5v93q0 3 -2 3.5t-4 -1.5z" />
    <glyph glyph-name="five.denominator" 
d="M362 276h-117q-5 0 -5 -5v-39q0 -10 9 -5q12 8 29 8q49 0 78.5 -32.5t30.5 -86.5q1 -49 -29.5 -85.5t-83.5 -36.5q-49 0 -81 25.5t-32 76.5q0 10 10 10h52q10 0 10 -10q0 -28 41 -28q40 0 40 48q0 51 -40 51q-20 0 -30 -12q-6 -6 -13 -6h-54q-10 0 -10 10v181q0 10 10 10
h185q10 0 10 -10v-54q0 -10 -10 -10z" />
    <glyph glyph-name="seven.denominator" 
d="M189 12l117 260q2 5 -4 5h-125q-10 0 -10 10v53q0 10 10 10h195q10 0 10 -10v-67q0 -3 -3 -10l-112 -255q-3 -8 -9 -8h-60q-14 0 -9 12z" />
    <glyph glyph-name="nine.denominator" 
d="M311 252q-1 16 -11.5 25.5t-25.5 9.5q-16 0 -25.5 -9.5t-11.5 -25.5q-1 -14 0 -28q2 -17 12 -27.5t25 -10.5t25 11t12 27q1 14 0 28zM270 65q38 0 46 26q4 12 4 24q0 9 -13 7q-24 -4 -37 -4q-44 0 -74.5 31.5t-32.5 76.5q-1 11 0 24q2 45 32.5 75.5t75.5 30.5
q47 0 78.5 -31.5t36.5 -78.5q8 -71 0 -142q-5 -47 -36.5 -78.5t-77.5 -31.5q-48 0 -80 28.5t-32 70.5q0 10 10 10h44q12 0 15 -10q9 -28 41 -28z" />
    <glyph glyph-name="zero.denominator" 
d="M162 244q5 47 36.5 79.5t75.5 32.5q45 0 76.5 -33t36.5 -79q8 -69 0 -138q-5 -47 -36.5 -79.5t-76.5 -32.5q-44 0 -75.5 33t-36.5 79q-8 68 0 138zM274 282q-15 0 -24.5 -10.5t-11.5 -25.5q-8 -71 0 -142q2 -16 12 -26t24 -10q15 0 25 10.5t12 25.5q8 71 0 142
q-1 16 -12 26t-25 10z" />
    <glyph glyph-name="one.denominator" 
d="M246 78v166q0 5 -4 6.5t-6 -1.5l-58 -52q-5 -5 -12 -1.5t-7 11.5v50q0 14 8 22l54 57q14 14 29 14h62q10 0 10 -10v-262q0 -5 5 -5h54q10 0 10 -10v-53q0 -10 -10 -10h-209q-10 0 -10 10v53q0 10 10 10h69q5 0 5 5z" />
    <glyph glyph-name="plus.denominator" 
d="M175 160h60q5 0 5 5v60q0 10 10 10h49q10 0 10 -10v-60q0 -5 5 -5h61q10 0 10 -10v-49q0 -10 -10 -10h-61q-5 0 -5 -5v-61q0 -10 -10 -10h-49q-10 0 -10 10v61q0 5 -5 5h-60q-10 0 -10 10v49q0 10 10 10z" />
    <glyph glyph-name="equal.denominator" 
d="M375 142h-200q-10 0 -10 10v48q0 10 10 10h200q10 0 10 -10v-48q0 -10 -10 -10zM375 40h-200q-10 0 -10 10v48q0 10 10 10h200q10 0 10 -10v-48q0 -10 -10 -10z" />
    <glyph glyph-name="parenleft.denominator" 
d="M311 24h33q10 0 10 -10v-49q0 -10 -10 -10h-33q-45 0 -75.5 28.5t-36.5 76.5q-4 30 -4 97.5t4 97.5q6 44 35.5 74.5t76.5 30.5h34q10 0 10 -10v-49q0 -10 -10 -10h-34q-35 0 -42 -36q-6 -31 -6 -97.5t6 -97.5q6 -36 42 -36z" />
    <glyph glyph-name="parenright.denominator" 
d="M206 24h33q36 0 42 36q6 31 6 97.5t-6 97.5q-7 36 -42 36h-34q-10 0 -10 10v49q0 10 10 10h34q46 0 76 -31t36 -74q4 -30 4 -97.5t-4 -97.5q-6 -48 -36.5 -76.5t-75.5 -28.5h-33q-10 0 -10 10v49q0 10 10 10z" />
    <glyph glyph-name="minus.denominator" 
d="M170 165h209q10 0 10 -10v-49q0 -10 -10 -10h-209q-10 0 -10 10v49q0 10 10 10z" />
    <glyph glyph-name="six.denominator" 
d="M239 98q1 -16 11.5 -25.5t25.5 -9.5q16 0 25.5 9.5t11.5 25.5q1 14 0 28q-2 17 -12 27.5t-25 10.5t-25 -11t-12 -27q-1 -14 0 -28zM280 285q-38 0 -46 -26q-4 -12 -4 -24q0 -9 13 -7q24 4 37 4q44 0 74.5 -31.5t32.5 -76.5q1 -11 0 -24q-2 -45 -32.5 -75.5t-75.5 -30.5
q-47 0 -78.5 31.5t-36.5 78.5q-8 71 0 142q5 47 36.5 78.5t77.5 31.5q48 0 80 -28.5t32 -70.5q0 -10 -10 -10h-44q-12 0 -15 10q-9 28 -41 28z" />
    <glyph glyph-name="arrowright.case" 
d="M29 383q0 7 6.5 13.5t13.5 6.5h319l-87 86q-15 15 -15 24v64q0 12 10.5 17.5t19.5 -3.5l219 -219q14 -14 1 -27l-225 -225q-7 -7 -16 -3t-9 13v68q0 11 13 24l90 90h-320q-7 0 -13.5 6t-6.5 14v51z" />
    <glyph glyph-name="arrowup.case" 
d="M230 125v379l-86 -87q-15 -15 -22 -15h-65q-12 0 -17.5 11t3.5 20l218 218q15 13 27 1l226 -226q7 -8 3 -16t-13 -8h-67q-11 0 -25 12l-91 91v-380q0 -7 -6.5 -13.5t-13.5 -6.5h-51q-8 0 -14 6.5t-6 13.5z" />
    <glyph glyph-name="arrowleft.case" 
d="M183 403h318q7 0 13.5 -6.5t6.5 -13.5v-51q0 -8 -6.5 -14t-13.5 -6h-319l90 -90q12 -12 12 -24v-68q0 -9 -9 -13t-16 3l-225 225q-12 12 1 27l219 219q9 9 19.5 3.5t10.5 -17.5v-64q0 -10 -14 -24z" />
    <glyph glyph-name="arrowdown.case" 
d="M227 237v379q0 8 6.5 14t13.5 6h51q8 0 14 -6t6 -14v-380l91 91q14 12 25 12h67q9 0 13 -8.5t-3 -15.5l-226 -226q-12 -12 -27 1l-218 218q-9 9 -3.5 20t17.5 11h65q7 0 22 -15z" />
    <glyph glyph-name="uni2196.case" 
d="M225 480l268 -269q14 -14 0 -28l-35 -35q-15 -13 -28 0l-267 267v-122q0 -20 -6 -26l-46 -46q-8 -9 -19.5 -4.5t-11.5 16.5v308q0 20 18 20h320q10 0 13 -9t-3 -15l-48 -48q-9 -9 -26 -9h-129z" />
    <glyph glyph-name="uni2197.case" 
d="M65 211l268 269h-128q-17 0 -26 9l-48 48q-6 6 -3 15t13 9h319q18 0 18 -20v-308q0 -12 -11.5 -16.5t-19.5 4.5l-45 46q-6 6 -6 26v122l-267 -267q-15 -14 -29 0l-35 36q-13 14 0 27z" />
    <glyph glyph-name="uni2198.case" 
d="M333 233l-268 269q-13 15 0 28l36 35q13 13 28 0l267 -267v122q0 21 6 27l45 45q8 9 19.5 4.5t11.5 -16.5v-308q0 -20 -18 -20h-319q-10 0 -13 9t3 15l48 48q9 9 26 9h128z" />
    <glyph glyph-name="uni2199.case" 
d="M503 502l-268 -269h129q17 0 26 -9l48 -48q6 -6 3 -15t-13 -9h-320q-18 0 -18 20v308q0 12 11.5 16.5t19.5 -4.5l46 -45q6 -6 6 -27l-1 -122l268 267q15 13 27 1l36 -37q13 -14 0 -27z" />
  </font>
</defs>
</svg>
